<svg xmlns="http://www.w3.org/2000/svg" viewBox="0 0 123.41 123.16"><defs><style>.cls-1{fill:#fefefe;}.cls-2{fill:#020202;}</style></defs><title>Recurso 1</title><g id="Capa_2" data-name="Capa 2"><g id="Capa_1-2" data-name="Capa 1"><path class="cls-1" d="M61.71,123.14q-30.35,0-60.71,0c-.79,0-1-.11-1-1Q0,61.61,0,1c0-.9.23-1,1.06-1Q61.7,0,122.35,0c.82,0,1.06.11,1.06,1q0,60.59,0,121.17c0,.85-.2,1-1,1Q92.06,123.12,61.71,123.14Z"/><path class="cls-2" d="M9.14,61a52.61,52.61,0,0,1,5-23.56,50.81,50.81,0,0,1,7.68-12.09A53.43,53.43,0,0,1,33.32,15.06a52.16,52.16,0,0,1,19.1-7.63A50.77,50.77,0,0,1,65.36,6.8a50.22,50.22,0,0,1,22.72,7.42,56.41,56.41,0,0,1,12.09,10.27A49.51,49.51,0,0,1,106.82,34a55.8,55.8,0,0,1,5.66,15.26,40.65,40.65,0,0,1,1.07,9.27,78.31,78.31,0,0,1-.26,9.31,60.43,60.43,0,0,1-3.79,14.39,50.81,50.81,0,0,1-7.88,13.46,52.06,52.06,0,0,1-32,19,49.14,49.14,0,0,1-12.38.46,50.55,50.55,0,0,1-20.88-6.4A52,52,0,0,1,22.45,97.38a54.17,54.17,0,0,1-12.1-24.16c-.45-2-.71-4-1-6A56.93,56.93,0,0,1,9.14,61Z"/><path class="cls-1" d="M32.95,21.44a21.65,21.65,0,0,0-.5,2.88,12.26,12.26,0,0,0,2.84,7.9c3.72,5,8.85,8.13,14.26,10.88,5,2.54,10.39,4,15.67,5.84,7.63,2.61,15.11,5.58,21.85,10.12a31.83,31.83,0,0,1,7.46,7.08,24.28,24.28,0,0,1,4.2,8.57c1,3.84.67,7.62-.11,11.43a28.05,28.05,0,0,1-5.2,11.52c-2.11,2.76-4.45,5.43-7.87,6.93.13-1.21,1-2,1.23-3.18a15,15,0,0,0-3-12.43c-4-5.34-9.53-8.66-15.46-11.51C61.86,74.35,55,72.25,48.4,69.56a64.38,64.38,0,0,1-16.17-8.92,25.39,25.39,0,0,1-9-12.81,22.35,22.35,0,0,1,.19-12.32,26,26,0,0,1,8.4-13.44A2.2,2.2,0,0,1,32.95,21.44Z"/><path class="cls-1" d="M67.22,83.6a33,33,0,0,1,6.18,4.3c3,2.65,5.5,5.67,6.57,9.6a7.82,7.82,0,0,1-1.1,6.49c-2.48,4-6.55,4.82-10.58,5.72a47.63,47.63,0,0,1-8.17.94A34.92,34.92,0,0,1,50,109.34a50.18,50.18,0,0,1-15.43-6.86,42.21,42.21,0,0,1-8.3-7.14,1.19,1.19,0,0,1-.14-1.65c2-3.66,4.13-7.29,6-11.05.66-1.37,1.17-1.25,2.28-.77a109.19,109.19,0,0,0,11.9,4.44,49.18,49.18,0,0,0,16.63,2.5c2.89-.14,4.34-1.62,4.37-4.51C67.22,84.14,67.22,84,67.22,83.6Z"/><path class="cls-1" d="M56.24,39.07a47.31,47.31,0,0,1-8.93-5.51,23.68,23.68,0,0,1-4.69-4.69,12.07,12.07,0,0,1-2.25-4.67c-.45-2.46.84-4.33,2.46-5.88A16.1,16.1,0,0,1,49,14.9a51.93,51.93,0,0,1,6.65-1.62,31.64,31.64,0,0,1,3.89-.44c2.09,0,6.28-.19,6.28-.19s4.18.31,6.27.55a26.59,26.59,0,0,1,8.71,2,53.61,53.61,0,0,1,11.62,7.15c1.44,1.23,1.47,1.28.58,2.91-2.24,4.11-4.51,8.2-6.8,12.28-.42.75-.57,1.89-1.36,2.14s-1.61-.49-2.43-.78a103.75,103.75,0,0,0-12.18-3.54,36.12,36.12,0,0,0-9.85-.82,6,6,0,0,0-2.85.78C56.24,36.17,56,37.44,56.24,39.07Z"/></g></g></svg>