<svg xmlns="http://www.w3.org/2000/svg" viewBox="0 0 104.44 108.7"><defs><style>.cls-1{fill:#020202;}.cls-2{fill:#fefefe;}</style></defs><title>logo-black</title><g id="Capa_2" data-name="Capa 2"><g id="Capa_1-2" data-name="Capa 1"><path class="cls-1" d="M0,54.34a52.61,52.61,0,0,1,5-23.56,50.81,50.81,0,0,1,7.68-12.09A53.43,53.43,0,0,1,24.2,8.41,52.16,52.16,0,0,1,43.3.78,50.77,50.77,0,0,1,56.23.15,50.22,50.22,0,0,1,79,7.57,56.41,56.41,0,0,1,91,17.84,49.51,49.51,0,0,1,97.7,27.4a55.8,55.8,0,0,1,5.66,15.26,40.65,40.65,0,0,1,1.07,9.27,78.31,78.31,0,0,1-.26,9.31,60.43,60.43,0,0,1-3.79,14.39A50.81,50.81,0,0,1,92.5,89.09a53.1,53.1,0,0,1-14.34,12.49,53.49,53.49,0,0,1-17.69,6.48,49.14,49.14,0,0,1-12.38.46,50.55,50.55,0,0,1-20.88-6.4A52,52,0,0,1,13.33,90.73,54.17,54.17,0,0,1,1.22,66.57c-.45-2-.71-4-1-6A56.93,56.93,0,0,1,0,54.34Z"/><path class="cls-2" d="M23.83,14.79a21.65,21.65,0,0,0-.5,2.88,12.26,12.26,0,0,0,2.84,7.9c3.72,5,8.85,8.13,14.26,10.88,5,2.54,10.39,4,15.67,5.84,7.63,2.61,15.11,5.58,21.85,10.12a31.83,31.83,0,0,1,7.46,7.08,24.28,24.28,0,0,1,4.2,8.57c1,3.84.67,7.62-.11,11.43A28.05,28.05,0,0,1,84.29,91c-2.11,2.76-4.45,5.43-7.87,6.93.13-1.21,1-2,1.23-3.18a15,15,0,0,0-3-12.43c-4-5.34-9.53-8.66-15.46-11.51-6.47-3.12-13.31-5.22-19.93-7.91A64.38,64.38,0,0,1,23.1,54a25.39,25.39,0,0,1-9-12.81,22.35,22.35,0,0,1,.19-12.32,26,26,0,0,1,8.4-13.44A2.2,2.2,0,0,1,23.83,14.79Z"/><path class="cls-2" d="M58.1,77a33,33,0,0,1,6.18,4.3c3,2.65,5.5,5.67,6.57,9.6a7.82,7.82,0,0,1-1.1,6.49c-2.48,4-6.55,4.82-10.58,5.72A47.63,47.63,0,0,1,51,104a34.92,34.92,0,0,1-10.15-1.31,50.18,50.18,0,0,1-15.43-6.86,42.21,42.21,0,0,1-8.3-7.14A1.19,1.19,0,0,1,17,87c2-3.66,4.13-7.29,6-11.05.66-1.37,1.17-1.25,2.28-.77a109.19,109.19,0,0,0,11.9,4.44,49.18,49.18,0,0,0,16.63,2.5c2.89-.14,4.34-1.62,4.37-4.51C58.1,77.49,58.1,77.33,58.1,77Z"/><path class="cls-2" d="M47.12,32.42a47.31,47.31,0,0,1-8.93-5.51,23.68,23.68,0,0,1-4.69-4.69,12.07,12.07,0,0,1-2.25-4.67c-.45-2.46.84-4.33,2.46-5.88a16.1,16.1,0,0,1,6.17-3.43,51.93,51.93,0,0,1,6.65-1.62,31.64,31.64,0,0,1,3.89-.44C52.51,6.15,56.7,6,56.7,6s4.18.31,6.27.55a26.59,26.59,0,0,1,8.71,2A53.61,53.61,0,0,1,83.3,15.76c1.44,1.23,1.47,1.28.58,2.91-2.24,4.11-4.51,8.2-6.8,12.28-.42.75-.57,1.89-1.36,2.14s-1.61-.49-2.43-.78a103.75,103.75,0,0,0-12.18-3.54A36.12,36.12,0,0,0,51.27,28a6,6,0,0,0-2.85.78C47.12,29.52,46.92,30.8,47.12,32.42Z"/></g></g></svg>