<svg xmlns="http://www.w3.org/2000/svg" viewBox="0 0 75.51 30"><defs><style>.cls-1{fill:none;stroke:#119576;stroke-miterlimit:10;stroke-width:2px;}.cls-2{fill:#61937d;}</style></defs><title>Recurso 1</title><g id="Capa_2" data-name="Capa 2"><g id="Capa_1-2" data-name="Capa 1"><circle class="cls-1" cx="60.51" cy="15" r="14"/><circle class="cls-1" cx="15" cy="15" r="14"/><path class="cls-2" d="M59.7,20.91A1.94,1.94,0,0,1,57,21l0,0-4.33-4.44a2.06,2.06,0,0,1,0-2.86,1.94,1.94,0,0,1,2.79,0L58,16.25a.49.49,0,0,0,.7,0l7-7.16a1.94,1.94,0,0,1,2.75,0l0,0a2.06,2.06,0,0,1,0,2.86Z"/></g></g></svg>