<svg width="62" height="43" viewBox="0 0 62 43" xmlns="http://www.w3.org/2000/svg"><title>free-uk</title><desc>Created with Sketch.</desc><g fill="#ffffff"><path d="M46.668 42.509c9.637 0 15.291-8.069 15.291-20.824 0-12.672-5.682-20.685-15.291-20.685-9.581 0-15.346 8.041-15.346 20.713 0 12.755 5.71 20.796 15.346 20.796zm0-5.213c-5.737 0-9.024-5.934-9.024-15.583 0-9.511 3.342-15.5 9.024-15.5 5.682 0 8.996 5.961 8.996 15.5 0 9.677-3.259 15.583-8.996 15.583z"/><path d="M10.201 35.728v-.256c2.304-2.432 3.392-4.8 3.392-8.576 0-.96-.064-1.792-.192-2.688h8.768v-4.736h-9.856c-.576-2.048-1.088-4.032-1.088-6.144 0-4.288 2.368-6.784 6.336-6.784 2.432 0 4.16 1.152 5.76 3.008l4.096-4.032c-2.56-3.072-5.824-4.992-10.496-4.992-7.552 0-12.8 4.736-12.8 12.416 0 2.112.64 4.288 1.344 6.528h-.768l-4.288.32v4.416h6.4c.128.896.256 1.728.256 2.624 0 4.672-2.688 8.576-6.784 10.624v4.544h27.2v-6.272h-17.28z"/></g></svg>
