<svg width="64" height="57" viewBox="0 0 64 57" xmlns="http://www.w3.org/2000/svg"><title>get rewarded</title><desc>Created with Sketch.</desc><g fill="#403E4A"><path d="M30.384 12.682c.616-.068 1.186.473 1.376 2.189.193 1.735-.243 2.407-.858 2.475-.616.068-1.188-.492-1.381-2.227-.191-1.716.247-2.37.863-2.438m.688 6.195c1.754-.195 2.882-1.774 2.61-4.219-.269-2.426-1.714-3.701-3.468-3.506-1.754.195-2.865 1.754-2.596 4.179.272 2.444 1.7 3.74 3.454 3.545"/><path d="M57.375 52.51l-41.32-5.171 1.607-12.839.436-3.483.953-7.612.947.119 4.839.606 22.721 2.843 3.483.436 9.331 1.168-2.996 23.934zm-33.161-31.899l-3.123-.391c-.094-.435-.175-.941-.24-1.53-.36-3.246.286-4.055 1.201-4.156.933-.104 1.723.545 2.083 3.792.105.95.126 1.698.08 2.286zm16.205.628c-.616.068-1.188-.491-1.381-2.227-.193-1.735.247-2.37.863-2.438.616-.068 1.184.454 1.376 2.189.193 1.735-.243 2.407-.858 2.475zm-24.755 1.729l-.901.1c-.56.062-1.373.228-1.961.369 1.698-2.229 3.328-4.563 3.106-6.559-.253-2.276-2.004-3.593-4.337-3.334-1.698.189-2.728.945-3.765 2.326l1.656 1.309c.527-.701 1.115-1.352 1.974-1.447 1.026-.114 1.75.448 1.878 1.605.187 1.679-1.715 3.949-4.42 7.14l.174 1.567 6.299-.699-.759 6.061-8.355.928-2.662-23.974 41.388-4.596 2.19 19.721-6.219-.778c1.544-.36 2.501-1.883 2.249-4.155-.269-2.426-1.714-3.701-3.468-3.506-1.754.195-2.884 1.756-2.615 4.182.178 1.604.864 2.709 1.81 3.226l-4.652-.582 4.504-11.669-1.567.174-4.382 11.314-6.139-.768c.14-.835.159-1.798.038-2.884-.447-4.03-2.376-5.913-4.913-5.631-2.538.282-4.006 2.542-3.558 6.572.035.314.08.615.132.904l-.609-.076c-.936-.118-1.788.546-1.905 1.481l-.21 1.681zm47.958 3.079c-.278-.357-.686-.59-1.135-.646l-11.836-1.481-2.468-22.23c-.05-.45-.277-.862-.63-1.144-.353-.283-.806-.414-1.254-.364l-44.781 4.973c-.45.05-.862.276-1.144.63-.283.353-.414.805-.364 1.255l3.039 27.366c.097.873.836 1.518 1.694 1.518l.191-.011 9.239-1.026-1.717 13.721c-.056.449.068.902.346 1.26.278.357.686.589 1.135.646l44.707 5.595.214.013c.848 0 1.583-.632 1.691-1.495l3.419-27.321c.056-.449-.068-.902-.346-1.26z"/><path d="M27.332 33.425l.33-2.635-2.012-.252c-.901.398-1.763.631-3.079.712l-.212 1.695 2.217.277-.065.516-.791 6.321-2.571-.322-.278 2.217 7.526.942.278-2.217-2.217-.277.873-6.977z"/><path d="M35.962 37.789c-.403 3.223-1.216 3.972-2.147 3.856-.913-.114-1.534-1.043-1.131-4.266.406-3.241 1.223-3.877 2.136-3.763.931.116 1.548.932 1.143 4.173m1.131-5.447c-.548-.466-1.226-.751-2.008-.849-1.399-.175-2.621.314-3.52 1.463-.729.932-1.246 2.297-1.471 4.099-.503 4.023.921 6.397 3.454 6.714 2.533.317 4.499-1.632 5.003-5.655.348-2.781-.231-4.729-1.459-5.771"/><path d="M41.946 35.927c.215-1.714.792-2.247 1.407-2.17.615.077 1.043.736.829 2.45-.217 1.732-.797 2.284-1.412 2.207-.615-.077-1.041-.755-.824-2.487m4.154.52c.303-2.422-.805-3.998-2.556-4.217-1.751-.219-3.195 1.038-3.498 3.46-.305 2.44.782 4.033 2.533 4.252 1.751.219 3.216-1.054 3.521-3.495"/><path d="M42.397 44.875l1.583.198 8.114-11.774-1.565-.196z"/><path d="M52.531 42.208c-.217 1.732-.797 2.284-1.412 2.207-.615-.077-1.041-.755-.824-2.487.217-1.732.792-2.247 1.407-2.17.615.077 1.046.717.829 2.45m-4.154-.52c-.305 2.44.8 4.036 2.551 4.255 1.751.219 3.216-1.055 3.521-3.495.303-2.422-.805-3.998-2.556-4.218-1.751-.219-3.214 1.036-3.517 3.458"/></g></svg>