<svg width="64" height="64" viewBox="0 0 64 64" xmlns="http://www.w3.org/2000/svg"><title>hassle free</title><desc>Created with Sketch.</desc><g fill="none"><path opacity=".5" d="M0 4h64v56h-64z"/><path d="M32.008 54.28l-.321-.239c-15.687-12.041-25.687-22.254-25.687-29.833 0-6.599 2.823-11.641 7.585-13.488 1.246-.484 3.536-.72 4.824-.72 3.083 0 6.15 1.35 8.552 3.885l.172.163c.015.013 1.468 1.3 2.874 4.514.344.784 1.128 1.295 1.997 1.295.87 0 1.655-.508 1.999-1.293 3.1-7.064 10.135-9.283 14.738-8.341 4.494.917 9.259 5.07 9.259 13.983 0 7.576-10.259 17.792-25.663 29.826l-.33.246zm.008-42.424c-.982-1.396-1.796-2.165-2.127-2.452-4.987-5.008-12.28-6.72-18.604-4.356-7.067 2.64-11.285 9.49-11.285 18.323 0 14.211 21.667 29.754 28.787 34.861.712.512 1.45 1.04 1.625 1.189.45.385 1.018.578 1.587.578.568 0 1.138-.193 1.589-.579.175-.149.915-.681 1.632-1.195 7.119-5.107 28.781-20.651 28.781-34.854 0-9.923-5.459-17.405-13.905-19.062-5.896-1.15-13.285.86-18.079 7.547z" fill="#403E4A"/></g></svg>