<?xml version="1.0" encoding="utf-8"?>
<!-- Generator: Adobe Illustrator 21.1.0, SVG Export Plug-In . SVG Version: 6.00 Build 0)  -->
<svg version="1.1" id="Capa_1" xmlns="http://www.w3.org/2000/svg" xmlns:xlink="http://www.w3.org/1999/xlink" x="0px" y="0px"
	 viewBox="0 0 44 44" style="enable-background:new 0 0 44 44;" xml:space="preserve">
<style type="text/css">
	.st0{fill:#2E3B4E;}
	.st1{fill:#838384;}
</style>
<path class="st0" d="M35.9,34.4c-0.3,0.9-1.2,1.6-2.2,1.6H10.3C9,36,8,35,8,33.7V10.3C8,10,8.1,9.7,8.2,9.4c0.1-0.3,0.3-0.5,0.5-0.7
	c0.2-0.3,0.6-0.4,0.9-0.6C7.2,6,4.8,4,2.4,2C2.2,2.1,2,2.3,1.8,2.5c-0.4,0.5-0.7,1-0.9,1.3C0.7,4.2,0.5,4.6,0.3,5.2
	C0.2,5.7,0,6.4,0,7.4v29.3C0,40.7,3.3,44,7.4,44h29.3c2.1,0,4-0.9,5.4-2.4C40,39.2,38,36.8,35.9,34.4z"/>
<path class="st1" d="M36.7,0H7.4C6.6,0,5.9,0.1,5.2,0.3C4.9,0.4,4.7,0.5,4.6,0.5C4.1,0.7,3.6,1,2.9,1.5C2.8,1.6,2.6,1.8,2.4,2
	C4.8,4,7.2,6,9.6,8.1C9.8,8.1,10.1,8,10.3,8h23.4C35,8,36,9,36,10.3v23.4c0,0.3-0.1,0.5-0.1,0.8c2.1,2.4,4.2,4.8,6.2,7.2
	c1.2-1.3,2-3.1,2-5V7.4C44,3.3,40.7,0,36.7,0z"/>
<g id="Capa_2">
	<g id="Capa_3">
	</g>
	<g>
		<path class="st1" d="M25.6,19.1C25.1,17,23.9,16,22,16c-2.7,0-4.3,2.2-4.3,5.9c0,3.7,1.7,5.9,4.5,5.9c1.2,0,2.3-0.5,2.9-1.4
			c0.4-0.5,0.5-1,0.7-1.9l4.7,0.7c-0.4,1.9-0.9,3-1.9,4.1c-1.4,1.6-3.6,2.5-6.3,2.5c-2.7,0-5.1-0.9-6.7-2.5
			c-1.7-1.7-2.6-4.3-2.6-7.3c0-3.1,0.9-5.6,2.7-7.4c1.6-1.5,3.8-2.3,6.5-2.3c2.9,0,5.2,1,6.6,2.9c0.7,0.9,1.1,1.8,1.4,3.1L25.6,19.1
			z"/>
	</g>
</g>
</svg>
