<?xml version="1.0" encoding="utf-8"?>
<!-- Generator: Adobe Illustrator 21.1.0, SVG Export Plug-In . SVG Version: 6.00 Build 0)  -->
<svg version="1.1" id="Capa_1" xmlns="http://www.w3.org/2000/svg" xmlns:xlink="http://www.w3.org/1999/xlink" x="0px" y="0px"
	 viewBox="0 0 44 44" style="enable-background:new 0 0 44 44;" xml:space="preserve">
<style type="text/css">
	.st0{fill:#2E3B4E;}
	.st1{fill:#838384;}
</style>
<path class="st0" d="M35.9,34.4c-0.3,0.9-1.2,1.6-2.2,1.6H10.3C9,36,8,35,8,33.7V10.3C8,10,8.1,9.7,8.2,9.4c0.1-0.3,0.3-0.5,0.5-0.7
	c0.2-0.3,0.6-0.4,0.9-0.6C7.2,6,4.8,4,2.4,2C2.2,2.1,2,2.3,1.8,2.5c-0.4,0.5-0.7,1-0.9,1.3C0.7,4.2,0.5,4.6,0.3,5.2
	C0.2,5.7,0,6.4,0,7.4v29.3C0,40.7,3.3,44,7.4,44h29.3c2.1,0,4-0.9,5.4-2.4C40,39.2,38,36.8,35.9,34.4z"/>
<path class="st1" d="M36.7,0H7.4C6.6,0,5.9,0.1,5.2,0.3C4.9,0.4,4.7,0.5,4.6,0.5C4.1,0.7,3.6,1,2.9,1.5C2.8,1.6,2.6,1.8,2.4,2
	C4.8,4,7.2,6,9.6,8.1C9.8,8.1,10.1,8,10.3,8h23.4C35,8,36,9,36,10.3v23.4c0,0.3-0.1,0.5-0.1,0.8c2.1,2.4,4.2,4.8,6.2,7.2
	c1.2-1.3,2-3.1,2-5V7.4C44,3.3,40.7,0,36.7,0z"/>
<g id="Capa_2">
	<g id="Capa_3">
	</g>
	<path class="st1" d="M12.7,21.5c0.1-0.3,0.3-0.7,0.3-1c0.6-3.9,4-6.9,8.4-7.1c3.9-0.1,7.1,2.2,8.4,5.9c0,0.1,0,0.2,0,0.3
		c-1.6,0.6-3,0.3-4.2-1c-1.6-1.7-3.6-2.3-5.8-1.5c-2,0.7-3.3,2.5-3.3,4.5c-0.1,2.4,1.1,4.2,3.1,5.1c1.9,0.8,4.3,0.5,5.7-1.1
		c1.3-1.4,2.7-1.8,4.7-1.4c-0.1,0.3-0.1,0.7-0.2,0.9c-1.3,3-4.3,5.9-9.6,5.2c-3.4-0.4-6.5-3.5-7.1-7.2c0-0.3-0.2-0.5-0.3-0.8
		C12.7,22.1,12.7,21.8,12.7,21.5z"/>
</g>
</svg>
