<svg id="Capa_1" data-name="Capa 1" xmlns="http://www.w3.org/2000/svg" viewBox="0 0 110 110"><defs><style>.cls-1{fill:#fefefe;}.cls-2{fill:#fe9c2c;}</style></defs><title>Mesa de trabajo 1</title><path class="cls-1" d="M-6.26,55.71q0-30.29,0-60.59c0-.9.23-1,1.06-1q60.41,0,120.81,0c.82,0,1.06.11,1.06,1q0,60.59,0,121.17c0,.85-.21,1-1,1q-60.47,0-120.93,0c-1,0-1-.35-1-1.09Q-6.25,85.94-6.26,55.71Z"/><path class="cls-2" d="M107.25,54.6a53,53,0,0,1-5,24,52.31,52.31,0,0,1-7.67,12.1,52.08,52.08,0,0,1-19.33,14.54,51.31,51.31,0,0,1-24.16,4,46.6,46.6,0,0,1-15-3.53,49.62,49.62,0,0,1-13-7.6A55.67,55.67,0,0,1,10.63,83.87,57.62,57.62,0,0,1,3.92,66.76a38.88,38.88,0,0,1-1.06-8.43,77.09,77.09,0,0,1,.24-10.15A60.1,60.1,0,0,1,6.9,33.79a50.79,50.79,0,0,1,7.88-13.46A52,52,0,0,1,29,7.91a51.31,51.31,0,0,1,15-6A47.2,47.2,0,0,1,52.58.83,53.53,53.53,0,0,1,68.32,2.49,55.2,55.2,0,0,1,81.68,8.25,53.46,53.46,0,0,1,93.87,18.58a49.94,49.94,0,0,1,6.66,9.56,55.55,55.55,0,0,1,5.66,15.26A40.21,40.21,0,0,1,107.25,54.6Z"/><path class="cls-1" d="M79,98.81a11.78,11.78,0,0,0,1.83-6,16.22,16.22,0,0,0-4.18-10.85c-4.08-4.71-9.25-7.82-14.83-10.48-6.41-3.05-13.17-5.13-19.72-7.8A64.67,64.67,0,0,1,26,54.8a25.46,25.46,0,0,1-9.12-12.89,22.35,22.35,0,0,1,.2-12.32,25.85,25.85,0,0,1,8.41-13.43,5.72,5.72,0,0,1,.56-.44,2.2,2.2,0,0,1,.45-.17c.28.46,0,.84-.13,1.24-.81,3.64.5,6.7,2.62,9.53,3.71,5,8.84,8.14,14.26,10.88,5,2.53,10.39,4,15.67,5.83,7.63,2.61,15.12,5.57,21.85,10.12a32,32,0,0,1,7.09,6.61,24.44,24.44,0,0,1,4.54,8.92c1.08,3.91.68,7.76-.13,11.65a28.07,28.07,0,0,1-5.09,11.32C85.07,94.47,82.7,97.16,79,98.81Z"/><path class="cls-1" d="M61,77.73a34.09,34.09,0,0,1,5.66,3.88c3.19,2.73,5.87,5.85,7,10a7.78,7.78,0,0,1-1.09,6.49C70.11,102,66,102.9,62,103.81a47.72,47.72,0,0,1-8.05.94A34.51,34.51,0,0,1,44,103.52a50.3,50.3,0,0,1-15.78-6.95A42.11,42.11,0,0,1,20,89.44a1.19,1.19,0,0,1-.14-1.65c2-3.66,4.13-7.29,6-11.05.66-1.36,1.16-1.26,2.28-.78a107.54,107.54,0,0,0,12,4.48,49.45,49.45,0,0,0,16.39,2.48c3-.13,4.43-1.58,4.49-4.52C60.94,78.21,61,78,61,77.73Z"/><path class="cls-1" d="M57.63,6.56c3,.48,6.14.42,9.2.92a28.81,28.81,0,0,1,7.1,1.71A54.82,54.82,0,0,1,84.06,14.9c1,.69,1.89,1.43,2.85,2.13.65.48.73.91.29,1.68q-3.93,6.93-7.73,13.93c-.78,1.43-.71,1.45-2.22.87A83.47,83.47,0,0,0,61.16,29a23.27,23.27,0,0,0-8.32-.07c-2.12.41-2.84,1.22-2.92,3.38,0,.82-.36.72-.86.45a47,47,0,0,1-9.76-6.56,17.11,17.11,0,0,1-5-7.2A5.22,5.22,0,0,1,35,14.29a12,12,0,0,1,5.05-4.17,33.67,33.67,0,0,1,7.54-2.4,34.33,34.33,0,0,1,6.45-.85C55.26,6.83,56.43,6.51,57.63,6.56Z"/></svg>