<svg xmlns="http://www.w3.org/2000/svg" viewBox="0 0 563.49 116.32"><defs><style>.cls-1{fill:#050505;}.cls-2,.cls-3,.cls-4{fill:#fff;}.cls-3{opacity:0.68;}.cls-3,.cls-4{isolation:isolate;}.cls-4{opacity:0.7;}</style></defs><title>Mesa de trabajo 1</title><g id="Capa_2" data-name="Capa 2"><rect class="cls-1" width="563.49" height="116.32" rx="36.47" ry="36.47"/></g><g id="Capa_1" data-name="Capa 1"><g id="Capa_5" data-name="Capa 5"><path class="cls-2" d="M382.74,31H360.49a3.09,3.09,0,0,0-3,2.61l-9,57.05A1.85,1.85,0,0,0,350,92.78l.29,0h11.42a2.16,2.16,0,0,0,2.14-1.8l2.55-16.17a3.09,3.09,0,0,1,3-2.61h7c14.65,0,23.11-7.09,25.32-21.15,1-6.15,0-11-2.84-14.36C395.8,33,390.19,31,382.74,31Zm2.57,20.84c-1.22,8-7.32,8-13.22,8h-3.36l2.35-14.91a1.86,1.86,0,0,1,1.83-1.57h1.54c4,0,7.81,0,9.77,2.29,1.18,1.35,1.53,3.41,1.09,6.21Z"/><path class="cls-2" d="M224,31H201.8a3.09,3.09,0,0,0-3.05,2.61l-9,57.05a1.86,1.86,0,0,0,1.56,2.12l.27,0H202.2a3.09,3.09,0,0,0,3.05-2.61l2.43-15.39a3.09,3.09,0,0,1,3.05-2.61h7c14.66,0,23.11-7.09,25.32-21.15,1-6.15,0-11-2.84-14.36C237.1,33,231.49,31,224,31Zm2.57,20.84c-1.22,8-7.32,8-13.21,8H210l2.35-14.91a1.85,1.85,0,0,1,1.83-1.57h1.54c4,0,7.81,0,9.76,2.29,1.22,1.35,1.58,3.41,1.14,6.21Z"/><path class="cls-2" d="M290.55,51.61H279.9a1.86,1.86,0,0,0-1.83,1.57l-.47,3-.74-1.08c-2.31-3.35-7.45-4.47-12.59-4.47-11.77,0-21.83,8.92-23.78,21.43-1,6.24.43,12.21,4,16.37,3.25,3.82,7.89,5.42,13.42,5.42a20.4,20.4,0,0,0,14.75-6.1l-.48,3a1.85,1.85,0,0,0,1.61,2.07h9.81a3.09,3.09,0,0,0,3-2.61l5.76-36.47a1.85,1.85,0,0,0-1.54-2.12ZM275.7,72.35a11.88,11.88,0,0,1-12,10.17,8.25,8.25,0,0,1-8.82-10.36,11.92,11.92,0,0,1,11.94-10.25,9,9,0,0,1,7.1,2.9A9.18,9.18,0,0,1,275.7,72.35Z"/><path class="cls-2" d="M449.25,51.61H438.59a1.85,1.85,0,0,0-1.83,1.57l-.47,3-.74-1.08c-2.31-3.35-7.45-4.47-12.58-4.47-11.77,0-21.83,8.92-23.78,21.43-1,6.24.43,12.21,4,16.37,3.25,3.82,7.89,5.42,13.42,5.42a20.4,20.4,0,0,0,14.75-6.1l-.48,3a1.85,1.85,0,0,0,1.54,2.12l.29,0h9.6a3.09,3.09,0,0,0,3-2.61l5.76-36.47a1.85,1.85,0,0,0-1.87-2.2ZM434.4,72.35a11.88,11.88,0,0,1-12,10.17,8.25,8.25,0,0,1-8.82-10.36,11.92,11.92,0,0,1,11.94-10.25,9,9,0,0,1,7.1,2.9A9.18,9.18,0,0,1,434.4,72.35Z"/><path class="cls-2" d="M347.3,51.61H336.59A3.1,3.1,0,0,0,334,53L319.26,74.72,313,53.81a3.09,3.09,0,0,0-3-2.21H299.51a1.86,1.86,0,0,0-1.76,2.45l11.79,34.61-11.09,15.65a1.86,1.86,0,0,0,1.51,2.93h10.7a3.09,3.09,0,0,0,2.54-1.33l35.61-51.4a1.85,1.85,0,0,0-1.51-2.9Z"/><path class="cls-2" d="M461.81,32.59l-9.13,58.1a1.85,1.85,0,0,0,1.54,2.12l.29,0h9.18a3.09,3.09,0,0,0,3-2.61l9-57a1.85,1.85,0,0,0-1.5-2.14l-.32,0H463.64A1.85,1.85,0,0,0,461.81,32.59Z"/><path class="cls-3" d="M146.1,34c1.2-7.64,0-12.83-4.14-17.54-4.55-5.18-12.76-7.4-23.28-7.4H88.17a4.36,4.36,0,0,0-4.31,3.69L71.15,93.33a2.62,2.62,0,0,0,2.21,3l.38,0H92.57l-1.3,8.25a2.29,2.29,0,0,0,1.9,2.62l.36,0h15.88a3.82,3.82,0,0,0,3.77-3.22l.16-.81,3-19,.19-1A3.82,3.82,0,0,1,120.3,80h2.38c15.38,0,27.43-6.25,31-24.32,1.47-7.55.71-13.86-3.18-18.29A15.13,15.13,0,0,0,146.1,34h0"/><path class="cls-4" d="M146.1,34c1.2-7.64,0-12.83-4.14-17.54-4.55-5.18-12.76-7.4-23.28-7.4H88.17a4.36,4.36,0,0,0-4.31,3.69L71.15,93.33a2.62,2.62,0,0,0,2.21,3l.38,0H92.57l4.73-30-.15.94a4.35,4.35,0,0,1,4.3-3.69h9c17.58,0,31.35-7.14,35.38-27.8.12-.61.22-1.2.31-1.78"/><path class="cls-2" d="M102.39,34.12a3.82,3.82,0,0,1,3.77-3.22h23.92a49.88,49.88,0,0,1,7.89.58q1,.17,2,.38t1.9.49l.9.28A21.54,21.54,0,0,1,146.1,34c1.2-7.64,0-12.83-4.14-17.54-4.55-5.18-12.77-7.4-23.28-7.4H88.17a4.36,4.36,0,0,0-4.31,3.69L71.15,93.33a2.62,2.62,0,0,0,2.21,3l.38,0H92.57l4.73-30Z"/></g></g></svg>