<svg width="64" height="64" viewBox="0 0 64 64" xmlns="http://www.w3.org/2000/svg"><title>peace of mind</title><desc>Created with Sketch.</desc><path d="M34.639 57.615v-23.374h19.157c-1.788 11.491-13.35 19.848-19.157 23.374m-24.018-26.151v-23.085c2.398 2.057 5.71 3.988 9.699 3.988 4.126 0 7.372-1.795 9.698-3.777v49.023c-6.266-3.808-19.238-13.242-19.397-26.149m33.716-19.097c3.988 0 7.3-1.929 9.697-3.986-.003 7.706-.006 17.011-.009 21.24h-19.386v-21.031c2.326 1.983 5.572 3.777 9.698 3.777m14.305 19.554c.002-.484.007-3.884.015-29.609 0-1.029-.681-1.932-1.669-2.218-.989-.287-2.048.118-2.598.988-.042.067-4.276 6.664-10.053 6.664-6.155 0-9.796-6.219-9.974-6.53l-.162-.254-.038-.051-.165-.195-.017-.018-.22-.197-.011-.008-.242-.165-.003-.002c-.345-.205-.746-.324-1.176-.324-.751 0-1.416.36-1.838.914l-.031.041-.148.23-.007.011-.007.012v.001c-.149.261-3.794 6.536-9.977 6.536-5.777 0-10.011-6.597-10.05-6.659-.546-.874-1.606-1.282-2.596-.997-.991.284-1.674 1.19-1.674 2.221v29.193c.232 19.75 24.236 31.601 25.318 32.125l.039.016.162.068.072.026.172.05.069.018.186.032.061.009.248.014h.002l.249-.014.051-.008.196-.033.059-.015.182-.052.064-.023.168-.07.035-.015c1.007-.486 24.676-12.126 25.309-31.625l.001-.063.001-.013-.001-.01" fill="#403E4A"/></svg>