<?xml version="1.0" ?><!DOCTYPE svg  PUBLIC '-//W3C//DTD SVG 1.1//EN'  'http://www.w3.org/Graphics/SVG/1.1/DTD/svg11.dtd'><svg enable-background="new 0 0 30 30" height="30px" id="Apple" version="1.1" viewBox="0 0 30 30" width="30px" xml:space="preserve" xmlns="http://www.w3.org/2000/svg" xmlns:xlink="http://www.w3.org/1999/xlink"><path d="M23,16c-0.041-3.797,2.858-5.912,3-6c-1.767-2.577-4.022-2.959-5-3c-2.337-0.233-4.816,1.998-6,2  c-1.184,0.001-3.063-2.039-5-2c-2.547,0.04-4.69,1.72-6,4c-2.638,4.595-0.582,11.279,2,15c1.263,1.818,3.025,4,5,4  c2.042,0,1.704-0.997,4-1s3,1,5,1c2.045,0,3.751-1.172,5-3c1.444-2.116,1.965-4.895,2-5C26.955,21.979,23.047,20.538,23,16"/><path d="M19,5c1.048-1.269,2.163-3.243,1.97-5c-1.508,0.062-3.335,1.005-4.418,2.272C15.581,3.396,14.771,5.278,15,7  C16.682,7.131,17.952,6.268,19,5"/></svg>