<svg xmlns="http://www.w3.org/2000/svg" viewBox="0 0 9.15 7.35"><defs><style>.cls-1,.cls-2,.cls-3{fill:none;stroke:#ff9d2c;stroke-width:0.75px;}.cls-2,.cls-3{stroke-linecap:round;}.cls-2{stroke-linejoin:round;}</style></defs><title>bell-icon</title><g id="Capa_2" data-name="Capa 2"><g id="Capa_1-2" data-name="Capa 1"><path class="cls-1" d="M3.68,6.17V5.78h1.8v.39a.93.93,0,0,1-.9.81A.93.93,0,0,1,3.68,6.17Z"/><path class="cls-2" d="M4.07,2A1.76,1.76,0,0,0,2.78,3.71v1.2l-.6.3v.6H7V5.2l-.6-.3V3.7A1.73,1.73,0,0,0,5.08,2l.09-1H4l.09,1Z"/><path class="cls-3" d="M7.55,3.68A3.37,3.37,0,0,0,6,1m2.73,2.7A3.88,3.88,0,0,0,7.12.38M.38,3.68A3.88,3.88,0,0,1,2,.38m-.45,3.3A3.37,3.37,0,0,1,3.08,1"/></g></g></svg>