<svg xmlns="http://www.w3.org/2000/svg" viewBox="0 0 393.83 431.59"><defs><style>.cls-1{fill:none;stroke:#646769;stroke-miterlimit:10;stroke-width:5px;}.cls-2{fill:#666;}.cls-3{fill:#fff;}</style></defs><title>bhp_1</title><g id="Capa_2" data-name="Capa 2"><g id="Capa_1-2" data-name="Capa 1"><g id="Y5VEru.tif"><path class="cls-1" d="M37.19,246.4c-1.25,4.91-.63,8.15,1.94,11.54,17,22.45,33.71,45.06,49.93,68.21-3.22-3.16-6.49-6.28-9.66-9.49-15.12-15.27-30.3-30.49-45.26-45.92a53.2,53.2,0,0,1-8.22-11.22c-4.93-8.93-4-17.55,3-25.46C25,228.95,21.05,224,17.22,219c-8.48-11.12-7.82-29.4,1.51-39.88C24.26,172.89,30,166.84,36,160.26l22.65,20.92c-4.31,5.55-8.48,11.08-12.84,16.45-1.81,2.23-2.22,3.82-.24,6.41q32.4,42.53,64.56,85.25c.48.64,1.07,1.19,1.83,2,5.14-5.33,7.67-10.06,5.9-18.38-2.94-13.87-9.47-24-20.63-32.46C84.4,230.72,72.63,219.56,60.4,209c-4.17-3.6-5.79-10.78-3.38-15.66,1.32-2.67,2.91-5.21,4.61-8.21l27.82,16.28.68-1c-4.42-3.91-8.82-7.84-13.27-11.71-13.19-11.49-26.34-23-39.66-34.36-2.89-2.46-3.59-4.28-1.55-7.83A323.26,323.26,0,0,0,51.3,115.74l-25,29.1-6.13-5.47L80.41,70.59,100.08,88.8l12.44-13.93L137.42,96l-3,5.85H156.1l.66,9.05h21.16l.45-9.21h35.24l.45,9h21.5l.64-8.64h22.1l-3.38-5.91,25.31-21.25,12.62,14,19.83-18.28,60.93,68.76-6,5.63-25.69-29.36-.63.36,18.92,35-57.39,49.47.71,1.05L332,184.91c1.8,4.05,4.2,7.75,5,11.78,1.18,5.63-.93,10.08-5.84,14.06-16.29,13.23-32.1,27.05-48.05,40.7-1.22,1-2.65,2.32-3.07,3.75-2.38,8.15-4.52,16.36-6.61,24.59a4.42,4.42,0,0,0,.62,3.22c2,2.83,4.19,5.48,6.69,8.68l69.4-90.77-15.46-19.69,22.92-21c9.84,12,24,20.64,24.87,38.41.35,7.47-1,14.21-5.71,20.14-3.94,4.95-7.82,9.94-11.7,14.87,8.34,15.19,7.63,23.44-4.63,36.06q-28.11,29-57.65,56.62,9.54-12.67,19.08-25.34c11-14.63,22.19-29.17,33-44,1.78-2.44,1.93-6.07,2.83-9.15l-2.93-2a51.82,51.82,0,0,1-3.22,5.45Q320.32,292.22,289,333.1a11.17,11.17,0,0,0-2.05,5.83c-1.13,20-16.83,35.25-36.94,35.3-36,.09-72-.34-108,.21-13.86.21-34.8-14.46-35-29.73-.06-6.29-3-11.75-7.06-17-19.49-25.15-38.55-50.63-57.81-76C40.91,250,39.22,248.55,37.19,246.4ZM247,243.85c-6.44-1.81-7.17-3-4.46-9.16a79.7,79.7,0,0,0,5.62-48.82c-4.71-23.8-17.6-37.84-39.42-42.4-30.18-6.31-55,9.43-62.2,39.31a78.27,78.27,0,0,0,4.62,51.27c.9,2,1.87,4.71,1.24,6.57-.53,1.58-3.3,2.41-5.2,3.65.2.52.42,1.13.68,1.74,1.49,3.53,3.13,7,4.46,10.59,1.45,3.9,3.7,4.08,7,2.18a46,46,0,0,1,7.64-3.64c8-2.83,8.78-4.46,5.6-12.51-.67-1.7-1.41-3.38-2-5.11-6.6-18.89-8-38.07-2.6-57.46,3.52-12.74,16-22,29.08-21.95s25.62,9.24,29,22a101.92,101.92,0,0,1,3,18.67c1.21,16.27-2.35,31.73-8.64,46.7-2,4.76-.75,6.76,4.11,8.81,3.67,1.55,7.34,3.12,10.89,4.91,2.81,1.42,4.68,1.09,5.92-2C243.13,252.72,245.07,248.31,247,243.85Zm33.68-18c7.53-9.93,12.07-21.2,10.64-33.74-3.54-31-20.76-52.28-48.75-65a58.22,58.22,0,0,0-28.28-4.94C265,135.84,293.86,172.32,280.64,225.88Zm-168.22.4c-5.32-23.35-5.5-46.08,8.66-66.72,13.78-20.09,33.79-31.06,56.9-37.32a8.68,8.68,0,0,0-3.06-.36c-34.28.75-67.37,29.7-72.82,63.74C99.7,200.63,103.22,214.16,112.42,226.27Zm11.81-25.06a8.81,8.81,0,1,0,.39,17.62,9.15,9.15,0,0,0,8.44-8.79A8.87,8.87,0,0,0,124.24,201.21Zm144,0a8.81,8.81,0,1,0,.43,17.61,8.81,8.81,0,0,0-.43-17.61Zm5.11-25.33a6.9,6.9,0,0,0-6.9-7,7.17,7.17,0,0,0-7.31,7.22,7.55,7.55,0,0,0,7.27,6.87A7.17,7.17,0,0,0,273.35,175.87Zm-146.93-7a7.07,7.07,0,0,0-7.22,6.69,7.46,7.46,0,0,0,6.68,7.38,7.09,7.09,0,0,0,7.36-7.07A6.81,6.81,0,0,0,126.42,168.87Zm9.16-14.44c.22.37.63,1.81,1.56,2.36.6.35,2.2-.35,3-1a62.05,62.05,0,0,0,7.3-7.33c.87-1.1,1.28-4.06.65-4.55a7,7,0,0,0-5.24-1.18C138.88,143.64,135.51,149.13,135.58,154.43Zm119.16,3.87c3.77-6.8-.6-15.68-6.54-16.13-3.22-.24-5.86,2.46-4.2,4.58C247.14,150.78,250.94,154.28,254.75,158.3Zm-90.81-22.63,14.19-2.74C172.51,127.61,167.1,128.71,163.94,135.66Zm63.4-.28.38-1.63c-3.92-5.47-9.24-6.14-13.24-.53Z"/><path class="cls-1" d="M119.27,382.3c8.12,5.61,16.42,6.12,24.8,6.13q45.5.08,91,0c6.66,0,13.41.41,20-.46,5.91-.79,11.62-3.08,17.68-4.78a3.27,3.27,0,0,1,.2,1.64c-.59,9.64-.87,19.32-2,28.9S262.94,429,253.2,429q-9.25,0-18.5-.06a11,11,0,0,1-1.64-.39V406.31h-18.8v22.37H178.07V406.42h-18.6v22.33c-8.89,0-17.44.92-25.68-.29-6.64-1-11-6.61-11.79-13.4C120.68,404.19,120.14,393.23,119.27,382.3Z"/><path class="cls-2" d="M313.46,56.55c5.45-4.79,11.4-5.64,17.7-5.16a37.17,37.17,0,0,1,5.9,1.06C363.86,59,390.7,89.62,393.63,117c.87,8.13-1.17,14.61-6.48,19.93Zm14,4.8-.21,1.42c24.18,13.85,44.2,31.49,54.11,58.94,1.28-4.31,2.43-8.54,2-12.6C381.07,88.11,359,66.24,336.08,62A78.78,78.78,0,0,0,327.47,61.36Z"/><path class="cls-2" d="M6.63,137.23c-7.21-8.18-7.82-17.3-5.23-26.35C9.49,82.66,27.07,62.76,55,52.92,63.29,50,71.7,50.1,79.77,56.44ZM67,61a41,41,0,0,0-5.37-.25c-21.3,1.72-45.55,22.88-50.22,43.73-1.45,6.47-.57,12.19,2.55,15.84C23.2,93.06,43.07,75.58,67,61Z"/><path class="cls-2" d="M256.88,58.54c-16.25-12-9.1-29.38-11.11-45.19h7.51c0,6.94.36,13.89-.1,20.79s2,12.27,7,16.77c2.59,2.33,5,4.85,8,7.72L241.71,82C229.4,69.74,218.57,57.31,220,38.4c.61-8.23.1-16.55.1-25.14H239.3c0,6.62.68,13.14-.14,19.46-1.6,12.33,5.21,20.07,13.52,27.18.84.72,2.67.27,4,.36Z"/><path class="cls-2" d="M153,13.19H172.2c-1.85,16.54,4,33.61-5.51,48.91-4.44,7.11-10.12,13.44-15.49,20.47l-27.4-24.51c3.77-3.33,7.23-6.19,10.47-9.29a15.8,15.8,0,0,0,4.92-12.58c-.25-7.46-.06-14.93-.06-22.82h7.62c-.51,10.54-.19,21.21-1.86,31.56-.82,5.07-5.32,9.55-8.67,15.15.5,1.08,1.65,1.67,4.07-.42,8.61-7.43,14.39-15.83,12.81-28.06C152.33,25.72,153,19.67,153,13.19Z"/><path class="cls-2" d="M204.12,82.75c7.88,2.34,13.1,6.64,15.26,14.75H172.71c1.67-6.58,5.26-11.09,11.23-13.24,3.11-1.12,3.88-2.74,3.7-5.85-.3-5.11-.08-10.25-.08-15.77h16.56Z"/><path class="cls-2" d="M266.31.13c-3,3.4-5.43,6.57-8.34,9.21A8.66,8.66,0,0,1,252.63,11c-11.31.15-22.63-.12-33.94.18-4.15.11-7-.94-8.89-4.66A68.56,68.56,0,0,0,205.52.13Z"/><path class="cls-2" d="M126.13,0H186.6c-2.5,3.57-4.58,6.88-7.06,9.85-.75.9-2.64,1.15-4,1.16-12.16.08-24.32.13-36.48-.06A8.42,8.42,0,0,1,134,8.73C131.33,6.29,129.12,3.39,126.13,0Z"/><path class="cls-2" d="M276.29,58.54l7.09,8.5L247.93,98.32l-6.53-9.55Z"/><path class="cls-2" d="M151,88.8l-6.33,9.41c-1.28-1-2.33-1.81-3.31-2.68-10.52-9.37-21-18.75-31.83-28.4l6.92-8.64Z"/><path class="cls-3" d="M247,243.85c-1.89,4.46-3.83,8.88-5.64,13.34-1.24,3.08-3.11,3.41-5.92,2-3.56-1.79-7.22-3.36-10.89-4.91-4.85-2.05-6.11-4.05-4.11-8.81,6.29-15,9.85-30.43,8.64-46.7a101.92,101.92,0,0,0-3-18.67c-3.4-12.72-16-22-29-22s-25.56,9.21-29.08,21.95c-5.36,19.4-4,38.57,2.6,57.46.6,1.73,1.35,3.41,2,5.11,3.18,8.05,2.39,9.68-5.6,12.51a46,46,0,0,0-7.64,3.64c-3.26,1.89-5.52,1.72-7-2.18-1.33-3.59-3-7.06-4.46-10.59-.26-.6-.48-1.22-.68-1.74,1.89-1.24,4.67-2.07,5.2-3.65.62-1.86-.35-4.53-1.24-6.57a78.27,78.27,0,0,1-4.62-51.27c7.21-29.88,32-45.63,62.2-39.31,21.82,4.56,34.71,18.61,39.42,42.4a79.7,79.7,0,0,1-5.62,48.82C239.8,240.83,240.52,242,247,243.85Zm-8.75-21.6c1.75-2.29,3.53-3.6,3.48-4.85s-1.92-3.22-3.07-3.28-3.15,1.78-3.33,3S236.74,219.81,238.22,222.24Zm-77.87-24c-2.43-1.45-3.94-3.06-5.14-2.86s-3.05,2.23-3,3.38,2.13,3,3.36,3S158.1,200.05,160.35,198.29Zm29.75-46.12c-2.27-1.64-3.64-3.4-4.85-3.29s-3.13,2-3.15,3.21,1.86,3.16,3.06,3.28S187.78,153.77,190.1,152.17Zm-17,9c-2.44-1.43-4-3-5.15-2.83s-3,2.31-2.9,3.43,2.14,3,3.38,3S170.89,163,173.09,161.17Zm70.36,37.36c-2.36-1.56-3.8-3.26-5-3.11s-3.13,2.12-3.12,3.28,2,3,3.25,3.12S241.15,200.18,243.45,198.53ZM241,179.17c-2.58-1.51-4-3-5.29-2.9s-3.12,2.24-2.93,3.06c.32,1.39,2,3.22,3.25,3.4C237.13,182.88,238.53,181,241,179.17ZM163.81,179c-2.45-1.42-4-3-5.13-2.79s-3.11,2.32-3,3.42,2.16,3,3.45,3S161.58,180.91,163.81,179Zm61.93-12.46c1.57-2.35,3.25-3.77,3.12-5s-2-2.33-3.16-3.48c-1.16,1.15-3.11,2.22-3.26,3.49S224.08,164.22,225.74,166.59Zm-65.39,50.79c-2.26-1.64-3.6-3.37-4.83-3.3s-2.36,1.95-3.54,3c1.1,1.19,2.09,3.17,3.32,3.34S158,218.92,160.35,217.38Zm48.34-60.15c1.65-2.49,3.19-3.82,3.21-5.16,0-1.09-2-3.21-2.8-3.06-1.41.27-3.36,1.75-3.58,3S207,154.68,208.69,157.23Z"/><path class="cls-3" d="M280.64,225.88c13.21-53.55-15.61-90-66.39-103.65a58.22,58.22,0,0,1,28.28,4.94c28,12.69,45.21,34,48.75,65C292.72,204.68,288.17,215.94,280.64,225.88Z"/><path class="cls-3" d="M112.42,226.27c-9.2-12.11-12.72-25.64-10.31-40.67,5.44-34,38.53-63,72.82-63.74a8.68,8.68,0,0,1,3.06.36c-23.11,6.26-43.12,17.24-56.9,37.32C106.92,180.19,107.1,202.92,112.42,226.27Z"/><path class="cls-3" d="M124.24,201.21a8.87,8.87,0,0,1,8.83,8.83,9.15,9.15,0,0,1-8.44,8.79,8.81,8.81,0,1,1-.39-17.62Z"/><path class="cls-3" d="M268.24,201.2a8.81,8.81,0,1,1-8.77,9A9,9,0,0,1,268.24,201.2Z"/><path class="cls-3" d="M273.35,175.87a7.17,7.17,0,0,1-6.95,7.06,7.55,7.55,0,0,1-7.27-6.87,7.17,7.17,0,0,1,7.31-7.22A6.9,6.9,0,0,1,273.35,175.87Z"/><path class="cls-3" d="M126.42,168.87a6.81,6.81,0,0,1,6.82,7,7.09,7.09,0,0,1-7.36,7.07,7.46,7.46,0,0,1-6.68-7.38A7.07,7.07,0,0,1,126.42,168.87Z"/><path class="cls-3" d="M135.58,154.43c-.08-5.3,3.3-10.79,7.21-11.73a7,7,0,0,1,5.24,1.18c.63.49.22,3.45-.65,4.55a62.05,62.05,0,0,1-7.3,7.33c-.75.68-2.35,1.38-3,1C136.21,156.24,135.8,154.8,135.58,154.43Z"/><path class="cls-3" d="M254.75,158.3c-3.8-4-7.6-7.52-10.74-11.54-1.66-2.13,1-4.83,4.2-4.58C254.15,142.62,258.51,151.5,254.75,158.3Z"/><path class="cls-3" d="M163.94,135.66c3.17-7,8.57-8.05,14.19-2.74Z"/><path class="cls-3" d="M227.34,135.39l-12.85-2.16c4-5.62,9.31-4.95,13.24.53Z"/><path class="cls-3" d="M327.47,61.36a78.78,78.78,0,0,1,8.62.66c22.89,4.22,45,26.09,47.27,47.11.44,4.06-.71,8.29-2,12.6-9.92-27.46-29.94-45.1-54.11-58.94Z"/><path class="cls-3" d="M67,61c-23.9,14.63-43.78,32.11-53,59.32-3.12-3.65-4-9.37-2.55-15.84,4.66-20.86,28.92-42,50.22-43.73A41,41,0,0,1,67,61Z"/><path class="cls-2" d="M238.22,222.24c-1.48-2.43-3.1-3.92-2.92-5.13s2.2-3.06,3.33-3,3,2.07,3.07,3.28S240,220,238.22,222.24Z"/><path class="cls-2" d="M160.35,198.29c-2.25,1.77-3.55,3.56-4.78,3.52s-3.3-1.87-3.36-3,1.76-3.17,3-3.38S157.92,196.84,160.35,198.29Z"/><path class="cls-2" d="M190.1,152.17c-2.32,1.6-3.72,3.32-4.94,3.2s-3.08-2.13-3.06-3.28,1.94-3.11,3.15-3.21S187.83,150.53,190.1,152.17Z"/><path class="cls-2" d="M173.09,161.17c-2.2,1.8-3.47,3.64-4.67,3.6s-3.28-1.83-3.38-3,1.69-3.21,2.9-3.43S170.65,159.74,173.09,161.17Z"/><path class="cls-2" d="M243.45,198.53c-2.3,1.65-3.67,3.39-4.89,3.29s-3.24-2-3.25-3.12,1.88-3.13,3.12-3.28S241.09,197,243.45,198.53Z"/><path class="cls-2" d="M241,179.17c-2.44,1.85-3.85,3.71-5,3.56-1.29-.18-2.93-2-3.25-3.4-.19-.82,1.8-3,2.93-3.06S238.39,177.66,241,179.17Z"/><path class="cls-2" d="M163.81,179c-2.23,1.86-3.51,3.74-4.67,3.67s-3.33-1.84-3.45-3,1.73-3.15,3-3.42S161.36,177.63,163.81,179Z"/><path class="cls-2" d="M225.74,166.59c-1.66-2.37-3.43-3.78-3.29-5s2.1-2.34,3.26-3.49c1.13,1.15,3,2.22,3.16,3.48S227.31,164.23,225.74,166.59Z"/><path class="cls-2" d="M160.35,217.38c-2.38,1.54-3.83,3.23-5,3.07s-2.22-2.15-3.32-3.34c1.17-1.09,2.3-3,3.54-3S158.09,215.73,160.35,217.38Z"/><path class="cls-2" d="M208.69,157.23c-1.65-2.55-3.38-4.06-3.18-5.23s2.17-2.72,3.58-3c.78-.15,2.81,2,2.8,3.06C211.89,153.41,210.34,154.74,208.69,157.23Z"/></g></g></g></svg>