<?xml version="1.0" encoding="utf-8"?>
<!-- Generator: Adobe Illustrator 21.1.0, SVG Export Plug-In . SVG Version: 6.00 Build 0)  -->
<svg version="1.1" id="Capa_1" xmlns="http://www.w3.org/2000/svg" xmlns:xlink="http://www.w3.org/1999/xlink" x="0px" y="0px"
	 viewBox="0 0 393.8 429.1" style="enable-background:new 0 0 393.8 429.1;" xml:space="preserve">
<style type="text/css">
	.st0{fill:#D2D2D2;}
	.st1{fill:#E2E2E2;}
	.st2{fill:#FFFFFF;}
	.st3{fill:#666666;}
</style>
<title>bhp_1</title>
<g id="Capa_2">
	<g id="Capa_1-2">
		<g id="Y5VEru.tif">
			<path class="st0" d="M37.2,246.4c-1.2,4.9-0.6,8.1,1.9,11.5c17,22.5,33.7,45.1,49.9,68.2c-3.2-3.2-6.5-6.3-9.7-9.5
				c-15.1-15.3-30.3-30.5-45.3-45.9c-3.2-3.4-6-7.1-8.2-11.2c-4.9-8.9-4-17.6,3-25.5C25,228.9,21,224,17.2,219
				c-8.5-11.1-7.8-29.4,1.5-39.9c5.5-6.2,11.3-12.3,17.3-18.9l22.7,20.9c-4.3,5.6-8.5,11.1-12.8,16.4c-1.8,2.2-2.2,3.8-0.2,6.4
				c21.6,28.4,43.1,56.8,64.6,85.2c0.5,0.6,1.1,1.2,1.8,2c5.1-5.3,7.7-10.1,5.9-18.4c-2.9-13.9-9.5-24-20.6-32.5
				c-12.8-9.7-24.6-20.9-36.8-31.4c-4.2-3.6-5.8-10.8-3.4-15.7c1.3-2.7,2.9-5.2,4.6-8.2l27.8,16.3l0.7-1c-4.4-3.9-8.8-7.8-13.3-11.7
				c-13.2-11.5-26.3-23-39.7-34.4c-2.9-2.5-3.6-4.3-1.5-7.8c5.8-10,11-20.2,15.6-30.8l-25,29.1l-6.1-5.5l60.2-68.8l19.7,18.2
				l12.4-13.9L137.4,96l-3,5.8h21.7l0.7,9.1h21.2l0.4-9.2h35.2l0.4,9h21.5l0.6-8.6h22.1l-3.4-5.9l25.3-21.2l12.6,14l19.8-18.3
				l60.9,68.8l-6,5.6l-25.7-29.4l-0.6,0.4l18.9,35l-57.4,49.5l0.7,1.1l28.5-16.6c1.8,4.1,4.2,7.8,5,11.8c1.2,5.6-0.9,10.1-5.8,14.1
				c-16.3,13.2-32.1,27.1-48,40.7c-1.2,1-2.6,2.3-3.1,3.8c-2.4,8.2-4.5,16.4-6.6,24.6c-0.2,1.1,0,2.3,0.6,3.2c2,2.8,4.2,5.5,6.7,8.7
				l69.4-90.8l-15.5-19.7l22.9-21c9.8,12,24,20.6,24.9,38.4c0.4,7.5-1,14.2-5.7,20.1c-3.9,4.9-7.8,9.9-11.7,14.9
				c8.3,15.2,7.6,23.4-4.6,36.1c-18.7,19.3-38,38.2-57.6,56.6c6.4-8.4,12.7-16.9,19.1-25.3c11-14.6,22.2-29.2,33-44
				c1.8-2.4,1.9-6.1,2.8-9.1l-2.9-2c-1,1.9-2,3.7-3.2,5.4c-20.8,27.3-41.7,54.6-62.5,81.8c-1.2,1.7-1.9,3.7-2,5.8
				c-1.1,20-16.8,35.2-36.9,35.3c-36,0.1-72-0.3-108,0.2c-13.9,0.2-34.8-14.5-35-29.7c-0.1-6.3-3-11.8-7.1-17
				c-19.5-25.1-38.5-50.6-57.8-76C40.9,250,39.2,248.5,37.2,246.4z M247,243.8c-6.4-1.8-7.2-3-4.5-9.2c7-15.3,8.9-32.4,5.6-48.8
				c-4.7-23.8-17.6-37.8-39.4-42.4c-30.2-6.3-55,9.4-62.2,39.3c-4.3,17.1-2.7,35.2,4.6,51.3c0.9,2,1.9,4.7,1.2,6.6
				c-0.5,1.6-3.3,2.4-5.2,3.6c0.2,0.5,0.4,1.1,0.7,1.7c1.5,3.5,3.1,7,4.5,10.6c1.4,3.9,3.7,4.1,7,2.2c2.4-1.4,5-2.7,7.6-3.6
				c8-2.8,8.8-4.5,5.6-12.5c-0.7-1.7-1.4-3.4-2-5.1c-6.6-18.9-8-38.1-2.6-57.5c3.5-12.7,16-22,29.1-21.9s25.6,9.2,29,22
				c1.6,6.1,2.6,12.4,3,18.7c1.2,16.3-2.4,31.7-8.6,46.7c-2,4.8-0.8,6.8,4.1,8.8c3.7,1.6,7.3,3.1,10.9,4.9c2.8,1.4,4.7,1.1,5.9-2
				C243.1,252.7,245.1,248.3,247,243.8z M280.7,225.8c7.5-9.9,12.1-21.2,10.6-33.7c-3.5-31-20.8-52.3-48.8-65
				c-8.9-4-18.6-5.7-28.3-4.9C265,135.8,293.9,172.3,280.7,225.8L280.7,225.8z M112.5,226.2c-5.3-23.4-5.5-46.1,8.7-66.7
				c13.8-20.1,33.8-31.1,56.9-37.3c-1-0.3-2-0.4-3.1-0.4c-34.3,0.8-67.4,29.7-72.8,63.7C99.7,200.6,103.2,214.2,112.5,226.2
				L112.5,226.2z M124.3,201.2c-4.9,0.1-8.7,4.1-8.6,9c0.1,4.9,4.1,8.7,9,8.6c4.6-0.4,8.3-4.1,8.4-8.8
				C133.1,205.1,129.1,201.2,124.3,201.2L124.3,201.2z M268.3,201.2c-4.9,0-8.8,4-8.8,8.8c0,4.9,4,8.8,8.8,8.8c0.1,0,0.3,0,0.4,0
				c4.9-0.2,8.6-4.4,8.4-9.2C276.9,204.9,273,201.2,268.3,201.2z M273.4,175.9c0.1-3.8-3-6.9-6.8-7c0,0-0.1,0-0.1,0
				c-4-0.1-7.2,3.1-7.3,7c0,0.1,0,0.1,0,0.2c0.3,3.8,3.5,6.7,7.3,6.9C270.3,182.8,273.3,179.7,273.4,175.9L273.4,175.9z
				 M126.4,168.9c-3.8-0.1-7,2.9-7.2,6.7c0,3.8,2.9,7,6.7,7.4c3.9,0.1,7.2-2.9,7.4-6.8c0-0.1,0-0.2,0-0.3c0.1-3.8-2.9-6.9-6.6-7
				C126.6,168.9,126.5,168.9,126.4,168.9L126.4,168.9z M135.6,154.4c0.2,0.4,0.6,1.8,1.6,2.4c0.6,0.4,2.2-0.4,3-1
				c2.6-2.2,5.1-4.7,7.3-7.3c0.9-1.1,1.3-4.1,0.6-4.6c-1.5-1.1-3.4-1.5-5.2-1.2C138.9,143.6,135.5,149.1,135.6,154.4L135.6,154.4z
				 M254.8,158.3c3.8-6.8-0.6-15.7-6.5-16.1c-3.2-0.2-5.9,2.5-4.2,4.6C247.1,150.8,250.9,154.3,254.8,158.3L254.8,158.3z M164,135.7
				l14.2-2.7C172.5,127.6,167.1,128.7,164,135.7L164,135.7z M227.4,135.4l0.4-1.6c-3.9-5.5-9.2-6.1-13.2-0.5L227.4,135.4z"/>
			<path class="st0" d="M119.3,382.3c8.1,5.6,16.4,6.1,24.8,6.1c30.3,0.1,60.7,0.1,91,0c6.7,0,13.4,0.4,20-0.5
				c5.9-0.8,11.6-3.1,17.7-4.8c0.2,0.5,0.3,1.1,0.2,1.6c-0.6,9.6-0.9,19.3-2,28.9s-8,15.3-17.8,15.3c-6.2,0-12.3,0-18.5-0.1
				c-0.6-0.1-1.1-0.2-1.6-0.4v-22.2h-18.8v22.4h-36.2v-22.3h-18.6v22.3c-8.9,0-17.4,0.9-25.7-0.3c-6.6-1-11-6.6-11.8-13.4
				C120.7,404.2,120.1,393.2,119.3,382.3z"/>
			<path class="st0" d="M313.5,56.5c5.5-4.8,11.4-5.6,17.7-5.2c2,0.2,4,0.5,5.9,1.1c26.8,6.5,53.6,37.2,56.6,64.6
				c0.9,8.1-1.2,14.6-6.5,19.9L313.5,56.5z M327.5,61.3l-0.2,1.4c24.2,13.8,44.2,31.5,54.1,58.9c1.3-4.3,2.4-8.5,2-12.6
				c-2.3-21-24.4-42.9-47.3-47.1C333.2,61.6,330.3,61.4,327.5,61.3L327.5,61.3z"/>
			<path class="st0" d="M6.6,137.2c-7.2-8.2-7.8-17.3-5.2-26.3c8.1-28.2,25.7-48.1,53.6-58c8.3-2.9,16.7-2.8,24.8,3.5L6.6,137.2z
				 M67,61c-1.8-0.2-3.6-0.3-5.4-0.2c-21.3,1.7-45.5,22.9-50.2,43.7c-1.4,6.5-0.6,12.2,2.6,15.8C23.2,93.1,43.1,75.6,67,61z"/>
			<path class="st0" d="M256.9,58.5c-16.2-12-9.1-29.4-11.1-45.2h7.5c0,6.9,0.4,13.9-0.1,20.8s2,12.3,7,16.8c2.6,2.3,5,4.8,8,7.7
				L241.7,82c-12.3-12.3-23.1-24.7-21.7-43.6c0.6-8.2,0.1-16.5,0.1-25.1h19.2c0,6.6,0.7,13.1-0.1,19.5c-1.6,12.3,5.2,20.1,13.5,27.2
				c0.8,0.7,2.7,0.3,4,0.4L256.9,58.5z"/>
			<path class="st0" d="M153,13.2h19.2c-1.9,16.5,4,33.6-5.5,48.9c-4.4,7.1-10.1,13.4-15.5,20.5l-27.4-24.5
				c3.8-3.3,7.2-6.2,10.5-9.3c3.4-3.2,5.2-7.9,4.9-12.6c-0.2-7.5-0.1-14.9-0.1-22.8h7.6c-0.5,10.5-0.2,21.2-1.9,31.6
				c-0.8,5.1-5.3,9.5-8.7,15.2c0.5,1.1,1.6,1.7,4.1-0.4c8.6-7.4,14.4-15.8,12.8-28.1C152.3,25.7,153,19.7,153,13.2z"/>
			<path class="st0" d="M204.1,82.7c7.9,2.3,13.1,6.6,15.3,14.8h-46.7c1.7-6.6,5.3-11.1,11.2-13.2c3.1-1.1,3.9-2.7,3.7-5.8
				c-0.3-5.1-0.1-10.2-0.1-15.8h16.6V82.7z"/>
			<path class="st1" d="M266.3,0.1c-3,3.4-5.4,6.6-8.3,9.2c-1.5,1.1-3.4,1.7-5.3,1.7c-11.3,0.1-22.6-0.1-33.9,0.2
				c-4.1,0.1-7-0.9-8.9-4.7c-1.3-2.2-2.7-4.3-4.3-6.4H266.3z"/>
			<path class="st0" d="M126.1,0h60.5c-2.5,3.6-4.6,6.9-7.1,9.9c-0.8,0.9-2.6,1.1-4,1.2c-12.2,0.1-24.3,0.1-36.5-0.1
				c-1.9-0.1-3.7-0.9-5.1-2.2C131.3,6.3,129.1,3.4,126.1,0z"/>
			<path class="st0" d="M276.3,58.5l7.1,8.5l-35.5,31.3l-6.5-9.6L276.3,58.5z"/>
			<path class="st0" d="M151,88.8l-6.3,9.4c-1.3-1-2.3-1.8-3.3-2.7c-10.5-9.4-21-18.8-31.8-28.4l6.9-8.6L151,88.8z"/>
			<path class="st2" d="M247,243.8c-1.9,4.5-3.8,8.9-5.6,13.3c-1.2,3.1-3.1,3.4-5.9,2c-3.6-1.8-7.2-3.4-10.9-4.9
				c-4.9-2.1-6.1-4.1-4.1-8.8c6.3-15,9.9-30.4,8.6-46.7c-0.4-6.3-1.4-12.6-3-18.7c-3.4-12.7-16-22-29-22s-25.6,9.2-29.1,21.9
				c-5.4,19.4-4,38.6,2.6,57.5c0.6,1.7,1.4,3.4,2,5.1c3.2,8.1,2.4,9.7-5.6,12.5c-2.7,1-5.2,2.2-7.6,3.6c-3.3,1.9-5.5,1.7-7-2.2
				c-1.3-3.6-3-7.1-4.5-10.6c-0.3-0.6-0.5-1.2-0.7-1.7c1.9-1.2,4.7-2.1,5.2-3.6c0.6-1.9-0.4-4.5-1.2-6.6
				c-7.3-16.1-8.9-34.1-4.6-51.3c7.2-29.9,32-45.6,62.2-39.3c21.8,4.6,34.7,18.6,39.4,42.4c3.3,16.5,1.3,33.5-5.6,48.8
				C239.8,240.8,240.5,242,247,243.8z M238.2,222.2c1.8-2.3,3.5-3.6,3.5-4.9s-1.9-3.2-3.1-3.3s-3.1,1.8-3.3,3
				S236.7,219.8,238.2,222.2L238.2,222.2z M160.4,198.2c-2.4-1.4-3.9-3.1-5.1-2.9s-3.1,2.2-3,3.4s2.1,3,3.4,3S158.1,200,160.4,198.2
				L160.4,198.2z M190.1,152.1c-2.3-1.6-3.6-3.4-4.9-3.3s-3.1,2-3.1,3.2s1.9,3.2,3.1,3.3S187.8,153.8,190.1,152.1L190.1,152.1z
				 M173.1,161.1c-2.4-1.4-4-3-5.1-2.8s-3,2.3-2.9,3.4s2.1,3,3.4,3S170.9,163,173.1,161.1L173.1,161.1z M243.5,198.5
				c-2.4-1.6-3.8-3.3-5-3.1s-3.1,2.1-3.1,3.3s2,3,3.2,3.1S241.1,200.2,243.5,198.5L243.5,198.5z M241,179.2c-2.6-1.5-4-3-5.3-2.9
				s-3.1,2.2-2.9,3.1c0.3,1.4,2,3.2,3.2,3.4C237.1,182.9,238.5,181,241,179.2z M163.8,179c-2.4-1.4-4-3-5.1-2.8s-3.1,2.3-3,3.4
				s2.2,3,3.4,3S161.6,180.9,163.8,179z M225.7,166.5c1.6-2.4,3.2-3.8,3.1-5s-2-2.3-3.2-3.5c-1.2,1.1-3.1,2.2-3.3,3.5
				S224.1,164.2,225.7,166.5L225.7,166.5z M160.3,217.3c-2.3-1.6-3.6-3.4-4.8-3.3s-2.4,1.9-3.5,3c1.1,1.2,2.1,3.2,3.3,3.3
				S158,218.9,160.3,217.3L160.3,217.3z M208.7,157.2c1.6-2.5,3.2-3.8,3.2-5.2c0-1.1-2-3.2-2.8-3.1c-1.4,0.3-3.4,1.8-3.6,3
				S207,154.7,208.7,157.2L208.7,157.2z"/>
			<path class="st2" d="M280.6,225.9c13.2-53.6-15.6-90-66.4-103.7c9.7-0.7,19.4,1,28.3,4.9c28,12.7,45.2,34,48.8,65
				C292.7,204.7,288.2,215.9,280.6,225.9z"/>
			<path class="st2" d="M112.4,226.3c-9.2-12.1-12.7-25.6-10.3-40.7c5.4-34,38.5-63,72.8-63.7c1-0.1,2.1,0.1,3.1,0.4
				c-23.1,6.3-43.1,17.2-56.9,37.3C106.9,180.2,107.1,202.9,112.4,226.3z"/>
			<path class="st2" d="M124.2,201.2c4.9,0,8.8,4,8.8,8.8c-0.2,4.6-3.8,8.4-8.4,8.8c-4.9,0.1-8.9-3.7-9-8.6
				C115.5,205.3,119.4,201.3,124.2,201.2z"/>
			<path class="st2" d="M268.2,201.2c4.9,0,8.8,3.9,8.8,8.8s-3.9,8.8-8.8,8.8c-4.8,0-8.7-3.8-8.8-8.6
				C259.5,205.3,263.4,201.3,268.2,201.2z"/>
			<path class="st2" d="M273.4,175.9c-0.1,3.8-3.1,6.9-7,7.1c-3.8-0.1-6.9-3.1-7.3-6.9c0-4,3.2-7.2,7.1-7.2c0.1,0,0.1,0,0.2,0
				c3.8,0,6.9,3.1,6.9,6.9C273.4,175.8,273.4,175.8,273.4,175.9z"/>
			<path class="st2" d="M126.4,168.9c3.8,0,6.8,3,6.8,6.8c0,0.1,0,0.1,0,0.2c0,3.9-3.2,7.1-7.1,7.1c-0.1,0-0.2,0-0.3,0
				c-3.8-0.4-6.7-3.6-6.7-7.4C119.4,171.7,122.6,168.8,126.4,168.9z"/>
			<path class="st2" d="M135.6,154.4c-0.1-5.3,3.3-10.8,7.2-11.7c1.8-0.3,3.7,0.1,5.2,1.2c0.6,0.5,0.2,3.4-0.6,4.6
				c-2.2,2.6-4.7,5.1-7.3,7.3c-0.8,0.7-2.4,1.4-3,1C136.2,156.2,135.8,154.8,135.6,154.4z"/>
			<path class="st2" d="M254.8,158.3c-3.8-4-7.6-7.5-10.7-11.5c-1.7-2.1,1-4.8,4.2-4.6C254.1,142.6,258.5,151.5,254.8,158.3z"/>
			<path class="st2" d="M163.9,135.7c3.2-7,8.6-8.1,14.2-2.7L163.9,135.7z"/>
			<path class="st2" d="M227.3,135.4l-12.9-2.2c4-5.6,9.3-4.9,13.2,0.5L227.3,135.4z"/>
			<path class="st2" d="M327.5,61.4c2.9,0.1,5.8,0.3,8.6,0.7c22.9,4.2,45,26.1,47.3,47.1c0.4,4.1-0.7,8.3-2,12.6
				c-9.9-27.5-29.9-45.1-54.1-58.9L327.5,61.4z"/>
			<path class="st2" d="M67,61c-23.9,14.6-43.8,32.1-53,59.3c-3.1-3.7-4-9.4-2.6-15.8c4.7-20.9,28.9-42,50.2-43.7
				C63.5,60.7,65.2,60.8,67,61z"/>
			<path class="st3" d="M238.2,222.2c-1.5-2.4-3.1-3.9-2.9-5.1s2.2-3.1,3.3-3s3,2.1,3.1,3.3S240,220,238.2,222.2z"/>
			<path class="st3" d="M160.4,198.3c-2.2,1.8-3.6,3.6-4.8,3.5s-3.3-1.9-3.4-3s1.8-3.2,3-3.4S157.9,196.8,160.4,198.3z"/>
			<path class="st3" d="M190.1,152.2c-2.3,1.6-3.7,3.3-4.9,3.2s-3.1-2.1-3.1-3.3s1.9-3.1,3.1-3.2S187.8,150.5,190.1,152.2z"/>
			<path class="st3" d="M173.1,161.2c-2.2,1.8-3.5,3.6-4.7,3.6s-3.3-1.8-3.4-3s1.7-3.2,2.9-3.4S170.6,159.7,173.1,161.2z"/>
			<path class="st3" d="M243.4,198.5c-2.3,1.6-3.7,3.4-4.9,3.3s-3.2-2-3.2-3.1s1.9-3.1,3.1-3.3S241.1,197,243.4,198.5z"/>
			<path class="st3" d="M241,179.2c-2.4,1.9-3.9,3.7-5,3.6c-1.3-0.2-2.9-2-3.2-3.4c-0.2-0.8,1.8-3,2.9-3.1S238.4,177.7,241,179.2z"
				/>
			<path class="st3" d="M163.8,179c-2.2,1.9-3.5,3.7-4.7,3.7s-3.3-1.8-3.4-3s1.7-3.1,3-3.4S161.4,177.6,163.8,179z"/>
			<path class="st3" d="M225.7,166.6c-1.7-2.4-3.4-3.8-3.3-5s2.1-2.3,3.3-3.5c1.1,1.1,3,2.2,3.2,3.5S227.3,164.2,225.7,166.6z"/>
			<path class="st3" d="M160.4,217.4c-2.4,1.5-3.8,3.2-5,3.1s-2.2-2.1-3.3-3.3c1.2-1.1,2.3-3,3.5-3S158.1,215.7,160.4,217.4z"/>
			<path class="st3" d="M208.7,157.2c-1.6-2.6-3.4-4.1-3.2-5.2s2.2-2.7,3.6-3c0.8-0.1,2.8,2,2.8,3.1
				C211.9,153.4,210.3,154.7,208.7,157.2z"/>
		</g>
	</g>
</g>
</svg>
