<?xml version="1.0" encoding="utf-8"?>
<!-- Generator: Adobe Illustrator 21.1.0, SVG Export Plug-In . SVG Version: 6.00 Build 0)  -->
<svg version="1.1" id="Capa_1" xmlns="http://www.w3.org/2000/svg" xmlns:xlink="http://www.w3.org/1999/xlink" x="0px" y="0px"
	 viewBox="0 0 86.9 70" style="enable-background:new 0 0 86.9 70;" xml:space="preserve">
<style type="text/css">
	.st0{fill:#CCCCCC;}
	.st1{fill:#646769;}
</style>
<title>bhp</title>
<g id="Capa_2">
	<g id="Layer_1">
		<path class="st0" d="M22.1,3.1l9.7,10.1l7.6,8h-1.7c-1.6,0-2.9,1.2-2.9,2.8v8.2H9.3V24c0-1.6-1.3-2.8-2.8-2.8c0,0,0,0-0.1,0H4.7
			l7.6-8L22.1,3.1 M22.1,0c-0.2,0-0.3,0.1-0.4,0.2l-11,11.5l-10.6,11c-0.2,0.2-0.2,0.5,0,0.7c0.1,0.1,0.3,0.2,0.4,0.1h6
			C6.8,23.5,7,23.7,7,24c0,0,0,0,0,0v10.1c0,0.3,0.2,0.5,0.4,0.5c0,0,0,0,0.1,0h29.2c0.3,0,0.5-0.2,0.5-0.4c0,0,0,0,0-0.1V24
			c0-0.3,0.2-0.5,0.4-0.5c0,0,0,0,0.1,0h6c0.3,0,0.5-0.1,0.5-0.4c0-0.1,0-0.3-0.1-0.4l-10.6-11l-11-11.5C22.4,0.1,22.3,0,22.1,0z"/>
		<path class="st0" d="M34.8,39.4V44H9.3v-4.7L34.8,39.4 M36.7,37H7.5c-0.3,0-0.5,0.2-0.5,0.4c0,0,0,0,0,0.1v8.4
			c0,0.3,0.2,0.5,0.4,0.5c0,0,0,0,0.1,0h29.2c0.3,0,0.5-0.2,0.5-0.4c0,0,0,0,0-0.1v-8.4C37.2,37.2,37,37.1,36.7,37z"/>
		<path class="st1" d="M34.8,51.2v4.7H9.3v-4.7H34.8 M36.7,48.8H7.5c-0.3,0-0.5,0.2-0.5,0.4c0,0,0,0,0,0.1v8.4
			c0,0.3,0.2,0.5,0.4,0.5c0,0,0,0,0.1,0h29.2c0.3,0,0.5-0.2,0.5-0.4c0,0,0,0,0-0.1v-8.4C37.2,49,37,48.9,36.7,48.8z"/>
		<path class="st1" d="M34.8,63v4.7H9.3V63H34.8 M36.7,60.6H7.5c-0.3,0-0.5,0.2-0.5,0.4c0,0,0,0,0,0.1v8.4C7,69.8,7.2,70,7.5,70
			c0,0,0,0,0.1,0h29.2c0.3,0,0.5-0.2,0.5-0.4c0,0,0,0,0-0.1v-8.4C37.2,60.8,37,60.6,36.7,60.6z"/>
		<path class="st0" d="M64.7,14.9L74.4,25l7.6,8h-1.6c-1.6,0-2.9,1.2-2.9,2.8V44H52v-8.2c0-1.6-1.3-2.8-2.8-2.8c0,0,0,0-0.1,0h-1.7
			l7.6-8L64.7,14.9 M64.7,11.8c-0.2,0-0.3,0.1-0.4,0.2l-11,11.5l-10.6,11c-0.2,0.2-0.2,0.5,0,0.7c0.1,0.1,0.3,0.2,0.4,0.1h6
			c0.3,0,0.5,0.2,0.5,0.4c0,0,0,0,0,0.1v10.1c0,0.3,0.2,0.5,0.4,0.5c0,0,0,0,0.1,0h29.2c0.3,0,0.5-0.2,0.5-0.4c0,0,0,0,0-0.1V35.8
			c0-0.3,0.2-0.5,0.4-0.5c0,0,0,0,0.1,0h6c0.3,0,0.5-0.1,0.5-0.4c0-0.1,0-0.3-0.1-0.4L76.1,23.4L65.1,12
			C65,11.8,64.9,11.8,64.7,11.8L64.7,11.8z"/>
		<path class="st0" d="M77.5,51.2v4.7H52v-4.7H77.5 M79.3,48.8H50.1c-0.3,0-0.5,0.2-0.5,0.4c0,0,0,0,0,0.1v8.4
			c0,0.3,0.2,0.5,0.4,0.5c0,0,0,0,0.1,0h29.2c0.3,0,0.5-0.2,0.5-0.4c0,0,0,0,0-0.1v-8.4C79.8,49,79.6,48.8,79.3,48.8L79.3,48.8z"/>
		<path class="st1" d="M77.5,63v4.7H52V63H77.5 M79.3,60.6H50.1c-0.3,0-0.5,0.2-0.5,0.4c0,0,0,0,0,0.1v8.4c0,0.3,0.2,0.5,0.4,0.5
			c0,0,0,0,0.1,0h29.2c0.3,0,0.5-0.2,0.5-0.4c0,0,0,0,0-0.1v-8.4c0-0.3-0.2-0.5-0.4-0.5C79.4,60.6,79.4,60.6,79.3,60.6L79.3,60.6z"
			/>
	</g>
</g>
</svg>
