<svg xmlns="http://www.w3.org/2000/svg" viewBox="0 0 86.88 70"><defs><style>.cls-1{fill:#ccc;}.cls-2{fill:#1f1f1f;}</style></defs><title>bhp</title><g id="Capa_2" data-name="Capa 2"><g id="Layer_1" data-name="Layer 1"><path class="cls-1" d="M22.14,3.1l9.7,10.1,7.6,8h-1.7a2.88,2.88,0,0,0-2.9,2.8v8.2H9.34V24a2.82,2.82,0,0,0-2.9-2.8H4.74l7.6-8,9.8-10.1m0-3.1a.76.76,0,0,0-.4.2l-11,11.5L.14,22.7a.47.47,0,0,0,.4.8h6A.47.47,0,0,1,7,24V34.1a.47.47,0,0,0,.5.5h29.2a.47.47,0,0,0,.5-.5V24a.47.47,0,0,1,.5-.5h6a.47.47,0,0,0,.4-.8l-10.6-11L22.54.2a.76.76,0,0,0-.4-.2Z"/><path class="cls-1" d="M34.84,39.4V44H9.34V39.3l25.5.1m1.9-2.4H7.54a.47.47,0,0,0-.5.5v8.4a.47.47,0,0,0,.5.5h29.2a.47.47,0,0,0,.5-.5V37.5a.64.64,0,0,0-.5-.5Z"/><path class="cls-2" d="M34.84,51.2v4.7H9.34V51.2h25.5m1.9-2.4H7.54a.47.47,0,0,0-.5.5v8.4a.47.47,0,0,0,.5.5h29.2a.47.47,0,0,0,.5-.5V49.3a.64.64,0,0,0-.5-.5Z"/><path class="cls-2" d="M34.84,63v4.7H9.34V63h25.5m1.9-2.4H7.54a.47.47,0,0,0-.5.5v8.4a.47.47,0,0,0,.5.5h29.2a.47.47,0,0,0,.5-.5V61.1a.54.54,0,0,0-.5-.5Z"/><path class="cls-1" d="M64.74,14.9,74.44,25,82,33h-1.6a2.88,2.88,0,0,0-2.9,2.8V44H52V35.8a2.82,2.82,0,0,0-2.9-2.8h-1.7L55,25l9.7-10.1m0-3.1a.76.76,0,0,0-.4.2l-11,11.5-10.6,11a.47.47,0,0,0,.4.8h6a.47.47,0,0,1,.5.5V45.9a.47.47,0,0,0,.5.5h29.2a.47.47,0,0,0,.5-.5V35.8a.47.47,0,0,1,.5-.5h6a.47.47,0,0,0,.4-.8L76.14,23.4,65.14,12c-.1-.2-.2-.2-.4-.2Z"/><path class="cls-1" d="M77.54,51.2v4.7H52V51.2h25.5m1.8-2.4H50.14a.47.47,0,0,0-.5.5v8.4a.47.47,0,0,0,.5.5h29.2a.47.47,0,0,0,.5-.5V49.3a.54.54,0,0,0-.5-.5Z"/><path class="cls-2" d="M77.54,63v4.7H52V63h25.5m1.8-2.4H50.14a.47.47,0,0,0-.5.5v8.4a.47.47,0,0,0,.5.5h29.2a.47.47,0,0,0,.5-.5V61.1a.47.47,0,0,0-.5-.5Z"/></g></g></svg>