<svg xmlns="http://www.w3.org/2000/svg" xmlns:xlink="http://www.w3.org/1999/xlink" viewBox="0 0 52.98 17.96"><defs><style>.cls-1{fill:#010101;}.cls-2{stroke:#434343;stroke-width:0.32px;fill:url(#Degradado_sin_nombre_181);}.cls-3{opacity:0.18;isolation:isolate;fill:url(#Degradado_sin_nombre_182);}.cls-4{fill:url(#Degradado_sin_nombre_183);}.cls-5{fill:url(#Degradado_sin_nombre_184);}.cls-6{fill:none;stroke-width:0.27px;}.cls-6,.cls-7{stroke:#333;stroke-miterlimit:10;}.cls-7{fill:#333;stroke-width:0.15px;}.cls-8{fill:#171717;}.cls-9{fill:#969696;}.cls-10{fill:#cecdcd;}.cls-11{opacity:0.5;}.cls-12{fill:url(#Degradado_sin_nombre_200);}.cls-13{fill:url(#Degradado_sin_nombre_200-2);}.cls-14{fill:url(#Degradado_sin_nombre_200-3);}.cls-15{fill:url(#Degradado_sin_nombre_200-4);}.cls-16{fill:url(#Degradado_sin_nombre_200-5);}.cls-17{fill:url(#Degradado_sin_nombre_200-6);}.cls-18{fill:url(#Degradado_sin_nombre_200-7);}.cls-19{fill:url(#Degradado_sin_nombre_200-8);}.cls-20{fill:url(#Degradado_sin_nombre_200-9);}.cls-21{fill:url(#Degradado_sin_nombre_200-10);}.cls-22{fill:url(#Degradado_sin_nombre_200-11);}.cls-23{fill:url(#Degradado_sin_nombre_200-12);}.cls-24{fill:url(#Degradado_sin_nombre_200-13);}.cls-25{fill:url(#Degradado_sin_nombre_200-14);}.cls-26{fill:url(#Degradado_sin_nombre_200-15);}.cls-27{fill:url(#Degradado_sin_nombre_200-16);}.cls-28{fill:#fff;}.cls-29{fill:#525352;}.cls-30{fill:url(#Degradado_sin_nombre_201);}.cls-31{fill:#f1f0f0;}.cls-32{fill:#5c5d5d;}.cls-33{stroke:#212121;stroke-width:0.16px;fill:url(#Degradado_sin_nombre_202);}.cls-34{fill:#212121;}</style><linearGradient id="Degradado_sin_nombre_181" x1="66.98" y1="35.45" x2="63.96" y2="18.32" gradientTransform="translate(91.59 35.93) rotate(180)" gradientUnits="userSpaceOnUse"><stop offset="0" stop-color="#f5f5f5"/><stop offset="0.11" stop-color="#eaeaea"/><stop offset="0.31" stop-color="#ccc"/><stop offset="0.58" stop-color="#9b9b9b"/><stop offset="0.69" stop-color="#858585"/></linearGradient><linearGradient id="Degradado_sin_nombre_182" x1="65.1" y1="21" x2="65.1" y2="35.57" gradientTransform="translate(91.59 35.93) rotate(180)" gradientUnits="userSpaceOnUse"><stop offset="0" stop-color="#fff" stop-opacity="0.18"/><stop offset="0.51" stop-color="#dcdbdb"/></linearGradient><linearGradient id="Degradado_sin_nombre_183" x1="65.1" y1="35.57" x2="65.1" y2="21" gradientTransform="translate(91.59 35.93) rotate(180)" gradientUnits="userSpaceOnUse"><stop offset="0" stop-color="#fff" stop-opacity="0.18"/><stop offset="0.91" stop-color="#9b9a9a"/></linearGradient><linearGradient id="Degradado_sin_nombre_184" x1="65.33" y1="25.22" x2="65.86" y2="35.2" gradientTransform="translate(91.59 35.93) rotate(180)" gradientUnits="userSpaceOnUse"><stop offset="0.1" stop-color="#fff" stop-opacity="0.1"/><stop offset="1" stop-color="#59595a"/></linearGradient><linearGradient id="Degradado_sin_nombre_200" x1="-166.11" y1="22.81" x2="-166.03" y2="24.16" gradientTransform="matrix(1, 0, 0, -1, 208.16, 35.93)" gradientUnits="userSpaceOnUse"><stop offset="0.04" stop-color="#131313"/><stop offset="1" stop-color="#1a1a1a"/></linearGradient><linearGradient id="Degradado_sin_nombre_200-2" x1="-166.84" y1="22.57" x2="-167.69" y2="23.54" xlink:href="#Degradado_sin_nombre_200"/><linearGradient id="Degradado_sin_nombre_200-3" x1="-167.13" y1="22.03" x2="-168.49" y2="22.01" xlink:href="#Degradado_sin_nombre_200"/><linearGradient id="Degradado_sin_nombre_200-4" x1="-166.73" y1="21.24" x2="-167.96" y2="20.48" xlink:href="#Degradado_sin_nombre_200"/><linearGradient id="Degradado_sin_nombre_200-5" x1="-166.24" y1="20.95" x2="-166.33" y2="19.64" xlink:href="#Degradado_sin_nombre_200"/><linearGradient id="Degradado_sin_nombre_200-6" x1="-165.57" y1="21.16" x2="-164.71" y2="20.14" xlink:href="#Degradado_sin_nombre_200"/><linearGradient id="Degradado_sin_nombre_200-7" x1="-165.32" y1="21.77" x2="-164" y2="21.61" xlink:href="#Degradado_sin_nombre_200"/><linearGradient id="Degradado_sin_nombre_200-8" x1="-165.54" y1="22.99" x2="-164.31" y2="22.99" xlink:href="#Degradado_sin_nombre_200"/><linearGradient id="Degradado_sin_nombre_200-9" x1="-199.13" y1="22.81" x2="-199.06" y2="24.16" xlink:href="#Degradado_sin_nombre_200"/><linearGradient id="Degradado_sin_nombre_200-10" x1="-199.86" y1="22.57" x2="-200.72" y2="23.54" xlink:href="#Degradado_sin_nombre_200"/><linearGradient id="Degradado_sin_nombre_200-11" x1="-200.15" y1="22.03" x2="-201.51" y2="22.01" xlink:href="#Degradado_sin_nombre_200"/><linearGradient id="Degradado_sin_nombre_200-12" x1="-199.75" y1="21.24" x2="-200.98" y2="20.48" xlink:href="#Degradado_sin_nombre_200"/><linearGradient id="Degradado_sin_nombre_200-13" x1="-199.27" y1="20.95" x2="-199.35" y2="19.64" xlink:href="#Degradado_sin_nombre_200"/><linearGradient id="Degradado_sin_nombre_200-14" x1="-198.6" y1="21.16" x2="-197.73" y2="20.14" xlink:href="#Degradado_sin_nombre_200"/><linearGradient id="Degradado_sin_nombre_200-15" x1="-198.34" y1="21.77" x2="-197.03" y2="21.61" xlink:href="#Degradado_sin_nombre_200"/><linearGradient id="Degradado_sin_nombre_200-16" x1="-198.56" y1="22.99" x2="-197.34" y2="22.99" xlink:href="#Degradado_sin_nombre_200"/><radialGradient id="Degradado_sin_nombre_201" cx="51.04" cy="17.46" r="4.55" gradientTransform="translate(103.82 34.9) rotate(180) scale(1.21 1.4)" gradientUnits="userSpaceOnUse"><stop offset="0.15" stop-color="#fff"/><stop offset="1" stop-color="#9b9a9a"/></radialGradient><linearGradient id="Degradado_sin_nombre_202" x1="62.46" y1="34.8" x2="62.46" y2="30.46" gradientTransform="translate(91.59 35.93) rotate(180)" gradientUnits="userSpaceOnUse"><stop offset="0.01" stop-color="#cecdcd"/><stop offset="0.12" stop-color="#989898"/><stop offset="0.41" stop-color="#4d4d4e"/><stop offset="1" stop-color="#010101"/></linearGradient></defs><title>body-car</title><g id="Capa_2" data-name="Capa 2"><g id="Capa_1-2" data-name="Capa 1"><polygon class="cls-1" points="46.65 13.73 36.96 14.48 4.07 14.35 3.45 8.35 47.88 8.35 46.65 13.73"/><path class="cls-2" d="M52.77,9a10.17,10.17,0,0,0-.71-1.26,7.72,7.72,0,0,0-.43-3s-2.4-.28-4.1-.34c-1.85-.06-8-3.22-11.61-3.88A42,42,0,0,0,23.26.73a41,41,0,0,0-10,4.44c-1.48.28-8.87.49-11.43,2.68A4.65,4.65,0,0,0,1,9.48a3.67,3.67,0,0,0-.65.62,8.39,8.39,0,0,0,.09,4.19A12.26,12.26,0,0,0,4.69,15s-.49-2.68.58-4.1A4.54,4.54,0,0,1,9.22,9a4.58,4.58,0,0,1,3.91,2.12A6.28,6.28,0,0,1,14,14.84l23.47-.06A6.25,6.25,0,0,1,38,11.52,4.74,4.74,0,0,1,42.11,9a4.33,4.33,0,0,1,3.82,2.06,5,5,0,0,1,.61,3c1-.15,5.33-.43,6.07-1.33A23.07,23.07,0,0,0,52.77,9Z"/><path class="cls-3" d="M52.77,9a10.09,10.09,0,0,0-.71-1.26,7.71,7.71,0,0,0-.43-3s-2.4-.28-4.1-.34c-1.85-.06-8-3.57-11.61-3.88C33,.27,26.07.27,23.42.89S15.84,4.46,13.23,5.14c-1.32.34-8.87.49-11.43,2.68A4.65,4.65,0,0,0,1,9.45a3.69,3.69,0,0,0-.65.61,8.39,8.39,0,0,0,.09,4.19,12.21,12.21,0,0,0,4.22.68s-.49-2.68.58-4.1A4.54,4.54,0,0,1,9.22,9a4.58,4.58,0,0,1,3.91,2.13A6.28,6.28,0,0,1,14,14.81l23.47-.06A6.25,6.25,0,0,1,38,11.48,4.74,4.74,0,0,1,42.11,9,4.34,4.34,0,0,1,45.93,11a5,5,0,0,1,.61,3c1-.15,5.33-.43,6.07-1.33A23.1,23.1,0,0,0,52.77,9Z"/><path class="cls-4" d="M52.77,9a10.09,10.09,0,0,0-.71-1.26,7.71,7.71,0,0,0-.43-3s-2.4-.28-4.1-.34c-1.85-.06-8-3.57-11.61-3.88C33,.27,26.07.27,23.42.89S15.84,4.46,13.23,5.14c-1.32.34-8.87.49-11.43,2.68A4.65,4.65,0,0,0,1,9.45a3.69,3.69,0,0,0-.65.61,8.39,8.39,0,0,0,.09,4.19,12.21,12.21,0,0,0,4.22.68s-.49-2.68.58-4.1A4.54,4.54,0,0,1,9.22,9a4.58,4.58,0,0,1,3.91,2.13A6.28,6.28,0,0,1,14,14.81l23.47-.06A6.25,6.25,0,0,1,38,11.48,4.74,4.74,0,0,1,42.11,9,4.34,4.34,0,0,1,45.93,11a5,5,0,0,1,.61,3c1-.15,5.33-.43,6.07-1.33A23.1,23.1,0,0,0,52.77,9Z"/><path class="cls-5" d="M18.64,9.58l-2.43.1c-.81,0-1.16,1-2,.35A8.47,8.47,0,0,0,9.87,8.6c-4-.2-5.34,2.5-5.39,2.67s.21,1.15-2,.21c-2-.86-1.91-1.41-2-1.27A3.83,3.83,0,0,1,1,9.65,4.67,4.67,0,0,1,1.79,8C4.34,5.83,11.87,5.68,13.18,5.34c2.61-.68,7.43-3.61,10.16-4.25S32.9.47,35.81.72C39.43,1,45.54,4.54,47.38,4.6c1.69.06,4.08.34,4.08.34a4.07,4.07,0,0,1,.39,1.67C44.93,6.8,30.05,9.11,18.64,9.58Z"/><path class="cls-6" d="M28.63,5.29s-.24,5.85-.1,9.15"/><path class="cls-7" d="M24.28,7h2.44c.21,0,.22-.38,0-.38H24.28C24.11,6.59,24.14,7,24.28,7Z"/><circle class="cls-8" cx="41.99" cy="14.05" r="3.91"/><path class="cls-9" d="M42,16.73a2.67,2.67,0,1,1,2.67-2.67A2.68,2.68,0,0,1,42,16.73Z"/><path class="cls-10" d="M42,11.45a2.61,2.61,0,1,1-2.61,2.61A2.61,2.61,0,0,1,42,11.45m0-.13a2.74,2.74,0,1,0,2.74,2.74A2.74,2.74,0,0,0,42,11.31Z"/><g class="cls-11"><polygon class="cls-12" points="42.01 13.14 41.77 12.61 41.77 11.65 42.49 11.94 42.39 12.85 42.01 13.14"/><polygon class="cls-13" points="41.35 13.38 40.8 13.2 40.1 12.54 40.81 12.21 41.4 12.91 41.35 13.38"/><polygon class="cls-14" points="41.12 14 40.6 14.26 39.65 14.29 39.91 13.56 40.82 13.62 41.12 14"/><polygon class="cls-15" points="41.36 14.64 41.13 15.17 40.41 15.81 40.15 15.09 40.89 14.55 41.36 14.64"/><polygon class="cls-16" points="41.98 14.97 42.21 15.5 42.19 16.46 41.48 16.16 41.59 15.24 41.98 14.97"/><polygon class="cls-17" points="42.59 14.73 43.13 14.94 43.8 15.63 43.08 15.92 42.52 15.2 42.59 14.73"/><polygon class="cls-18" points="42.83 14.08 43.37 13.89 44.33 13.98 43.98 14.67 43.08 14.49 42.83 14.08"/><polygon class="cls-19" points="42.63 13.46 42.87 12.94 43.6 12.32 43.85 13.05 43.09 13.57 42.63 13.46"/></g><circle class="cls-8" cx="8.96" cy="14.05" r="3.91"/><path class="cls-9" d="M9,16.73a2.67,2.67,0,1,1,2.67-2.67A2.68,2.68,0,0,1,9,16.73Z"/><path class="cls-10" d="M9,11.45a2.61,2.61,0,1,1-2.61,2.61A2.61,2.61,0,0,1,9,11.45m0-.13a2.74,2.74,0,1,0,2.74,2.74A2.74,2.74,0,0,0,9,11.31Z"/><g class="cls-11"><polygon class="cls-20" points="8.98 13.14 8.74 12.61 8.74 11.65 9.46 11.94 9.37 12.85 8.98 13.14"/><polygon class="cls-21" points="8.32 13.38 7.78 13.2 7.08 12.54 7.78 12.21 8.38 12.91 8.32 13.38"/><polygon class="cls-22" points="8.1 14 7.58 14.26 6.62 14.29 6.88 13.56 7.8 13.62 8.1 14"/><polygon class="cls-23" points="8.34 14.64 8.11 15.17 7.39 15.81 7.12 15.09 7.87 14.55 8.34 14.64"/><polygon class="cls-24" points="8.96 14.97 9.19 15.5 9.17 16.46 8.45 16.16 8.57 15.24 8.96 14.97"/><polygon class="cls-25" points="9.57 14.73 10.11 14.94 10.78 15.63 10.06 15.92 9.49 15.2 9.57 14.73"/><polygon class="cls-26" points="9.8 14.08 10.35 13.89 11.3 13.98 10.95 14.67 10.05 14.49 9.8 14.08"/><polygon class="cls-27" points="9.6 13.46 9.85 12.94 10.58 12.32 10.82 13.05 10.07 13.57 9.6 13.46"/></g><g class="cls-11"><path class="cls-28" d="M42,12.54a1.51,1.51,0,1,1-1.51,1.51A1.51,1.51,0,0,1,42,12.54m0-1.23a2.74,2.74,0,1,0,2.74,2.74A2.74,2.74,0,0,0,42,11.31Z"/></g><g class="cls-11"><path class="cls-28" d="M9,12.54a1.51,1.51,0,1,1-1.51,1.51A1.51,1.51,0,0,1,9,12.54m0-1.23a2.74,2.74,0,1,0,2.74,2.74A2.74,2.74,0,0,0,9,11.31Z"/></g><path class="cls-29" d="M46.76,13.22c1.55,0,4.46-.44,5.73-.57l0,.14c-.76.91-4.82,1.1-5.86,1.26A2.42,2.42,0,0,0,46.76,13.22Z"/><path class="cls-29" d="M37.38,14.61l-23.21.1a5.85,5.85,0,0,0-.07-1c4.57.07,19.92,0,23.19-.06C37.31,14.23,37.38,14.61,37.38,14.61Z"/><path class="cls-29" d="M4.44,14.08a2.38,2.38,0,0,1,.14.9,8.81,8.81,0,0,1-4.17-.85C2.39,14.27,3.34,14,4.44,14.08Z"/><path class="cls-30" d="M46.49,10.45a6.19,6.19,0,0,0-8.82.3c-.25.33-1.94.58-1.94.58L34.16,9,38,6.6l5.8-.73,4,1.45.35,2.3-1.44,1.15Z"/><path class="cls-7" d="M37.94,6.68h2.44c.21,0,.22-.38,0-.38H37.94C37.77,6.3,37.8,6.69,37.94,6.68Z"/><path class="cls-31" d="M2.63,9.63c-.66,0-.91-.14-1-.26a.23.23,0,0,1-.05-.19c0-.32,1.5-1.32,3-1.81a3.17,3.17,0,0,1,.9-.17A.6.6,0,0,1,6,7.35a.32.32,0,0,1,.08.24,12.78,12.78,0,0,1-2,1.89A8.93,8.93,0,0,1,2.63,9.63Z"/><path class="cls-32" d="M5.51,7.22c.58,0,.52.36.52.36a13.28,13.28,0,0,1-2,1.87,9.12,9.12,0,0,1-1.44.14c-1.14,0-1-.41-1-.41,0-.31,1.5-1.31,3-1.79a3.09,3.09,0,0,1,.89-.17m0-.06a3.2,3.2,0,0,0-.91.17c-1.44.46-3,1.47-3.05,1.84h0a.26.26,0,0,0,.06.2c.14.18.49.27,1,.27a9.3,9.3,0,0,0,1.45-.14h0a12.29,12.29,0,0,0,2-1.9A.35.35,0,0,0,6,7.33a.63.63,0,0,0-.5-.17Z"/><path class="cls-33" d="M22.95,1.79a49.35,49.35,0,0,1,6.93-.66A43.32,43.32,0,0,1,36,1.48c1.78.38,5.12,3,5.43,3.27l-8.07.31-16,.42-.41-.89A27.18,27.18,0,0,1,22.95,1.79Z"/><polygon class="cls-34" points="29.83 1.11 28.38 1.18 27.63 5.13 29.73 5.13 29.83 1.11"/></g></g></svg>