<?xml version="1.0" encoding="utf-8"?>
<!-- Generator: Adobe Illustrator 21.1.0, SVG Export Plug-In . SVG Version: 6.00 Build 0)  -->
<svg version="1.1" id="Capa_1" xmlns="http://www.w3.org/2000/svg" xmlns:xlink="http://www.w3.org/1999/xlink" x="0px" y="0px"
	 viewBox="0 0 53 18" style="enable-background:new 0 0 53 18;" xml:space="preserve">
<style type="text/css">
	.st0{fill:#FFFFFF;}
	.st1{fill:#FFFFFF;stroke:#FFFFFF;stroke-width:0.32;}
	.st2{opacity:0.18;fill:url(#SVGID_1_);enable-background:new    ;}
	.st3{fill:#D2D2D2;}
	.st4{fill:none;stroke:#FFFFFF;stroke-width:0.27;stroke-miterlimit:10;}
	.st5{fill:#FFFFFF;stroke:#FFFFFF;stroke-width:0.15;stroke-miterlimit:10;}
	.st6{fill:#CECDCD;}
	.st7{opacity:0.5;}
	.st8{fill:#FFFFFF;stroke:#FFFFFF;stroke-width:0.16;}
</style>
<title>body-car</title>
<g id="Capa_2">
	<g id="Capa_1-2">
		<polygon class="st0" points="46.7,13.7 37,14.5 4.1,14.3 3.5,8.3 47.9,8.3 		"/>
		<path class="st1" d="M52.8,9c-0.2-0.4-0.4-0.9-0.7-1.3c0.1-1-0.1-2-0.4-3c0,0-2.4-0.3-4.1-0.3c-1.8-0.1-8-3.2-11.6-3.9
			C31.7-0.1,27.4,0,23.3,0.7c-3.5,1-6.9,2.5-10,4.4C11.8,5.4,4.4,5.7,1.8,7.8C1.4,8.3,1.2,8.9,1,9.5c-0.2,0.2-0.5,0.4-0.6,0.6
			c-0.3,1.4-0.3,2.8,0.1,4.2C1.8,14.8,3.2,15,4.7,15c0,0-0.5-2.7,0.6-4.1c0.9-1.3,2.4-2,4-1.9c1.6,0,3.1,0.8,3.9,2.1
			c0.7,1.1,1,2.4,0.9,3.7l23.5-0.1c-0.1-1.1,0.1-2.2,0.5-3.3C38.8,10,40.4,9,42.1,9c1.6,0,3,0.7,3.8,2.1c0.5,0.9,0.7,2,0.6,3
			c1-0.1,5.3-0.4,6.1-1.3C52.8,11.5,52.8,10.2,52.8,9z"/>
		
			<linearGradient id="SVGID_1_" gradientUnits="userSpaceOnUse" x1="-722.8661" y1="574.2816" x2="-722.8661" y2="559.7135" gradientTransform="matrix(-1 0 0 1 -696.41 -559.35)">
			<stop  offset="0" style="stop-color:#FFFFFF;stop-opacity:0.18"/>
			<stop  offset="0.51" style="stop-color:#DCDBDB"/>
		</linearGradient>
		<path class="st2" d="M52.8,9c-0.2-0.4-0.4-0.9-0.7-1.3c0.1-1-0.1-2-0.4-3c0,0-2.4-0.3-4.1-0.3c-1.8-0.1-8-3.6-11.6-3.9
			C33,0.3,26.1,0.3,23.4,0.9s-7.6,3.6-10.2,4.2C11.9,5.5,4.4,5.6,1.8,7.8C1.4,8.3,1.2,8.9,1,9.4c-0.2,0.2-0.5,0.4-0.6,0.6
			c-0.3,1.4-0.3,2.8,0.1,4.2c1.4,0.5,2.8,0.7,4.2,0.7c0,0-0.5-2.7,0.6-4.1c0.9-1.3,2.4-1.9,4-1.8c1.6,0,3.1,0.8,3.9,2.1
			c0.7,1.1,1,2.4,0.9,3.7l23.5-0.1c-0.1-1.1,0.1-2.2,0.5-3.3C38.8,10,40.4,9,42.1,9c1.5-0.1,3,0.7,3.8,2c0.5,0.9,0.7,2,0.6,3
			c1-0.1,5.3-0.4,6.1-1.3C52.8,11.5,52.8,10.2,52.8,9z"/>
		<path class="st3" d="M52.8,9c-0.2-0.4-0.4-0.9-0.7-1.3c0.1-1-0.1-2-0.4-3c0,0-2.4-0.3-4.1-0.3c-1.8-0.1-8-3.6-11.6-3.9
			C33,0.3,26.1,0.3,23.4,0.9s-7.6,3.6-10.2,4.2C11.9,5.5,4.4,5.6,1.8,7.8C1.4,8.3,1.2,8.9,1,9.4c-0.2,0.2-0.5,0.4-0.6,0.6
			c-0.3,1.4-0.3,2.8,0.1,4.2c1.4,0.5,2.8,0.7,4.2,0.7c0,0-0.5-2.7,0.6-4.1c0.9-1.3,2.4-1.9,4-1.8c1.6,0,3.1,0.8,3.9,2.1
			c0.7,1.1,1,2.4,0.9,3.7l23.5-0.1c-0.1-1.1,0.1-2.2,0.5-3.3C38.8,10,40.4,9,42.1,9c1.5-0.1,3,0.7,3.8,2c0.5,0.9,0.7,2,0.6,3
			c1-0.1,5.3-0.4,6.1-1.3C52.8,11.5,52.8,10.2,52.8,9z"/>
		<path class="st3" d="M18.6,9.6l-2.4,0.1c-0.8,0-1.2,1-2,0.4c-1.3-0.9-2.8-1.4-4.3-1.4c-4-0.2-5.3,2.5-5.4,2.7s0.2,1.1-2,0.2
			c-2-0.9-1.9-1.4-2-1.3C0.6,10,0.8,9.8,1,9.6C1.2,9.1,1.4,8.5,1.8,8c2.6-2.2,10.1-2.3,11.4-2.7c2.6-0.7,7.4-3.6,10.2-4.2
			s9.6-0.6,12.5-0.4c3.6,0.3,9.7,3.8,11.6,3.9c1.7,0.1,4.1,0.3,4.1,0.3c0.2,0.5,0.4,1.1,0.4,1.7C44.9,6.8,30,9.1,18.6,9.6z"/>
		<path class="st4" d="M28.6,5.3c0,0-0.2,5.8-0.1,9.1"/>
		<path class="st5" d="M24.3,7h2.4c0.2,0,0.2-0.4,0-0.4h-2.4C24.1,6.6,24.1,7,24.3,7z"/>
		<circle class="st3" cx="42" cy="14" r="3.9"/>
		<path class="st3" d="M42,16.7c-1.5,0-2.7-1.2-2.7-2.7s1.2-2.7,2.7-2.7s2.7,1.2,2.7,2.7c0,0,0,0,0,0C44.7,15.5,43.5,16.7,42,16.7z"
			/>
		<path class="st6" d="M42,11.4c1.4,0,2.6,1.2,2.6,2.6s-1.2,2.6-2.6,2.6s-2.6-1.2-2.6-2.6S40.6,11.4,42,11.4L42,11.4 M42,11.3
			c-1.5,0-2.7,1.2-2.7,2.7s1.2,2.7,2.7,2.7c1.5,0,2.7-1.2,2.7-2.7C44.7,12.5,43.5,11.3,42,11.3C42,11.3,42,11.3,42,11.3L42,11.3z"/>
		<g class="st7">
			<polygon class="st0" points="42,13.1 41.8,12.6 41.8,11.6 42.5,11.9 42.4,12.8 			"/>
			<polygon class="st0" points="41.3,13.4 40.8,13.2 40.1,12.5 40.8,12.2 41.4,12.9 			"/>
			<polygon class="st0" points="41.1,14 40.6,14.3 39.7,14.3 39.9,13.6 40.8,13.6 			"/>
			<polygon class="st0" points="41.4,14.6 41.1,15.2 40.4,15.8 40.2,15.1 40.9,14.5 			"/>
			<polygon class="st0" points="42,15 42.2,15.5 42.2,16.5 41.5,16.2 41.6,15.2 			"/>
			<polygon class="st0" points="42.6,14.7 43.1,14.9 43.8,15.6 43.1,15.9 42.5,15.2 			"/>
			<polygon class="st0" points="42.8,14.1 43.4,13.9 44.3,14 44,14.7 43.1,14.5 			"/>
			<polygon class="st0" points="42.6,13.5 42.9,12.9 43.6,12.3 43.8,13 43.1,13.6 			"/>
		</g>
		<circle class="st3" cx="9" cy="14" r="3.9"/>
		<path class="st3" d="M9,16.7c-1.5,0-2.7-1.2-2.7-2.7s1.2-2.7,2.7-2.7s2.7,1.2,2.7,2.7l0,0C11.7,15.5,10.5,16.7,9,16.7z"/>
		<path class="st6" d="M9,11.4c1.4,0,2.6,1.2,2.6,2.6s-1.2,2.6-2.6,2.6s-2.6-1.2-2.6-2.6l0,0C6.4,12.6,7.6,11.4,9,11.4 M9,11.3
			c-1.5,0-2.7,1.2-2.7,2.7s1.2,2.7,2.7,2.7s2.7-1.2,2.7-2.7l0,0C11.7,12.5,10.5,11.3,9,11.3C9,11.3,9,11.3,9,11.3L9,11.3z"/>
		<g class="st7">
			<polygon class="st0" points="9,13.1 8.7,12.6 8.7,11.6 9.5,11.9 9.4,12.8 			"/>
			<polygon class="st0" points="8.3,13.4 7.8,13.2 7.1,12.5 7.8,12.2 8.4,12.9 			"/>
			<polygon class="st0" points="8.1,14 7.6,14.3 6.6,14.3 6.9,13.6 7.8,13.6 			"/>
			<polygon class="st0" points="8.3,14.6 8.1,15.2 7.4,15.8 7.1,15.1 7.9,14.5 			"/>
			<polygon class="st0" points="9,15 9.2,15.5 9.2,16.5 8.4,16.2 8.6,15.2 			"/>
			<polygon class="st0" points="9.6,14.7 10.1,14.9 10.8,15.6 10.1,15.9 9.5,15.2 			"/>
			<polygon class="st0" points="9.8,14.1 10.4,13.9 11.3,14 10.9,14.7 10.1,14.5 			"/>
			<polygon class="st0" points="9.6,13.5 9.9,12.9 10.6,12.3 10.8,13 10.1,13.6 			"/>
		</g>
		<g class="st7">
			<path class="st0" d="M42,12.5c0.8,0,1.5,0.7,1.5,1.5s-0.7,1.5-1.5,1.5c-0.8,0-1.5-0.7-1.5-1.5v0C40.5,13.2,41.2,12.5,42,12.5
				 M42,11.3c-1.5,0-2.7,1.2-2.7,2.7s1.2,2.7,2.7,2.7c1.5,0,2.7-1.2,2.7-2.7S43.5,11.3,42,11.3C42,11.3,42,11.3,42,11.3z"/>
		</g>
		<g class="st7">
			<path class="st0" d="M9,12.5c0.8,0,1.5,0.7,1.5,1.5S9.8,15.6,9,15.6S7.5,14.9,7.5,14S8.2,12.5,9,12.5C9,12.5,9,12.5,9,12.5
				 M9,11.3c-1.5,0-2.7,1.2-2.7,2.7s1.2,2.7,2.7,2.7s2.7-1.2,2.7-2.7l0,0C11.7,12.5,10.5,11.3,9,11.3z"/>
		</g>
		<path class="st3" d="M46.8,13.2c1.5,0,4.5-0.4,5.7-0.6v0.1c-0.8,0.9-4.8,1.1-5.9,1.3C46.7,13.8,46.8,13.5,46.8,13.2z"/>
		<path class="st3" d="M37.4,14.6l-23.2,0.1c0-0.3,0-0.7-0.1-1c4.6,0.1,19.9,0,23.2-0.1C37.3,14.2,37.4,14.6,37.4,14.6z"/>
		<path class="st3" d="M4.4,14.1c0.1,0.3,0.2,0.6,0.1,0.9c-1.4,0.1-2.9-0.2-4.2-0.9C2.4,14.3,3.3,14,4.4,14.1z"/>
		<path class="st5" d="M37.9,6.7h2.4c0.2,0,0.2-0.4,0-0.4h-2.4C37.8,6.3,37.8,6.7,37.9,6.7z"/>
		<path class="st0" d="M2.6,9.6c-0.7,0-0.9-0.1-1-0.3c0-0.1-0.1-0.1,0-0.2c0-0.3,1.5-1.3,3-1.8c0.3-0.1,0.6-0.2,0.9-0.2
			c0.2,0,0.4,0,0.5,0.1c0.1,0.1,0.1,0.2,0.1,0.2c-0.6,0.7-1.3,1.3-2,1.9C3.6,9.6,3.1,9.6,2.6,9.6z"/>
		<path class="st0" d="M5.5,7.2C6.1,7.2,6,7.6,6,7.6C5.4,8.3,4.8,8.9,4,9.4c-0.5,0.1-1,0.1-1.4,0.1c-1.1,0-1-0.4-1-0.4
			c0-0.3,1.5-1.3,3-1.8C4.9,7.3,5.2,7.2,5.5,7.2 M5.5,7.2c-0.3,0-0.6,0.1-0.9,0.2c-1.4,0.5-3,1.5-3,1.8l0,0c0,0.1,0,0.1,0.1,0.2
			c0.1,0.2,0.5,0.3,1,0.3c0.5,0,1-0.1,1.5-0.1l0,0c0.7-0.6,1.4-1.2,2-1.9c0-0.1,0-0.2,0-0.3C5.9,7.2,5.7,7.1,5.5,7.2L5.5,7.2z"/>
		<path class="st8" d="M23,1.8c2.3-0.4,4.6-0.6,6.9-0.7c2,0,4.1,0.1,6.1,0.4c1.8,0.4,5.1,3,5.4,3.3l-8.1,0.3l-16,0.4L17,4.6
			C18.8,3.4,20.8,2.5,23,1.8z"/>
		<polygon class="st3" points="29.8,1.1 28.4,1.2 27.6,5.1 29.7,5.1 		"/>
	</g>
</g>
</svg>
