<svg xmlns="http://www.w3.org/2000/svg" viewBox="0 0 376.31 346.65"><defs><style>.cls-1{fill:#fff;}.cls-2{fill:none;}</style></defs><title>buy-easy</title><g id="Capa_2" data-name="Capa 2"><g id="Capa_1-2" data-name="Capa 1"><g id="KR7MtH.tif"><path class="cls-1" d="M279.95,195.29c-1.74-7.62-3.33-14.75-5-21.85-2-8.57-3.43-17.36-6.36-25.62s-8.75-10.28-17.86-8.1-12.2,6-11.93,15a34.08,34.08,0,0,0,.64,6c4.07,19.38,8.22,38.74,12.3,58.12,1.69,8,3.24,16.07,5,24.63-3-.4-5.17-.75-7.31-1-10.2-1-20.31-.91-30.07,2.76-5.59,2.1-9.74,5.67-11.36,11.68-2.26,8.42,1,16.74,9.58,20.84,5.44,2.61,11.63,3.74,17.57,5.2,15.88,3.92,29.82,10.83,38.38,25.52C280.27,320.1,286.6,332,293,343.88c1.3,2.4,2.52,3.22,5.45,2.54,10.37-2.4,20.85-4.36,31.27-6.54,14.3-3,28.59-6,41.8-8.81,0-12.76-.34-24.9.11-37,.36-9.6.71-19.37,2.78-28.69,4.61-20.81.51-40-8.9-58.41-3.43-6.73-9.11-10.29-16.82-8.9-5.42,1-9.52-.77-13.75-3.89-9.15-6.76-18.89-6.89-28.48-1-2.7,1.67-4.6,2-7-.09-4.37-3.71-9.09-3.5-13.91-.88ZM283.43,176c9.92,0,19.41-.14,28.9,0,8.79.17,15.49-3.68,19-11.31a45.82,45.82,0,0,0,4.48-18.11c.39-40.32.22-80.65.19-121C336,8.25,327.65,0,310.24,0h-189C89.61,0,58,0,26.29.07,11.27.12.1,10.51.07,24.49Q-.09,86.23,0,148c0,13.79,12.73,28.33,28.52,28.23,66.65-.41,133.31-.17,200-.17h5.65l-3.29-16h-5.15L29.26,160c-7.53,0-13.15-5-13.18-12.52C16,106.67,16,65.85,16,25a7.87,7.87,0,0,1,6.05-8.15,24,24,0,0,1,6.87-.81Q169.65,16,310.37,16c8.25,0,9.64,1.32,9.65,9.47q0,60.49,0,121a43.19,43.19,0,0,1-.8,7.41c-.78,4.43-3.29,6.36-8,6.23-10.28-.28-20.58-.09-31.19-.09Zm-205-55.72c12.36-.65,24.53-.4,36.41-2.18,10.31-1.54,14.88-9.18,14.36-19.63-.35-7.06-4.2-11.57-10.88-14.36.9-.75,1.36-1.16,1.84-1.53,10.11-7.8,8.88-22.35-2.62-27.86a30.49,30.49,0,0,0-11.47-2.95c-9.2-.42-18.44-.14-27.65-.14Zm61.59-68.65c0,14.33.44,28.16-.1,41.95-.79,20.13,13,27.49,28.7,27,15.82-.5,27.25-8.73,26.32-27.41-.37-7.31-.06-14.65-.06-22,0-6.44,0-12.88,0-19.59H181.07c0,2.08,0,3.86,0,5.64,0,13.49.11,27-.08,40.46-.11,8.08-5.12,12.36-13.74,12.32-8.3,0-13.1-4.3-13.28-12.25-.2-8.82-.06-17.65-.06-26.47,0-6.45,0-12.9,0-19.67Zm97.73,67.85a9.22,9.22,0,0,0,.36-2.33c-2.51-16.26,3.38-30.2,11.74-43.56,2.81-4.5,5-9.37,7.5-14.07,1.28-2.44,2.55-4.88,4.28-8.19-3.07,0-5.21.29-7.24-.05-5.84-1-8.92,1.38-11.1,6.9-3.27,8.25-7.5,16.12-11.66,24.88-4.77-10-9.07-19.19-13.52-28.27-.65-1.33-2-3.15-3.14-3.26-4.17-.39-8.41-.16-13.38-.16,6.4,12.07,12.09,23.33,18.28,34.31,3.54,6.27,5.6,12.58,4.9,19.86-.43,4.54-.08,9.15-.08,13.94Z"/><path class="cls-1" d="M279.95,195.29l5.59-3.06c4.82-2.62,9.54-2.83,13.91.88,2.41,2,4.31,1.77,7,.09,9.58-5.93,19.33-5.81,28.48,1,4.23,3.13,8.33,4.87,13.75,3.89,7.71-1.4,13.38,2.17,16.82,8.9,9.41,18.45,13.51,37.6,8.9,58.41-2.06,9.32-2.42,19.09-2.78,28.69-.45,12.11-.11,24.26-.11,37-13.21,2.79-27.5,5.82-41.8,8.81-10.43,2.18-20.9,4.14-31.27,6.54-2.93.68-4.15-.14-5.45-2.54-6.4-11.86-12.73-23.77-19.51-35.42-8.56-14.69-22.5-21.6-38.38-25.52-5.94-1.47-12.13-2.6-17.57-5.2-8.53-4.09-11.84-12.41-9.58-20.84,1.61-6,5.77-9.58,11.36-11.68,9.76-3.68,19.87-3.78,30.07-2.76,2.14.21,4.26.56,7.31,1-1.72-8.55-3.28-16.6-5-24.63-4.08-19.38-8.23-38.74-12.3-58.12a34.08,34.08,0,0,1-.64-6c-.27-9,2.82-12.81,11.93-15s14.93-.13,17.86,8.1,4.34,17,6.36,25.62C276.62,180.54,278.21,187.67,279.95,195.29Z"/><path class="cls-1" d="M283.43,176,280,160c10.62,0,20.91-.2,31.19.09,4.74.13,7.25-1.8,8-6.23a43.19,43.19,0,0,0,.8-7.41q.08-60.49,0-121c0-8.15-1.4-9.47-9.65-9.47q-140.72,0-281.44,0a24,24,0,0,0-6.87.81A7.87,7.87,0,0,0,16,25c0,40.83-.05,81.65.07,122.48C16.11,155,21.73,160,29.26,160l196.46,0h5.15l3.29,16h-5.65c-66.65,0-133.31-.24-200,.17C12.76,176.29,0,161.75,0,148Q0,86.23.07,24.49C.1,10.51,11.27.12,26.29.07,58,0,89.61,0,121.27,0h189C327.65,0,336,8.25,336,25.66c0,40.33.2,80.65-.19,121a45.82,45.82,0,0,1-4.48,18.11c-3.52,7.63-10.22,11.48-19,11.31C302.84,175.88,293.35,176,283.43,176Z"/><path class="cls-1" d="M78.47,120.3V51.65c9.21,0,18.44-.29,27.65.14a30.49,30.49,0,0,1,11.47,2.95c11.5,5.51,12.73,20.07,2.62,27.86-.49.37-.95.78-1.84,1.53,6.69,2.79,10.53,7.3,10.88,14.36.52,10.45-4.05,18.09-14.36,19.63C103,119.9,90.83,119.65,78.47,120.3Zm13.74-11.38c5.36,0,10.35.32,15.28-.09,5.44-.45,8.37-4.13,8.29-9.44-.08-5.68-2.68-9.21-8-9.64-5.08-.42-10.23-.09-15.58-.09Zm-.13-28.66c5.2-.33,10-.25,14.66-1,4.26-.71,6.42-3.75,6.38-8.23s-2.06-7.6-6.36-8.27c-4.79-.75-9.72-.63-14.69-.89Z"/><path class="cls-1" d="M140.06,51.65h13.85c0,6.77,0,13.22,0,19.67,0,8.82-.13,17.65.06,26.47.18,7.95,5,12.21,13.28,12.25,8.62,0,13.63-4.24,13.74-12.32.19-13.48.07-27,.08-40.46,0-1.78,0-3.57,0-5.64h13.85c0,6.71,0,13.15,0,19.59,0,7.33-.31,14.67.06,22,.94,18.69-10.5,26.91-26.32,27.41-15.67.49-29.5-6.87-28.7-27C140.5,79.81,140.06,66,140.06,51.65Z"/><path class="cls-1" d="M237.79,119.49H224.71c0-4.79-.35-9.4.08-13.94.69-7.28-1.36-13.59-4.9-19.86-6.19-11-11.88-22.23-18.28-34.31,5,0,9.21-.24,13.38.16,1.16.11,2.49,1.93,3.14,3.26,4.46,9.09,8.75,18.25,13.52,28.27,4.17-8.76,8.4-16.63,11.66-24.88,2.19-5.52,5.26-7.88,11.1-6.9,2,.34,4.17.05,7.24.05-1.73,3.31-3,5.76-4.28,8.19-2.48,4.7-4.69,9.58-7.5,14.07-8.36,13.36-14.26,27.3-11.74,43.56A9.22,9.22,0,0,1,237.79,119.49Z"/><path class="cls-2" d="M92.22,108.92V89.66c5.35,0,10.49-.33,15.58.09,5.32.44,7.92,4,8,9.64.07,5.3-2.85,9-8.29,9.44C102.57,109.24,97.58,108.92,92.22,108.92Z"/><path class="cls-1" d="M92.09,80.26V61.83c5,.26,9.89.15,14.69.89,4.3.67,6.33,3.84,6.36,8.27s-2.13,7.53-6.38,8.23C102.09,80,97.29,79.93,92.09,80.26Z"/></g></g></g></svg>