<?xml version="1.0" encoding="utf-8"?>
<!-- Generator: Adobe Illustrator 21.1.0, SVG Export Plug-In . SVG Version: 6.00 Build 0)  -->
<svg version="1.1" id="Capa_1" xmlns="http://www.w3.org/2000/svg" xmlns:xlink="http://www.w3.org/1999/xlink" x="0px" y="0px"
	 viewBox="0 0 60 60" style="enable-background:new 0 0 60 60;" xml:space="preserve">
<style type="text/css">
	.st0{fill:#D2D2D2;}
	.st1{fill:#FFFFFF;}
</style>
<g>
	<path class="st0" d="M57,4h-7V1c0-0.6-0.4-1-1-1h-7c-0.6,0-1,0.4-1,1v3H19V1c0-0.6-0.4-1-1-1h-7c-0.6,0-1,0.4-1,1v3H3
		C2.4,4,2,4.4,2,5v11v43c0,0.6,0.4,1,1,1h54c0.6,0,1-0.4,1-1V16V5C58,4.4,57.6,4,57,4z M43,2h5v3v3h-5V5V2z M12,2h5v3v3h-5V5V2z
		 M4,6h6v3c0,0.6,0.4,1,1,1h7c0.6,0,1-0.4,1-1V6h22v3c0,0.6,0.4,1,1,1h7c0.6,0,1-0.4,1-1V6h6v9H4V6z M43,2h5v3v3h-5V5V2z M12,2h5v3
		v3h-5V5V2z"/>
	<path class="st1" d="M38,24h-7h-2h-7h-2h-9v9v2v7v2v9h9h2h7h2h7h2h9v-9v-2v-7v-2v-9h-9H38z M31,26h7v7h-7V26z M38,42h-7v-7h7V42z
		 M22,35h7v7h-7V35z M22,26h7v7h-7V26z M13,26h7v7h-7V26z M13,35h7v7h-7V35z M20,51h-7v-7h7V51z M29,51h-7v-7h7V51z M38,51h-7v-7h7
		V51z M47,51h-7v-7h7V51z M47,42h-7v-7h7V42z M47,26v7h-7v-7H47z"/>
</g>
</svg>
