<?xml version="1.0" encoding="utf-8"?>
<svg id="master-artboard" viewBox="0 0 1400 980" version="1.1" xmlns="http://www.w3.org/2000/svg" x="0px" y="0px" style="enable-background:new 0 0 1400 980;" width="1400px" height="980px"><g transform="matrix(22.580645161290324, 0, 0, 22.580645161290324, -0.00006094910713727586, 4.516129032257993)"><title>free-uk</title><desc>Created with Sketch.</desc><g fill="#ffffff"><path d="M46.668 42.509c9.637 0 15.291-8.069 15.291-20.824 0-12.672-5.682-20.685-15.291-20.685-9.581 0-15.346 8.041-15.346 20.713 0 12.755 5.71 20.796 15.346 20.796zm0-5.213c-5.737 0-9.024-5.934-9.024-15.583 0-9.511 3.342-15.5 9.024-15.5 5.682 0 8.996 5.961 8.996 15.5 0 9.677-3.259 15.583-8.996 15.583z" transform="matrix(0.9211298227310181, 0, 0, 0.9211298227310181, -26.77714580740897, 1.8990212320501243)"/><path d="M 10.918367385864258 21.40093994140625" style="fill: rgb(255, 255, 255); fill-opacity: 1; stroke: rgb(0, 0, 0); stroke-opacity: 1; stroke-width: 0; paint-order: fill;"/></g></g><g transform="matrix(1, 0, 0, 1, -0.00006094910713727586, -5.684341886080802e-14)"><g transform="matrix(15.3125, 0, 0, 15.3125, 209.99993905089286, -5.684341886080802e-14)"><path d="M11.468,63.315c1.253,1.108,3.3,0.843,4.57-0.596l44.5-50.317c1.271-1.437,1.286-3.501,0.032-4.61l-8.038-7.109  c-1.253-1.108-3.3-0.841-4.571,0.596L3.462,51.597c-1.271,1.439-1.286,3.501-0.032,4.609L11.468,63.315z" style="fill: rgb(255, 255, 255);" transform="matrix(0.7236362119409638, -0.06412512814106808, 0.06412512814106808, 0.7236362119409638, 30.155510599109846, 10.387817559615552)"/><path d="M 22.334 11.167 A 11.167 11.167 0 0 1 11.167 22.334 A 11.167 11.167 0 0 1 0 11.167 A 11.167 11.167 0 0 1 11.167 0 A 11.167 11.167 0 0 1 22.334 11.167 Z" style="fill: rgb(255, 255, 255);" transform="matrix(0.8306431770324706, 0, 0, 0.8306431770324706, 33.650454024867884, 9.390824650184019)"/><path d="M 64 52.833 A 11.167 11.167 0 0 1 52.833 64 A 11.167 11.167 0 0 1 41.666 52.833 A 11.167 11.167 0 0 1 52.833 41.666 A 11.167 11.167 0 0 1 64 52.833 Z" style="fill: rgb(255, 255, 255);" transform="matrix(0.8540030121803284, 0, 0, 0.8540030121803284, 22.517062933728354, 0.213856114608447)"/></g></g></svg>