<?xml version="1.0" encoding="utf-8"?>
<svg id="master-artboard" viewBox="0 0 1400 980" version="1.1" xmlns="http://www.w3.org/2000/svg" x="0px" y="0px" style="enable-background:new 0 0 1400 980;" width="1400px" height="980px"><g transform="matrix(15.3125, 0, 0, 15.3125, 209.99993905089286, -5.684341886080802e-14)"><path d="M11.468,63.315c1.253,1.108,3.3,0.843,4.57-0.596l44.5-50.317c1.271-1.437,1.286-3.501,0.032-4.61l-8.038-7.109  c-1.253-1.108-3.3-0.841-4.571,0.596L3.462,51.597c-1.271,1.439-1.286,3.501-0.032,4.609L11.468,63.315z" style="fill: rgb(255, 255, 255);"/><path d="M 22.334 11.167 A 11.167 11.167 0 0 1 11.167 22.334 A 11.167 11.167 0 0 1 0 11.167 A 11.167 11.167 0 0 1 11.167 0 A 11.167 11.167 0 0 1 22.334 11.167 Z" style="fill: rgb(255, 255, 255);"/><path d="M 64 52.833 A 11.167 11.167 0 0 1 52.833 64 A 11.167 11.167 0 0 1 41.666 52.833 A 11.167 11.167 0 0 1 52.833 41.666 A 11.167 11.167 0 0 1 64 52.833 Z" style="fill: rgb(255, 255, 255);"/></g></svg>