<svg xmlns="http://www.w3.org/2000/svg" viewBox="0 0 49.25 49.25"><title>email</title><g id="Capa_2" data-name="Capa 2"><g id="Layer_1" data-name="Layer 1"><path d="M24.63,0A24.62,24.62,0,1,0,49.25,24.62,24.62,24.62,0,0,0,24.63,0ZM33,11.36a.28.28,0,0,1,.2.08L35,13.15a.28.28,0,0,1,0,.4l-10,10a.28.28,0,0,1-.4,0l-5-5a.28.28,0,0,1,0-.4l1.72-1.71a.28.28,0,0,1,.4,0l3.11,3.11,8.13-8.13A.28.28,0,0,1,33,11.36ZM10.51,33.68V20.46a2.1,2.1,0,0,1,.12-.67h0a2.11,2.11,0,0,1,.76-1.05l12-8.65a2.12,2.12,0,0,1,2.48,0l4.38,3.16-.81.81L25.2,11A1,1,0,0,0,24,11l-12,8.65a.91.91,0,0,0-.12.12l12.4,7.55-13.07,8A2.11,2.11,0,0,1,10.51,33.68Zm28.23,0a2.12,2.12,0,0,1-2.12,2.12h-24a2.11,2.11,0,0,1-.84-.18L37.23,20.14a.28.28,0,0,0,.12-.33l0,0a.91.91,0,0,0-.12-.12l-.05,0L32.82,16.5l.81-.81,4.23,3.05a2.11,2.11,0,0,1,.76,1.05h0a2.1,2.1,0,0,1,.12.67V33.68Z"/></g></g></svg>