<?xml version="1.0" encoding="utf-8"?>
<!-- Generator: Adobe Illustrator 21.1.0, SVG Export Plug-In . SVG Version: 6.00 Build 0)  -->
<svg version="1.1" id="Layer_1" xmlns="http://www.w3.org/2000/svg" xmlns:xlink="http://www.w3.org/1999/xlink" x="0px" y="0px"
	 viewBox="0 0 512 512" style="enable-background:new 0 0 512 512;" xml:space="preserve">
<style type="text/css">
	.st0{fill:#D2D2D2;}
</style>
<g transform="translate(1 1)">
	<g>
		<path class="st0" d="M502.5,186.7h-34.1c-3.4,0-6.8,2.6-7.7,6l-23.9,70.8h-23l-23-38.4c-1.7-2.6-4.3-4.3-7.7-4.3H349v-25.6
			c0-5.1-3.4-8.5-8.5-8.5h-59.7v-34.1h25.6c5.1,0,8.5-3.4,8.5-8.5V92.9c0-5.1-3.4-8.5-8.5-8.5H152.6c-5.1,0-8.5,3.4-8.5,8.5v51.2
			c0,5.1,3.4,8.5,8.5,8.5h25.6v34.1h-68.3c-2.6,0-4.3,0.9-6,2.6s-2.6,3.4-2.6,6v25.6H41.7c-5.1,0-8.5,3.4-8.5,8.5v51.2H16.1V255
			c0-5.1-3.4-8.5-8.5-8.5S-1,249.9-1,255v68.3c0,5.1,3.4,8.5,8.5,8.5s8.5-3.4,8.5-8.5v-25.6h17.1V366c0,5.1,3.4,8.5,8.5,8.5h64
			l31.6,47.8c1.7,1.7,4.3,3.4,6.8,3.4h239c3.4,0,6-1.7,7.7-5.1l23-46.1h23.9l23,46.1c1.7,3.4,4.3,5.1,7.7,5.1h34.1
			c5.1,0,8.5-3.4,8.5-8.5V195.3C511,190.1,507.6,186.7,502.5,186.7z"/>
	</g>
</g>
</svg>
