<?xml version="1.0" encoding="utf-8"?>
<!-- Generator: Adobe Illustrator 21.1.0, SVG Export Plug-In . SVG Version: 6.00 Build 0)  -->
<svg version="1.1" id="Capa_1" xmlns="http://www.w3.org/2000/svg" xmlns:xlink="http://www.w3.org/1999/xlink" x="0px" y="0px"
	 viewBox="0 0 79.5 79.5" style="enable-background:new 0 0 79.5 79.5;" xml:space="preserve">
<style type="text/css">
	.st0{fill:#D2D2D2;stroke:#D2D2D2;stroke-width:3;stroke-miterlimit:10;}
</style>
<g>
	<path class="st0" d="M39.5,0H4.7c-2,0-3.6,1.6-3.6,3.6V78h42.1V3.6C43.2,1.6,41.6,0,39.5,0z M37.9,27.8H6.3V7.1h31.6V27.8
		L37.9,27.8z M59.9,79.5c-8.6,0-13.9-5.9-14.4-16.3c-0.2-4.1,0.8-8.6,1.9-13.4c0.8-3.6,1.7-7.3,2.1-11.1c0.4-3.8-0.2-5.1-0.6-5.5
		c-0.7-0.8-2.9-0.8-5-0.8h-1v-5.1h1c3,0,6.5,0,8.7,2.5c1.8,1.9,2.3,4.9,1.9,9.5c-0.4,4.1-1.3,8-2.2,11.7c-1,4.4-2,8.6-1.8,12
		c0.4,7.6,3.5,11.5,9.3,11.5c6.4,0,9.6-4,9.6-12c0-6.6-2.1-11.7-3.4-15.1L65.6,46c-1.4-3.7-1.6-7-1.7-12.1
		c-0.1-4.9-0.1-10.1,1.3-15.3c1.4-5.2,4.2-7.7,8.8-11.9l1.1-1l3.4,3.7l-1.1,1c-4.4,4-6.4,5.8-7.4,9.5c-1.2,4.5-1.2,9.3-1.1,13.8
		c0.1,4.9,0.3,7.5,1.4,10.4l0.5,1.3c1.4,3.5,3.8,9.4,3.8,17C74.6,73.2,69.1,79.5,59.9,79.5z M66.4,34.8l-0.1-5.1
		c0,0,3.9-0.1,6.1-0.1c0.1-0.9,0.1-2.3,0.1-3.8V25c0-6.1-0.9-6.9-2-7.8c-0.4-0.3-0.8-0.7-1.2-1.1l3.7-3.4c0.2,0.3,0.5,0.5,0.7,0.7
		c2.2,1.8,3.8,3.9,3.8,11.6v0.8c0,2.8,0,4.4-0.2,5.6c-0.4,2-1.8,3.2-3.9,3.2C71.8,34.6,66.4,34.8,66.4,34.8z"/>
</g>
</svg>
