<svg xmlns="http://www.w3.org/2000/svg" viewBox="0 0 164.88 224.48"><defs><style>.cls-1{fill:#2f2f2f;}.cls-2{fill:#2b2b2b;}</style></defs><title>icon-call</title><g id="Capa_2" data-name="Capa 2"><g id="Capa_1-2" data-name="Capa 1"><g id="CCAV8F.tif"><path class="cls-1" d="M119.66,223.64c-15.84-1.23-29.19-8.55-41.7-17.53C56.22,190.49,39.88,170,26.6,147,11.36,120.65.93,92.68,0,61.82c-.31-10.7.89-21.29,4.8-31.37C11.2,14.13,21,2.16,40.15.41c10.47-1,11.67-1,15.57,8.9,4.07,10.35,8,20.74,12,31.11,3.11,8,.4,19.53-6.87,24.16-12,7.66-14.83,18.61-11.51,31.21,5.79,21.95,16.75,41.24,33.28,56.94,9,8.57,19.38,11.61,31.45,5.36,7.75-4,19.45-.86,24.89,5.84q11.49,14.15,22.87,28.39c4.13,5.16,4,8.21-.16,13.25-6.43,7.86-12.49,16.16-23.69,17.54-1.31.16-2.63.3-3.95.45-1.93,1.1-4.24-.36-6.15.92h-3C123.32,223.3,121.32,224.52,119.66,223.64Z"/><path class="cls-2" d="M127.93,224.48c1.85-1.67,4-1.12,6.15-.92a4.3,4.3,0,0,0-.23.59c0,.1.05.22.08.33Z"/><path class="cls-2" d="M119.66,223.64c1.84-.25,3.72-.74,5.27.85h-5A5.8,5.8,0,0,1,119.66,223.64Z"/><path class="cls-1" d="M163,112.06c.14,6.08-1.08,12-2.24,17.82-.64,3.2-2.16,5.85-6.07,4.89-3.59-.88-3.79-3.6-3.07-6.71,4.25-18.56,1.51-36-8.8-52.07-8.47-13.23-20.31-22.2-35.13-27.28-1.1-.38-2.21-.7-3.31-1.09-2.75-1-4.22-2.92-3.35-5.77.94-3.07,3.36-3.89,6.38-3A74.53,74.53,0,0,1,133.9,52.28C152.9,67.67,162.26,87.79,163,112.06Z"/><path class="cls-1" d="M143.94,112a57.61,57.61,0,0,1-1.71,13.33c-.74,3.22-2.32,5.36-5.81,4.55s-4-3.59-3.25-6.7c3.28-13.91.76-26.76-7.33-38.45A46,46,0,0,0,100.47,66.4c-2.32-.69-4.35-1.85-4.57-4.64-.16-2.07.95-3.43,2.65-4.44s3.59-.25,5.3.28A57.15,57.15,0,0,1,143.94,112Z"/><path class="cls-1" d="M124.89,112.39c.25,2.87-.48,6-1.22,9-.66,2.7-2.65,4.29-5.6,3.63-2.7-.6-3.65-2.59-3.41-5.26.33-3.61,1.36-7.12.76-10.87C113.55,97.23,107.3,89.16,96.23,85c-3.17-1.2-6.36-2.51-4.94-6.55,1.5-4.3,5-3.29,8.34-2.14A37.87,37.87,0,0,1,124.89,112.39Z"/><path class="cls-1" d="M105.91,112.8c-.12.63-.33,2.27-.73,3.87-.66,2.66-2.51,3.95-5.16,3.48s-4.3-2.34-3.83-5c1.16-6.48-1.42-10.45-7.37-12.83a4.1,4.1,0,0,1-2.44-5.73c1.11-2.65,3.24-3.46,6.13-2.69C99.94,95.94,105.8,103.65,105.91,112.8Z"/></g></g></g></svg>