<svg xmlns="http://www.w3.org/2000/svg" viewBox="0 0 187.12 112.79"><defs><style>.cls-1{fill:#2f2f2f;}</style></defs><title>icon-videocall</title><g id="Capa_2" data-name="Capa 2"><g id="Capa_1-2" data-name="Capa 1"><g id="L8Lwbu.tif"><path class="cls-1" d="M141.12,80c-1.55,4.18-.59,8.51-.69,12.76-.27,11.78-7.46,19.82-19.08,19.9q-51.21.33-102.42,0C7.65,112.55.11,104.41.07,93.06q-.13-36.72,0-73.44C.11,7.86,8.06.06,20,0Q70.17,0,120.38,0c12.21,0,19.77,7.76,20,20,.1,4.25-.86,8.58.69,12.76,1.77,1.67,1.63,3.9,1.64,6q.11,17.59,0,35.17C142.75,76.08,142.88,78.3,141.12,80Z"/><path class="cls-1" d="M141.12,80q0-23.61,0-47.21L187.12,5V107.76Z"/></g></g></g></svg>