<?xml version="1.0" encoding="utf-8"?>
<!-- Generator: Adobe Illustrator 22.0.1, SVG Export Plug-In . SVG Version: 6.00 Build 0)  -->
<svg version="1.1" id="Layer_1" xmlns="http://www.w3.org/2000/svg" xmlns:xlink="http://www.w3.org/1999/xlink" x="0px" y="0px"
	 viewBox="0 0 150 150" style="enable-background:new 0 0 150 150;" xml:space="preserve">
<style type="text/css">
	.st0{fill:#E20B00;}
	.st1{fill:#1F1F1F;}
	.st2{enable-background:new    ;}
	.st3{fill:#1D1D1B;}
</style>
<g>
	<g>
		<path class="st0" d="M53.7,30.1l9.7,10.1l7.6,8h-1.7c-1.6,0-2.9,1.3-2.9,2.8v8.2H40.9V51c0-1.6-1.3-2.8-2.9-2.8h-1.7l7.6-8
			L53.7,30.1 M53.7,27c-0.1,0-0.3,0.1-0.4,0.2l-11,11.5l-10.6,11c-0.3,0.3-0.1,0.8,0.4,0.8h6c0.3,0,0.5,0.2,0.5,0.5v10.1
			c0,0.3,0.2,0.5,0.5,0.5h29.2c0.3,0,0.5-0.2,0.5-0.5V51c0-0.3,0.2-0.5,0.5-0.5h6c0.5,0,0.7-0.5,0.4-0.8l-10.6-11l-11-11.5
			C54,27.1,53.8,27,53.7,27L53.7,27z"/>
		<path class="st0" d="M66.4,66.4V71H40.9v-4.7L66.4,66.4 M68.3,64H39.1c-0.3,0-0.5,0.2-0.5,0.5v8.4c0,0.3,0.2,0.5,0.5,0.5h29.2
			c0.3,0,0.5-0.2,0.5-0.5v-8.4C68.8,64.3,68.5,64,68.3,64L68.3,64z"/>
		<path class="st1" d="M66.4,78.2v4.7H40.9v-4.7H66.4 M68.3,75.8H39.1c-0.3,0-0.5,0.2-0.5,0.5v8.4c0,0.3,0.2,0.5,0.5,0.5h29.2
			c0.3,0,0.5-0.2,0.5-0.5v-8.4C68.8,76.1,68.5,75.8,68.3,75.8L68.3,75.8z"/>
		<path class="st1" d="M66.4,90v4.7H40.9V90H66.4 M68.3,87.6H39.1c-0.3,0-0.5,0.2-0.5,0.5v8.4c0,0.3,0.2,0.5,0.5,0.5h29.2
			c0.3,0,0.5-0.2,0.5-0.5v-8.4C68.8,87.8,68.5,87.6,68.3,87.6L68.3,87.6z"/>
	</g>
	<g>
		<path class="st0" d="M96.3,41.9L106,52l7.6,8H112c-1.6,0-2.9,1.3-2.9,2.8V71H83.6v-8.2c0-1.6-1.3-2.8-2.9-2.8H79l7.6-8L96.3,41.9
			 M96.3,38.8c-0.1,0-0.3,0.1-0.4,0.2l-11,11.5l-10.6,11c-0.3,0.3-0.1,0.8,0.4,0.8h6c0.3,0,0.5,0.2,0.5,0.5v10.1
			c0,0.3,0.2,0.5,0.5,0.5h29.2c0.3,0,0.5-0.2,0.5-0.5V62.8c0-0.3,0.2-0.5,0.5-0.5h6c0.5,0,0.7-0.5,0.4-0.8l-10.6-11.1L96.7,39
			C96.6,38.8,96.5,38.8,96.3,38.8L96.3,38.8z"/>
		<path class="st0" d="M109.1,78.2v4.7H83.6v-4.7H109.1 M110.9,75.8H81.7c-0.3,0-0.5,0.2-0.5,0.5v8.4c0,0.3,0.2,0.5,0.5,0.5h29.2
			c0.3,0,0.5-0.2,0.5-0.5v-8.4C111.4,76.1,111.2,75.8,110.9,75.8L110.9,75.8z"/>
		<path class="st1" d="M109.1,90v4.7H83.6V90H109.1 M110.9,87.6H81.7c-0.3,0-0.5,0.2-0.5,0.5v8.4c0,0.3,0.2,0.5,0.5,0.5h29.2
			c0.3,0,0.5-0.2,0.5-0.5v-8.4C111.4,87.8,111.2,87.6,110.9,87.6L110.9,87.6z"/>
	</g>
</g>
<g class="st2">
	<path class="st3" d="M16.9,120.6H18v9.3h-1.2V120.6z"/>
	<path class="st3" d="M21.4,122.4v7.5h-1.2v-9.3h1.2l5.4,7.4v-7.4h1.2v9.3h-1.1L21.4,122.4z"/>
	<path class="st3" d="M29.7,125.2c0-2.9,2.1-4.8,4.8-4.8c1.7,0,2.8,0.8,3.6,1.8l-1,0.5c-0.5-0.8-1.5-1.4-2.6-1.4
		c-2,0-3.6,1.6-3.6,3.8c0,2.2,1.6,3.8,3.6,3.8c1.1,0,2.1-0.6,2.6-1.4l1,0.5c-0.8,1.1-1.9,1.8-3.6,1.8
		C31.9,130.1,29.7,128.1,29.7,125.2z"/>
	<path class="st3" d="M42.6,126.2h-1.9v3.7h-1.2v-9.3h3.8c1.7,0,2.9,1.1,2.9,2.8c0,1.7-1.1,2.6-2.4,2.7l2.5,3.8H45L42.6,126.2z
		 M43.2,121.6h-2.5v3.6h2.5c1.1,0,1.9-0.7,1.9-1.8S44.3,121.6,43.2,121.6z"/>
	<path class="st3" d="M48.1,120.6h6.1v1h-5v3h4.9v1h-4.9v3.2h5v1h-6.1V120.6z"/>
	<path class="st3" d="M61.9,127.8h-4.7l-0.8,2.1h-1.3l3.8-9.3h1.4l3.8,9.3h-1.3L61.9,127.8z M57.6,126.8h4l-2-5.2L57.6,126.8z"/>
	<path class="st3" d="M65.2,127.7c0.6,0.7,1.6,1.3,2.9,1.3c1.7,0,2.2-0.9,2.2-1.6c0-1.1-1.1-1.4-2.4-1.8c-1.5-0.4-3.2-0.8-3.2-2.6
		c0-1.5,1.4-2.6,3.2-2.6c1.4,0,2.5,0.5,3.3,1.3l-0.7,0.9c-0.7-0.8-1.7-1.1-2.7-1.1c-1.1,0-1.9,0.6-1.9,1.5c0,0.9,1.1,1.2,2.3,1.5
		c1.5,0.4,3.3,0.9,3.3,2.8c0,1.4-0.9,2.7-3.4,2.7c-1.6,0-2.8-0.6-3.6-1.5L65.2,127.7z"/>
	<path class="st3" d="M73.3,120.6h6.1v1h-5v3h4.9v1h-4.9v3.2h5v1h-6.1V120.6z"/>
	<path class="st3" d="M84.9,120.6h3.8c1.9,0,2.9,1.3,2.9,2.8c0,1.5-1.1,2.8-2.9,2.8H86v3.7h-1.2V120.6z M88.5,121.6H86v3.6h2.5
		c1.1,0,1.9-0.7,1.9-1.8S89.6,121.6,88.5,121.6z"/>
	<path class="st3" d="M97.3,120.4c2.8,0,4.6,2.1,4.6,4.8c0,2.8-1.9,4.8-4.6,4.8c-2.8,0-4.6-2.1-4.6-4.8
		C92.7,122.5,94.6,120.4,97.3,120.4z M97.3,121.4c-2.1,0-3.4,1.6-3.4,3.8c0,2.2,1.3,3.8,3.4,3.8c2.1,0,3.4-1.6,3.4-3.8
		C100.8,123.1,99.4,121.4,97.3,121.4z"/>
	<path class="st3" d="M108.6,122.4l-2.1,7.5h-1.3l-2.7-9.3h1.3l2.1,7.8l2.1-7.8h1l2.1,7.8l2.1-7.8h1.3l-2.7,9.3h-1.3L108.6,122.4z"
		/>
	<path class="st3" d="M115.9,120.6h6.1v1h-5v3h4.9v1H117v3.2h5v1h-6.1V120.6z"/>
	<path class="st3" d="M126.9,126.2H125v3.7h-1.2v-9.3h3.8c1.7,0,2.9,1.1,2.9,2.8c0,1.7-1.1,2.6-2.4,2.7l2.5,3.8h-1.4L126.9,126.2z
		 M127.5,121.6H125v3.6h2.5c1.1,0,1.9-0.7,1.9-1.8S128.6,121.6,127.5,121.6z"/>
</g>
</svg>
