<svg xmlns="http://www.w3.org/2000/svg" viewBox="0 0 169 291.8"><defs><style>.cls-1,.cls-3{fill:none;}.cls-1{stroke:#2f2f2f;stroke-miterlimit:10;stroke-width:3px;}.cls-2{fill:#2f2f2f;}.cls-4{font-size:40.4px;font-family:KohinoorBangla-Bold, Kohinoor Bangla;font-weight:700;}.cls-5{fill:#fff;}</style></defs><title>Recurso 7</title><g id="Capa_2" data-name="Capa 2"><g id="Capa_1-2" data-name="Capa 1"><path class="cls-1" d="M132.92,103.2a6.27,6.27,0,0,0,.95-3.08,8.57,8.57,0,0,0-1.95-5.6,21.35,21.35,0,0,0-7.14-5.5c-3.1-1.62-6.38-2.74-9.55-4.16a31.13,31.13,0,0,1-7.77-4.67,13.07,13.07,0,0,1-4.34-6.69,12,12,0,0,1,.2-6.32,13.38,13.38,0,0,1,4.22-6.83,2.82,2.82,0,0,1,.28-.22,1,1,0,0,1,.22-.08c.13.24,0,.43-.07.64a6,6,0,0,0,1.2,4.91A19,19,0,0,0,116,71.3a56.56,56.56,0,0,0,7.59,3.12,43.41,43.41,0,0,1,10.57,5.37,16,16,0,0,1,3.4,3.45,12.8,12.8,0,0,1,2.14,4.62,13.14,13.14,0,0,1-.16,6A14.77,14.77,0,0,1,137,99.6,10.36,10.36,0,0,1,132.92,103.2Z"/><path class="cls-1" d="M121.62,92.24a16.63,16.63,0,0,1,2.73,2,10.56,10.56,0,0,1,3.34,5.18,4.17,4.17,0,0,1-.59,3.32c-1.24,2-3.24,2.42-5.21,2.85A22.19,22.19,0,0,1,118,106a16.05,16.05,0,0,1-4.83-.71,24,24,0,0,1-7.64-3.69,20.88,20.88,0,0,1-4-3.73.63.63,0,0,1-.06-.85c1-1.86,2.08-3.71,3-5.62.33-.69.58-.64,1.12-.38a50.86,50.86,0,0,0,5.82,2.39,23,23,0,0,0,8,1.4,2.06,2.06,0,0,0,2.23-2.28C121.59,92.49,121.6,92.39,121.62,92.24Z"/><path class="cls-1" d="M123.71,54.57c1.48.27,3,.27,4.48.55a13.48,13.48,0,0,1,3.45.93,26.42,26.42,0,0,1,4.89,3c.46.36.91.75,1.37,1.12s.35.47.13.86q-2,3.52-3.89,7.09c-.39.73-.36.74-1.09.43a39.18,39.18,0,0,0-7.81-2.44,10.8,10.8,0,0,0-4.06-.1c-1,.19-1.4.6-1.45,1.71,0,.42-.18.37-.42.23a22.89,22.89,0,0,1-4.71-3.44,8.8,8.8,0,0,1-2.39-3.73,2.8,2.8,0,0,1,.41-2.42,5.94,5.94,0,0,1,2.5-2.1A19.1,19.1,0,0,1,122,54.7C122.56,54.69,123.13,54.54,123.71,54.57Z"/><path class="cls-2" d="M134.61,243.31h-2q-52.38,0-104.76,0C11.54,243.3,0,231.76,0,215.42q0-79.6,0-159.2c0-16,11.47-27.66,27.41-27.69q57.35-.12,114.69,0A26.47,26.47,0,0,1,169,55.42c.08,32,0,64.08,0,96.13,0,.63-.08,1.26-.11,1.85H155.08c0-.7,0-1.53,0-2.35q0-47.41,0-94.83c0-6.72-3.57-11.76-9.49-13.31a16.16,16.16,0,0,0-4.06-.42q-56.91,0-113.83,0c-8.44,0-13.75,5.29-13.76,13.77q0,79.82,0,159.63c0,8.15,5.43,13.48,13.59,13.49q45.57,0,91.15,0a5.19,5.19,0,0,1,4.32,2.07C126.68,235.49,130.67,239.31,134.61,243.31Z"/><path class="cls-2" d="M34.39,28.47h2q52.38,0,104.76,0C157.45,28.48,169,40,169,56.36q0,79.6,0,159.2c0,16-11.47,27.66-27.41,27.69q-57.35.12-114.69,0A26.47,26.47,0,0,1,0,216.37c-.08-32,0-64.08,0-96.13,0-.63.08-1.26.11-1.85H13.92c0,.7,0,1.53,0,2.35q0,47.41,0,94.83c0,6.72,3.57,11.76,9.49,13.31a16.16,16.16,0,0,0,4.06.42q56.91,0,113.83,0c8.44,0,13.75-5.29,13.76-13.77q0-79.82,0-159.63c0-8.15-5.43-13.48-13.59-13.49q-45.57,0-91.15,0A5.19,5.19,0,0,1,46,40.4C42.31,36.3,38.33,32.48,34.39,28.47Z"/><path class="cls-2" d="M28,120.82h112.9c0,.82.12,1.57.12,2.33,0,10.8,0,21.6,0,32.4a3.08,3.08,0,0,1-2,3.34c-1.62.72-3.1,1.74-5,2.84V127.78H115.92v2.51c0,17.28.11,34.56-.09,51.84,0,3.37-1.2,6.74-2,10.06-.11.43-1.37.8-2.1.8-10.87.05-21.74,0-32.61,0H28ZM83.64,186V127.8H34.9V186Zm25.07,0V127.79H91V186Z"/><path class="cls-2" d="M54.82,215.3v-6.61H141v6.61Z"/><path class="cls-2" d="M27.92,94.77V87.94c.8-.05,1.49-.13,2.19-.13,18.19,0,36.38,0,54.58-.05,1.92,0,2.44.54,2.39,2.43-.12,4.57,0,4.58-4.53,4.58H27.92Z"/><path class="cls-2" d="M27.92,80.57V73.74c.8-.05,1.49-.13,2.19-.13,18.19,0,36.38,0,54.58-.05,1.92,0,2.44.54,2.39,2.43-.12,4.57,0,4.58-4.53,4.58H27.92Z"/><path class="cls-2" d="M87,101.86c0,2,0,3.84,0,5.69,0,1.54-1.25,1.1-2.09,1.1q-17.16,0-34.31,0H28v-6.81Z"/><path class="cls-3" d="M83.64,186H34.9V127.8H83.64Z"/><path class="cls-3" d="M108.71,186H91V127.79h17.72Z"/><path class="cls-2" d="M141,193H90.57c-11.54,0-6.44-61.29-1.07-72.21H141Zm-24.41-65.2V186h17.72V127.84Zm-24.73-.05V186h17.72V127.79Z"/><text class="cls-4" transform="translate(57.4 275.84) scale(1.02 0.91)">ME</text><g id="Capa_5" data-name="Capa 5"><path class="cls-2" d="M51.57,22.89c-4.57,1-5.07.83-7.05-2.78C42.24,16,40,11.8,37.5,7.19V23.08H32.79V.75c5-1.18,5.74-.9,8,3.1,2,3.65,4,7.33,6.18,11.29V.57h4.63Z"/><path class="cls-2" d="M98.77,11.93c-.14,7.38-4.59,11.83-11.68,11.68-6.35-.14-10.5-5-10.36-12S81.48-.11,88.3,0C94.71.11,98.91,4.89,98.77,11.93Zm-16.53-.18c0,4.62,2.1,7.69,5.39,7.8s5.59-3,5.7-7.55-2.29-8-5.61-8S82.27,7.11,82.24,11.75Z"/><path class="cls-2" d="M137.88,19h8.61c1.17,3.89.9,4.3-2.75,4.31-3.16,0-6.33.08-9.49-.07-.67,0-1.85-.85-1.86-1.33-.12-7.05-.08-14.1-.08-21.37h14.05v4h-8.55V9.39h4.86c3.7,0,3.7,0,3.09,4h-7.89Z"/><path class="cls-2" d="M54.46.76c5.08-1.13,5.43-.93,6.71,3.57l3.76,13.24c.64-2.22,1.13-3.91,1.63-5.61q1.1-3.74,2.23-7.48C70.15-.05,70.15-.05,75,.54c.06.23.24.52.18.73C72.85,8.15,70.58,15,68.24,21.89c-.78,2.3-2.84,1.35-4.33,1.3a3.45,3.45,0,0,1-2.66-1.58C58.89,14.77,56.74,7.85,54.46.76Z"/><path class="cls-2" d="M129.05,1l-.87,3.69c-3.43-.39-7-1.41-9.54,1.47a9.66,9.66,0,0,0-2.08,5.5c-.29,5.82,2.33,7.41,11.58,7.38l.72,3.29c-5.51,2.48-12.34,1.17-15.56-2.84-3.08-3.84-3.19-10.49-.23-14.66C116.27.37,122.72-1.28,129.05,1Z"/><path class="cls-2" d="M102.44.52h4.93V23.1h-4.93Z"/><path class="cls-2" d="M23.2.51h4.94V23.05H23.2Z"/><path class="cls-5" d="M82.24,11.75c0-4.64,2.21-7.7,5.49-7.71s5.72,3.4,5.61,8-2.43,7.66-5.7,7.55S82.21,16.37,82.24,11.75Z"/></g></g></g></svg>