<svg xmlns="http://www.w3.org/2000/svg" viewBox="0 0 223.91 243.79"><defs><style>.cls-1{fill:#2f2f2f;}.cls-2,.cls-3,.cls-5{fill:none;}.cls-2{stroke:#263238;}.cls-2,.cls-5{stroke-miterlimit:10;stroke-width:4px;}.cls-4{fill:#fff;}.cls-5{stroke:#2f2f2f;}.cls-6{font-size:35px;fill:#263238;font-family:PTMono-Bold, PT Mono;font-weight:700;}</style></defs><title>Recurso 3</title><g id="Capa_2" data-name="Capa 2"><g id="Capa_1-2" data-name="Capa 1"><g id="GLX0UB.tif"><path class="cls-1" d="M149.57,238.69h-2.19q-58.2,0-116.4,0c-18.15,0-31-12.83-31-31Q0,119.27,0,30.83C0,13.1,12.76.1,30.47.06Q94.19-.06,157.9.07c16.87,0,29.78,13,29.82,29.87.09,35.6,0,71.2,0,106.8,0,.7-.08,1.4-.12,2.05H172.31c0-.78,0-1.7,0-2.62q0-52.68,0-105.36c0-7.46-4-13.06-10.54-14.78a18,18,0,0,0-4.51-.47q-63.24,0-126.48,0c-9.38,0-15.28,5.88-15.29,15.29q0,88.68,0,177.36c0,9.05,6,15,15.1,15q50.64,0,101.28,0a5.77,5.77,0,0,1,4.8,2.3C140.76,230,145.19,234.24,149.57,238.69Z"/><path class="cls-2" d="M139.82,88.56a22.68,22.68,0,1,1,22.76-22.71A22.79,22.79,0,0,1,139.82,88.56Z"/><path class="cls-1" d="M31.08,102.6H156.52c0,.91.13,1.75.13,2.59,0,12,0,24,0,36,0,1.85-.5,2.94-2.23,3.71S151,146.83,148.9,148V110.33H128.8v2.79c0,19.2.12,38.4-.1,57.59,0,3.74-1.34,7.49-2.27,11.18-.12.47-1.52.88-2.33.89-12.08.06-24.16,0-36.24,0H31.08ZM92.93,175V110.35H38.78V175Zm27.85,0V110.34H101.1V175Z"/><path class="cls-1" d="M60.91,207.57v-7.34h65.46v7.34Z"/><path class="cls-1" d="M31,73.66V66.08c.89-.06,1.66-.15,2.43-.15,20.21,0,40.43,0,60.64-.06,2.14,0,2.71.6,2.66,2.7-.13,5.08,0,5.09-5,5.09H31Z"/><path class="cls-1" d="M96.69,81.54c0,2.21,0,4.27,0,6.32,0,1.71-1.39,1.22-2.32,1.22q-19.06,0-38.13,0H31.11V81.54Z"/><path class="cls-1" d="M47.9,47.77c-2.74.61-3,.5-4.24-1.67-1.37-2.49-2.71-5-4.22-7.76v9.54H36.63V34.48c3-.71,3.45-.54,4.78,1.86,1.22,2.19,2.41,4.4,3.71,6.78V34.37H47.9Z"/><path class="cls-1" d="M76.24,41.19c-.09,4.43-2.76,7.1-7,7-3.81-.08-6.3-3-6.22-7.23S65.86,34,70,34C73.81,34.09,76.33,37,76.24,41.19Zm-9.93-.11c0,2.77,1.26,4.62,3.24,4.69S72.92,44,73,41.23s-1.37-4.78-3.37-4.78S66.34,38.3,66.32,41.08Z"/><path class="cls-1" d="M99.73,45.42h5.17c.71,2.34.54,2.58-1.65,2.59-1.9,0-3.8,0-5.7,0-.4,0-1.11-.51-1.11-.8-.07-4.23,0-8.47,0-12.83h8.44v2.4H99.7v2.91h2.92c2.22,0,2.22,0,1.86,2.43H99.73Z"/><path class="cls-1" d="M49.64,34.48c3.05-.68,3.26-.56,4,2.14l2.26,8c.39-1.33.68-2.35,1-3.37q.66-2.25,1.34-4.49c.82-2.73.82-2.72,3.7-2.37,0,.14.15.31.11.44-1.37,4.13-2.73,8.26-4.13,12.38-.47,1.38-1.71.81-2.6.78a2.07,2.07,0,0,1-1.6-1C52.3,42.89,51,38.74,49.64,34.48Z"/><path class="cls-1" d="M94.43,34.65l-.52,2.22c-2.06-.23-4.22-.85-5.73.88a5.8,5.8,0,0,0-1.25,3.3c-.18,3.49,1.4,4.45,7,4.43l.43,2C91,49,86.9,48.16,85,45.76a7.8,7.8,0,0,1-.14-8.8C86.75,34.25,90.63,33.26,94.43,34.65Z"/><path class="cls-1" d="M78.45,34.34h3V47.89h-3Z"/><path class="cls-1" d="M30.87,34.33h3V47.87h-3Z"/><path class="cls-3" d="M92.93,175H38.78V110.35H92.93Z"/><path class="cls-3" d="M120.79,175H101.1V110.34h19.69Z"/><path class="cls-4" d="M66.32,41.08c0-2.78,1.33-4.62,3.3-4.63s3.43,2,3.37,4.78-1.46,4.6-3.42,4.53S66.3,43.85,66.32,41.08Z"/></g><path class="cls-5" d="M221.24,199.2a49.68,49.68,0,0,1-7.4,20.7,47.33,47.33,0,0,1-8.06,9.78,44.71,44.71,0,0,1-18.22,10.49,41.83,41.83,0,0,1-20.91.53,38.13,38.13,0,0,1-12.23-5,41.9,41.9,0,0,1-9.95-8.36,49.3,49.3,0,0,1-8.6-14.21,53.32,53.32,0,0,1-3.42-16,36.61,36.61,0,0,1,.22-7.61,72.74,72.74,0,0,1,1.54-9,56.17,56.17,0,0,1,5.09-12.3,46.17,46.17,0,0,1,8.41-11A45.14,45.14,0,0,1,161.36,148a42.53,42.53,0,0,1,13.47-3.41,38.39,38.39,0,0,1,7.35.06,43.51,43.51,0,0,1,13.06,3.44,44,44,0,0,1,19.45,17.47,44.93,44.93,0,0,1,4.36,9.31,51.49,51.49,0,0,1,2.77,14.25A37.89,37.89,0,0,1,221.24,199.2Z"/><path class="cls-5" d="M195.61,230.1a10.25,10.25,0,0,0,1.55-5,14,14,0,0,0-3.18-9.15c-3.19-4-7.26-6.68-11.67-9-5.07-2.64-10.43-4.48-15.61-6.8A50.86,50.86,0,0,1,154,192.5a21.36,21.36,0,0,1-7.09-10.92,19.68,19.68,0,0,1,.33-10.32,21.86,21.86,0,0,1,6.89-11.15,4.61,4.61,0,0,1,.45-.37,1.7,1.7,0,0,1,.36-.14c.22.39,0,.71-.12,1-.7,3,.31,5.62,2,8,2.89,4.23,6.94,6.94,11.21,9.31,3.95,2.19,8.23,3.52,12.41,5.1,6,2.29,12,4.87,17.28,8.77a26.09,26.09,0,0,1,5.56,5.63,20.91,20.91,0,0,1,3.5,7.54,21.47,21.47,0,0,1-.26,9.77,24.14,24.14,0,0,1-4.22,9.42A16.93,16.93,0,0,1,195.61,230.1Z"/><path class="cls-5" d="M181.55,212.18a27.17,27.17,0,0,1,4.46,3.33,17.26,17.26,0,0,1,5.46,8.47,6.8,6.8,0,0,1-1,5.42c-2,3.28-5.29,4-8.52,4.66a36.25,36.25,0,0,1-6.43.68,26.23,26.23,0,0,1-7.89-1.16,39.13,39.13,0,0,1-12.48-6,34.11,34.11,0,0,1-6.52-6.1,1,1,0,0,1-.09-1.38c1.67-3,3.39-6.06,4.9-9.19.54-1.13.95-1,1.83-.62a83.11,83.11,0,0,0,9.51,3.91,37.64,37.64,0,0,0,13,2.29c2.37-.07,3.55-1.26,3.64-3.73C181.5,212.59,181.53,212.44,181.55,212.18Z"/><path class="cls-5" d="M179.86,152.47c2.42.44,4.89.44,7.32.89a22,22,0,0,1,5.64,1.53,43.17,43.17,0,0,1,8,4.92c.76.59,1.49,1.23,2.24,1.82.51.41.57.78.21,1.41q-3.23,5.76-6.35,11.58c-.64,1.19-.58,1.21-1.78.7a64,64,0,0,0-12.77-4,17.65,17.65,0,0,0-6.63-.17c-1.69.32-2.28,1-2.37,2.8,0,.69-.29.6-.69.37A37.4,37.4,0,0,1,165,168.7a14.38,14.38,0,0,1-3.91-6.1,4.57,4.57,0,0,1,.66-4,9.7,9.7,0,0,1,4.09-3.43,31.21,31.21,0,0,1,11.2-2.54C178,152.66,178.9,152.41,179.86,152.47Z"/><g id="Capa_3" data-name="Capa 3"><text class="cls-6" transform="translate(126.37 81.04) scale(1.25)">£</text></g></g></g></svg>