<svg xmlns="http://www.w3.org/2000/svg" viewBox="0 0 169 252.98"><defs><style>.cls-1,.cls-3{fill:none;}.cls-1{stroke:#2f2f2f;stroke-miterlimit:10;stroke-width:3px;}.cls-2{fill:#2f2f2f;}.cls-4{font-size:31.08px;font-family:KohinoorBangla-Bold, Kohinoor Bangla;font-weight:700;}.cls-5{fill:#fff;}</style></defs><title>Recurso 6</title><g id="Capa_2" data-name="Capa 2"><g id="Capa_1-2" data-name="Capa 1"><path class="cls-1" d="M132.92,74.72a6.27,6.27,0,0,0,.95-3.08,8.57,8.57,0,0,0-1.95-5.6,21.35,21.35,0,0,0-7.14-5.5c-3.1-1.62-6.38-2.74-9.55-4.16a31.13,31.13,0,0,1-7.77-4.67A13.07,13.07,0,0,1,103.12,45a12,12,0,0,1,.2-6.32,13.38,13.38,0,0,1,4.22-6.83,2.82,2.82,0,0,1,.28-.22,1,1,0,0,1,.22-.08c.13.24,0,.43-.07.64a6,6,0,0,0,1.2,4.91,19,19,0,0,0,6.86,5.7,56.57,56.57,0,0,0,7.59,3.12,43.41,43.41,0,0,1,10.57,5.37,16,16,0,0,1,3.4,3.45,12.79,12.79,0,0,1,2.14,4.61,13.14,13.14,0,0,1-.16,6A14.77,14.77,0,0,1,137,71.12,10.36,10.36,0,0,1,132.92,74.72Z"/><path class="cls-1" d="M121.62,63.76a16.63,16.63,0,0,1,2.73,2A10.56,10.56,0,0,1,127.69,71a4.16,4.16,0,0,1-.59,3.32c-1.24,2-3.24,2.42-5.21,2.85a22.19,22.19,0,0,1-3.94.42,16.05,16.05,0,0,1-4.83-.71,24,24,0,0,1-7.64-3.69,20.88,20.88,0,0,1-4-3.73.63.63,0,0,1-.06-.85c1-1.86,2.08-3.71,3-5.62.33-.69.58-.64,1.12-.38A50.86,50.86,0,0,0,111.38,65a23,23,0,0,0,8,1.4,2.06,2.06,0,0,0,2.23-2.28C121.59,64,121.6,63.92,121.62,63.76Z"/><path class="cls-1" d="M123.71,26.1c1.48.27,3,.27,4.48.55a13.48,13.48,0,0,1,3.45.93,26.42,26.42,0,0,1,4.89,3c.46.36.91.75,1.37,1.12s.35.47.13.86q-2,3.52-3.89,7.08c-.39.73-.36.74-1.09.43a39.18,39.18,0,0,0-7.81-2.44,10.8,10.8,0,0,0-4.06-.1c-1,.19-1.4.6-1.45,1.71,0,.42-.18.37-.42.23A22.89,22.89,0,0,1,114.61,36a8.8,8.8,0,0,1-2.39-3.73,2.8,2.8,0,0,1,.41-2.42,5.94,5.94,0,0,1,2.5-2.1A19.1,19.1,0,0,1,122,26.23C122.56,26.22,123.13,26.06,123.71,26.1Z"/><path class="cls-2" d="M134.61,214.83h-2q-52.38,0-104.76,0C11.54,214.82,0,203.28,0,186.94Q0,107.34,0,27.75C0,11.79,11.48.09,27.42.06q57.35-.12,114.69,0A26.47,26.47,0,0,1,169,26.95c.08,32,0,64.08,0,96.12,0,.63-.08,1.26-.11,1.85H155.08c0-.7,0-1.53,0-2.35q0-47.41,0-94.82c0-6.71-3.57-11.75-9.49-13.31a16.16,16.16,0,0,0-4.06-.42Q84.62,14,27.7,14c-8.44,0-13.75,5.29-13.76,13.76q0,79.81,0,159.62c0,8.15,5.43,13.48,13.59,13.49q45.57,0,91.15,0A5.19,5.19,0,0,1,123,202.9C126.68,207,130.67,210.82,134.61,214.83Z"/><path class="cls-2" d="M34.39,0h2Q88.74,0,141.12,0C157.45,0,169,11.55,169,27.89q0,79.59,0,159.19c0,16-11.47,27.66-27.41,27.69q-57.35.12-114.69,0A26.47,26.47,0,0,1,0,187.88c-.08-32,0-64.08,0-96.12,0-.63.08-1.26.11-1.85H13.92c0,.7,0,1.53,0,2.35q0,47.41,0,94.82c0,6.71,3.57,11.75,9.49,13.31a16.16,16.16,0,0,0,4.06.42q56.91,0,113.83,0c8.44,0,13.75-5.29,13.76-13.76q0-79.81,0-159.62c0-8.15-5.43-13.48-13.59-13.49q-45.57,0-91.15,0A5.19,5.19,0,0,1,46,11.93C42.31,7.83,38.33,4,34.39,0Z"/><path class="cls-2" d="M28,92.34h112.9c0,.82.12,1.57.12,2.33,0,10.8,0,21.6,0,32.4a3.08,3.08,0,0,1-2,3.34c-1.62.72-3.1,1.74-5,2.84V99.3H115.92v2.51c0,17.28.11,34.56-.09,51.84,0,3.37-1.2,6.74-2,10.06-.11.43-1.37.8-2.1.8-10.87.05-21.74,0-32.61,0H28Zm55.67,65.14V99.32H34.9v58.16Zm25.07,0V99.31H91v58.17Z"/><path class="cls-2" d="M54.82,186.81V180.2H141v6.61Z"/><path class="cls-2" d="M27.92,66.29V59.47c.8-.05,1.49-.13,2.19-.13,18.19,0,36.38,0,54.58-.05,1.92,0,2.44.54,2.39,2.43-.12,4.57,0,4.58-4.53,4.58H27.92Z"/><path class="cls-2" d="M27.92,52.09V45.27c.8-.05,1.49-.13,2.19-.13,18.19,0,36.38,0,54.58-.05,1.92,0,2.44.54,2.39,2.43-.12,4.57,0,4.58-4.53,4.58H27.92Z"/><path class="cls-2" d="M87,73.38c0,2,0,3.84,0,5.69,0,1.54-1.25,1.1-2.09,1.1q-17.16,0-34.31,0H28v-6.8Z"/><path class="cls-3" d="M83.64,157.48H34.9V99.32H83.64Z"/><path class="cls-3" d="M108.71,157.48H91V99.31h17.72Z"/><path class="cls-2" d="M141,164.55H90.57c-11.54,0-6.44-61.28-1.07-72.21H141ZM116.62,99.36v58.17h17.72V99.36Zm-24.73-.05v58.17h17.72V99.31Z"/><text class="cls-4" transform="translate(118.22 240.71) scale(1.02 0.91)">ME</text><g id="Capa_5" data-name="Capa 5"><path class="cls-2" d="M33.83,240.09c-3.74.84-4.16.68-5.78-2.28-1.87-3.4-3.7-6.81-5.75-10.59v13H18.44v-18.3c4.07-1,4.71-.74,6.53,2.54,1.67,3,3.3,6,5.07,9.25V221.8h3.79Z"/><path class="cls-2" d="M72.52,231.11c-.12,6-3.76,9.69-9.57,9.57-5.21-.11-8.6-4.06-8.49-9.87s3.9-9.57,9.48-9.48C69.19,221.42,72.63,225.34,72.52,231.11ZM59,231c0,3.78,1.72,6.3,4.42,6.4s4.58-2.42,4.67-6.19-1.87-6.53-4.59-6.52S59,227.16,59,231Z"/><path class="cls-2" d="M104.58,236.89h7.06c1,3.19.73,3.53-2.26,3.53-2.59,0-5.19.06-7.78-.06-.55,0-1.51-.7-1.52-1.09-.1-5.78-.07-11.56-.07-17.51h11.52V225h-7v4h4c3,0,3,0,2.53,3.32h-6.47Z"/><path class="cls-2" d="M36.2,222c4.16-.92,4.45-.76,5.5,2.92l3.08,10.86c.53-1.82.93-3.21,1.34-4.6q.91-3.07,1.82-6.13c1.12-3.72,1.12-3.72,5.06-3.23,0,.19.2.43.14.6-1.86,5.64-3.73,11.28-5.64,16.9-.64,1.89-2.33,1.11-3.55,1.07a2.83,2.83,0,0,1-2.18-1.3C39.83,233.43,38.07,227.76,36.2,222Z"/><path class="cls-2" d="M97.34,222.19l-.72,3c-2.81-.32-5.77-1.16-7.82,1.21a7.92,7.92,0,0,0-1.7,4.51c-.24,4.77,1.91,6.08,9.49,6l.59,2.69c-4.52,2-10.12,1-12.75-2.33s-2.61-8.6-.19-12C86.87,221.64,92.15,220.28,97.34,222.19Z"/><path class="cls-2" d="M75.53,221.76h4v18.51h-4Z"/><path class="cls-2" d="M10.57,221.75h4v18.48h-4Z"/><path class="cls-5" d="M59,231c0-3.8,1.81-6.31,4.5-6.32s4.69,2.79,4.59,6.52-2,6.28-4.67,6.19S58.95,234.74,59,231Z"/></g></g></g></svg>