<svg xmlns="http://www.w3.org/2000/svg" viewBox="0 0 169 242"><defs><style>.cls-1,.cls-3,.cls-6{fill:none;}.cls-1,.cls-6{stroke:#2f2f2f;stroke-miterlimit:10;}.cls-2{fill:#2f2f2f;}.cls-4{font-size:44.44px;font-family:KohinoorBangla-Bold, Kohinoor Bangla;font-weight:700;}.cls-5{fill:#fff;}.cls-6{stroke-width:2px;}</style></defs><title>Recurso 11</title><g id="Capa_2" data-name="Capa 2"><g id="Capa_1-2" data-name="Capa 1"><path class="cls-1" d="M131.93,74.15a3,3,0,0,0,.59-1.64,4.21,4.21,0,0,0-1.23-3,13.42,13.42,0,0,0-4.48-2.95c-1.94-.87-4-1.47-6-2.24A20.5,20.5,0,0,1,116,61.81a7,7,0,0,1-2.73-3.58,5.54,5.54,0,0,1,.12-3.38A7,7,0,0,1,116,51.21l.17-.12.14,0c.08.13,0,.23,0,.34A2.89,2.89,0,0,0,117,54a11.74,11.74,0,0,0,4.3,3.06,39.19,39.19,0,0,0,4.76,1.68,29.32,29.32,0,0,1,6.62,2.89,9.45,9.45,0,0,1,2.13,1.85A6.48,6.48,0,0,1,136.17,66a6,6,0,0,1-.09,3.2,7.36,7.36,0,0,1-1.61,3.08A6.21,6.21,0,0,1,131.93,74.15Z"/><path class="cls-1" d="M124.85,68.28a10.53,10.53,0,0,1,1.71,1.09,5.69,5.69,0,0,1,2.1,2.78,2,2,0,0,1-.36,1.77c-.77,1.07-2,1.29-3.26,1.52a16.14,16.14,0,0,1-2.46.22,11.66,11.66,0,0,1-3-.39,16.27,16.27,0,0,1-4.78-2,12.58,12.58,0,0,1-2.5-2,.3.3,0,0,1,0-.45c.64-1,1.29-2,1.87-3,.21-.37.36-.34.7-.2a35.24,35.24,0,0,0,3.64,1.29,16.66,16.66,0,0,0,5,.76c.91,0,1.36-.41,1.39-1.22C124.83,68.41,124.84,68.36,124.85,68.28Z"/><path class="cls-1" d="M126.1,48.14c.93.15,1.87.15,2.8.3a9.62,9.62,0,0,1,2.16.5,17.33,17.33,0,0,1,3.06,1.62l.86.6c.2.13.22.25.08.46q-1.23,1.88-2.42,3.78c-.24.39-.22.39-.68.23a27.74,27.74,0,0,0-4.89-1.32,7.89,7.89,0,0,0-2.54-.06c-.65.1-.87.32-.91.91,0,.23-.11.2-.26.12a14.54,14.54,0,0,1-2.95-1.85,4.73,4.73,0,0,1-1.5-2,1.32,1.32,0,0,1,.25-1.29A3.61,3.61,0,0,1,120.73,49a11.13,11.13,0,0,1,2.31-.62,11.6,11.6,0,0,1,2-.2C125.38,48.2,125.73,48.12,126.1,48.14Z"/><path class="cls-2" d="M134.61,192.89h-2q-52.38,0-104.76,0c-16.34,0-27.87-10.37-27.87-25Q0,96.38,0,24.92C0,10.58,11.48.08,27.42.05q57.35-.1,114.69,0c15.18,0,26.8,10.5,26.84,24.14.08,28.77,0,57.53,0,86.3,0,.57-.08,1.14-.11,1.66H155.08c0-.63,0-1.37,0-2.11q0-42.57,0-85.14A11.74,11.74,0,0,0,145.59,13a17.93,17.93,0,0,0-4.06-.38q-56.91,0-113.83,0c-8.44,0-13.75,4.75-13.76,12.36q0,71.66,0,143.32c0,7.31,5.43,12.11,13.59,12.11q45.57,0,91.15,0a5.43,5.43,0,0,1,4.32,1.86C126.68,185.86,130.67,189.29,134.61,192.89Z"/><path class="cls-2" d="M34.39,0h2Q88.74,0,141.12,0C157.45,0,169,10.37,169,25q0,71.47,0,142.93c0,14.33-11.47,24.83-27.41,24.86q-57.35.1-114.69,0C11.7,192.81.08,182.34,0,168.7,0,139.93,0,111.16,0,82.39c0-.57.08-1.14.11-1.66H13.92c0,.63,0,1.37,0,2.11q0,42.57,0,85.14a11.74,11.74,0,0,0,9.49,11.95,17.93,17.93,0,0,0,4.06.38q56.91,0,113.83,0c8.44,0,13.75-4.75,13.76-12.36q0-71.66,0-143.32c0-7.31-5.43-12.11-13.59-12.11q-45.57,0-91.15,0A5.43,5.43,0,0,1,46,10.71C42.31,7,38.33,3.6,34.39,0Z"/><path class="cls-2" d="M28,82.91h112.9c0,.73.12,1.41.12,2.09,0,9.7,0,19.39,0,29.09a2.75,2.75,0,0,1-2,3c-1.62.64-3.1,1.56-5,2.55V89.16H115.92v2.26c0,15.51.11,31-.09,46.54,0,3-1.2,6.05-2,9-.11.38-1.37.71-2.1.72-10.87,0-21.74,0-32.61,0H28ZM83.64,141.4V89.18H34.9V141.4Zm25.07,0V89.17H91V141.4Z"/><path class="cls-2" d="M54.82,167.74V161.8H141v5.93Z"/><path class="cls-2" d="M27.92,65.52V59.39c.8,0,1.49-.12,2.19-.12,18.19,0,36.38,0,54.58,0,1.92,0,2.44.49,2.39,2.18-.12,4.1,0,4.11-4.53,4.11H27.92Z"/><path class="cls-2" d="M27.92,53.77V47.64c.8,0,1.49-.12,2.19-.12,18.19,0,36.38,0,54.58,0,1.92,0,2.44.49,2.39,2.18-.12,4.1,0,4.11-4.53,4.11H27.92Z"/><path class="cls-2" d="M87,71.87c0,1.78,0,3.45,0,5.11,0,1.38-1.25,1-2.09,1q-17.16,0-34.31,0H28V71.87Z"/><path class="cls-3" d="M83.64,141.4H34.9V89.18H83.64Z"/><path class="cls-3" d="M108.71,141.4H91V89.17h17.72Z"/><path class="cls-2" d="M141,147.74H90.57c-11.54,0-6.44-55-1.07-64.83H141ZM116.62,89.21v52.23h17.72V89.21Zm-24.73,0V141.4h17.72V89.17Z"/><text class="cls-4" transform="translate(30.9 224.45) scale(1.02 0.91)">SEND</text><g id="Capa_5" data-name="Capa 5"><path class="cls-2" d="M50.58,39.11c-4.57,1-5.07.83-7.05-2.78C41.25,32.19,39,28,36.5,23.41V39.3H31.8V17c5-1.18,5.74-.9,8,3.1,2,3.65,4,7.33,6.18,11.29V16.79h4.63Z"/><path class="cls-2" d="M97.78,28.15C97.64,35.54,93.19,40,86.1,39.83c-6.35-.14-10.5-5-10.36-12s4.75-11.68,11.57-11.56C93.72,16.34,97.91,21.11,97.78,28.15ZM81.25,28c0,4.62,2.1,7.69,5.39,7.8s5.59-3,5.7-7.55-2.29-8-5.61-8S81.28,23.34,81.25,28Z"/><path class="cls-2" d="M136.89,35.2h8.61c1.17,3.89.9,4.3-2.75,4.31-3.16,0-6.33.08-9.49-.07-.67,0-1.85-.85-1.86-1.33-.12-7.05-.08-14.1-.08-21.37h14.05v4h-8.55v4.85h4.86c3.7,0,3.7,0,3.09,4h-7.89Z"/><path class="cls-2" d="M53.47,17c5.08-1.13,5.43-.93,6.71,3.57L63.94,33.8c.64-2.22,1.13-3.91,1.63-5.61q1.1-3.74,2.23-7.48c1.37-4.54,1.37-4.54,6.17-3.94.06.23.24.52.18.73-2.27,6.88-4.55,13.76-6.88,20.62-.78,2.3-2.84,1.35-4.33,1.3a3.45,3.45,0,0,1-2.66-1.58C57.9,31,55.75,24.07,53.47,17Z"/><path class="cls-2" d="M128.06,17.27,127.19,21c-3.43-.39-7-1.41-9.54,1.47a9.66,9.66,0,0,0-2.08,5.5c-.29,5.82,2.33,7.41,11.58,7.38l.72,3.29c-5.51,2.48-12.34,1.17-15.56-2.84-3.08-3.84-3.19-10.49-.23-14.66C115.28,16.6,121.73,14.95,128.06,17.27Z"/><path class="cls-2" d="M101.45,16.74h4.93V39.32h-4.93Z"/><path class="cls-2" d="M22.21,16.73h4.94V39.28H22.21Z"/><path class="cls-5" d="M81.25,28c0-4.64,2.21-7.7,5.49-7.71s5.72,3.4,5.61,8-2.43,7.66-5.7,7.55S81.22,32.59,81.25,28Z"/></g><g id="Capa_6" data-name="Capa 6"><path class="cls-6" d="M142.89,64.71a17.62,17.62,0,0,1-3,7.79,18.3,18.3,0,0,1-3.34,3.68,18.87,18.87,0,0,1-16.21,4.15,16.72,16.72,0,0,1-5.07-1.89,17.06,17.06,0,0,1-4.12-3.15,17.73,17.73,0,0,1-5-11.37,12.52,12.52,0,0,1,.09-2.87,25.08,25.08,0,0,1,.61-3.38A20.11,20.11,0,0,1,108.94,53a17.67,17.67,0,0,1,3.48-4.13,19.06,19.06,0,0,1,11.23-4.76,17.49,17.49,0,0,1,3,0,19.48,19.48,0,0,1,5.41,1.29A17.73,17.73,0,0,1,140.17,52a16.27,16.27,0,0,1,1.83,3.5,17.82,17.82,0,0,1,1.15,5.36A13,13,0,0,1,142.89,64.71Z"/></g></g></g></svg>