<svg xmlns="http://www.w3.org/2000/svg" viewBox="0 0 229.88 242.69"><defs><style>.cls-1{fill:#2f2f2f;}.cls-2,.cls-4{fill:none;stroke-miterlimit:10;}.cls-2{stroke:#263238;stroke-width:8px;}.cls-3{fill:#fff;}.cls-4{stroke:#2f2f2f;stroke-width:2px;}.cls-5{font-size:47.95px;fill:#263238;font-family:PTMono-Bold, PT Mono;font-weight:700;}</style></defs><title>Recurso 2</title><g id="Capa_2" data-name="Capa 2"><g id="Capa_1-2" data-name="Capa 1"><g id="GLX0UB.tif"><path class="cls-1" d="M149.57,238.69h-2.19q-58.2,0-116.4,0c-18.15,0-31-12.83-31-31Q0,119.27,0,30.83C0,13.1,12.76.1,30.47.06Q94.19-.06,157.9.07c16.87,0,29.78,13,29.82,29.87.09,35.6,0,71.2,0,106.8,0,.7-.08,1.4-.12,2.05H172.31c0-.78,0-1.7,0-2.62q0-52.68,0-105.36c0-7.46-4-13.06-10.54-14.78a18,18,0,0,0-4.51-.47q-63.24,0-126.48,0c-9.38,0-15.28,5.88-15.29,15.29q0,88.68,0,177.36c0,9.05,6,15,15.1,15q50.64,0,101.28,0a5.77,5.77,0,0,1,4.8,2.3C140.76,230,145.19,234.24,149.57,238.69Z"/><path class="cls-2" d="M179.89,238.69a45.84,45.84,0,1,1,46-45.88A46,46,0,0,1,179.89,238.69Z"/><path class="cls-1" d="M31.08,102.6H156.52c0,.91.13,1.75.13,2.59,0,12,0,24,0,36,0,1.85-.5,2.94-2.23,3.71S151,146.83,148.9,148V110.33H128.8v2.79c0,19.2.12,38.4-.1,57.59,0,3.74-1.34,7.49-2.27,11.18-.12.47-1.52.88-2.33.89-12.08.06-24.16,0-36.24,0H31.08ZM92.93,175V110.35H38.78V175Zm27.85,0V110.34H101.1V175Z"/><path class="cls-1" d="M60.91,207.57v-7.34h65.46v7.34Z"/><path class="cls-1" d="M31,73.66V66.08c.89-.06,1.66-.15,2.43-.15,20.21,0,40.43,0,60.64-.06,2.14,0,2.71.6,2.66,2.7-.13,5.08,0,5.09-5,5.09H31Z"/><path class="cls-1" d="M96.69,81.54c0,2.21,0,4.27,0,6.32,0,1.71-1.39,1.22-2.32,1.22q-19.06,0-38.13,0H31.11V81.54Z"/><path class="cls-1" d="M65.06,50.64c-3.92.87-4.35.71-6.05-2.38-2-3.56-3.88-7.13-6-11.08V50.8H49V31.65c4.26-1,4.92-.77,6.83,2.66,1.75,3.13,3.45,6.29,5.3,9.68V31.49h4Z"/><path class="cls-1" d="M105.55,41.24c-.12,6.33-3.94,10.15-10,10-5.45-.12-9-4.25-8.89-10.33s4.08-10,9.92-9.92C102.07,31.1,105.67,35.2,105.55,41.24Zm-14.18-.16c0,4,1.8,6.6,4.63,6.69s4.8-2.54,4.89-6.48-2-6.83-4.81-6.83S91.4,37.11,91.38,41.09Z"/><path class="cls-1" d="M139.11,47.29h7.39c1,3.34.77,3.69-2.36,3.7-2.71,0-5.43.06-8.14-.06-.57,0-1.59-.73-1.59-1.14-.1-6-.07-12.1-.07-18.33h12.05V34.9h-7.33v4.16h4.17c3.18,0,3.18,0,2.65,3.47h-6.77Z"/><path class="cls-1" d="M67.55,31.66c4.36-1,4.66-.79,5.75,3.06l3.22,11.36c.55-1.9,1-3.36,1.4-4.81q.95-3.21,1.91-6.42C81,31,81,31,85.12,31.47c.05.2.21.45.15.63-2,5.9-3.9,11.8-5.9,17.69-.67,2-2.44,1.16-3.71,1.12a3,3,0,0,1-2.28-1.36C71.34,43.67,69.5,37.74,67.55,31.66Z"/><path class="cls-1" d="M131.53,31.91l-.75,3.17c-2.94-.33-6-1.21-8.19,1.26a8.29,8.29,0,0,0-1.78,4.72c-.25,5,2,6.36,9.94,6.33l.62,2.82c-4.73,2.13-10.59,1-13.35-2.44s-2.73-9-.2-12.58C120.57,31.33,126.1,29.91,131.53,31.91Z"/><path class="cls-1" d="M108.7,31.45h4.23V50.82H108.7Z"/><path class="cls-1" d="M40.73,31.44H45V50.78H40.73Z"/><path class="cls-3" d="M92.93,175H38.78V110.35H92.93Z"/><path class="cls-3" d="M120.79,175H101.1V110.34h19.69Z"/><path class="cls-3" d="M91.38,41.09c0-4,1.9-6.61,4.71-6.61s4.9,2.92,4.81,6.83S98.81,47.88,96,47.78,91.35,45,91.38,41.09Z"/></g><path class="cls-4" d="M145,78.57a18.89,18.89,0,0,1-2.81,7.87,18,18,0,0,1-3.06,3.72,17,17,0,0,1-6.93,4,15.91,15.91,0,0,1-8,.2,14.5,14.5,0,0,1-4.65-1.91,15.93,15.93,0,0,1-3.78-3.18,18.75,18.75,0,0,1-3.27-5.4,20.27,20.27,0,0,1-1.3-6.09,13.92,13.92,0,0,1,.08-2.89,27.66,27.66,0,0,1,.58-3.41,21.36,21.36,0,0,1,1.93-4.68,17.55,17.55,0,0,1,3.2-4.17,17.16,17.16,0,0,1,5.19-3.52,16.17,16.17,0,0,1,5.12-1.3,14.6,14.6,0,0,1,2.79,0,16.54,16.54,0,0,1,5,1.31,16.71,16.71,0,0,1,7.4,6.64,17.08,17.08,0,0,1,1.66,3.54,19.58,19.58,0,0,1,1.05,5.42A14.41,14.41,0,0,1,145,78.57Z"/><path class="cls-4" d="M135.29,90.32a3.9,3.9,0,0,0,.59-1.91,5.32,5.32,0,0,0-1.21-3.48,13.26,13.26,0,0,0-4.44-3.41c-1.93-1-4-1.7-5.93-2.59a19.34,19.34,0,0,1-4.83-2.9,8.12,8.12,0,0,1-2.7-4.15A7.48,7.48,0,0,1,116.9,68a8.31,8.31,0,0,1,2.62-4.24l.17-.14a.65.65,0,0,1,.14-.05c.08.15,0,.27,0,.4a3.74,3.74,0,0,0,.74,3.05,11.79,11.79,0,0,0,4.26,3.54,35.14,35.14,0,0,0,4.72,1.94,27,27,0,0,1,6.57,3.34,9.92,9.92,0,0,1,2.11,2.14,8,8,0,0,1,1.33,2.87,8.16,8.16,0,0,1-.1,3.71,9.18,9.18,0,0,1-1.6,3.58A6.44,6.44,0,0,1,135.29,90.32Z"/><path class="cls-4" d="M129.95,83.51a10.33,10.33,0,0,1,1.7,1.26A6.56,6.56,0,0,1,133.72,88a2.59,2.59,0,0,1-.37,2.06c-.77,1.25-2,1.5-3.24,1.77a13.79,13.79,0,0,1-2.45.26,10,10,0,0,1-3-.44,14.88,14.88,0,0,1-4.75-2.29A13,13,0,0,1,117.45,87a.39.39,0,0,1,0-.53c.63-1.16,1.29-2.3,1.86-3.49.21-.43.36-.4.69-.24a31.6,31.6,0,0,0,3.62,1.49,14.31,14.31,0,0,0,5,.87,1.28,1.28,0,0,0,1.39-1.42C129.93,83.67,129.94,83.61,129.95,83.51Z"/><path class="cls-4" d="M129.3,60.81c.92.17,1.86.17,2.78.34a8.38,8.38,0,0,1,2.14.58,16.41,16.41,0,0,1,3,1.87l.85.69c.2.16.22.29.08.54Q137,67,135.78,69.23c-.24.45-.22.46-.68.27A24.34,24.34,0,0,0,130.25,68a6.71,6.71,0,0,0-2.52-.06c-.64.12-.87.38-.9,1.06,0,.26-.11.23-.26.14A14.22,14.22,0,0,1,123.65,67a5.47,5.47,0,0,1-1.49-2.32,1.74,1.74,0,0,1,.25-1.5,3.69,3.69,0,0,1,1.55-1.3,11.87,11.87,0,0,1,4.26-1C128.58,60.88,128.94,60.79,129.3,60.81Z"/><g id="Capa_3" data-name="Capa 3"><text class="cls-5" transform="translate(162.35 213.03) scale(1.25)">£</text></g></g></g></svg>