<svg xmlns="http://www.w3.org/2000/svg" viewBox="0 0 187.77 275.18"><defs><style>.cls-1,.cls-3{fill:none;}.cls-1{stroke:#2f2f2f;stroke-miterlimit:10;stroke-width:4px;}.cls-2{fill:#2f2f2f;}.cls-4{fill:#fff;}.cls-5{font-size:28px;font-family:KohinoorBangla-Bold, Kohinoor Bangla;font-weight:700;}</style></defs><title>Recurso 5</title><g id="Capa_2" data-name="Capa 2"><g id="Capa_1-2" data-name="Capa 1"><path class="cls-1" d="M165.12,62a33.78,33.78,0,0,1-5,14.08,32.18,32.18,0,0,1-5.48,6.65,30.4,30.4,0,0,1-12.39,7.14,28.45,28.45,0,0,1-14.22.36,25.93,25.93,0,0,1-8.32-3.41,28.49,28.49,0,0,1-6.76-5.69,33.53,33.53,0,0,1-5.85-9.66,36.25,36.25,0,0,1-2.32-10.89,24.89,24.89,0,0,1,.15-5.18,49.46,49.46,0,0,1,1-6.11,38.2,38.2,0,0,1,3.46-8.37,31.39,31.39,0,0,1,5.72-7.46,30.69,30.69,0,0,1,9.28-6.29,28.92,28.92,0,0,1,9.16-2.32,26.1,26.1,0,0,1,5,0,29.59,29.59,0,0,1,8.88,2.34,29.89,29.89,0,0,1,13.23,11.88,30.55,30.55,0,0,1,3,6.33,35,35,0,0,1,1.89,9.69A25.77,25.77,0,0,1,165.12,62Z"/><path class="cls-1" d="M147.69,83a7,7,0,0,0,1.05-3.42,9.52,9.52,0,0,0-2.16-6.22,23.72,23.72,0,0,0-7.94-6.11c-3.44-1.8-7.09-3-10.61-4.62a34.59,34.59,0,0,1-8.63-5.19A14.53,14.53,0,0,1,114.58,50a13.38,13.38,0,0,1,.22-7,14.86,14.86,0,0,1,4.68-7.58,3.13,3.13,0,0,1,.31-.25,1.16,1.16,0,0,1,.25-.09c.15.26,0,.48-.08.71a6.69,6.69,0,0,0,1.33,5.46,21.09,21.09,0,0,0,7.62,6.33,62.85,62.85,0,0,0,8.44,3.47,48.23,48.23,0,0,1,11.75,6,17.74,17.74,0,0,1,3.78,3.83A14.22,14.22,0,0,1,155.25,66a14.6,14.6,0,0,1-.18,6.64A16.41,16.41,0,0,1,152.2,79,11.51,11.51,0,0,1,147.69,83Z"/><path class="cls-1" d="M138.13,70.85a18.48,18.48,0,0,1,3,2.26,11.73,11.73,0,0,1,3.72,5.76,4.63,4.63,0,0,1-.65,3.69c-1.38,2.23-3.59,2.69-5.79,3.17a24.65,24.65,0,0,1-4.37.46,17.84,17.84,0,0,1-5.37-.79,26.61,26.61,0,0,1-8.49-4.1,23.19,23.19,0,0,1-4.43-4.15.7.7,0,0,1-.06-.94C116.85,74.15,118,72.09,119,70c.37-.77.64-.71,1.24-.42a56.51,56.51,0,0,0,6.47,2.66,25.59,25.59,0,0,0,8.86,1.56,2.28,2.28,0,0,0,2.48-2.53C138.1,71.12,138.12,71,138.13,70.85Z"/><path class="cls-1" d="M137,30.24c1.65.3,3.32.3,5,.61a15,15,0,0,1,3.83,1,29.35,29.35,0,0,1,5.43,3.35c.51.4,1,.83,1.52,1.24.35.28.39.53.14,1q-2.2,3.91-4.32,7.87c-.44.81-.4.82-1.21.48a43.53,43.53,0,0,0-8.68-2.72,12,12,0,0,0-4.51-.11c-1.15.22-1.55.67-1.61,1.9,0,.47-.2.41-.47.25a25.43,25.43,0,0,1-5.23-3.83,9.78,9.78,0,0,1-2.66-4.15,3.11,3.11,0,0,1,.45-2.69,6.6,6.6,0,0,1,2.78-2.33A21.22,21.22,0,0,1,135,30.39C135.7,30.37,136.33,30.2,137,30.24Z"/><path class="cls-2" d="M149.57,238.69h-2.19q-58.2,0-116.4,0c-18.15,0-31-12.83-31-31Q0,119.27,0,30.83C0,13.1,12.76.1,30.47.06Q94.19-.06,157.9.07c16.87,0,29.78,13,29.82,29.87.09,35.6,0,71.2,0,106.8,0,.7-.08,1.4-.12,2.05H172.31c0-.78,0-1.7,0-2.62q0-52.68,0-105.36c0-7.46-4-13.06-10.54-14.78a18,18,0,0,0-4.51-.47q-63.24,0-126.48,0c-9.38,0-15.28,5.88-15.29,15.29q0,88.68,0,177.36c0,9.05,6,15,15.1,15q50.64,0,101.28,0a5.77,5.77,0,0,1,4.8,2.3C140.76,230,145.19,234.24,149.57,238.69Z"/><path class="cls-2" d="M38.21,0H40.4Q98.6,0,156.8,0c18.15,0,31,12.83,31,31q0,88.44,0,176.88c0,17.73-12.74,30.73-30.45,30.77q-63.72.13-127.44,0C13,238.59.09,225.64.05,208.76,0,173.16,0,137.56,0,102c0-.7.08-1.4.12-2.05H15.47c0,.78,0,1.7,0,2.62q0,52.68,0,105.36c0,7.46,4,13.06,10.54,14.78a18,18,0,0,0,4.51.47q63.24,0,126.48,0c9.38,0,15.28-5.88,15.29-15.29q0-88.68,0-177.36c0-9.05-6-15-15.1-15q-50.64,0-101.28,0a5.77,5.77,0,0,1-4.8-2.3C47,8.7,42.58,4.45,38.21,0Z"/><path class="cls-2" d="M31.08,102.6H156.52c0,.91.13,1.75.13,2.59,0,12,0,24,0,36,0,1.85-.5,2.94-2.23,3.71S151,146.83,148.9,148V110.33H128.8v2.79c0,19.2.12,38.4-.1,57.59,0,3.74-1.34,7.49-2.27,11.18-.12.47-1.52.88-2.33.89-12.08.06-24.16,0-36.24,0H31.08ZM92.93,175V110.35H38.78V175Zm27.85,0V110.34H101.1V175Z"/><path class="cls-2" d="M60.91,207.57v-7.34H156.7v7.34Z"/><path class="cls-2" d="M31,73.66V66.08c.89-.06,1.66-.15,2.43-.15,20.21,0,40.43,0,60.64-.06,2.14,0,2.71.6,2.66,2.7-.13,5.08,0,5.09-5,5.09H31Z"/><path class="cls-2" d="M31,57.88V50.3c.89-.06,1.66-.15,2.43-.15,20.21,0,40.43,0,60.64-.06,2.14,0,2.71.6,2.66,2.7-.13,5.08,0,5.09-5,5.09H31Z"/><path class="cls-2" d="M96.69,81.54c0,2.21,0,4.27,0,6.32,0,1.71-1.39,1.22-2.32,1.22q-19.06,0-38.13,0H31.11V81.54Z"/><path class="cls-2" d="M46.6,263.27c-3.37.75-3.74.61-5.21-2.05-1.68-3.06-3.34-6.14-5.18-9.54v11.73H32.73V246.93c3.67-.87,4.24-.66,5.88,2.29,1.5,2.7,3,5.41,4.57,8.33V246.79H46.6Z"/><path class="cls-2" d="M81.45,255.18c-.11,5.45-3.39,8.73-8.62,8.62-4.69-.1-7.75-3.66-7.65-8.89s3.51-8.63,8.54-8.54C78.46,246.46,81.55,250,81.45,255.18ZM69.25,255c0,3.41,1.55,5.68,4,5.76s4.13-2.18,4.21-5.58-1.69-5.88-4.14-5.88S69.27,251.63,69.25,255Z"/><path class="cls-2" d="M110.34,260.39h6.36c.87,2.87.66,3.18-2,3.18-2.34,0-4.68.06-7,0-.49,0-1.36-.63-1.37-1-.09-5.21-.06-10.41-.06-15.78H116.6v3h-6.31v3.58h3.59c2.73,0,2.73,0,2.28,3h-5.83Z"/><path class="cls-2" d="M48.74,246.94c3.75-.83,4-.68,5,2.63l2.77,9.78c.48-1.64.84-2.89,1.2-4.14q.82-2.76,1.64-5.52c1-3.35,1-3.35,4.55-2.91,0,.17.18.38.13.54-1.68,5.08-3.36,10.16-5.08,15.23-.58,1.7-2.1,1-3.2,1a2.55,2.55,0,0,1-2-1.17C52,257.28,50.42,252.17,48.74,246.94Z"/><path class="cls-2" d="M103.82,247.15l-.65,2.73c-2.53-.29-5.19-1-7,1.09A7.13,7.13,0,0,0,94.59,255c-.22,4.3,1.72,5.47,8.55,5.45l.53,2.43c-4.07,1.83-9.11.86-11.49-2.1A9.59,9.59,0,0,1,92,250C94.38,246.65,99.14,245.43,103.82,247.15Z"/><path class="cls-2" d="M84.16,246.76h3.64v16.67H84.16Z"/><path class="cls-2" d="M25.65,246.75h3.65V263.4H25.65Z"/><path class="cls-3" d="M92.93,175H38.78V110.35H92.93Z"/><path class="cls-3" d="M120.79,175H101.1V110.34h19.69Z"/><path class="cls-4" d="M69.25,255c0-3.42,1.63-5.69,4.06-5.69s4.22,2.51,4.14,5.88-1.79,5.66-4.21,5.58S69.23,258.46,69.25,255Z"/><path class="cls-2" d="M156.7,182.83H100.63c-12.82,0-7.15-68.09-1.19-80.23H156.7ZM129.57,110.4V175h19.69V110.4Zm-27.47-.06V175h19.69V110.34Z"/><text class="cls-5" transform="translate(124.07 264.12) scale(1.02 0.91)">ME</text></g></g></svg>