<svg xmlns="http://www.w3.org/2000/svg" viewBox="0 0 169 265.99"><defs><style>.cls-1,.cls-3{fill:none;}.cls-1{stroke:#2f2f2f;stroke-miterlimit:10;stroke-width:3px;}.cls-2{fill:#2f2f2f;}.cls-4{font-size:40.4px;font-family:KohinoorBangla-Bold, Kohinoor Bangla;font-weight:700;}.cls-5{fill:#fff;}</style></defs><title>Recurso 8</title><g id="Capa_2" data-name="Capa 2"><g id="Capa_1-2" data-name="Capa 1"><path class="cls-1" d="M132.92,71.73a6.27,6.27,0,0,0,.95-3.08,8.57,8.57,0,0,0-1.95-5.6,21.35,21.35,0,0,0-7.14-5.5c-3.1-1.62-6.38-2.74-9.55-4.16a31.13,31.13,0,0,1-7.77-4.67A13.07,13.07,0,0,1,103.12,42a12,12,0,0,1,.2-6.32,13.38,13.38,0,0,1,4.22-6.83,2.82,2.82,0,0,1,.28-.22,1,1,0,0,1,.22-.08c.13.24,0,.43-.07.64a6,6,0,0,0,1.2,4.91,19,19,0,0,0,6.86,5.7A56.56,56.56,0,0,0,123.61,43a43.41,43.41,0,0,1,10.57,5.37,16,16,0,0,1,3.4,3.45,12.8,12.8,0,0,1,2.14,4.62,13.14,13.14,0,0,1-.16,6A14.77,14.77,0,0,1,137,68.13,10.36,10.36,0,0,1,132.92,71.73Z"/><path class="cls-1" d="M121.62,60.77a16.63,16.63,0,0,1,2.73,2A10.56,10.56,0,0,1,127.69,68a4.17,4.17,0,0,1-.59,3.32c-1.24,2-3.24,2.42-5.21,2.85a22.19,22.19,0,0,1-3.94.42,16.05,16.05,0,0,1-4.83-.71,24,24,0,0,1-7.64-3.69,20.88,20.88,0,0,1-4-3.73.63.63,0,0,1-.06-.85c1-1.86,2.08-3.71,3-5.62.33-.69.58-.64,1.12-.38A50.86,50.86,0,0,0,111.38,62a23,23,0,0,0,8,1.4,2.06,2.06,0,0,0,2.23-2.28C121.59,61,121.6,60.92,121.62,60.77Z"/><path class="cls-1" d="M123.71,23.1c1.48.27,3,.27,4.48.55a13.48,13.48,0,0,1,3.45.93,26.42,26.42,0,0,1,4.89,3c.46.36.91.75,1.37,1.12s.35.47.13.86q-2,3.52-3.89,7.09c-.39.73-.36.74-1.09.43a39.18,39.18,0,0,0-7.81-2.44,10.8,10.8,0,0,0-4.06-.1c-1,.19-1.4.6-1.45,1.71,0,.42-.18.37-.42.23A22.89,22.89,0,0,1,114.61,33a8.8,8.8,0,0,1-2.39-3.73,2.8,2.8,0,0,1,.41-2.42,5.94,5.94,0,0,1,2.5-2.1A19.1,19.1,0,0,1,122,23.23C122.56,23.22,123.13,23.07,123.71,23.1Z"/><path class="cls-2" d="M134.61,192.89h-2q-52.38,0-104.76,0c-16.34,0-27.87-10.37-27.87-25Q0,96.38,0,24.92C0,10.58,11.48.08,27.42.05q57.35-.1,114.69,0c15.18,0,26.8,10.5,26.84,24.14.08,28.77,0,57.53,0,86.3,0,.57-.08,1.14-.11,1.66H155.08c0-.63,0-1.37,0-2.11q0-42.57,0-85.14A11.74,11.74,0,0,0,145.59,13a17.93,17.93,0,0,0-4.06-.38q-56.91,0-113.83,0c-8.44,0-13.75,4.75-13.76,12.36q0,71.66,0,143.32c0,7.31,5.43,12.11,13.59,12.11q45.57,0,91.15,0a5.43,5.43,0,0,1,4.32,1.86C126.68,185.86,130.67,189.29,134.61,192.89Z"/><path class="cls-2" d="M34.39,0h2Q88.74,0,141.12,0C157.45,0,169,10.37,169,25q0,71.47,0,142.93c0,14.33-11.47,24.83-27.41,24.86q-57.35.1-114.69,0C11.7,192.81.08,182.34,0,168.7,0,139.93,0,111.16,0,82.39c0-.57.08-1.14.11-1.66H13.92c0,.63,0,1.37,0,2.11q0,42.57,0,85.14a11.74,11.74,0,0,0,9.49,11.95,17.93,17.93,0,0,0,4.06.38q56.91,0,113.83,0c8.44,0,13.75-4.75,13.76-12.36q0-71.66,0-143.32c0-7.31-5.43-12.11-13.59-12.11q-45.57,0-91.15,0A5.43,5.43,0,0,1,46,10.71C42.31,7,38.33,3.6,34.39,0Z"/><path class="cls-2" d="M28,82.91h112.9c0,.73.12,1.41.12,2.09,0,9.7,0,19.39,0,29.09a2.75,2.75,0,0,1-2,3c-1.62.64-3.1,1.56-5,2.55V89.16H115.92v2.26c0,15.51.11,31-.09,46.54,0,3-1.2,6.05-2,9-.11.38-1.37.71-2.1.72-10.87,0-21.74,0-32.61,0H28ZM83.64,141.4V89.18H34.9V141.4Zm25.07,0V89.17H91V141.4Z"/><path class="cls-2" d="M54.82,167.74V161.8H141v5.93Z"/><path class="cls-2" d="M27.92,59.52V53.39c.8,0,1.49-.12,2.19-.12,18.19,0,36.38,0,54.58,0,1.92,0,2.44.49,2.39,2.18-.12,4.1,0,4.11-4.53,4.11H27.92Z"/><path class="cls-2" d="M27.92,46.77V40.64c.8,0,1.49-.12,2.19-.12,18.19,0,36.38,0,54.58,0,1.92,0,2.44.49,2.39,2.18-.12,4.1,0,4.11-4.53,4.11H27.92Z"/><path class="cls-2" d="M87,65.89c0,1.78,0,3.45,0,5.11,0,1.38-1.25,1-2.09,1Q67.76,72,50.6,72H28V65.89Z"/><path class="cls-3" d="M83.64,141.4H34.9V89.18H83.64Z"/><path class="cls-3" d="M108.71,141.4H91V89.17h17.72Z"/><path class="cls-2" d="M141,147.74H90.57c-11.54,0-6.44-55-1.07-64.83H141ZM116.62,89.21v52.23h17.72V89.21Zm-24.73,0V141.4h17.72V89.17Z"/><text class="cls-4" transform="translate(53.47 250.03) scale(1.02 0.91)">ME</text><g id="Capa_5" data-name="Capa 5"><path class="cls-2" d="M50.58,218.11c-4.57,1-5.07.83-7.05-2.78-2.28-4.15-4.52-8.31-7-12.92V218.3H31.8V196c5-1.18,5.74-.9,8,3.1,2,3.65,4,7.33,6.18,11.29V195.79h4.63Z"/><path class="cls-2" d="M97.78,207.15c-.14,7.38-4.59,11.83-11.68,11.68-6.35-.14-10.5-5-10.36-12s4.75-11.68,11.57-11.56C93.72,195.34,97.91,200.11,97.78,207.15ZM81.25,207c0,4.62,2.1,7.69,5.39,7.8s5.59-3,5.7-7.55-2.29-8-5.61-8S81.28,202.34,81.25,207Z"/><path class="cls-2" d="M136.89,214.2h8.61c1.17,3.89.9,4.3-2.75,4.31-3.16,0-6.33.08-9.49-.07-.67,0-1.85-.85-1.86-1.33-.12-7.05-.08-14.1-.08-21.37h14.05v4h-8.55v4.85h4.86c3.7,0,3.7,0,3.09,4h-7.89Z"/><path class="cls-2" d="M53.47,196c5.08-1.13,5.43-.93,6.71,3.57l3.76,13.24c.64-2.22,1.13-3.91,1.63-5.61q1.1-3.74,2.23-7.48c1.37-4.54,1.37-4.54,6.17-3.94.06.23.24.52.18.73-2.27,6.88-4.55,13.76-6.88,20.62-.78,2.3-2.84,1.35-4.33,1.3a3.45,3.45,0,0,1-2.66-1.58C57.9,210,55.75,203.07,53.47,196Z"/><path class="cls-2" d="M128.06,196.27l-.87,3.69c-3.43-.39-7-1.41-9.54,1.47a9.66,9.66,0,0,0-2.08,5.5c-.29,5.82,2.33,7.41,11.58,7.38l.72,3.29c-5.51,2.48-12.34,1.17-15.56-2.84-3.08-3.84-3.19-10.49-.23-14.66C115.28,195.6,121.73,193.95,128.06,196.27Z"/><path class="cls-2" d="M101.45,195.74h4.93v22.58h-4.93Z"/><path class="cls-2" d="M22.21,195.73h4.94v22.55H22.21Z"/><path class="cls-5" d="M81.25,207c0-4.64,2.21-7.7,5.49-7.71s5.72,3.4,5.61,8-2.43,7.66-5.7,7.55S81.22,211.59,81.25,207Z"/></g></g></g></svg>