<svg xmlns="http://www.w3.org/2000/svg" viewBox="0 0 223.91 243.79"><defs><style>.cls-1{fill:#2f2f2f;}.cls-2,.cls-3,.cls-5{fill:none;}.cls-2{stroke:#263238;}.cls-2,.cls-5{stroke-miterlimit:10;stroke-width:4px;}.cls-4{fill:#fff;}.cls-5{stroke:#2f2f2f;}.cls-6{font-size:35px;fill:#263238;font-family:PTMono-Bold, PT Mono;font-weight:700;}</style></defs><title>Recurso 4</title><g id="Capa_2" data-name="Capa 2"><g id="Capa_1-2" data-name="Capa 1"><g id="GLX0UB.tif"><path class="cls-1" d="M149.57,238.69h-2.19q-58.2,0-116.4,0c-18.15,0-31-12.83-31-31Q0,119.27,0,30.83C0,13.1,12.76.1,30.47.06Q94.19-.06,157.9.07c16.87,0,29.78,13,29.82,29.87.09,35.6,0,71.2,0,106.8,0,.7-.08,1.4-.12,2.05H172.31c0-.78,0-1.7,0-2.62q0-52.68,0-105.36c0-7.46-4-13.06-10.54-14.78a18,18,0,0,0-4.51-.47q-63.24,0-126.48,0c-9.38,0-15.28,5.88-15.29,15.29q0,88.68,0,177.36c0,9.05,6,15,15.1,15q50.64,0,101.28,0a5.77,5.77,0,0,1,4.8,2.3C140.76,230,145.19,234.24,149.57,238.69Z"/><path class="cls-2" d="M139.82,88.09a26.54,26.54,0,1,1,26.63-26.57A26.66,26.66,0,0,1,139.82,88.09Z"/><path class="cls-1" d="M31.08,102.6H156.52c0,.91.13,1.75.13,2.59,0,12,0,24,0,36,0,1.85-.5,2.94-2.23,3.71S151,146.83,148.9,148V110.33H128.8v2.79c0,19.2.12,38.4-.1,57.59,0,3.74-1.34,7.49-2.27,11.18-.12.47-1.52.88-2.33.89-12.08.06-24.16,0-36.24,0H31.08ZM92.93,175V110.35H38.78V175Zm27.85,0V110.34H101.1V175Z"/><path class="cls-1" d="M60.91,207.57v-7.34h65.46v7.34Z"/><path class="cls-1" d="M31,73.66V66.08c.89-.06,1.66-.15,2.43-.15,20.21,0,40.43,0,60.64-.06,2.14,0,2.71.6,2.66,2.7-.13,5.08,0,5.09-5,5.09H31Z"/><path class="cls-1" d="M96.69,81.54c0,2.21,0,4.27,0,6.32,0,1.71-1.39,1.22-2.32,1.22q-19.06,0-38.13,0H31.11V81.54Z"/><path class="cls-1" d="M45.85,46.83c-2.36.53-2.62.43-3.64-1.43-1.18-2.14-2.33-4.29-3.62-6.67v8.2H36.15V35.39c2.57-.61,3-.46,4.11,1.6,1.05,1.89,2.08,3.79,3.19,5.83V35.3h2.39Z"/><path class="cls-1" d="M70.22,41.17c-.07,3.81-2.37,6.11-6,6-3.28-.07-5.42-2.56-5.35-6.22s2.45-6,6-6C68.13,35.07,70.29,37.53,70.22,41.17Zm-8.54-.09c0,2.38,1.08,4,2.79,4s2.89-1.53,2.95-3.9-1.18-4.11-2.89-4.11S61.7,38.68,61.69,41.07Z"/><path class="cls-1" d="M90.42,44.81h4.45c.61,2,.46,2.22-1.42,2.22-1.63,0-3.27,0-4.9,0-.34,0-1-.44-1-.68-.06-3.64,0-7.28,0-11H94.8v2.07H90.39v2.51H92.9c1.91,0,1.91,0,1.6,2.09H90.42Z"/><path class="cls-1" d="M47.34,35.4c2.62-.58,2.8-.48,3.46,1.84l1.94,6.84c.33-1.14.58-2,.84-2.9q.57-1.93,1.15-3.86c.71-2.34.71-2.34,3.18-2,0,.12.13.27.09.38-1.17,3.55-2.35,7.1-3.55,10.65-.4,1.19-1.47.7-2.24.67a1.78,1.78,0,0,1-1.38-.82C49.63,42.63,48.52,39.06,47.34,35.4Z"/><path class="cls-1" d="M85.86,35.55l-.45,1.91c-1.77-.2-3.63-.73-4.93.76a5,5,0,0,0-1.07,2.84c-.15,3,1.2,3.83,6,3.81l.37,1.7c-2.84,1.28-6.37.6-8-1.47a6.71,6.71,0,0,1-.12-7.57C79.26,35.2,82.59,34.35,85.86,35.55Z"/><path class="cls-1" d="M72.12,35.28h2.55V46.94H72.12Z"/><path class="cls-1" d="M31.2,35.27h2.55V46.91H31.2Z"/><path class="cls-3" d="M92.93,175H38.78V110.35H92.93Z"/><path class="cls-3" d="M120.79,175H101.1V110.34h19.69Z"/><path class="cls-4" d="M61.69,41.07c0-2.39,1.14-4,2.84-4s3,1.76,2.89,4.11-1.25,4-2.95,3.9S61.67,43.46,61.69,41.07Z"/></g><path class="cls-5" d="M221.24,199.2a49.68,49.68,0,0,1-7.4,20.7,47.33,47.33,0,0,1-8.06,9.78,44.71,44.71,0,0,1-18.22,10.49,41.83,41.83,0,0,1-20.91.53,38.13,38.13,0,0,1-12.23-5,41.9,41.9,0,0,1-9.95-8.36,49.3,49.3,0,0,1-8.6-14.21,53.32,53.32,0,0,1-3.42-16,36.61,36.61,0,0,1,.22-7.61,72.74,72.74,0,0,1,1.54-9,56.17,56.17,0,0,1,5.09-12.3,46.17,46.17,0,0,1,8.41-11A45.14,45.14,0,0,1,161.36,148a42.53,42.53,0,0,1,13.47-3.41,38.39,38.39,0,0,1,7.35.06,43.51,43.51,0,0,1,13.06,3.44,44,44,0,0,1,19.45,17.47,44.93,44.93,0,0,1,4.36,9.31,51.49,51.49,0,0,1,2.77,14.25A37.89,37.89,0,0,1,221.24,199.2Z"/><path class="cls-5" d="M195.61,230.1a10.25,10.25,0,0,0,1.55-5,14,14,0,0,0-3.18-9.15c-3.19-4-7.26-6.68-11.67-9-5.07-2.64-10.43-4.48-15.61-6.8A50.86,50.86,0,0,1,154,192.5a21.36,21.36,0,0,1-7.09-10.92,19.68,19.68,0,0,1,.33-10.32,21.86,21.86,0,0,1,6.89-11.15,4.61,4.61,0,0,1,.45-.37,1.7,1.7,0,0,1,.36-.14c.22.39,0,.71-.12,1-.7,3,.31,5.62,2,8,2.89,4.23,6.94,6.94,11.21,9.31,3.95,2.19,8.23,3.52,12.41,5.1,6,2.29,12,4.87,17.28,8.77a26.09,26.09,0,0,1,5.56,5.63,20.91,20.91,0,0,1,3.5,7.54,21.47,21.47,0,0,1-.26,9.77,24.14,24.14,0,0,1-4.22,9.42A16.93,16.93,0,0,1,195.61,230.1Z"/><path class="cls-5" d="M181.55,212.18a27.17,27.17,0,0,1,4.46,3.33,17.26,17.26,0,0,1,5.46,8.47,6.8,6.8,0,0,1-1,5.42c-2,3.28-5.29,4-8.52,4.66a36.25,36.25,0,0,1-6.43.68,26.23,26.23,0,0,1-7.89-1.16,39.13,39.13,0,0,1-12.48-6,34.11,34.11,0,0,1-6.52-6.1,1,1,0,0,1-.09-1.38c1.67-3,3.39-6.06,4.9-9.19.54-1.13.95-1,1.83-.62a83.11,83.11,0,0,0,9.51,3.91,37.64,37.64,0,0,0,13,2.29c2.37-.07,3.55-1.26,3.64-3.73C181.5,212.59,181.53,212.44,181.55,212.18Z"/><path class="cls-5" d="M179.86,152.47c2.42.44,4.89.44,7.32.89a22,22,0,0,1,5.64,1.53,43.17,43.17,0,0,1,8,4.92c.76.59,1.49,1.23,2.24,1.82.51.41.57.78.21,1.41q-3.23,5.76-6.35,11.58c-.64,1.19-.58,1.21-1.78.7a64,64,0,0,0-12.77-4,17.65,17.65,0,0,0-6.63-.17c-1.69.32-2.28,1-2.37,2.8,0,.69-.29.6-.69.37A37.4,37.4,0,0,1,165,168.7a14.38,14.38,0,0,1-3.91-6.1,4.57,4.57,0,0,1,.66-4,9.7,9.7,0,0,1,4.09-3.43,31.21,31.21,0,0,1,11.2-2.54C178,152.66,178.9,152.41,179.86,152.47Z"/><g id="Capa_3" data-name="Capa 3"><text class="cls-6" transform="translate(126.37 76.8) scale(1.25)">£</text></g></g></g></svg>