<svg xmlns="http://www.w3.org/2000/svg" viewBox="0 0 169 239.41"><defs><style>.cls-1,.cls-3{fill:none;}.cls-1{stroke:#2f2f2f;stroke-miterlimit:10;}.cls-2{fill:#2f2f2f;}.cls-4{font-size:40.4px;font-family:KohinoorBangla-Bold, Kohinoor Bangla;font-weight:700;}.cls-5{fill:#fff;}</style></defs><title>Recurso 10</title><g id="Capa_2" data-name="Capa 2"><g id="Capa_1-2" data-name="Capa 1"><path class="cls-1" d="M133.74,77a3.7,3.7,0,0,0,.73-2,5.19,5.19,0,0,0-1.52-3.7,16.56,16.56,0,0,0-5.53-3.64c-2.4-1.07-4.94-1.82-7.39-2.76a25.3,25.3,0,0,1-6-3.1,8.7,8.7,0,0,1-3.36-4.42,6.84,6.84,0,0,1,.14-4.17,8.69,8.69,0,0,1,3.24-4.5l.21-.15a.89.89,0,0,1,.17-.05c.1.16,0,.29-.05.42a3.57,3.57,0,0,0,.93,3.25,14.49,14.49,0,0,0,5.31,3.77A48.39,48.39,0,0,0,126.49,58a36.2,36.2,0,0,1,8.18,3.56,11.66,11.66,0,0,1,2.63,2.28A8,8,0,0,1,139,66.91a7.45,7.45,0,0,1-.11,3.95,9.08,9.08,0,0,1-2,3.8A7.67,7.67,0,0,1,133.74,77Z"/><path class="cls-1" d="M125,69.77a13,13,0,0,1,2.11,1.35,7,7,0,0,1,2.59,3.43,2.42,2.42,0,0,1-.45,2.19c-1,1.32-2.49,1.59-4,1.87a19.93,19.93,0,0,1-3,.27,14.39,14.39,0,0,1-3.73-.48A20.09,20.09,0,0,1,112.55,76a15.54,15.54,0,0,1-3.09-2.47.37.37,0,0,1,0-.56c.79-1.23,1.6-2.44,2.31-3.71.26-.46.45-.42.86-.25a43.51,43.51,0,0,0,4.5,1.59,20.57,20.57,0,0,0,6.16.94c1.12,0,1.68-.51,1.72-1.5C125,69.94,125,69.87,125,69.77Z"/><path class="cls-1" d="M126.53,44.91c1.15.18,2.31.18,3.46.37a11.88,11.88,0,0,1,2.67.62,21.4,21.4,0,0,1,3.78,2l1.06.74c.24.17.27.31.1.57q-1.52,2.32-3,4.67c-.3.48-.27.49-.84.28a34.25,34.25,0,0,0-6-1.63,9.74,9.74,0,0,0-3.14-.08c-.8.13-1.08.4-1.12,1.13,0,.28-.14.24-.32.15a18,18,0,0,1-3.64-2.28A5.84,5.84,0,0,1,117.66,49a1.62,1.62,0,0,1,.31-1.6A4.45,4.45,0,0,1,119.9,46a13.74,13.74,0,0,1,2.86-.77,14.32,14.32,0,0,1,2.43-.25C125.64,45,126.08,44.89,126.53,44.91Z"/><path class="cls-2" d="M134.61,192.89h-2q-52.38,0-104.76,0c-16.34,0-27.87-10.37-27.87-25Q0,96.38,0,24.92C0,10.58,11.48.08,27.42.05q57.35-.1,114.69,0c15.18,0,26.8,10.5,26.84,24.14.08,28.77,0,57.53,0,86.3,0,.57-.08,1.14-.11,1.66H155.08c0-.63,0-1.37,0-2.11q0-42.57,0-85.14A11.74,11.74,0,0,0,145.59,13a17.93,17.93,0,0,0-4.06-.38q-56.91,0-113.83,0c-8.44,0-13.75,4.75-13.76,12.36q0,71.66,0,143.32c0,7.31,5.43,12.11,13.59,12.11q45.57,0,91.15,0a5.43,5.43,0,0,1,4.32,1.86C126.68,185.86,130.67,189.29,134.61,192.89Z"/><path class="cls-2" d="M34.39,0h2Q88.74,0,141.12,0C157.45,0,169,10.37,169,25q0,71.47,0,142.93c0,14.33-11.47,24.83-27.41,24.86q-57.35.1-114.69,0C11.7,192.81.08,182.34,0,168.7,0,139.93,0,111.16,0,82.39c0-.57.08-1.14.11-1.66H13.92c0,.63,0,1.37,0,2.11q0,42.57,0,85.14a11.74,11.74,0,0,0,9.49,11.95,17.93,17.93,0,0,0,4.06.38q56.91,0,113.83,0c8.44,0,13.75-4.75,13.76-12.36q0-71.66,0-143.32c0-7.31-5.43-12.11-13.59-12.11q-45.57,0-91.15,0A5.43,5.43,0,0,1,46,10.71C42.31,7,38.33,3.6,34.39,0Z"/><path class="cls-2" d="M28,82.91h112.9c0,.73.12,1.41.12,2.09,0,9.7,0,19.39,0,29.09a2.75,2.75,0,0,1-2,3c-1.62.64-3.1,1.56-5,2.55V89.16H115.92v2.26c0,15.51.11,31-.09,46.54,0,3-1.2,6.05-2,9-.11.38-1.37.71-2.1.72-10.87,0-21.74,0-32.61,0H28ZM83.64,141.4V89.18H34.9V141.4Zm25.07,0V89.17H91V141.4Z"/><path class="cls-2" d="M54.82,167.74V161.8H141v5.93Z"/><path class="cls-2" d="M27.92,65.52V59.39c.8,0,1.49-.12,2.19-.12,18.19,0,36.38,0,54.58,0,1.92,0,2.44.49,2.39,2.18-.12,4.1,0,4.11-4.53,4.11H27.92Z"/><path class="cls-2" d="M27.92,53.77V47.64c.8,0,1.49-.12,2.19-.12,18.19,0,36.38,0,54.58,0,1.92,0,2.44.49,2.39,2.18-.12,4.1,0,4.11-4.53,4.11H27.92Z"/><path class="cls-2" d="M87,71.87c0,1.78,0,3.45,0,5.11,0,1.38-1.25,1-2.09,1q-17.16,0-34.31,0H28V71.87Z"/><path class="cls-3" d="M83.64,141.4H34.9V89.18H83.64Z"/><path class="cls-3" d="M108.71,141.4H91V89.17h17.72Z"/><path class="cls-2" d="M141,147.74H90.57c-11.54,0-6.44-55-1.07-64.83H141ZM116.62,89.21v52.23h17.72V89.21Zm-24.73,0V141.4h17.72V89.17Z"/><text class="cls-4" transform="translate(34.9 223.45) scale(1.02 0.91)">SEND</text><g id="Capa_5" data-name="Capa 5"><path class="cls-2" d="M50.58,39.11c-4.57,1-5.07.83-7.05-2.78C41.25,32.19,39,28,36.5,23.41V39.3H31.8V17c5-1.18,5.74-.9,8,3.1,2,3.65,4,7.33,6.18,11.29V16.79h4.63Z"/><path class="cls-2" d="M97.78,28.15C97.64,35.54,93.19,40,86.1,39.83c-6.35-.14-10.5-5-10.36-12s4.75-11.68,11.57-11.56C93.72,16.34,97.91,21.11,97.78,28.15ZM81.25,28c0,4.62,2.1,7.69,5.39,7.8s5.59-3,5.7-7.55-2.29-8-5.61-8S81.28,23.34,81.25,28Z"/><path class="cls-2" d="M136.89,35.2h8.61c1.17,3.89.9,4.3-2.75,4.31-3.16,0-6.33.08-9.49-.07-.67,0-1.85-.85-1.86-1.33-.12-7.05-.08-14.1-.08-21.37h14.05v4h-8.55v4.85h4.86c3.7,0,3.7,0,3.09,4h-7.89Z"/><path class="cls-2" d="M53.47,17c5.08-1.13,5.43-.93,6.71,3.57L63.94,33.8c.64-2.22,1.13-3.91,1.63-5.61q1.1-3.74,2.23-7.48c1.37-4.54,1.37-4.54,6.17-3.94.06.23.24.52.18.73-2.27,6.88-4.55,13.76-6.88,20.62-.78,2.3-2.84,1.35-4.33,1.3a3.45,3.45,0,0,1-2.66-1.58C57.9,31,55.75,24.07,53.47,17Z"/><path class="cls-2" d="M128.06,17.27,127.19,21c-3.43-.39-7-1.41-9.54,1.47a9.66,9.66,0,0,0-2.08,5.5c-.29,5.82,2.33,7.41,11.58,7.38l.72,3.29c-5.51,2.48-12.34,1.17-15.56-2.84-3.08-3.84-3.19-10.49-.23-14.66C115.28,16.6,121.73,14.95,128.06,17.27Z"/><path class="cls-2" d="M101.45,16.74h4.93V39.32h-4.93Z"/><path class="cls-2" d="M22.21,16.73h4.94V39.28H22.21Z"/><path class="cls-5" d="M81.25,28c0-4.64,2.21-7.7,5.49-7.71s5.72,3.4,5.61,8-2.43,7.66-5.7,7.55S81.22,32.59,81.25,28Z"/></g></g></g></svg>