<?xml version="1.0" encoding="utf-8"?>
<!-- Generator: Adobe Illustrator 21.1.0, SVG Export Plug-In . SVG Version: 6.00 Build 0)  -->
<svg version="1.1" id="Capa_1" xmlns="http://www.w3.org/2000/svg" xmlns:xlink="http://www.w3.org/1999/xlink" x="0px" y="0px"
	 viewBox="0 0 154.4 154.4" style="enable-background:new 0 0 154.4 154.4;" xml:space="preserve">
<style type="text/css">
	.st0{fill:#646769;}
	.st1{fill:#D2D2D2;}
	.st2{fill:#FFFFFF;}
</style>
<title>mileage_1</title>
<g id="Capa_2">
	<g id="Capa_1-2">
		<g id="_71aysw.tif">
			<circle class="st0" cx="77.2" cy="77.2" r="77.2"/>
			<path class="st1" d="M4.4,77.6C4.3,37.5,36.8,4.9,76.9,4.8s72.7,32.4,72.8,72.5c0.1,40.1-32.3,72.6-72.4,72.8
				c-40,0.3-72.7-32-72.9-72C4.4,78,4.4,77.8,4.4,77.6z"/>
			<path class="st2" d="M38.5,39.1c4.2,1.1,8.1,3.2,11.3,6.2C56,51.3,62.5,57,68.9,62.8c3.1,2.8,5.9,5.7,10.8,6.2
				c4.2,0.4,6.5,4.3,6.3,8.9c-0.2,4.3-3.7,7.8-8,8.1c-4.5,0.2-8.1-1.7-8.9-6.2c-0.7-3.9-2.8-6.5-5.2-9.2C57,63,50.4,55.3,43.6,47.8
				C41.4,45.4,40.2,42.7,38.5,39.1z"/>
			<path class="st2" d="M89,121.8c0.1-1,0.1-2,0-3c-0.8-5.1,1-6.7,6.3-6.6c4.9,0.1,6.6,1.4,5.8,6.2c-0.1,1.7-0.1,3.3,0,5
				c0,8.5,0,8.3-8.6,8.2c-3,0-3.7-1.1-3.5-3.8C89.1,125.8,89,123.8,89,121.8z"/>
			<path class="st2" d="M71,121.5c0-0.8,0-1.7,0-2.5c0.1-7.6-1-6.2,6.6-6.7c4.3-0.2,6.2,0.8,5.5,5.4c-0.2,2-0.2,4-0.1,6
				c0,8,0,7.8-7.8,7.9c-3.2,0-4.6-0.7-4.2-4.1C71.1,125.5,71.1,123.5,71,121.5z"/>
			<path class="st2" d="M65.1,122c-0.1,1.2-0.1,2.3,0,3.5c1,5.3-1.5,6.1-6.2,6.2s-6.6-1.3-5.9-6.1c0.2-2.2,0.2-4.3,0.1-6.5
				c0.1-7.6-1-6.6,6.5-6.7C65.1,112.4,65.1,112.4,65.1,122z"/>
			<path class="st2" d="M119.1,97.4c4.2,2.4,9.3,4.7,13.6,8.3c0.8,0.9,0.8,2.3-0.1,3.2c-1.1,1.2-2.3,1.8-3.9,0.9
				c-4-2.3-8-4.6-12-6.9c-1.3-0.6-1.9-2.1-1.4-3.4C115.7,98.1,116.7,97.3,119.1,97.4z"/>
			<path class="st2" d="M131,80.7c-2.1,0-4.3,0-6.4,0c-1.9,0-3.3-0.7-3.4-2.8c-0.2-1.6,1-3,2.6-3.2c0.2,0,0.3,0,0.5,0
				c4.6-0.1,9.3-0.1,13.9,0c1.6,0,2.9,1.2,2.9,2.8c0,0.2,0,0.3,0,0.5c-0.1,1.5-1.4,2.7-3,2.6c0,0-0.1,0-0.1,0
				C135.6,80.7,133.3,80.6,131,80.7z"/>
			<path class="st2" d="M115.3,54.9c0.1-0.4,0.2-0.7,0.3-1c0.6-1.6,13.1-8.8,14.8-8.6c1.2,0.1,2.2,0.9,2.5,2
				c0.5,1.3-0.1,2.8-1.4,3.4c-3.8,2.3-7.7,4.6-11.6,6.7C117.4,58.8,115.9,57.5,115.3,54.9z"/>
			<path class="st2" d="M102.5,40.6c-2.5-0.1-4.1-1.5-3.2-3.5c1.9-4.6,4.4-8.9,7.5-12.8c0.8-0.9,2.2-1.1,3.2-0.3
				c1.1,0.7,1.8,1.8,1.4,2.9c-1.9,4.6-4.3,8.9-7.3,12.9C103.8,40.3,102.9,40.4,102.5,40.6z"/>
			<path class="st2" d="M76,24.4c0-1.6,0-3.3,0-5c-0.1-2.2,1-3.7,3.1-3.6c1.9,0.1,2.9,1.4,2.9,3.4c0,3.6,0,7.3,0,10.9
				c0,1.9-0.9,3.3-2.9,3.3C76.9,33.5,76,32,76,29.8C76.1,28,76,26.2,76,24.4z"/>
			<path class="st2" d="M57.9,35.1c0.1,1.8-0.5,2.6-1.3,3.2c-0.9,0.8-2.3,0.8-3.2,0c-2.9-3.4-5.2-7.3-6.7-11.4
				c-0.4-1,0.3-2.2,1.5-2.9c0.8-0.7,2-0.7,2.8,0C54.2,27.4,55.6,31.9,57.9,35.1z"/>
			<path class="st2" d="M40,101.7c0.1,1.2-0.6,2.4-1.7,3c-2.8,1.7-5.7,3.3-8.5,5c-1.8,1.1-3.3,0.7-4.3-0.8c-0.9-1.2-0.7-3,0.5-3.9
				c0.2-0.1,0.3-0.2,0.5-0.3c3-1.8,5.9-3.6,9-5.1C37.8,98.4,39.4,99.4,40,101.7z"/>
			<path class="st2" d="M39.8,53.2c-0.8,2.4-2,4-4.7,2.7c-2.9-1.5-5.7-3.2-8.6-4.9c-1.4-0.7-2-2.4-1.4-3.8c0.4-1.3,1.7-2.1,3.1-1.8
				c0,0,0.1,0,0.1,0c3.8,1.5,7.4,3.5,10.6,6.1C39.4,51.8,39.5,52.6,39.8,53.2z"/>
			<path class="st2" d="M24.8,80.7c-1.5,0-3,0-4.5,0c-1.9-0.1-3.2-0.9-3.2-3s1.4-2.9,3.3-3c2.8-0.1,5.6,0,8.4-0.1
				c2.2,0,4.2,0.6,4.2,3.2s-2.1,2.9-4.2,2.9L24.8,80.7L24.8,80.7z"/>
		</g>
	</g>
</g>
</svg>
