<svg xmlns="http://www.w3.org/2000/svg" viewBox="0 0 154.37 154.37"><defs><style>.cls-1{fill:#fefefe;}.cls-2{fill:#010101;}.cls-3{fill:#050505;}.cls-4{fill:#060606;}.cls-5{fill:#040404;}.cls-6{fill:#070707;}</style></defs><title>mileage</title><g id="Capa_2" data-name="Capa 2"><g id="Capa_1-2" data-name="Capa 1"><g id="_71aysw.tif" data-name="71aysw.tif"><circle cx="77.19" cy="77.19" r="77.19"/><path class="cls-1" d="M4.38,77.61a72.66,72.66,0,1,1,72.95,72.51A72.46,72.46,0,0,1,4.38,77.61Z"/><path class="cls-2" d="M38.46,39.13a25,25,0,0,1,11.26,6.23C56,51.29,62.49,57,68.92,62.77c3.14,2.81,5.91,5.67,10.8,6.19,4.23.45,6.53,4.31,6.31,8.88a8.56,8.56,0,0,1-8,8.07c-4.49.24-8.11-1.73-8.94-6.2-.72-3.89-2.81-6.51-5.25-9.22C57,63,50.37,55.29,43.58,47.78,41.44,45.41,40.16,42.69,38.46,39.13Z"/><path d="M89,121.79a18.39,18.39,0,0,0,0-3c-.85-5.08,1-6.7,6.31-6.6,4.88.09,6.57,1.45,5.82,6.17a31.92,31.92,0,0,0,0,5c0,8.5,0,8.34-8.58,8.23-3,0-3.74-1.13-3.51-3.81C89.12,125.79,89,123.78,89,121.79Z"/><path d="M71,121.48c0-.83,0-1.66,0-2.49.12-7.58-1-6.22,6.59-6.67,4.28-.25,6.22.79,5.48,5.36a38,38,0,0,0-.05,6c0,8,0,7.81-7.85,7.91-3.18,0-4.63-.72-4.22-4.11A50,50,0,0,0,71,121.48Z"/><path d="M65.12,122a18.34,18.34,0,0,0,0,3.48c1,5.32-1.48,6.13-6.24,6.17s-6.62-1.28-5.9-6.08a48.37,48.37,0,0,0,.06-6.47c.09-7.6-1-6.64,6.5-6.7C65.12,112.38,65.12,112.42,65.12,122Z"/><path class="cls-3" d="M119.07,97.43c4.15,2.43,9.26,4.69,13.56,8.3a2.32,2.32,0,0,1-.11,3.19c-1.06,1.23-2.31,1.81-3.92.87-4-2.32-8-4.56-12-6.93a2.74,2.74,0,0,1-1.39-3.39C115.73,98.13,116.69,97.3,119.07,97.43Z"/><path class="cls-4" d="M131,80.66c-2.15,0-4.3,0-6.45,0-1.86,0-3.3-.72-3.4-2.77a2.89,2.89,0,0,1,3.07-3.19c4.63-.13,9.26-.14,13.89,0A2.88,2.88,0,0,1,141,78.05a2.79,2.79,0,0,1-3.08,2.59C135.59,80.67,133.27,80.65,131,80.66Z"/><path class="cls-3" d="M115.29,54.94c.13-.38.23-.7.35-1,.63-1.57,13.07-8.79,14.79-8.6a2.72,2.72,0,0,1,2.52,2.05,2.82,2.82,0,0,1-1.37,3.43c-3.85,2.28-7.68,4.61-11.64,6.67C117.39,58.82,115.89,57.46,115.29,54.94Z"/><path class="cls-3" d="M102.54,40.61c-2.47-.14-4.09-1.52-3.24-3.49a56.33,56.33,0,0,1,7.47-12.79,2.29,2.29,0,0,1,3.17-.29c1.14.7,1.82,1.84,1.41,2.91a62,62,0,0,1-7.27,12.9C103.77,40.31,102.95,40.42,102.54,40.61Z"/><path class="cls-5" d="M76,24.39c0-1.65,0-3.31,0-5-.07-2.18,1-3.66,3.1-3.63C81,15.83,82,17.17,82,19.13c0,3.64,0,7.28,0,10.92,0,1.92-.93,3.27-2.88,3.34C76.89,33.48,76,32,76,29.85,76.05,28,76,26.21,76,24.39Z"/><path class="cls-3" d="M57.89,35.12c.09,1.82-.46,2.63-1.3,3.22a2.43,2.43,0,0,1-3.23,0,39,39,0,0,1-6.73-11.44c-.42-1,.34-2.22,1.47-2.89a2.18,2.18,0,0,1,2.77,0C54.25,27.36,55.64,31.87,57.89,35.12Z"/><path class="cls-6" d="M40,101.68a3.19,3.19,0,0,1-1.66,3c-2.84,1.67-5.73,3.26-8.55,5-1.75,1.06-3.27.73-4.3-.84a2.8,2.8,0,0,1,1.07-4.24c3-1.78,5.92-3.61,9-5.1C37.77,98.42,39.37,99.45,40,101.68Z"/><path class="cls-6" d="M39.82,53.18c-.75,2.43-2,4-4.65,2.65-2.92-1.5-5.74-3.2-8.57-4.87a3,3,0,0,1-1.44-3.82,2.5,2.5,0,0,1,3.16-1.74,40.05,40.05,0,0,1,10.61,6.06C39.4,51.81,39.53,52.59,39.82,53.18Z"/><path class="cls-4" d="M24.75,80.66c-1.49,0-3,0-4.47,0-1.91-.05-3.22-.91-3.18-3s1.44-2.93,3.26-3c2.81-.12,5.63,0,8.44-.05,2.2,0,4.16.6,4.17,3.15s-2.13,2.94-4.24,2.92h-4Z"/></g></g></g></svg>