<svg xmlns="http://www.w3.org/2000/svg" viewBox="0 0 278 278.9"><defs><style>.cls-1{fill:#282828;}.cls-2{fill:#333;}.cls-3{fill:#343434;}.cls-4{fill:#a9a9a9;}.cls-5{fill:#fefefe;}.cls-6{fill:#020202;}.cls-7{fill:#1f1f1f;}.cls-8{fill:#242424;}.cls-9{fill:#fff;}</style></defs><title>mpg_1</title><g id="Capa_2" data-name="Capa 2"><g id="Capa_1-2" data-name="Capa 1"><g id="bDuP9K.tif"><path class="cls-1" d="M134,278.9H123a126.35,126.35,0,0,1-48.41-14.35C36.47,243.91,12,212.58,2,170.22A72.47,72.47,0,0,1,.52,154.87c-.26-2,.57-4.06-.52-6v-3a28.55,28.55,0,0,0,0-12v-3c1.08-1.93.25-4,.52-6C1.07,104,8,85,18.88,67.56,42,30.4,75,7.08,118.66,1.44,166.48-4.74,208.34,8.8,241.84,44.5a136,136,0,0,1,34.25,65.62,74,74,0,0,1,1.4,14.87c.26,2.3-.58,4.68.52,6.92v2a28.55,28.55,0,0,0,0,12v3c-1.08,1.9-.25,4-.52,5.94-.64,22.15-8.39,42-20.2,60.32q-30.47,47.18-85.14,61.09c-6.31,1.6-12.81,1.43-19.14,2.65h-9A20,20,0,0,0,134,278.9Z"/><path class="cls-2" d="M0,133.9a15.63,15.63,0,0,1,0,12Z"/><path class="cls-2" d="M278,145.9a15.64,15.64,0,0,1,0-12Z"/><path class="cls-3" d="M134,278.9a11.23,11.23,0,0,1,10,0Z"/><path class="cls-4" d="M277.13,124.82a1.21,1.21,0,0,1,.87.08v7C276.34,129.71,277.1,127.22,277.13,124.82Z"/><path class="cls-4" d="M278,154.9l-.43.12-.44,0c-.12-2.08-.77-4.25.87-6.08Z"/><path class="cls-4" d="M.87,155l-.44,0L0,154.9v-6C1.65,150.73,1,152.89.87,155Z"/><path class="cls-4" d="M0,124.9a1.23,1.23,0,0,1,.87-.08c.12,2.08.78,4.25-.87,6.08Z"/><circle class="cls-5" cx="139.77" cy="139.9" r="131.81"/><path d="M173,240.68c-6.87-2.86-8-4.58-8-12.27,0-5.27.07-10.55,0-15.82,0-1.51.78-3.33-1-4.5-.47.28-.78.14-.93-.37-.63-2-.77-4.64-4-2.81,1,10.5.16,21,.48,31.53.07,2.11-.51,4.28.46,6.32,2.66.66,2.69,2.67,2.25,4.73s-2.23,1.75-3.67,1.76q-19.49.06-39,0c-1.59,0-3.27.14-3.82-2.23-.73-3.11,1.89-3.64,3.38-5.08-.81-.81-.6-1.85-.6-2.82q0-29.09,0-58.18c0-1-.22-2,.63-2.8.94-3.06,2.08-5.92,5.85-6.39a94.51,94.51,0,0,1,28,0c3.71.38,5,3.13,6,6.16,1.06,5.23.18,10.53.51,15.78.11,1.78-.54,3.64.53,5.32,6.24,1.08,8.78,5.44,9.83,11.11,1.36,5.15.25,10.41.63,15.6.18,2.43-.54,4.92.47,7.29,1.59,4,5,3.4,8,2.7s4.24-3,4-6.08a46.14,46.14,0,0,0-.48-6c-2-9.6-3.94-19.12-3.75-29.08.12-6.25-3.56-11.27-8.27-15.56-1.44-1.31-5.23-3-3-5.69,1.95-2.39,4.24.44,5.92,1.67,6.11,4.46,11.2,9.71,11.69,17.89.49,1.16-.27,1.5-1.15,1.75-1.92,5.16-1,10.36,0,15.48.71,3.71,2,7.31,3,11,1.05,1.18.64,2.48.3,3.77,0,2,0,3.91,0,5.86.09,5.67-3.34,8.44-8.22,10A5.91,5.91,0,0,1,173,240.68Z"/><path class="cls-6" d="M121.82,137.84C108.66,113.41,94.5,89.57,80.63,65.56c-.75-1.3-3-2.6-1.06-4.48,2.17-2.06,3,.6,4,1.66q28.65,30.25,57.19,60.6c-8.19,1.29-15.32,4.07-18,13.27a.58.58,0,0,1-.22,1Q122.19,137.69,121.82,137.84Z"/><circle class="cls-6" cx="138.94" cy="141.84" r="19.06"/><path d="M163,142.51l84.93,0c-1.19,1.72-3,1.12-4.58,1.12q-37.91.05-75.82,0C166,143.65,164.18,144.34,163,142.51Z"/><path d="M32,143.7l83.93-.23c-1.08,1.88-2.92,1.26-4.49,1.26q-37.66.05-75.32,0C34.71,144.73,33.08,145.23,32,143.7Z"/><path class="cls-7" d="M140.76,41.17c0,2,0,4,0,6,0,1.2-.47,1.8-1.72,1.81s-1.82-.47-1.81-1.72c0-3.8.08-7.61,0-11.41-.05-1.66,1-1.91,2.12-2,1.47-.19,1.42,1,1.43,2C140.78,37.53,140.76,39.35,140.76,41.17Z"/><path class="cls-8" d="M219.3,72c-1.92,1.72-3.72,3.78-5.93,5.19-2,1.27-3.2,6-5.7,3.64-2.81-2.68,2-3.9,3.35-5.75a14.85,14.85,0,0,1,5-4.69C217.65,69.61,218.34,70.3,219.3,72Z"/><path class="cls-8" d="M72.21,80.06c-4.06,1.94-5.14-.44-6.6-1.78C63.78,76.62,62,74.85,60.37,73c-.57-.63-2.32-1.15-.63-2.57,1.19-1,1.77-.11,2.45.51C65.36,73.8,68.5,76.68,72.21,80.06Z"/><path class="cls-9" d="M125.14,179.94c-.23-1.53,0-2.82,1.85-3.09,6.32.16,12.65,0,19,.06,1.82,0,3.69-.22,5.33.9,1.13-.45,1.92-.44,1.58,1.15-1,6.38.2,12.85-.66,19.23l.15,0c-8.42,1.48-16.92.24-25.38.74a1.75,1.75,0,0,1-1.8-2.13A81.52,81.52,0,0,0,125.14,179.94Z"/></g></g></g></svg>