<svg xmlns="http://www.w3.org/2000/svg" viewBox="0 0 563.49 116.32"><defs><style>.cls-1{fill:#050505;}.cls-2,.cls-3,.cls-4{fill:#fff;}.cls-3{opacity:0.68;}.cls-3,.cls-4{isolation:isolate;}.cls-4{opacity:0.7;}</style></defs><title>Mesa de trabajo 1</title><g id="Capa_2" data-name="Capa 2"><rect class="cls-1" width="563.49" height="116.32" rx="36.47" ry="36.47"/></g><g id="Capa_1" data-name="Capa 1"><g id="Capa_5" data-name="Capa 5"><path class="cls-2" d="M362,36.16H344a2.5,2.5,0,0,0-2.47,2.11l-7.29,46.21a1.5,1.5,0,0,0,1.25,1.71l.24,0h9.25a1.75,1.75,0,0,0,1.73-1.46l2.07-13.1a2.5,2.5,0,0,1,2.47-2.11h5.67c11.87,0,18.72-5.74,20.51-17.13.81-5,0-8.91-2.3-11.63C372.55,37.78,368,36.16,362,36.16ZM364.06,53c-1,6.48-5.93,6.48-10.71,6.48h-2.72l1.9-12.08A1.51,1.51,0,0,1,354,46.17h1.25c3.24,0,6.33,0,7.91,1.85,1,1.09,1.24,2.76.88,5Z"/><path class="cls-2" d="M233.39,36.16h-18a2.5,2.5,0,0,0-2.47,2.11l-7.29,46.21a1.51,1.51,0,0,0,1.26,1.72l.22,0h8.6a2.5,2.5,0,0,0,2.47-2.11l2-12.47a2.5,2.5,0,0,1,2.47-2.11h5.67c11.87,0,18.72-5.74,20.51-17.13.81-5,0-8.91-2.3-11.63C244,37.78,239.46,36.16,233.39,36.16ZM235.48,53c-1,6.48-5.93,6.48-10.7,6.48h-2.72L224,47.44a1.5,1.5,0,0,1,1.48-1.27h1.25c3.24,0,6.33,0,7.91,1.85,1,1.09,1.28,2.76.92,5Z"/><path class="cls-2" d="M287.3,52.85h-8.63a1.51,1.51,0,0,0-1.48,1.27l-.38,2.43-.6-.87c-1.87-2.71-6-3.62-10.2-3.62-9.53,0-17.68,7.23-19.26,17.36-.81,5.05.35,9.89,3.24,13.26,2.63,3.09,6.39,4.39,10.87,4.39a16.52,16.52,0,0,0,11.95-4.94l-.39,2.43a1.5,1.5,0,0,0,1.3,1.67h7.95a2.5,2.5,0,0,0,2.47-2.11l4.67-29.54a1.5,1.5,0,0,0-1.24-1.72Zm-12,16.8a9.62,9.62,0,0,1-9.72,8.24,6.68,6.68,0,0,1-7.14-8.39,9.66,9.66,0,0,1,9.67-8.3,7.29,7.29,0,0,1,5.75,2.35A7.44,7.44,0,0,1,275.27,69.65Z"/><path class="cls-2" d="M415.85,52.85h-8.63a1.5,1.5,0,0,0-1.48,1.27l-.38,2.43-.6-.87c-1.87-2.71-6-3.62-10.19-3.62-9.53,0-17.68,7.23-19.26,17.36-.81,5.05.35,9.89,3.24,13.26,2.63,3.09,6.39,4.39,10.87,4.39a16.52,16.52,0,0,0,11.95-4.94L401,84.56a1.5,1.5,0,0,0,1.25,1.71l.24,0h7.78a2.5,2.5,0,0,0,2.47-2.11l4.67-29.54a1.5,1.5,0,0,0-1.51-1.78Zm-12,16.8a9.62,9.62,0,0,1-9.72,8.24A6.68,6.68,0,0,1,387,69.5a9.66,9.66,0,0,1,9.67-8.3,7.29,7.29,0,0,1,5.75,2.35A7.44,7.44,0,0,1,403.82,69.65Z"/><path class="cls-2" d="M333.27,52.85h-8.68a2.51,2.51,0,0,0-2.1,1.13L310.56,71.57l-5.07-16.94a2.5,2.5,0,0,0-2.43-1.79h-8.5a1.51,1.51,0,0,0-1.43,2l9.55,28-9,12.68a1.51,1.51,0,0,0,1.22,2.37h8.67a2.5,2.5,0,0,0,2.06-1.08L334.49,55.2a1.5,1.5,0,0,0-1.22-2.35Z"/><path class="cls-2" d="M426,37.45l-7.4,47.06a1.5,1.5,0,0,0,1.25,1.71l.24,0h7.44A2.5,2.5,0,0,0,430,84.13l7.29-46.21a1.5,1.5,0,0,0-1.22-1.74l-.26,0H427.5A1.5,1.5,0,0,0,426,37.45Z"/><path class="cls-3" d="M170.3,38.59c1-6.19,0-10.39-3.35-14.21-3.69-4.2-10.34-6-18.86-6H123.37a3.53,3.53,0,0,0-3.49,3l-10.3,65.27a2.12,2.12,0,0,0,1.79,2.41l.31,0h15.25l-1.05,6.68a1.85,1.85,0,0,0,1.54,2.12l.29,0h12.86a3.09,3.09,0,0,0,3.05-2.61l.13-.66,2.43-15.39.15-.81a3.09,3.09,0,0,1,3.05-2.59h1.93c12.46,0,22.22-5.06,25.07-19.7,1.19-6.12.58-11.23-2.58-14.81a12.26,12.26,0,0,0-3.52-2.75h0"/><path class="cls-4" d="M170.3,38.59c1-6.19,0-10.39-3.35-14.21-3.69-4.2-10.34-6-18.86-6H123.37a3.53,3.53,0,0,0-3.49,3l-10.3,65.27a2.12,2.12,0,0,0,1.79,2.41l.31,0h15.25l3.83-24.3-.12.76a3.52,3.52,0,0,1,3.48-3h7.29c14.24,0,25.39-5.78,28.66-22.52.1-.49.18-1,.25-1.44"/><path class="cls-2" d="M134.89,38.69a3.09,3.09,0,0,1,3.05-2.61h19.38a40.4,40.4,0,0,1,6.39.47q.81.14,1.62.31t1.54.4l.73.23a17.45,17.45,0,0,1,2.7,1.11c1-6.19,0-10.39-3.35-14.21-3.69-4.2-10.34-6-18.86-6H123.37a3.53,3.53,0,0,0-3.49,3l-10.3,65.27a2.12,2.12,0,0,0,1.79,2.41l.31,0h15.25l3.83-24.3Z"/></g></g></svg>