<?xml version="1.0" encoding="utf-8"?>
<svg id="master-artboard" viewBox="0 0 1400 980" version="1.1" xmlns="http://www.w3.org/2000/svg" x="0px" y="0px" style="enable-background:new 0 0 1400 980;" width="1400px" height="980px"><g transform="matrix(2.517491579055786, 0, 0, 2.517491579055786, 82.8727918694999, -135.58059799232922)"><g><g><path d="M 469 360 L 414.29998779296875 360 L 414.29998779296875 332.6000061035156 L 441.6000061035156 332.6000061035156 L 441.6000061035156 252.6999969482422 L 418.1000061035156 182.10000610351562 L 318.3999938964844 182.10000610351562 L 318.3999938964844 332.6000061035156 L 332.1000061035156 332.6000061035156 L 332.1000061035156 360 L 291.1000061035156 360 L 291.1000061035156 154.6999969482422 L 437.79998779296875 154.6999969482422 L 469 248.3000030517578 Z" style="fill: rgb(255, 255, 255);"/></g><g><path d="M373.2,401.1c-30.2,0-54.8-24.6-54.8-54.8c0-30.2,24.6-54.8,54.8-54.8c30.2,0,54.8,24.6,54.8,54.8    C427.9,376.5,403.4,401.1,373.2,401.1z M373.2,318.9c-15.1,0-27.4,12.3-27.4,27.4c0,15.1,12.3,27.4,27.4,27.4    c15.1,0,27.4-12.3,27.4-27.4C400.6,331.2,388.3,318.9,373.2,318.9z" style="fill: rgb(255, 255, 255);"/></g><g><path d="M 113.0999984741211 360 L 58.400001525878906 360 L 58.400001525878906 264.20001220703125 L 85.69999694824219 264.20001220703125 L 85.69999694824219 332.6000061035156 L 113.0999984741211 332.6000061035156 Z" style="fill: rgb(255, 255, 255);"/></g><g><path d="M 318.3999938964844 360 L 195.1999969482422 360 L 195.1999969482422 332.6000061035156 L 291.1000061035156 332.6000061035156 L 291.1000061035156 127.30000305175781 L 31 127.30000305175781 L 31 99.9000015258789 L 318.3999938964844 99.9000015258789 Z" style="fill: rgb(255, 255, 255);"/></g><g><path d="M154.2,401.1c-30.2,0-54.8-24.6-54.8-54.8c0-30.2,24.6-54.8,54.8-54.8s54.8,24.6,54.8,54.8    C208.9,376.5,184.4,401.1,154.2,401.1z M154.2,318.9c-15.1,0-27.4,12.3-27.4,27.4c0,15.1,12.3,27.4,27.4,27.4s27.4-12.3,27.4-27.4    C181.6,331.2,169.3,318.9,154.2,318.9z" style="fill: rgb(255, 255, 255);"/></g><g><path d="M 44.700001 154.699997 H 167.899998 V 182.099997 H 44.700001 V 154.699997 Z" style="fill: rgb(255, 255, 255);"/></g><g><path d="M 58.400002 209.399994 H 140.5 V 236.799994 H 58.400002 V 209.399994 Z" style="fill: rgb(255, 255, 255);"/></g></g></g><g transform="matrix(20.81484413146973, 0, 0, 20.81484413146973, 476.8311342469035, 335.5262964159245)"><path d="M11.707,0h-4v1h4c1.378,0,2.5,1.122,2.5,2.5S13.085,6,11.707,6H1.914l3.146-3.146L4.354,2.146L0,6.5l4.354,4.354  l0.707-0.707L1.914,7h9.793c1.93,0,3.5-1.57,3.5-3.5S13.637,0,11.707,0z" style="fill: rgb(255, 255, 255);"/></g></svg>