<svg xmlns="http://www.w3.org/2000/svg" viewBox="0 0 511.8 511.9"><defs><style>.cls-1{fill:#fff;}</style></defs><title>seller-fast</title><g id="Capa_2" data-name="Capa 2"><g id="Capa_1-2" data-name="Capa 1"><g id="eYXIkz.tif"><path class="cls-1" d="M0,511.9V0H511.8V511.9ZM143.33,240c0,.59-.14,1.26-.14,1.92q0,92.47-.11,184.94c0,4.06,1.88,4.39,5,4.84,9.53,1.38,19.1,2.67,28.48,4.8,20.47,4.65,38.71,14.95,57.6,23.57,23.13,10.55,47.35,16.82,72.74,17.65,23,.76,46,.77,68.95.85a40.49,40.49,0,0,0,12.25-2.06c27.12-8.68,36.29-39.95,14.11-59.41a21.52,21.52,0,0,1-1.55-1.69c6.27-.87,12.38-.92,17.95-2.7s11.31-4.47,15.65-8.28A37.37,37.37,0,0,0,444.46,390c6-16.24-.36-29.12-13.48-39.79,17.77-5,30.53-14.88,31.53-33.94.91-17.46-9.73-28.13-25.59-35,17.43-8.37,27.88-21.1,25.27-40.49C459.36,219.85,445,210,425,207a21.73,21.73,0,0,1,0-4.09c3.39-16.61,6.45-33.3,10.37-49.78C444,116.89,453.14,80.79,462,44.62c1.46-6-.57-9.54-6.34-11.59-3.91-1.39-8-2.36-12-3.46-28.32-7.71-57-13.51-86.42-14.39a258.87,258.87,0,0,0-59.08,5.25c-16.77,3.39-33.34,7.76-49.94,11.95-7.51,1.89-9.66,5.67-8.12,13.2,1.79,8.79,3.5,17.61,5.69,26.31,7.54,30,15.3,59.91,22.92,89.87,1.08,4.24,1.84,8.57,2.75,12.88-18.81,2.82-24.34,6-36.31,20.45q-4.46,5.39-8.91,10.79c-13.45,16.33-30.56,26.6-51.37,30.24C164.58,237.9,154.15,238.71,143.33,240ZM126.74,342.87q0-52.22,0-104.43c0-10.12-5.27-15.3-15.45-15.31q-24.23,0-48.47,0c-10.58,0-15.62,5-15.62,15.62q0,104.43,0,208.87c0,9.79,5.28,15,15.19,15.06q24.48.06,49,0c10.06,0,15.4-5.33,15.4-15.38Q126.76,395.09,126.74,342.87Z"/><path class="cls-1" d="M143.33,240c10.81-1.31,21.25-2.12,31.52-3.91,20.81-3.64,37.92-13.91,51.37-30.24q4.45-5.4,8.91-10.79c12-14.46,17.5-17.62,36.31-20.45-.91-4.31-1.67-8.64-2.75-12.88-7.62-30-15.38-59.89-22.92-89.87-2.19-8.7-3.9-17.52-5.69-26.31-1.54-7.53.62-11.31,8.12-13.2,16.6-4.18,33.17-8.56,49.94-11.95a258.87,258.87,0,0,1,59.08-5.25c29.45.88,58.1,6.68,86.42,14.39,4,1.09,8.06,2.07,12,3.46,5.77,2,7.8,5.61,6.34,11.59C453.14,80.79,444,116.89,435.41,153.1c-3.93,16.48-7,33.17-10.37,49.78a21.73,21.73,0,0,0,0,4.09c20,3,34.36,12.87,37.18,33.81,2.61,19.39-7.83,32.12-25.27,40.49,15.86,6.86,26.51,17.53,25.59,35-1,19.07-13.75,28.9-31.53,33.94,13.12,10.67,19.47,23.55,13.48,39.79a37.37,37.37,0,0,1-10.17,14.43c-4.33,3.81-10.08,6.5-15.65,8.28s-11.68,1.84-17.95,2.7a21.52,21.52,0,0,0,1.55,1.69c22.18,19.47,13,50.73-14.11,59.41a40.49,40.49,0,0,1-12.25,2.06c-23-.07-46-.09-68.95-.85-25.39-.83-49.6-7.1-72.74-17.65-18.89-8.62-37.13-18.92-57.6-23.57-9.38-2.13-19-3.42-28.48-4.8-3.15-.46-5-.78-5-4.84q.21-92.47.11-184.94C143.2,241.27,143.29,240.61,143.33,240ZM275,83.4c1.49,7.65,2.88,14.81,4.27,22,5.86,30.34,11.68,60.68,17.71,91a6.83,6.83,0,0,0,3.79,4.41c5.51,1.79,11.18,3.93,16.87,4.15,27.59,1.05,55.2,1.57,82.81,2.05,1.2,0,3.29-1.95,3.54-3.26,5.65-29.53,11.06-59.1,16.61-88.65,2-10.55,4.21-21.05,6.36-31.78-2.75-.69-4.83-1.17-6.9-1.72-15.25-4.1-24.36-14-25.79-28.77-.36-3.76-1.85-5-5.21-5.82-25.61-6-51.14-5.1-76.71.3-3.17.67-4.28,1.93-4.64,5.15C306,67.85,296.51,78.34,281.45,81.9Z"/><path class="cls-1" d="M126.75,342.87q0,52.22,0,104.43c0,10.05-5.33,15.38-15.4,15.38q-24.48,0-49,0c-9.91,0-15.19-5.27-15.19-15.06q0-104.43,0-208.87c0-10.57,5-15.6,15.62-15.62q24.23,0,48.47,0c10.18,0,15.44,5.19,15.45,15.31Q126.77,290.65,126.75,342.87Z"/><path class="cls-1" d="M275,83.4l6.45-1.5c15.06-3.56,24.56-14.05,26.27-29.49.36-3.22,1.47-4.48,4.64-5.15,25.57-5.4,51.1-6.31,76.71-.3,3.36.79,4.84,2.05,5.21,5.82,1.43,14.78,10.54,24.68,25.79,28.77,2.06.55,4.15,1,6.9,1.72-2.16,10.72-4.38,21.23-6.36,31.78-5.55,29.55-11,59.12-16.61,88.65-.25,1.31-2.34,3.28-3.54,3.26-27.61-.49-55.22-1-82.81-2.05-5.68-.22-11.36-2.36-16.87-4.15a6.83,6.83,0,0,1-3.79-4.41c-6-30.3-11.85-60.65-17.71-91C277.89,98.21,276.49,91.05,275,83.4Zm76,27.67c-10,.33-19.78,2.67-28.19,9.09-13.43,10.26-15.36,26.24-4.79,39.47,16.17,20.25,50.91,19.75,66.5-.95,9.31-12.37,7.92-26.84-3.72-37.08C372.43,114.22,362.26,111.58,351,111.07Z"/><path class="cls-1" d="M351,111.07c11.23.51,21.4,3.16,29.8,10.54,11.64,10.23,13,24.71,3.72,37.08-15.59,20.7-50.33,21.2-66.5.95-10.57-13.24-8.65-29.22,4.79-39.47C331.26,113.74,341,111.4,351,111.07Z"/></g></g></g></svg>