<svg xmlns="http://www.w3.org/2000/svg" viewBox="0 0 19.25 22"><defs><style>.cls-1{stroke:#fff;stroke-miterlimit:10;stroke-width:0.5px;}.cls-2{font-size:4px;fill:#f9f9f9;font-family:Sathu, Sathu;}</style></defs><title>icon-sms</title><g id="Capa_2" data-name="Capa 2"><g id="Capa_1-2" data-name="Capa 1"><path d="M10.5,0h-8A2.5,2.5,0,0,0,0,2.5v17A2.5,2.5,0,0,0,2.5,22h8A2.5,2.5,0,0,0,13,19.5V2.5A2.5,2.5,0,0,0,10.5,0Zm-4,21A1.5,1.5,0,1,1,8,19.5,1.5,1.5,0,0,1,6.5,21ZM11,17H2V3h9Z"/></g><g id="Capa_2-2" data-name="Capa 2"><path class="cls-1" d="M18,.55H9.9a.94.94,0,0,0-1,.86V9.18l2-1.73H18a1,1,0,0,0,1-.86V1.41A1,1,0,0,0,18,.55Z"/></g><g id="Capa_3" data-name="Capa 3"><text class="cls-2" transform="translate(10.24 5.5)">SMS</text></g></g></svg>