<svg xmlns="http://www.w3.org/2000/svg" viewBox="0 0 261.67 132.15"><defs><style>.cls-1{fill:#020100;}.cls-2{font-size:18px;font-family:AzoSans-Medium, Azo Sans;}.cls-3{letter-spacing:-0.01em;}.cls-4{letter-spacing:-0.02em;}.cls-5{letter-spacing:-0.04em;}.cls-6{fill:#4573bc;}.cls-7{fill:#eba70b;}.cls-8{fill:#db0000;}.cls-9{fill:#353380;}.cls-10{fill:#3b3486;}.cls-11{fill:#4874ba;}.cls-12{fill:#4e4743;}.cls-13{fill:#594e47;}.cls-14{fill:#517bbd;}.cls-15{fill:#4b76bd;}.cls-16{fill:#686868;}.cls-17{fill:#507abd;}.cls-18{fill:#4d78ba;}.cls-19{fill:#537dbe;}.cls-20{fill:#4b76bc;}.cls-21{fill:#547ec0;}.cls-22{fill:#517bbe;}.cls-23{fill:#577fc0;}.cls-24{fill:#4f7abf;}.cls-25{fill:#5b83bf;}.cls-26{fill:#eacb74;}.cls-27{fill:#c9d6e9;}.cls-28{fill:#fbfcf9;}.cls-29{fill:#fbfbf8;}.cls-30{fill:#fafaf6;}.cls-31{fill:#f6f2ef;}.cls-32{fill:#f7f0d7;}.cls-33{fill:#f6f0ee;}.cls-34{fill:#d33b22;}.cls-35{fill:#d44e4f;}.cls-36{fill:#d41f09;}.cls-37{fill:#d40a04;}.cls-38{fill:#f9fafa;}.cls-39{fill:#f8f7f7;}.cls-40{fill:#f7f5f5;}.cls-41{fill:#f5eff0;}.cls-42{fill:#d20e0e;}.cls-43{fill:#d01006;}.cls-44{fill:#d55257;}.cls-45{fill:#fefefd;}.cls-46{fill:#140a6c;}.cls-47{fill:#eff4f6;}.cls-48{fill:#e5edf4;}.cls-49{fill:#e7eff5;}.cls-50{fill:#fefefe;}.cls-51{fill:#e06600;}.cls-52{fill:#d6e2ec;}.cls-53{fill:#f2f7f6;}.cls-54{fill:#f3f7f8;}.cls-55{fill:#e6ab18;}.cls-56{fill:#e7b434;}.cls-57{fill:#e2950f;}.cls-58{fill:#d30e10;}.cls-59{fill:#d21210;}.cls-60{fill:#d14f50;}.cls-61{fill:#d22e31;}.cls-62{fill:#d22829;}.cls-63{fill:#211f76;}.cls-64{fill:#d09500;}.cls-65{fill:#070707;}.cls-66{fill:#090909;}.cls-67{fill:#0b0b0b;}.cls-68{fill:#080808;}.cls-69{fill:#de7514;}.cls-70{fill:#131313;}.cls-71{fill:#565656;}.cls-72{fill:#585858;}.cls-73{fill:#545454;}.cls-74{fill:#4b4b4b;}.cls-75{fill:#4a4a4a;}.cls-76{fill:#393939;}.cls-77{fill:#3f3f3f;}.cls-78{fill:#6a6a6a;}.cls-79{fill:#5c5c5c;}.cls-80{fill:#3a3a3a;}.cls-81{fill:#efeff2;}.cls-82{fill:#fbfbfb;}.cls-83{fill:#f2f2f2;}.cls-84{fill:#e48e41;}.cls-85{fill:#f7f7f7;}.cls-86{fill:#e9a86d;}.cls-87{fill:#eec196;}.cls-88{fill:#f3d9bc;}.cls-89{fill:#fff;}</style></defs><title>Mesa de trabajo 1</title><g id="Capa_2" data-name="Capa 2"><rect class="cls-1" x="7.97" y="25.71" width="244.79" height="49.81" rx="12" ry="12"/></g><g id="Capa_4" data-name="Capa 4"><text class="cls-2" transform="translate(61.01 19.05)">Secu<tspan class="cls-3" x="40.43" y="0">r</tspan><tspan x="47.18" y="0">e </tspan><tspan class="cls-4" x="61.69" y="0">P</tspan><tspan class="cls-5" x="72.7" y="0">a</tspan><tspan x="81.63" y="0">yments</tspan></text></g><g id="Capa_6" data-name="Capa 6"><g id="krqOTb.tif"><path class="cls-6" d="M227.95,104c3.13,0,6.27-.08,9.39.09,1.15.06,1.11-1.2,1.91-1.21s.76,1.29,1.91,1.2a71.75,71.75,0,0,1,7.33,0c1,0,1.2-.39,1.18-1.27,0-1.85-.06-3.7,0-5.55,0-1-.35-1.33-1.34-1.29-4.77.17-9.55.08-14.32.11-5.64,0-11.29,0-16.94-.11-1.16,0-2.17,0-2.49,1.92-.45-1.88-1.46-2-2.67-1.92a38.1,38.1,0,0,1-4.32,0c-1.36-.07-2.57,0-2.88,1.75a1.16,1.16,0,0,1-.3-1.09c0-5,0-10.08,0-15.12,0-1.15.3-1.48,1.47-1.47q22.14.06,44.29,0c1.24,0,1.56.37,1.55,1.57q-.08,11.26,0,22.53c0,1.26-.41,1.53-1.58,1.52-6.23-.05-12.46,0-18.69,0H224c-.67,0-1.34-.08-1.81.58a.5.5,0,0,1-.78.15c-2.41-1.57-5.07-.4-7.6-.68-.56-.06-.49.55-.49.95,0,2.06,0,4.12,0,6.17,0,.83.33,1.06,1.1,1a29.6,29.6,0,0,0,5.38-.1,6.78,6.78,0,0,1,3.78,0,10.14,10.14,0,0,0,2.61.06c.74,0,1.21-.15,1.11-1s.63-.8,1.21-.9c.75-.13.75.35.71.82-.06.79.27,1.11,1.07,1.09,5.08-.15,10.17.14,15.25-.13,1.82-.1,3.67.23,5.51,0,.71-.09.57.43.58.8,0,4,0,8,0,12,0,.92-.5,1-1.18,1-2.11,0-4.22,0-6.33,0-12.65,0-25.31,0-38,0-1.53,0-1.85-.43-1.83-1.88.08-6.69,0-13.37,0-20.06,0-1,.63-1.12,1.24-1.67,1.66-1.5,2.77.15,4.1.14,4.11,0,8.23,0,12.34,0,1.75,0,3.49,0,5.24-.06A.45.45,0,0,1,227.95,104Z"/><path class="cls-7" d="M132,108.07a16.55,16.55,0,0,1-26.32,8.86c-.32-.25-.68-.44-1-.66-.3-.7-1.76-.46-1.46-1.47s1.51-.51,2.26-.78a17,17,0,0,1-2.25,0c-.7-.08-1.46-.31-1.48-1.08s.83-.9,1.49-1a34.09,34.09,0,0,1,3.67,0,32,32,0,0,0-3.66-.12,7,7,0,0,1-1.53-.1c-.52-.12-1-.34-1-1s.61-.64,1.06-.67c1.48-.11,3,0,4.46-.06a4.15,4.15,0,0,0,1.92-.25c-2-.21-3.76-.07-5.51-.11a15.08,15.08,0,0,1-1.69,0c-.5-.07-1.14-.07-1.15-.76s.53-.82,1.06-.92a3.53,3.53,0,0,1,1.07,0c1.64.38,3.29-.1,4.93,0,.58-.12,1.18,0,1.83-.14-.63-.15-1.28,0-1.76-.44a1,1,0,0,1,.38-1.09,3,3,0,0,1,2-.17,3,3,0,0,1,1.1.76,2.82,2.82,0,0,0,3.59.17.83.83,0,0,1,1.28.09c1.07,1.09,2.31.48,3.48.29.4-.06.46-.51.53-.86.12-.55.28-1.09.38-1.65.16-.8.47-1.72-.29-2.3a2.68,2.68,0,0,0-2.89-.08c.22.53.64.36,1,.44s1,.09,1,.7-.6.62-1,.73a3.29,3.29,0,0,0-2.14,1.07,2.54,2.54,0,0,1-1.48,1.25,2.12,2.12,0,0,1-2.82-1.37,3.05,3.05,0,0,1,2.15-3.84c.48-.1,1,.12,1.6-.28a2.63,2.63,0,0,0-3.17-.07c-.57.31-1,.88-1.77.81-2.75-.1-5.51,0-8.26,0a3.47,3.47,0,0,1-1.93-.31.87.87,0,0,1-.17-1c.57-.6,1.32-.47,2-.48,2.23,0,4.47,0,6.7,0H101.5a4.09,4.09,0,0,1-.77-.05c-.51-.1-1.08-.2-1-.89s.61-.75,1.12-.82a13.8,13.8,0,0,1,1.85-.05,52.63,52.63,0,0,0,5.36-.16c-1.91-.24-3.82-.12-5.73-.19-.72,0-1.86.23-1.88-.78s1.13-1,1.93-1c1.54-.06,3.08,0,4.62-.15a27.63,27.63,0,0,0-3.79-.22c-.64-.05-1.72.26-1.72-.73s1-1,1.81-1,1.54,0,2.38,0c-.62-.08-1.18,0-1.73-.09s-1-.09-1.07-.68.36-.82.83-.94,1-.27,1.15-.86c8.13-6.61,18.56-5.47,24.63,2.8a16.06,16.06,0,0,1,2.79,12.87.53.53,0,0,1-.28.06c-.47,0-1-.63-1.37-.12s0,.61.46.58c.25,0,.46-.27.69-.24C132.17,107.47,132.11,107.78,132,108.07Z"/><path class="cls-8" d="M102.06,108.4c-.69.22-2-.38-2,.47s1.26.43,1.95.46c1.9.07,3.8,0,5.7,0,.46,0,1.25-.3,1.29.39.05.88-.8.74-1.4.75-1.9,0-3.8,0-5.7,0-.36,0-1-.23-1,.31s.56.6,1,.6c1.69,0,3.39,0,5.08,0,.38,0,1.08-.29,1.07.42s-.62.74-1.17.72c-1.28,0-2.56-.11-3.84-.13-.41,0-1.12-.22-1.13.41s.67.66,1.19.67h3.75c-.41,1.45-1.46.85-2.21,1-.42.09-1.12-.25-1.2.27-.1.68.61.64,1.11.68,1.39.11.21.51.09.79A19.21,19.21,0,0,1,97.76,120a16.67,16.67,0,0,1-9.39-32,16.24,16.24,0,0,1,14.92,2.46,4.59,4.59,0,0,0,1.53,1c.11.38.7.48.62,1-.72.52-2.22-.46-2.25.79,0,.61,1.51.17,2.33.29.62.09,1.4-.17,1.54.88-1.78.47-3.77-.37-5.69.64a2,2,0,0,0,1.72.42c1.28,0,2.57,0,3.85,0,.57,0,1.35.07,1.34.73s-.81.38-1.24.39c-1.8,0-3.59,0-5.39,0-.45,0-1.08-.06-1,.59s.65.33,1,.34c2.11,0,4.21,0,6.32,0,.49,0,1.18-.14,1.21.59s-.73.52-1.16.53c-2.31,0-4.62,0-6.93,0-.43,0-1.12-.18-1.14.44,0,.81.76.48,1.19.48,2.46,0,4.93,0,7.39,0,.46,0,1.21-.21,1.15.58s-.73.39-1.14.39c-3,0-6,0-8.93,0A2.67,2.67,0,0,0,97.94,103c-.22,1.31,0,2.75-1,3.89-.83-.79-1.26-1.91-2.26-2.61-.54-.37-.24-.91.39-1.13.41-.15,1,0,1.24-.68a2.93,2.93,0,0,0-2.88.41c-.42.36-.78.9-1.44.39a2.86,2.86,0,0,0-3.79-.51c.55.46,1.23.2,1.76.44.29.13.57.29.59.63s-.33.47-.61.56c-.59.18-1.2.26-1.78.48a1.55,1.55,0,0,0-1.11,1.93c.23,1,1,1.08,1.82.9a9.07,9.07,0,0,1,2.29-.18c.37,0,.73.14,1.11.13,1.5.06,3,.18,4.29-.88a2.42,2.42,0,0,0,3.19.51,1.56,1.56,0,0,1,.66-.09,3.21,3.21,0,0,1,1.62.8A.48.48,0,0,1,102.06,108.4Z"/><path class="cls-9" d="M74.51,83.66c0,.46.07.92.07,1.38,0,12.55,0,25.09,0,37.64,0,1.27-.18,1.76-1.64,1.75-20.72-.06-41.44,0-62.16-.05-.48,0-1,.24-1.44-.24a.33.33,0,0,1,.07-.49,1.51,1.51,0,0,1,.53-.23c.19,0,.39-.07.58-.09,17.13-.08,34.26,0,51.39,0h8.8c2.66,0,2.67,0,2.67-2.6q0-17.05,0-34.11a8,8,0,0,1,.17-2.45C73.77,83.74,74,83.37,74.51,83.66Z"/><path class="cls-10" d="M74.51,83.66a.67.67,0,0,0-.66.41,4.41,4.41,0,0,1-2.7.39H13.45c-2.94,0-2.94,0-2.94,2.95q0,16.9,0,33.79a4,4,0,0,1-.41,2.54l-.4,0a2.85,2.85,0,0,1-.14-1.51q0-18.37,0-36.73c0-.44-.18-.92-.07-1,0,0,.05.43.05.79q0,18.37,0,36.73a6.68,6.68,0,0,1-.07,1.69l-.09.43c-.33-.46-.17-1-.17-1.49,0-12.55,0-25.1,0-37.65,0-1.3.25-1.73,1.67-1.73,20.73.05,41.45,0,62.18.05C73.5,83.32,74.14,83,74.51,83.66Z"/><path class="cls-11" d="M214.87,109.67c0-2.59,0-2.56,2.62-2.59,1.46,0,2.86-.12,3.77,1.41.41.69.83.15,1.2-.24,1.05-1.09,5.09-1.66,6.46-.93a1.58,1.58,0,0,1,.89,1.65,1.48,1.48,0,0,1-1.22,1.41,10.61,10.61,0,0,1-1.84.13c-.5,0-.92,0-.94.71,0,.41.25,1.06-.44,1.12s-1.73.4-2.29-.43c-.91-1.34-1.74-1.55-2.69-.06a1.38,1.38,0,0,1-1.36.56c-.46,0-.93,0-1.39,0C214.87,112.41,214.87,112.41,214.87,109.67Z"/><path class="cls-12" d="M199.5,84.6q0,10.71.07,21.42c0,5.34,0,10.69,0,16,0,1.14-.37,1.5-1.51,1.5q-29.6,0-59.19,0a6.94,6.94,0,0,1-.76-.08.48.48,0,0,1,.06-.72,1.31,1.31,0,0,1,.53-.13,28.41,28.41,0,0,0,5.65-.2c2.7-.15,5.4.14,8.1.22a47,47,0,0,0,5.86,0H195c.51,0,1,0,1.54,0,1.66-.05,1.82-.2,1.83-1.91,0-3.91,0-7.82,0-11.73a16.09,16.09,0,0,1,.09-2.47,3.61,3.61,0,0,1,.1-.59,5.87,5.87,0,0,0,.17-2c0-5.81,0-11.62,0-17.43C198.82,85.87,198.52,85,199.5,84.6Z"/><path class="cls-13" d="M199.5,84.6c-.43.49-.25,1.08-.25,1.63,0,6.12,0,12.24,0,18.36,0,.53.23,1.15-.31,1.59a3.14,3.14,0,0,1-.48-2.35c0-5.51,0-11,0-16.52,0-2.11-.1-2.21-2.15-2.21H141c-2,0-2.09.1-2.09,2.09q0,16.52,0,33c0,.9.21,1.87-.5,2.65h-.3a2,2,0,0,1-.15-1.2q0-18.1,0-36.21a2.61,2.61,0,0,1,.12-1.21h0a3.13,3.13,0,0,1,1.37-.12h58.48a3.09,3.09,0,0,1,1.37.12A.25.25,0,0,1,199.5,84.6Z"/><path class="cls-14" d="M210.34,102.49c.94-1.28.19-2.73.42-4.08.08-.44-.07-1,.59-1.06s1.16-.21,1.53.41c.21.35.35.74.56,1.09.41.68.41,2,1.18,2s.71-1.32,1.13-2a9.1,9.1,0,0,0,.44-1c.32-.68.94-.51,1.48-.49s.66.52.66,1q0,1.77,0,3.54c0,.37,0,.78-.5.81s-.62-.41-.63-.84c0-1,0-2,0-3.34a11.68,11.68,0,0,0-1.73,3.2c-.23.44-.3,1.05-1,1s-.64-.59-.83-1a12.81,12.81,0,0,0-1.75-3c0,.72,0,1.44,0,2.17,0,2.07-.25,2.24-2.45,1.62A.62.62,0,0,1,210.34,102.49Z"/><path class="cls-15" d="M233.23,100.29a2.61,2.61,0,0,1,2.9-3c.36,0,.77,0,.78.5s-.4.48-.76.54c-1.63.24-2,.77-1.79,2.26a1.25,1.25,0,0,0,1.18,1.2,1.09,1.09,0,0,0,1.3-.79c.35-.91.78-1.78,1.13-2.69.24-.63.5-1.06,1.29-1a1.23,1.23,0,0,1,1.23.93c.49,1.18,1,2.35,1.51,3.54.12.3.4.7-.1.91-.31.13-.55-.09-.78-.34a2.52,2.52,0,0,0-3.8,0c-.81.83-1.82.46-2.72.2C233.48,102.17,233.34,101.14,233.23,100.29Z"/><path class="cls-16" d="M199.3,84.25c-.46,0-.92.06-1.38.06H139.47c-.46,0-.92,0-1.38-.06a2.68,2.68,0,0,1,1.65-.18h58.08C198.3,84.06,198.84,83.91,199.3,84.25Z"/><path class="cls-17" d="M247.1,100.85c0-.75,0-1.49,0-2.24,0-.46-.24-1.19.52-1.22s.58.69.59,1.16c0,1,0,1.95,0,2.92,0,.48.19,1.1-.55,1.24a1.29,1.29,0,0,1-1.56-.64c-.61-1.11-1.31-2.17-2.09-3.46a9.13,9.13,0,0,0-.31,3.32c0,.37,0,.77-.52.78s-.47-.41-.47-.77c0-1.13,0-2.25,0-3.38,0-.45-.26-1.11.54-1.21a1.36,1.36,0,0,1,1.57.65c.56,1,1.2,2,1.81,3Z"/><path class="cls-18" d="M230.76,109.76c0-2.75,0-2.75,3-2.67,2,.05,2.46.68,1.57,2.48-.17.36-.16.54.1.77a1.46,1.46,0,0,1,.37,1.28c0,.35,0,.77-.51.76s-.49-.32-.48-.65c0-1.78-1.33-1.31-2.31-1.38-.59,0-.52.49-.55.89s.21,1.18-.62,1.11-.46-.77-.5-1.22A13.35,13.35,0,0,1,230.76,109.76Z"/><path class="cls-19" d="M225.06,100c0-2.9,0-2.9,2.85-2.64,2.12.2,2.42.65,1.6,2.61-.27.65.4.75.47,1.16.09.58.46,1.36-.36,1.56s-.61-.59-.68-1.07c-.19-1.26-1.2-.81-1.94-.91s-.93.37-.91,1c0,.38.14.94-.45,1s-.54-.6-.56-1S225.06,100.53,225.06,100Z"/><path class="cls-20" d="M210.34,102.49h-.89a2.54,2.54,0,0,0-3.92-.23c-.25.3-.46.61-.86.35s-.13-.55,0-.83c.52-1.23,1.07-2.45,1.57-3.69a1.11,1.11,0,0,1,1.17-.78,1.08,1.08,0,0,1,1.17.77C209.12,99.56,209.74,101,210.34,102.49Z"/><path class="cls-21" d="M236.91,109.7c0-2.67,0-2.69,2.89-2.61.44,0,1.22-.33,1.22.45,0,.59-.72.38-1.15.41s-.82,0-1.23,0-.71.14-.67.63a.61.61,0,0,0,.71.63h1.54c.36,0,.81,0,.79.48s-.48.44-.84.44h-1.39c-.41,0-.7.1-.72.58s.25.73.75.72,1.13,0,1.7,0c.28,0,.53.12.57.41s-.3.49-.61.5c-.93,0-1.85,0-2.78,0-.61,0-.79-.33-.78-.88S236.91,110.32,236.91,109.7Z"/><path class="cls-22" d="M243.9,112.42c-.31,0-.62,0-.93,0s-.79,0-.73-.54.42-.38.72-.39c.62,0,1.23,0,1.85,0a.63.63,0,0,0,.65-.55c0-.46-.27-.62-.67-.67a11.32,11.32,0,0,1-1.53-.16,1.35,1.35,0,0,1-1.17-1.26,1.38,1.38,0,0,1,.82-1.51,7.28,7.28,0,0,1,3-.19.35.35,0,0,1,.36.4c0,.17-.21.41-.35.43-.51.07-1,0-1.54.08s-1.18-.16-1.23.57.64.63,1.13.67h.46c1,0,1.81.34,1.82,1.45s-.73,1.63-1.81,1.67c-.31,0-.62,0-.93,0Z"/><path class="cls-23" d="M219.63,100c0-2.87,0-2.87,3.14-2.67.4,0,.95-.09,1,.47s-.54.46-.92.49-.82,0-1.23,0-1,0-.94.71.54.58,1,.66c.65.12,1.83-.41,1.83.38s-1.18.29-1.82.39-1.06,0-1,.81.53.59,1,.67c.71.12,2-.38,2,.39,0,1-1.34.45-2.06.46C219.18,102.76,219.7,103,219.63,100Z"/><path class="cls-24" d="M250,107.09a1.28,1.28,0,0,1,.31,0c.44.11,1.24-.3,1.25.44s-.78.42-1.25.49c-.1,0-.21,0-.31,0-.55.11-1.46-.33-1.52.56s.85.66,1.41.68c1,0,1.93.28,2,1.48s-.86,1.72-2,1.65c-.8,0-2.22.51-2.27-.39s1.32-.33,2.05-.5c.44-.1,1,0,1-.64s-.55-.64-1-.67c-.26,0-.52,0-.77,0-.88-.14-1.62-.48-1.59-1.53a1.5,1.5,0,0,1,1.61-1.52c.36,0,.72,0,1.08,0Z"/><path class="cls-16" d="M138.08,84.24q0,19.31,0,38.62v.6c-.55-.3-.32-.82-.32-1.24q0-18.44,0-36.87C137.79,85,137.61,84.51,138.08,84.24Z"/><path class="cls-25" d="M232.31,100c0,.67,0,1.34,0,2,0,.33-.08.63-.47.67a.58.58,0,0,1-.71-.61q0-2.15,0-4.3a.49.49,0,0,1,.53-.46.51.51,0,0,1,.6.54c0,.72,0,1.44,0,2.16Z"/><path class="cls-26" d="M132,108.07c-.11-.11-.14-.54-.27-.35-.56.85-1.11.55-1.65.07s-.1-.77.13-1.1c.56-.79,1.05-.22,1.55.1l.52.31A1.07,1.07,0,0,1,132,108.07Z"/><path class="cls-27" d="M227.95,104l-.63,0c.06-.55-.17-1.16.3-1.8C228.1,102.86,227.86,103.48,227.95,104Z"/><path class="cls-28" d="M125.42,102.4a1.44,1.44,0,0,1,1.41-.44c1.06.35,1.72.39,1.85-1,0-.53.77-.36,1.21-.31s.38.5.32.84q-.49,2.88-1,5.76c-.06.35-.13.93-.51.81-1.37-.42-2.9.77-4.12-.38s-1-2.37-.48-3.69A5.86,5.86,0,0,1,125.42,102.4Z"/><path class="cls-29" d="M115,105.29c.71-1.41,2.23-.93,3.44-1.41-.48-.82-1.17-.44-1.76-.48-.36,0-.89.34-1-.3a.91.91,0,0,1,.63-1.1c1.2-.24,2.5-.52,3.53.34.86.72.51,1.77.23,2.68-.13.43.06.92-.29,1.31s.38,1.81-.66,1.71c-1.38-.14-3,1-4.15-.55A2.83,2.83,0,0,1,115,105.29Z"/><path class="cls-30" d="M115,105.29l0,2.21c-.23,0-.27-.54-.56-.31-1.83,1.47-3.45,1.24-4.94-.73a1.79,1.79,0,0,1-.61-1.12,2.07,2.07,0,0,1,0-.84c.11-.39.21-.78.3-1.18a2.27,2.27,0,0,1,.14-.38c.24-.39.31-.91.82-1.1a4.16,4.16,0,0,1,4.14-1.46c.66.09,1.19.29,1.06,1.16s-.71.61-1.26.53a2.18,2.18,0,0,0-2.74,1.8c-.23,1-.33,2.05.85,2.49A2.1,2.1,0,0,0,115,105.29Z"/><path class="cls-31" d="M99.83,107.44c-1.27,1.22-2.68.92-3.07-.65l0,0a24.06,24.06,0,0,0,.95-4.86c.18-1.27.71-1.67,1.89-1.29q0,.44,0,.87c1.32.64.92,1.45.22,2.29-.67,1-1.06,2,0,2.95A.43.43,0,0,1,99.83,107.44Z"/><path class="cls-32" d="M125.42,102.4A3.55,3.55,0,0,1,124.1,104c-.92-1-1.27,0-1.47.56a11.27,11.27,0,0,0-.57,2.69c-.1.86-.61,1-1.29.89s-.56-.7-.48-1.18q.34-2,.73-4.09c.08-.44.26-1.22.72-.92.91.59,2.28-.8,2.89.74C124.63,102.69,125.15,102.5,125.42,102.4Z"/><path class="cls-33" d="M107.27,106.48l-.16.91a.66.66,0,0,1-.19.75c-1.6.26-1.69.19-1.92-1.4a3.44,3.44,0,0,1,.09-.78,15.64,15.64,0,0,0,.51-2.69c.33-1.46.66-1.71,2-1.49a1.94,1.94,0,0,0,.87.11c1.38-.36,1.17.42.88,1.25l0,0a3.09,3.09,0,0,1-1.27,1.2,2.56,2.56,0,0,0-.39,1.07A2.43,2.43,0,0,1,107.27,106.48Z"/><path class="cls-34" d="M109.4,103.13c0-.67.38-1.65-1-.94-.15.08-.3.22-.54.07-1.34-.82-1.79-.08-1.94,1.15-.14.3-.31.51-.68.31-1.67-2.06-3.33-2-4.81.24a.85.85,0,0,1-.56.46c-.31-.13-.5-.33-.38-.69.67-.71,1-1.44.06-2.2,2.91,0,5.83,0,8.74,0,.6,0,1.24-.16,1.77.27Z"/><path class="cls-35" d="M105.36,106.49c-.17,1.19.15,1.88,1.52,1.49q.26.23,0,.39a19.79,19.79,0,0,1-4.77,0l-.09-.33c.92-.65,2.4-.21,3-1.55A.39.39,0,0,1,105.36,106.49Z"/><path class="cls-36" d="M107.27,106.48a1.43,1.43,0,0,1,.24-1.21,1.08,1.08,0,0,1,1.54,0,1.87,1.87,0,0,1,.39,1.15Z"/><path class="cls-37" d="M106.84,108.38l0-.39.22-.6c.66,0,1.32,0,2,0,.26,0,.52.06.56.39a.5.5,0,0,1-.52.61C108.36,108.42,107.6,108.39,106.84,108.38Z"/><path class="cls-38" d="M84.08,105.27c-.3.71-.66,1.4-.89,2.13s-.89.69-1.49.71c-.81,0-.69-.58-.72-1.07a9.57,9.57,0,0,0-.49-2.83c-.18,1-.4,2.07-.53,3.11-.1.8-.6.85-1.21.79-.79-.07-.5-.63-.44-1,.3-1.83.68-3.64.92-5.48.2-1.54,1.31-.91,2.11-1s.92.5,1,1.16a6.11,6.11,0,0,0,.29,2.32,5.25,5.25,0,0,0,1-2.05,2.34,2.34,0,0,1,3-1.43c.65.19.4.6.33,1-.31,1.76-1,3.45-1,5.27-.44,1.29-.77,1.41-1.57.56l.08-1.12a1.44,1.44,0,0,0,.07-.91,2.82,2.82,0,0,1,0-.7A1.73,1.73,0,0,1,84.08,105.27Z"/><path class="cls-39" d="M105,106.57c-.16,2.21-1.91,1.21-3,1.5l-1.43-.67c-.91-.88-1.53-1.83-.75-3.12.56-1,1.05-2,2.28-2.29a2.51,2.51,0,0,1,3.35,1.73,1.94,1.94,0,0,1-.15,1.87c-.73.63-1.66.23-2.52.48C103.4,106.81,104.42,105.78,105,106.57Z"/><path class="cls-40" d="M91.3,107.79a30.52,30.52,0,0,1-3.46.35c-.89,0-1.33-.69-1.36-1.57a2.06,2.06,0,0,1,1.58-2.18,20.09,20.09,0,0,1,2.45-.44c-.57-.93-1.35-.52-2-.59-.34,0-.87.41-1-.26a1,1,0,0,1,.52-1,3.76,3.76,0,0,1,4.09.95,5.79,5.79,0,0,1,.25.72A8.47,8.47,0,0,1,91.3,107.79Z"/><path class="cls-41" d="M92.18,103.84l0-.82c.15.12.4.34.49.13.71-1.59,2.13-1.3,3.43-1.32.46,0,1,0,.87.72-.08.49-.25.88-.88.77a2.67,2.67,0,0,0-.76,0c-.3,0-.68.07-.67.46a.75.75,0,0,0,.48.52,2.09,2.09,0,0,1,1.64,2.53l0,0c-1.18,1.77-2.93,1.41-4.63,1.26-.71-1.31-.51-1.53,1.92-1.85A3.58,3.58,0,0,1,92.18,103.84Z"/><path class="cls-42" d="M92.18,103.84c.67.75,1.1,1.75,2.26,2a.4.4,0,0,1,.22.62c-.31.48-.82.42-1.26.32-1.16-.26-1.73,0-1.27,1.29l-.83-.25Z"/><path class="cls-43" d="M99.79,104.28a4.68,4.68,0,0,0,.75,3.12l-.72,0c-1.45-.78-1.08-2-.82-3.23.07-.32.29-.38.52-.47Z"/><path class="cls-44" d="M84.08,105.27l.56-1.65a3.83,3.83,0,0,1-.19,2.64C84.27,105.95,84.54,105.47,84.08,105.27Z"/><path class="cls-40" d="M84.37,107.37c.93.94,1.15-.09,1.57-.56,0,.6.19,1.32-.78,1.3C84.72,108.11,84,108.32,84.37,107.37Z"/><path class="cls-45" d="M10.09,123.75c0-.46-.1-.92-.1-1.38,0-12.29,0-24.59,0-36.88,0-1.07.14-1.51,1.39-1.51q30.71.07,61.42,0c.36,0,.72,0,1.08.06,0,12.7,0,25.4,0,38.1,0,1.31-.39,1.58-1.63,1.58Q41.17,123.71,10.09,123.75Z"/><path class="cls-46" d="M9.46,123.71V84.08h.24q0,19.85,0,39.71A.38.38,0,0,1,9.46,123.71Z"/><path class="cls-47" d="M217.81,108c1.35,0,2.92.86,3,1.63s-1.64,1.77-3,1.77a2.39,2.39,0,0,1-.46,0c-.49-.1-1.29.32-1.31-.59s.79-.53,1.27-.62a6.74,6.74,0,0,1,.77,0c.39,0,.9.09.87-.56s-.47-.44-.82-.46-.72,0-1.08,0-1,.08-1-.62.63-.5,1-.54A7.16,7.16,0,0,1,217.81,108Z"/><path class="cls-48" d="M224.73,107.61a20.86,20.86,0,0,1-.09,4.15C222.18,110.1,222.17,109.69,224.73,107.61Z"/><path class="cls-49" d="M227.23,109.57c-.61,0-1.33.18-1.36-.79s.62-.77,1.15-.75,1.49-.2,1.52.76S227.78,109.53,227.23,109.57Z"/><path class="cls-50" d="M138.42,122.86c0-12.18,0-24.36,0-36.53,0-1.4.34-1.77,1.76-1.76q28.52.08,57,0c1.33,0,1.83.22,1.81,1.71-.11,6.63-.07,13.26-.08,19.88l0,0a6.51,6.51,0,0,1-2.78,2.11,122.13,122.13,0,0,1-24.79,10.53A138.89,138.89,0,0,1,157,122.51a20.28,20.28,0,0,1-4.58.48L139.3,123A4.46,4.46,0,0,1,138.42,122.86Z"/><path class="cls-51" d="M152.39,123c16.42-3,32.12-8,46.48-16.79q.05,8,.11,16c0,.67-.31.93-.95.88-.15,0-.31,0-.46,0l-44.11,0A10.13,10.13,0,0,1,152.39,123Z"/><path class="cls-52" d="M239.2,98.34c.48.72,1.1,1.31.7,2.08-.18.34-1,.33-1.25,0C238.12,99.69,238.82,99.11,239.2,98.34Z"/><path class="cls-53" d="M233.21,108c.53.07,1.29-.16,1.26.69s-.78.64-1.3.62-1.24.27-1.2-.67S232.74,108.15,233.21,108Z"/><path class="cls-54" d="M227.35,99.73c-.46-.09-1.13.22-1.16-.61s.71-.69,1.21-.69,1.33-.23,1.35.58S227.91,99.64,227.35,99.73Z"/><path class="cls-55" d="M125.75,105A1.48,1.48,0,0,1,127,103.5c.82-.11.93.65.91,1.3,0,.9-.36,1.7-1.33,1.79C125.83,106.65,125.74,106,125.75,105Z"/><path class="cls-56" d="M117.16,106.8c-.44,0-.75-.22-.65-.65.15-.63.69-.81,1.27-.86.35,0,.62.14.52.52A1.22,1.22,0,0,1,117.16,106.8Z"/><path class="cls-57" d="M109,105.31l-1.54,0a1.41,1.41,0,0,1,.26-1.17c.47,0,1-.2,1.33.29Z"/><path class="cls-58" d="M109.09,104.39c-.45,0-1,.12-1.33-.29.4-.58,1.29-.38,1.66-1C109.18,103.49,109.55,104,109.09,104.39Z"/><path class="cls-59" d="M105,106.57c-.81,0-1.6.39-2.42.13-.41-.13-.84-.39-.83-.8,0-.64.61-.36,1-.38.77,0,1.54,0,2.3,0,.34,0,.52.07.44.44l-.1.54Z"/><path class="cls-60" d="M105.46,106l-.44-.44c.46-.53.26-1.2.4-1.8l.55-.3A8.63,8.63,0,0,1,105.46,106Z"/><path class="cls-61" d="M103,104.35c-.4-.09-.93.14-1-.35s.44-.77.94-.79a.71.71,0,0,1,.78.6C103.82,104.54,103.17,104.18,103,104.35Z"/><path class="cls-62" d="M90.2,105.72a1.24,1.24,0,0,1-1.15,1.06c-.41,0-.76-.11-.7-.58.09-.69.69-.83,1.25-.93C89.92,105.22,90.23,105.26,90.2,105.72Z"/><path class="cls-63" d="M41.91,95.17c-9.51,0-19,0-28.53,0-1.21,0-1.59-.28-1.53-1.52.1-2.31.1-4.63,0-6.94,0-1.18.31-1.46,1.46-1.45,12.65,0,25.29,0,37.94,0,6.43,0,12.85,0,19.28,0,1.16,0,1.51.29,1.46,1.46-.09,2.36-.08,4.73,0,7.09,0,1.1-.33,1.36-1.39,1.36C61,95.15,51.47,95.17,41.91,95.17Z"/><path class="cls-64" d="M42,122.3c-9.52,0-19,0-28.55,0-1.21,0-1.62-.3-1.56-1.54.1-2.21.11-4.43,0-6.63-.07-1.37.35-1.71,1.71-1.71q27.39.07,54.79,0c3.61,0,3.61,0,3.61,3.6,0,1.59-.07,3.19,0,4.78.07,1.16-.31,1.47-1.47,1.46C61,122.28,51.47,122.3,42,122.3Z"/><path class="cls-63" d="M61.3,104.06c.08,1.79.12,3.59.27,5.38.08,1-.21,1.32-1.25,1.33-1.41,0-2.6,0-2.21-1.92a.88.88,0,0,0-.19-.7c-.64-.62-4,0-4.19.84-.47,1.79-1.72,1.85-3.19,1.76-.86-.05-.79-.34-.47-.93q3.29-6,6.55-12c.64-1.19,1.74-.49,2.63-.66,1.35-.26,1.9.24,1.84,1.7-.07,1.74.14,3.48.22,5.23Z"/><path class="cls-63" d="M22.42,97c1.82,0,3.64,0,5.46,0,.81,0,.59.7.6,1.16a48.41,48.41,0,0,0,.36,6.95c1.2-2,2.42-4.09,3.61-6.15s1.39-2.23,4.16-1.66l-5,8.3a26.94,26.94,0,0,0-1.88,3.17c-.73,1.71-2,2.12-3.67,2-.83-.08-1-.35-1-1.11,0-2.82-.17-5.64-.2-8.46,0-1.84,0-3.63-2.76-3.77Z"/><path class="cls-63" d="M44.13,110.91a7.46,7.46,0,0,1-3-.56c-1.56-.65-1.61-.89-.75-2.32.37-.61.67-.58,1.22-.3a5.26,5.26,0,0,0,3.29.56c.68-.11,1.36-.31,1.54-1.08s-.3-1.16-.81-1.55-1.17-.84-1.72-1.29a3.91,3.91,0,0,1,.07-6.43,6.78,6.78,0,0,1,7.27-.42c.48.31,1.24.59.55,1.38-.48.54-.7,1.66-1.84.8a4,4,0,0,0-1.26-.55,1.85,1.85,0,0,0-2.38.86c-.49.93.17,1.54.8,2.09a6.34,6.34,0,0,0,.63.44c2,1.35,2.63,2.64,2.23,4.47a4.59,4.59,0,0,1-4.12,3.79C45.27,110.88,44.7,110.87,44.13,110.91Z"/><path class="cls-63" d="M39.58,97c1.91,0,1.91,0,1.34,1.77l-3.4,10.53a3,3,0,0,1-3.69,1.4c-.4-.24-.19-.52-.11-.79,1.3-4,2.64-8.08,3.91-12.14C38,96.53,39,97.16,39.58,97Z"/><path class="cls-65" d="M141.87,98.53q0-.85,0-1.7c0-2.82,0-2.82,2.87-2.59a4.2,4.2,0,0,1,4.18,4.26,4.28,4.28,0,0,1-4.32,4.29c-2.72.13-2.72.13-2.72-2.57Q141.87,99.37,141.87,98.53Z"/><path class="cls-66" d="M195.31,102.67c-2.89.71-2.87-2-4.46-3.2,0,.87,0,1.59,0,2.31s-.09,1.06-.9,1-.84-.34-.84-1c0-2.26,0-4.51,0-6.77,0-.54.11-.91.75-.88.92,0,1.85,0,2.76.13a2.17,2.17,0,0,1,2,1.89,2.21,2.21,0,0,1-1,2.55c-.83.43-.72.74-.23,1.33C194,100.9,194.61,101.74,195.31,102.67Z"/><path class="cls-67" d="M183.3,98.62c0-1.08.06-2.16,0-3.23s.34-1.25,1.25-1.18,1.85,0,2.77,0c.6,0,.81.25.8.83s-.36.65-.81.65-.93,0-1.38,0c-.66-.05-.91.19-.91.87s.12,1.12.92,1a1.13,1.13,0,0,1,.46,0c.57.17,1.63-.52,1.57.78s-1.06.65-1.65.69c-.79,0-1.31,0-1.33,1.11s.53,1.25,1.39,1.18c.36,0,.72,0,1.08,0,.56,0,.66.33.66.8s-.14.69-.61.69c-1.18,0-2.36,0-3.54,0-.72,0-.65-.5-.65-1C183.29,100.77,183.3,99.69,183.3,98.62Z"/><path class="cls-66" d="M155.15,94.11a3.18,3.18,0,0,1,1.76.46c.29.17.73.34.41.8s-.42.93-1,.47a1.43,1.43,0,0,0-1.15-.29,1.06,1.06,0,0,0-.94.69c-.15.49.19.78.57,1s.94.42,1.41.61a2.39,2.39,0,0,1,1.69,2.76,2.64,2.64,0,0,1-2.28,2.37,3.34,3.34,0,0,1-3.32-1.16c-.35-.39-.1-.64.16-.9s.57-.64,1-.11a1.69,1.69,0,0,0,1.19.64,1.21,1.21,0,0,0,1.46-.83,1,1,0,0,0-.73-1.34c-.42-.19-.86-.34-1.28-.52a2.22,2.22,0,0,1-1.61-2.62A2.54,2.54,0,0,1,155.15,94.11Z"/><path class="cls-68" d="M178.46,99.9c.68-1.69,1.31-3,1.76-4.43.39-1.18,1-1.52,2.29-1.08l-3.38,8.06a.77.77,0,0,1-.65.57c-.46,0-.62-.29-.76-.62L174.67,95c-.14-.33-.36-.74.26-.78s1.22-.22,1.53.61C177,96.44,177.7,98,178.46,99.9Z"/><path class="cls-66" d="M164.91,100.75c.15,1.87-.1,2.16-1.81,2.25a4.48,4.48,0,1,1,.06-8.95c1.69.08,2,.42,1.7,2.18-2-.91-3.18-.78-4.13.45a3.07,3.07,0,0,0,0,3.72C161.69,101.55,163,101.69,164.91,100.75Z"/><path class="cls-69" d="M174.75,98.5c0,2.72-2,4.4-4.73,4.58a4.51,4.51,0,1,1,4.73-4.58Z"/><path class="cls-70" d="M149.64,98.5c0-1.12,0-2.25,0-3.37,0-.63.17-.93.86-.93s.9.23.89.9c0,2.3,0,4.6,0,6.9,0,.71-.32.84-.93.84s-.83-.21-.82-.8C149.66,100.85,149.64,99.67,149.64,98.5Z"/><path class="cls-71" d="M168.51,105.12l.63,1.41c.67-.32.34-1.28,1.21-1.44a9.45,9.45,0,0,1-.93,3c-.7-.37-.56-1.08-1-1.47-.65.22-.37,1.13-1.15,1.46l-1.08-3c1,.16.69,1.11,1.28,1.41C168,106.2,167.79,105.44,168.51,105.12Z"/><path class="cls-72" d="M173,105c1,.18,1.61.7,1.54,1.74a1.59,1.59,0,0,1-3.17-.09C171.41,105.57,172.06,105.09,173,105Z"/><path class="cls-73" d="M177.48,107.9c-.53.39-.88-.84-1.4,0-.12.2-.34-.22-.34-.46,0-.51,0-1,0-1.53s.06-1.08.82-.91,1.16.63.77,1.18C176.81,106.93,177.31,107.41,177.48,107.9Z"/><path class="cls-74" d="M162.42,108c-.67,0-1.4.42-1.58-.3a4.58,4.58,0,0,1,0-2.39c.19-.6.91-.34,1.46-.2-.1.68-.77.22-.89.54-.57.46,2.24.49,0,1.3C160.77,107.24,162.12,107.44,162.42,108Z"/><path class="cls-75" d="M180.88,107.92c-.85.32-1.28-1.54-2,.51v-3.56c.7,1.88,1.18,0,2,.31C179.58,106.12,179.81,107,180.88,107.92Z"/><path class="cls-76" d="M164.57,108.1c-.81-.85,0-1.92-.73-2.76-.22-.26.83-.16,1.76-.43C164.33,105.92,164.92,107,164.57,108.1Z"/><path class="cls-77" d="M158.5,106.78c.89-.23,0-1.28.95-1.67,0,.71,0,1.33,0,1.94,0,.32.21.82-.26.9s-.56-.37-.73-.69A.35.35,0,0,1,158.5,106.78Z"/><path class="cls-78" d="M157.32,106.26c-.13.57.09,1.21-.34,2a4.87,4.87,0,0,1-.26-3s.06-.07.09-.07a.45.45,0,0,1,.14.05A2.54,2.54,0,0,1,157.32,106.26Z"/><path class="cls-79" d="M196.15,95c0,.4-.14.66-.52.68a.59.59,0,0,1-.69-.63.55.55,0,0,1,.52-.63A.58.58,0,0,1,196.15,95Z"/><path class="cls-80" d="M157.32,106.26c-.45-.23-.41-.63-.37-1a4.86,4.86,0,0,1,1.55,1.55l-.06.48Z"/><path class="cls-81" d="M57.69,101.71c.08,1.06.13,2.12.26,3.18.09.74-.29.91-.89.85s-1.25.31-1.57-.21.31-.91.53-1.35c.42-.87.89-1.71,1.34-2.56Z"/><path class="cls-82" d="M143.58,98.4q0-.54,0-1.07c0-1.7.68-2.1,2.2-1.27a2.88,2.88,0,0,1,.68,4.37,2.37,2.37,0,0,1-2.5.8c-.78-.26-.26-1.16-.36-1.76A6.45,6.45,0,0,1,143.58,98.4Z"/><path class="cls-83" d="M190.82,96.83c.11-.5-.29-1.25.69-1.21.81,0,1.39.39,1.39,1.26s-.62,1.25-1.41,1.26C190.4,98.17,191,97.27,190.82,96.83Z"/><path class="cls-84" d="M170,102.19c-2.24,0-3.53-1.41-3.53-3.83,0-2.2,1.45-3.56,3.82-3.58a3.59,3.59,0,0,1,3.6,3.56C173.93,100.8,172.53,102.19,170,102.19Z"/><path class="cls-85" d="M174,106.55a1,1,0,0,1-.93,1.06.94.94,0,0,1-1-1,.91.91,0,0,1,.91-1A1,1,0,0,1,174,106.55Z"/><path class="cls-86" d="M169.93,101.57a2.82,2.82,0,0,1-2.8-3,3.3,3.3,0,0,1,3.1-3.2,3.46,3.46,0,0,1,3.07,3.44C173.26,100.2,171.57,101.57,169.93,101.57Z"/><path class="cls-87" d="M170.26,96.31a2.51,2.51,0,0,1,2.38,2.28,3.19,3.19,0,0,1-2.53,2.31,2.92,2.92,0,0,1-2.35-2.46A2.39,2.39,0,0,1,170.26,96.31Z"/><path class="cls-88" d="M170.37,100c-1.08,0-1.72-.41-1.68-1.43,0-.85.29-1.67,1.39-1.64a1.54,1.54,0,0,1,1.62,1.5C171.75,99.31,171.34,100,170.37,100Z"/></g></g><g id="Capa_1" data-name="Capa 1"><path class="cls-89" d="M50.93,46.4a4.46,4.46,0,0,1,.45,0h2.36c.31,0,.38.21.57.4.44.45.08,1.17.64,1.53.08.05,0,.28.07.42.07.35-.08.76.34,1,.07,0,0,.25.08.37s.19.38.26.57.06.28.11.41.22.47.29.71.06.48.13.71.21.47.28.72.09.51.14.76a.81.81,0,0,0,.15.23c.07-.08.17-.14.19-.23.16-.59.14-1.33.5-1.73s0-1.33.67-1.73c0,0,0,0,0,0,.15-.57.29-1.15.45-1.72.11-.37.26-.72.39-1.09s.28-.82.44-1.22c0-.06.2-.09.31-.09h2.56c.4,0,.56.15.59.58a3.72,3.72,0,0,0,.36,1.67c.28.44.12,1,.39,1.26.55.47,0,1.27.67,1.63.05,0,0,.19,0,.28s.22.44.28.67a4.89,4.89,0,0,1,.12.76c0,.26,0,.53.42.53s.36-.29.4-.54-.09-.7.32-.91c.08,0,0-.28.09-.42a5.46,5.46,0,0,1,.25-.52c0-.06.08-.11.09-.17a3.4,3.4,0,0,1,.36-1.25A8.68,8.68,0,0,0,67.21,48s0-.12,0-.14c.44-.24.32-.68.35-1s.17-.42.43-.43q1.4,0,2.81,0c.09,0,.26.11.25.16a4,4,0,0,1-.13.79c0,.11-.19.18-.22.28a2.73,2.73,0,0,1-.35,1,5.69,5.69,0,0,0-.5,1.63,2.63,2.63,0,0,1-.11.31l-.27.62-.25.53s-.07.07-.09.11c-.15.51-.27,1-.46,1.52s-.39.86-.6,1.28c0,0-.08.07-.09.11-.17.55-.32,1.11-.49,1.67a2.19,2.19,0,0,1-.18.36c-.06.11-.19.24-.16.33.14.54-.43.8-.48,1.26,0,.05-.22.11-.33.12-.77,0-1.54,0-2.32,0-.14,0-.28-.18-.4-.29-.57-.52-.25-1.36-.67-1.94-.08-.12,0-.33-.06-.48a3.86,3.86,0,0,0-.22-.5l-.14-.34c-.1-.24-.21-.47-.29-.71a2.71,2.71,0,0,1-.09-.42c-.07-.37.07-.79-.35-1.06-.08-.05,0-.28-.08-.42s-.2-.41-.26-.62-.07-.47-.14-.7a1.27,1.27,0,0,0-.21-.32,2.6,2.6,0,0,0-.19.29c-.24.51-.48,1-.71,1.54-.05.12,0,.26-.08.38s-.2.47-.29.71a3.41,3.41,0,0,0-.11.47c-.07.35.1.78-.34,1,0,0,0,0,0,0A6.19,6.19,0,0,1,59,56.61c-.32.53-.16,1.26-.75,1.66a.87.87,0,0,1-.41.18c-.56,0-1.12,0-1.67,0-.73,0-1-.25-1.11-1a5.93,5.93,0,0,0-.57-1.24s-.08-.07-.1-.11a8.92,8.92,0,0,0-.47-1.5c-.27-.52-.08-1.19-.6-1.61-.07-.06-.05-.25-.07-.37,0-.28.05-.6-.31-.76-.06,0,0-.21-.09-.31s-.21-.43-.3-.65a1.71,1.71,0,0,1-.09-.32c-.06-.29.06-.65-.34-.79,0,0,0,0,0,0-.15-.52-.29-1-.45-1.56a4.45,4.45,0,0,0-.24-.49,3.16,3.16,0,0,1-.13-.35Z"/><path class="cls-89" d="M136.62,57.67c.1.72-.23.8-.69.78-.75,0-1.51,0-2.26,0-.42,0-.53-.15-.53-.54,0-1.61,0-3.22,0-4.83q0-5.74,0-11.47V41h3.49v5.79l.72-.27a3.24,3.24,0,0,1,.31-.11c.11,0,.29,0,.33-.07.5-.81,1.3-.3,2-.44a4.85,4.85,0,0,1,1.18,0c.24,0,.51,0,.58.31,0,.06.11.11.18.14a7.34,7.34,0,0,1,1.17.37,4.76,4.76,0,0,1,1,.75c.19.17.3.42.47.61.36.39.49,1,.79,1.3.49.56.05,1.35.65,1.79,0,.79.31,1.61-.22,2.36a.43.43,0,0,0-.08.28,2.18,2.18,0,0,1-.47,1.59c-.37.5-.53,1.13-1.1,1.49s-.76.72-1.2,1a3.35,3.35,0,0,1-1.75.63c-.77,0-1.55.06-2.31,0a6.83,6.83,0,0,1-1.49-.51Zm0-2.82c.56.34,1,.85,1.69.75.05,0,.13.12.19.19a.91.91,0,0,0,1.22,0,.53.53,0,0,1,.35-.2c1.06,0,1.54-.77,1.94-1.53a6,6,0,0,0,.36-1.61,5.84,5.84,0,0,0-.36-2.08c0-.05-.1-.08-.14-.13l-.63-.88c0-.06-.09-.16-.15-.18a6.62,6.62,0,0,0-1.42-.37,3.86,3.86,0,0,0-2.28.27c-.21.12-.77.7-.77.95C136.63,51.65,136.63,53.27,136.63,54.86Z"/><path class="cls-89" d="M119.43,46.79V41h3.49v.54q0,8.1,0,16.2c0,.72,0,.73-.73.73s-1.38,0-2.07,0c-.46,0-.8,0-.68-.65-.61-.13-1,.3-1.48.46-.14,0-.27.19-.4.19a13.86,13.86,0,0,1-3.18-.06,3,3,0,0,1-2.06-1.23A6,6,0,0,0,111.07,56s-.1,0-.12-.08c-.16-.47-.34-.93-.47-1.4-.08-.3,0-.66-.32-.87,0,0-.06-.12-.06-.18a5.35,5.35,0,0,1,.06-2.18c.29-.59.05-1.3.61-1.8a2.82,2.82,0,0,0,.4-.86,4.87,4.87,0,0,1,1.4-1.55,3,3,0,0,1,1.58-.71c.06,0,.17,0,.17-.07.14-.54.58-.36.93-.38.59,0,1.18,0,1.77,0,.36,0,.69-.08,1,.36S118.89,46.61,119.43,46.79Zm0,5.58c0-.56,0-1.12,0-1.67s.08-.8-.35-1.21a2.34,2.34,0,0,0-1.31-.67,7.17,7.17,0,0,0-1.28,0,2.07,2.07,0,0,0-1.81.78c-.37.48-.79.87-.75,1.54,0,.1-.11.22-.18.31a2.53,2.53,0,0,0,0,1.73,1.94,1.94,0,0,1,.2.46c.17.41.22.95.52,1.22a1.86,1.86,0,0,0,1.43.74.56.56,0,0,1,.41.18.83.83,0,0,0,1.26,0c0-.06.13-.14.19-.14.59.06,1-.34,1.42-.58a.39.39,0,0,0,.26-.43Q119.44,53.47,119.44,52.37Z"/><path class="cls-89" d="M25.45,52.34c0,1,0,1.87,0,2.76s0,1.71,0,2.56a.79.79,0,0,1-.78.78c-.75,0-1.51,0-2.26,0-.33,0-.45-.12-.45-.42,0-.13,0-.26,0-.39q0-7.71,0-15.41c0-.16,0-.32,0-.52.16,0,.29,0,.41,0,2.38,0,4.76,0,7.14,0a2.17,2.17,0,0,1,.67.26l.27.08c.49.12,1,.2,1.47.36a1.63,1.63,0,0,1,.53.42c.44.42.89.85,1.31,1.29a1.84,1.84,0,0,1,.27.44c0,.07,0,.2.07.23.5.27.28.77.39,1.17a8.32,8.32,0,0,1,.31,1.22c0,.22-.15.46-.23.69,0,.08-.09.16-.07.23.12.63-.36,1.08-.48,1.65,0,.14-.22.24-.34.36a19.91,19.91,0,0,1-1.47,1.34,3.35,3.35,0,0,1-1.82.6,3.19,3.19,0,0,0-.69.26,1.53,1.53,0,0,1-.47.09Zm0-5.35h0c0,.74,0,1.48,0,2.21s0,.7.67.7a13.69,13.69,0,0,0,1.38,0c.67-.07,1.33-.18,2-.3.08,0,.15-.13.22-.21s.11-.19.19-.25c.52-.38,1.11-.71,1.06-1.5a.46.46,0,0,1,.15-.28.43.43,0,0,0,0-.71.42.42,0,0,1-.14-.29,1,1,0,0,0-.42-1c-.42-.31-.73-.79-1.34-.82-.09,0-.18-.1-.27-.15s-.33-.27-.49-.28c-.85,0-1.7,0-2.56,0-.29,0-.41.1-.41.4C25.48,45.33,25.47,46.16,25.47,47Z"/><path class="cls-89" d="M43,58.45a14.46,14.46,0,0,1-1.82,0A5.22,5.22,0,0,1,39.92,58a3.71,3.71,0,0,1-.9-.46c-.41-.32-.76-.71-1.14-1.07-.11-.1-.24-.19-.34-.31a6.87,6.87,0,0,1-.86-1.64c-.66-1.28-.21-2.58-.29-3.86,0-.33.27-.68.45-1s.43-.69.65-1A3.11,3.11,0,0,1,39.18,47a8.21,8.21,0,0,0,1-.44c.2-.09.41-.15.62-.23s.25,0,.26-.1c.12-.46.49-.36.8-.36.89,0,1.77,0,2.66,0,.15,0,.31.15.46.24s.13.15.21.17c.47.13,1,.23,1.42.38a1.34,1.34,0,0,1,.51.35c.31.31.82.28,1.06.72s.8,1.06,1.17,1.61.08,1.28.62,1.76c.16.14.08.6.06.9,0,.54.2,1.14-.3,1.62-.08.08-.06.28-.05.43A2.13,2.13,0,0,1,49,55.57a9.71,9.71,0,0,0-.55.91,2.92,2.92,0,0,1-.35.36A7.63,7.63,0,0,1,46.35,58c-.12.07-.29,0-.43.09s-.45.19-.67.28a1,1,0,0,1-.32.08Zm-3.18-6.1a8.12,8.12,0,0,0,.08,1.09,2.33,2.33,0,0,0,.33.65,6.79,6.79,0,0,0,.53.88c.41.52,1.24.4,1.6,1,0,0,.09,0,.14,0a2.78,2.78,0,0,0,2.36-.62,2.45,2.45,0,0,0,.95-1,7.86,7.86,0,0,0,.63-1.86,3.39,3.39,0,0,0-.26-1.31,4.15,4.15,0,0,0-.83-1.66,1.77,1.77,0,0,0-1.26-.74.61.61,0,0,1-.28-.15,1,1,0,0,0-1.2,0,1.17,1.17,0,0,1-.34.15,8.43,8.43,0,0,0-1,.35c-.14.07-.17.38-.3.43-.86.27-.67,1.18-1.05,1.73C39.74,51.54,39.85,52,39.83,52.35Z"/><path class="cls-89" d="M99.64,53.14a1.51,1.51,0,0,0,.38,1.41c.33.48.62,1,1.32,1,.41.8,1.16.43,1.77.48a17.44,17.44,0,0,0,2,0c.09,0,.26,0,.27-.08.11-.49.52-.33.83-.41s.73-.24,1.14-.39c0,.21.05.31.05.4,0,.72,0,1.44,0,2.19a8.47,8.47,0,0,0-1.6.39c-1.5.69-3.06.27-4.6.31-.18,0-.35-.15-.53-.22l-.31-.11a10.54,10.54,0,0,1-1.74-.69,4,4,0,0,1-.91-1c-.39-.5-.76-1-1.11-1.53-.07-.09,0-.25-.06-.38,0-.29.05-.63-.3-.83-.08,0-.08-.27-.08-.41,0-.61,0-1.22,0-1.82,0-.32-.12-.7.29-.91,0,0,0-.09,0-.13A5.33,5.33,0,0,1,96.9,49a5.68,5.68,0,0,1,1.61-1.79c.58-.33,1.1-1,1.91-.85.06,0,.17,0,.18-.06.16-.55.62-.37,1-.38q1.13,0,2.26,0c.14,0,.27.15.41.22s.26.2.4.21a1.65,1.65,0,0,1,1.25.59,2.85,2.85,0,0,0,.81.46c.08,0,.21.11.21.17,0,.48.44.65.72.94a1.55,1.55,0,0,1,.44.8c.16,1.2.68,2.36.44,3.6a.38.38,0,0,1-.25.22,2.11,2.11,0,0,1-.49,0H99.64ZM105,51a2.36,2.36,0,0,0-1.66-2.48,2.58,2.58,0,0,0-2.95.61A2.25,2.25,0,0,0,99.6,51Z"/><path class="cls-89" d="M75.71,53.14a2.15,2.15,0,0,0,1.09,2.11,7.62,7.62,0,0,0,.72.33s.12,0,.13.06c.15.59.64.41,1,.42.8,0,1.61,0,2.41,0,.23,0,.48,0,.52-.32a.16.16,0,0,1,.09-.11c.49-.13,1-.26,1.48-.37.23-.05.36.06.36.33,0,.62,0,1.25,0,1.87a.44.44,0,0,1-.25.32,11.1,11.1,0,0,0-1.42.38c-1.47.68-3,.26-4.49.34-.62,0-1.06-.41-1.61-.58a2.21,2.21,0,0,1-.74-.28,14.85,14.85,0,0,1-1.84-1.69,5.21,5.21,0,0,1-.52-1.32,8.33,8.33,0,0,1-.25-3.81A4.62,4.62,0,0,1,72.9,49c.49-1,1.44-1.52,2.17-2.27a2.4,2.4,0,0,1,1-.37c.33-.1.78.08.93-.43,0,0,.21-.06.32-.06.9,0,1.8,0,2.71,0,.15,0,.3.16.45.25s.17.16.26.18a3.55,3.55,0,0,1,2.07,1.31,6.34,6.34,0,0,1,1,1.3,4.08,4.08,0,0,1,.5,2.1c0,.22.15.46.23.69,0,.08.09.16.07.22A7.23,7.23,0,0,1,84.28,53c0,.08-.29.09-.45.09H75.71ZM75.77,51c1.7,0,3.39,0,5.08,0,.13,0,.36-.12.38-.21a.86.86,0,0,0-.11-.54c-.17-.29-.49-.51-.57-.81a1.5,1.5,0,0,0-1.13-1,5.28,5.28,0,0,0-1.8,0,.4.4,0,0,0-.25.11c-.32.34-1,.33-1,1l0,0A1.19,1.19,0,0,0,75.77,51Z"/><path class="cls-89" d="M150,46.39c.64.56.54,1.3,1,1.86a4.57,4.57,0,0,1,.46,1.31,1.84,1.84,0,0,0,.19.37c0,.05.14.08.14.12a2.55,2.55,0,0,0,.43,1.27,11.37,11.37,0,0,1,.72,1.58c.08.19.06.42.12.62s.13.15.21.22a1.39,1.39,0,0,0,.18-.2,2.72,2.72,0,0,0,.49-1.31c0-.3.36-.59.55-.88,0,0,.09-.07.09-.11a6.15,6.15,0,0,1,.41-1.33c.17-.58.48-1.08.67-1.63,0-.12,0-.27.07-.38s.2-.4.28-.61a5.4,5.4,0,0,1,.15-.55c.07-.15.22-.35.34-.36,1,0,1.94,0,2.91,0,.09,0,.25.12.25.17a4.17,4.17,0,0,1-.15.79c0,.09-.18.14-.21.24-.16.45-.27.93-.46,1.37s-.5.9-.7,1.37-.29.91-.48,1.35-.4.78-.61,1.16c0,0-.08.07-.09.11-.16.45-.28.92-.47,1.36s-.47.85-.66,1.29-.25.85-.4,1.26-.32.83-.5,1.24c-.09.21-.2.41-.29.61-.17.39-.34.79-.51,1.18a3.14,3.14,0,0,0-.26.53c-.06.27,0,.6-.34.74,0,0,0,.08-.06.13-.15.46-.27.93-.45,1.37a4.81,4.81,0,0,1-.49.75l.07.13c-1.08,0-2.15,0-3.23,0-.25,0-.28-.18-.09-.37a1,1,0,0,0,.25-.32c.16-.44.26-.9.45-1.32a9.19,9.19,0,0,1,.62-.94,2.71,2.71,0,0,0,.11-.37c.09-.22.2-.43.31-.65l0,0c.18-.74.74-1.42.43-2.24a12.3,12.3,0,0,0-.65-1.25c0-.08,0-.18-.09-.26s-.19-.37-.29-.56-.07-.07-.08-.12c-.15-.46-.27-.92-.45-1.36s-.49-.91-.7-1.38-.32-.9-.5-1.34-.31-.7-.47-1l-.27-.56-.29-.56a7.46,7.46,0,0,1-.37-.73c-.2-.54-.38-1.09-.59-1.69Z"/><path class="cls-89" d="M87.11,46.39h3.45l.08.81,1-.6a3.85,3.85,0,0,1,.45-.21c.07,0,.21,0,.23-.06.35-.71,1-.33,1.54-.44a4.88,4.88,0,0,1,.93,0V48.8a10.08,10.08,0,0,0-1.27,0,5.49,5.49,0,0,0-1.67.36,4.92,4.92,0,0,0-1.22,1.06c-.09.09-.05.31-.05.47q0,3.55,0,7.09c0,.65,0,.65-.65.65H87.83c-.72,0-.72,0-.72-.7q0-3.3,0-6.6C87.11,49.59,87.11,48,87.11,46.39Z"/></g><g id="Capa_3" data-name="Capa 3"><g id="Kyi5ia.tif"><path class="cls-89" d="M205.85,53.11c0-3.12,0-6.24,0-9.35,0-1,.33-1.54,1.38-1.38s2.34-.53,3.2.68c0,.05.36-.07.53-.15,3.57-1.66,6.66-.65,8.26,2.83a11.23,11.23,0,0,1,0,9.53,5.62,5.62,0,0,1-7.75,3c-.74-.39-.8,0-.79.56,0,.92,0,1.84,0,2.76a1.32,1.32,0,0,1-1.33,1.6,16.67,16.67,0,0,0-2.23.45c-1,.28-1.29-.17-1.28-1.09C205.86,59.43,205.85,56.27,205.85,53.11Zm4.82-2.61h0c0,.68,0,1.36,0,2s-.06,1.57.86,1.91a2.54,2.54,0,0,0,2.61-.3c1.82-1.44,1.79-6-.05-7.39a2.5,2.5,0,0,0-2.61-.21c-.87.34-.81,1.09-.81,1.81S210.67,49.78,210.67,50.5Z"/><path class="cls-89" d="M230.21,52.28h-3.36c-.35,0-.77-.06-.94.35a1,1,0,0,0,.26,1,3.12,3.12,0,0,0,2.5,1.22,9,9,0,0,0,4-.58c.85-.34,1,0,1.07.77.1,2.76-.34,3.29-3.09,3.71a9.2,9.2,0,0,1-6.37-1,6,6,0,0,1-2.72-3.39c-1-3.17-1.07-6.33.8-9.23a6.37,6.37,0,0,1,6.83-3c2.69.43,4.14,2.26,5,4.68a12.35,12.35,0,0,1,.55,4.26c0,.89-.4,1.2-1.25,1.18-1.08,0-2.16,0-3.24,0Zm-2.43-3.62a4.62,4.62,0,0,0,.71,0c.54-.09,1.33.3,1.51-.52a1.74,1.74,0,0,0-.92-1.8,2.19,2.19,0,0,0-3,.69c-.24.4-.54.87-.31,1.33s.78.26,1.19.3S227.5,48.65,227.78,48.65Z"/><path class="cls-89" d="M174.84,42.07a13,13,0,0,1,3.43.47,1.18,1.18,0,0,1,1,1.3c0,.8,0,1.6,0,2.4s-.32,1-1,.66a8.35,8.35,0,0,0-3.75-.64c-.48,0-1,0-1.16.62s.31,1,.81,1.19c1.17.51,2.38.94,3.54,1.47a4.21,4.21,0,0,1,2.53,4,4.66,4.66,0,0,1-2.34,4.31,7.68,7.68,0,0,1-4,1.06,12.29,12.29,0,0,1-4.35-.75c-.43-.16-.84-.34-.85-.88,0-1,0-2.08,0-3.12,0-.71.45-.63.91-.43a12.5,12.5,0,0,0,3.57,1,2.86,2.86,0,0,0,1.19,0c.48-.14.93-.33,1-.9s-.33-.87-.77-1.1c-1.28-.65-2.7-1-4-1.71-3.36-2-2.45-6.51.15-8A7.54,7.54,0,0,1,174.84,42.07Z"/><path class="cls-89" d="M180.89,47.18c0-2.24,0-4.48,0-6.72A1.2,1.2,0,0,1,182,39.07c.91-.15,1.8-.36,2.7-.55.62-.13.91.12.94.73,0,.12,0,.24,0,.36.07.83-.31,1.8.21,2.46s1.51.2,2.28.32c.12,0,.27,0,.35.05,1.12.86.37,2.06.54,3.1.11.65-.31.89-.94,1-2.44.25-2.44.26-2.44,2.72,0,1.16,0,2.32,0,3.48,0,1.56.51,2.08,2,1.93,1.05-.1,1.4.15,1.38,1.25,0,2.62-.68,3.25-3.34,3.08a4.87,4.87,0,0,1-4.87-5.05c-.05-2.24,0-4.48,0-6.72Z"/><path class="cls-89" d="M190.43,50.45c0-2.28,0-4.55,0-6.83,0-.92.33-1.4,1.26-1.24s2.25-.58,3.06.68c.16.24.43,0,.61-.17a2.91,2.91,0,0,1,1.15-.61c1.6-.45,2.15,0,2.16,1.59a7.1,7.1,0,0,0,0,.84c.16,1.24,0,2-1.62,1.92-1.42,0-2,.79-2,2.28,0,2.75,0,5.51,0,8.26,0,1-.34,1.41-1.39,1.38-3.85-.1-3.22.49-3.28-3.19C190.41,53.73,190.43,52.09,190.43,50.45Z"/><path class="cls-89" d="M204.4,50.45c0,2.24,0,4.48,0,6.72,0,1.05-.38,1.45-1.41,1.37-.8-.06-1.6,0-2.4,0s-1-.28-1-1q0-7.08,0-14.17c0-.71.33-1,1-1s1.6,0,2.4,0c1-.08,1.44.32,1.41,1.37C204.37,46,204.4,48.21,204.4,50.45Z"/><path class="cls-89" d="M204.41,38.23c0,1.83,0,1.84-1.82,2.25l-1.52.32c-1.41.27-1.49.21-1.48-1.27,0-2.52-.29-2.27,2.17-2.77l.58-.14C204.41,36.15,204.41,36.15,204.41,38.23Z"/></g></g></svg>