<svg xmlns="http://www.w3.org/2000/svg" viewBox="0 0 261.67 132.15"><defs><style>.cls-1{fill:#020100;}.cls-2{font-size:15px;font-family:AzoSans-Medium, Azo Sans;}.cls-3{letter-spacing:-0.01em;}.cls-4{letter-spacing:0em;}.cls-5{letter-spacing:-0.02em;}.cls-6{letter-spacing:-0.04em;}.cls-7{fill:#4573bc;}.cls-8{fill:#eba70b;}.cls-9{fill:#db0000;}.cls-10{fill:#353380;}.cls-11{fill:#3b3486;}.cls-12{fill:#4874ba;}.cls-13{fill:#4e4743;}.cls-14{fill:#594e47;}.cls-15{fill:#517bbd;}.cls-16{fill:#4b76bd;}.cls-17{fill:#686868;}.cls-18{fill:#507abd;}.cls-19{fill:#4d78ba;}.cls-20{fill:#537dbe;}.cls-21{fill:#4b76bc;}.cls-22{fill:#547ec0;}.cls-23{fill:#517bbe;}.cls-24{fill:#577fc0;}.cls-25{fill:#4f7abf;}.cls-26{fill:#5b83bf;}.cls-27{fill:#eacb74;}.cls-28{fill:#fbfcf9;}.cls-29{fill:#fbfbf8;}.cls-30{fill:#fafaf6;}.cls-31{fill:#f6f2ef;}.cls-32{fill:#fff;}.cls-33{fill:#f6f0ee;}.cls-34{fill:#d33b22;}.cls-35{fill:#d44e4f;}.cls-36{fill:#d41f09;}.cls-37{fill:#d40a04;}.cls-38{fill:#f9fafa;}.cls-39{fill:#f8f7f7;}.cls-40{fill:#f7f5f5;}.cls-41{fill:#f5eff0;}.cls-42{fill:#d20e0e;}.cls-43{fill:#d01006;}.cls-44{fill:#d55257;}.cls-45{fill:#fefefd;}.cls-46{fill:#140a6c;}.cls-47{fill:#eff4f6;}.cls-48{fill:#e5edf4;}.cls-49{fill:#e7eff5;}.cls-50{fill:#fefefe;}.cls-51{fill:#e06600;}.cls-52{fill:#f2f7f6;}.cls-53{fill:#f3f7f8;}.cls-54{fill:#e6ab18;}.cls-55{fill:#e7b434;}.cls-56{fill:#e2950f;}.cls-57{fill:#d30e10;}.cls-58{fill:#d21210;}.cls-59{fill:#d14f50;}.cls-60{fill:#d22e31;}.cls-61{fill:#d22829;}.cls-62{fill:#211f76;}.cls-63{fill:#d09500;}.cls-64{fill:#070707;}.cls-65{fill:#090909;}.cls-66{fill:#0b0b0b;}.cls-67{fill:#080808;}.cls-68{fill:#de7514;}.cls-69{fill:#131313;}.cls-70{fill:#565656;}.cls-71{fill:#585858;}.cls-72{fill:#545454;}.cls-73{fill:#4b4b4b;}.cls-74{fill:#4a4a4a;}.cls-75{fill:#393939;}.cls-76{fill:#3f3f3f;}.cls-77{fill:#6a6a6a;}.cls-78{fill:#5c5c5c;}.cls-79{fill:#3a3a3a;}.cls-80{fill:#efeff2;}.cls-81{fill:#fbfbfb;}.cls-82{fill:#f2f2f2;}.cls-83{fill:#e48e41;}.cls-84{fill:#f7f7f7;}.cls-85{fill:#e9a86d;}.cls-86{fill:#eec196;}.cls-87{fill:#f3d9bc;}</style></defs><title>Mesa de trabajo 1</title><g id="Capa_2" data-name="Capa 2"><rect class="cls-1" x="18.62" y="34.82" width="228.02" height="34.01" rx="12" ry="12"/></g><g id="Capa_4" data-name="Capa 4"><text class="cls-2" transform="translate(73.89 31.02)">Secu<tspan class="cls-3" x="33.69" y="0">r</tspan><tspan class="cls-4" x="39.31" y="0">e </tspan><tspan class="cls-5" x="51.4" y="0">P</tspan><tspan class="cls-6" x="60.58" y="0">a</tspan><tspan x="68.02" y="0">yments</tspan></text></g><g id="Capa_6" data-name="Capa 6"><g id="krqOTb.tif"><path class="cls-7" d="M231.88,97.6c3.13,0,6.27-.08,9.39.09,1.15.06,1.11-1.2,1.91-1.21s.76,1.29,1.91,1.2a71.75,71.75,0,0,1,7.33,0c1,0,1.2-.39,1.18-1.27,0-1.85-.06-3.7,0-5.55,0-1-.35-1.33-1.34-1.29-4.77.17-9.55.08-14.32.11-5.64,0-11.29,0-16.94-.11-1.16,0-2.17,0-2.49,1.92-.45-1.88-1.46-2-2.67-1.92a38.1,38.1,0,0,1-4.32,0c-1.36-.07-2.57,0-2.88,1.75a1.16,1.16,0,0,1-.3-1.09c0-5,0-10.08,0-15.12,0-1.15.3-1.48,1.47-1.47q22.14.06,44.29,0c1.24,0,1.56.37,1.55,1.57q-.08,11.26,0,22.53c0,1.26-.41,1.53-1.58,1.52-6.23-.05-12.46,0-18.69,0H228c-.67,0-1.34-.08-1.81.58a.5.5,0,0,1-.78.15c-2.41-1.57-5.07-.4-7.6-.68-.56-.06-.49.55-.49.95,0,2.06,0,4.12,0,6.17,0,.83.33,1.06,1.1,1a29.6,29.6,0,0,0,5.38-.1,6.78,6.78,0,0,1,3.78,0,10.14,10.14,0,0,0,2.61.06c.74,0,1.21-.15,1.11-1s.63-.8,1.21-.9c.75-.13.75.35.71.82-.06.79.27,1.11,1.07,1.09,5.08-.15,10.17.14,15.25-.13,1.82-.1,3.67.23,5.51,0,.71-.09.57.43.58.8,0,4,0,8,0,12,0,.92-.5,1-1.18,1-2.11,0-4.22,0-6.33,0-12.65,0-25.31,0-38,0-1.53,0-1.85-.43-1.83-1.88.08-6.69,0-13.37,0-20.06,0-1,.63-1.12,1.24-1.67,1.66-1.5,2.77.15,4.1.14,4.11,0,8.23,0,12.34,0,1.75,0,3.49,0,5.24-.06A.45.45,0,0,1,231.88,97.6Z"/><path class="cls-8" d="M135.91,101.64a16.55,16.55,0,0,1-26.32,8.86c-.32-.25-.68-.44-1-.66-.3-.7-1.76-.46-1.46-1.47s1.51-.51,2.26-.78a17,17,0,0,1-2.25,0c-.7-.08-1.46-.31-1.48-1.08s.83-.9,1.49-1a34.09,34.09,0,0,1,3.67,0,32,32,0,0,0-3.66-.12,7,7,0,0,1-1.53-.1c-.52-.12-1-.34-1-1s.61-.64,1.06-.67c1.48-.11,3,0,4.46-.06a4.15,4.15,0,0,0,1.92-.25c-2-.21-3.76-.07-5.51-.11a15.08,15.08,0,0,1-1.69,0c-.5-.07-1.14-.07-1.15-.76s.53-.82,1.06-.92a3.53,3.53,0,0,1,1.07,0c1.64.38,3.29-.1,4.93,0,.58-.12,1.18,0,1.83-.14-.63-.15-1.28,0-1.76-.44a1,1,0,0,1,.38-1.09,3,3,0,0,1,2-.17,3,3,0,0,1,1.1.76,2.82,2.82,0,0,0,3.59.17.83.83,0,0,1,1.28.09c1.07,1.09,2.31.48,3.48.29.4-.06.46-.51.53-.86.12-.55.28-1.09.38-1.65.16-.8.47-1.72-.29-2.3a2.68,2.68,0,0,0-2.89-.08c.22.53.64.36,1,.44s1,.09,1,.7-.6.62-1,.73a3.29,3.29,0,0,0-2.14,1.07,2.54,2.54,0,0,1-1.48,1.25A2.12,2.12,0,0,1,114.89,99,3.05,3.05,0,0,1,117,95.15c.48-.1,1,.12,1.6-.28a2.63,2.63,0,0,0-3.17-.07c-.57.31-1,.88-1.77.81-2.75-.1-5.51,0-8.26,0a3.47,3.47,0,0,1-1.93-.31.87.87,0,0,1-.17-1c.57-.6,1.32-.47,2-.48,2.23,0,4.47,0,6.7,0h-6.62a4.09,4.09,0,0,1-.77-.05c-.51-.1-1.08-.2-1-.89s.61-.75,1.12-.82a13.8,13.8,0,0,1,1.85-.05,52.63,52.63,0,0,0,5.36-.16c-1.91-.24-3.82-.12-5.73-.19-.72,0-1.86.23-1.88-.78s1.13-1,1.93-1c1.54-.06,3.08,0,4.62-.15a27.63,27.63,0,0,0-3.79-.22c-.64-.05-1.72.26-1.72-.73s1-1,1.81-1,1.54,0,2.38,0c-.62-.08-1.18,0-1.73-.09s-1-.09-1.07-.68.36-.82.83-.94,1-.27,1.15-.86c8.13-6.61,18.56-5.47,24.63,2.8a16.06,16.06,0,0,1,2.79,12.87.53.53,0,0,1-.28.06c-.47,0-1-.63-1.37-.12s0,.61.46.58c.25,0,.46-.27.69-.24C136.11,101,136,101.35,135.91,101.64Z"/><path class="cls-9" d="M106,102c-.69.22-2-.38-2,.47s1.26.43,1.95.46c1.9.07,3.8,0,5.7,0,.46,0,1.25-.3,1.29.39.05.88-.8.74-1.4.75-1.9,0-3.8,0-5.7,0-.36,0-1-.23-1,.31s.56.6,1,.6c1.69,0,3.39,0,5.08,0,.38,0,1.08-.29,1.07.42s-.62.74-1.17.72c-1.28,0-2.56-.11-3.84-.13-.41,0-1.12-.22-1.13.41s.67.66,1.19.67h3.75c-.41,1.45-1.46.85-2.21,1-.42.09-1.12-.25-1.2.27-.1.68.61.64,1.11.68,1.39.11.21.51.09.79a19.21,19.21,0,0,1-6.87,3.69,16.67,16.67,0,0,1-9.39-32A16.24,16.24,0,0,1,107.23,84a4.59,4.59,0,0,0,1.53,1c.11.38.7.48.62,1-.72.52-2.22-.46-2.25.79,0,.61,1.51.17,2.33.29.62.09,1.4-.17,1.54.88-1.78.47-3.77-.37-5.69.64A2,2,0,0,0,107,89c1.28,0,2.57,0,3.85,0,.57,0,1.35.07,1.34.73s-.81.38-1.24.39c-1.8,0-3.59,0-5.39,0-.45,0-1.08-.06-1,.59s.65.33,1,.34c2.11,0,4.21,0,6.32,0,.49,0,1.18-.14,1.21.59s-.73.52-1.16.53c-2.31,0-4.62,0-6.93,0-.43,0-1.12-.18-1.14.44,0,.81.76.48,1.19.48,2.46,0,4.93,0,7.39,0,.46,0,1.21-.21,1.15.58s-.73.39-1.14.39c-3,0-6,0-8.93,0a2.67,2.67,0,0,0-1.64,2.31c-.22,1.31,0,2.75-1,3.89-.83-.79-1.26-1.91-2.26-2.61-.54-.37-.24-.91.39-1.13.41-.15,1,0,1.24-.68a2.93,2.93,0,0,0-2.88.41c-.42.36-.78.9-1.44.39a2.86,2.86,0,0,0-3.79-.51c.55.46,1.23.2,1.76.44.29.13.57.29.59.63s-.33.47-.61.56c-.59.18-1.2.26-1.78.48A1.55,1.55,0,0,0,91,100.34c.23,1,1,1.08,1.82.9a9.07,9.07,0,0,1,2.29-.18c.37,0,.73.14,1.11.13,1.5.06,3,.18,4.29-.88a2.42,2.42,0,0,0,3.19.51,1.56,1.56,0,0,1,.66-.09,3.21,3.21,0,0,1,1.62.8A.48.48,0,0,1,106,102Z"/><path class="cls-10" d="M78.45,77.23c0,.46.07.92.07,1.38,0,12.55,0,25.09,0,37.64,0,1.27-.18,1.76-1.64,1.75-20.72-.06-41.44,0-62.16-.05-.48,0-1,.24-1.44-.24a.33.33,0,0,1,.07-.49,1.51,1.51,0,0,1,.53-.23c.19,0,.39-.07.58-.09,17.13-.08,34.26,0,51.39,0h8.8c2.66,0,2.67,0,2.67-2.6q0-17.05,0-34.11a8,8,0,0,1,.17-2.45C77.71,77.31,77.91,76.94,78.45,77.23Z"/><path class="cls-11" d="M78.45,77.23a.67.67,0,0,0-.66.41,4.41,4.41,0,0,1-2.7.39H17.38c-2.94,0-2.94,0-2.94,2.95q0,16.9,0,33.79a4,4,0,0,1-.41,2.54l-.4,0a2.85,2.85,0,0,1-.14-1.51q0-18.37,0-36.73c0-.44-.18-.92-.07-1,0,0,.05.43.05.79q0,18.37,0,36.73a6.68,6.68,0,0,1-.07,1.69l-.09.43c-.33-.46-.17-1-.17-1.49,0-12.55,0-25.1,0-37.65,0-1.3.25-1.73,1.67-1.73,20.73.05,41.45,0,62.18.05C77.43,76.89,78.08,76.54,78.45,77.23Z"/><path class="cls-12" d="M218.81,103.24c0-2.59,0-2.56,2.62-2.59,1.46,0,2.86-.12,3.77,1.41.41.69.83.15,1.2-.24,1.05-1.09,5.09-1.66,6.46-.93a1.58,1.58,0,0,1,.89,1.65,1.48,1.48,0,0,1-1.22,1.41,10.61,10.61,0,0,1-1.84.13c-.5,0-.92,0-.94.71,0,.41.25,1.06-.44,1.12s-1.73.4-2.29-.43c-.91-1.34-1.74-1.55-2.69-.06A1.38,1.38,0,0,1,223,106c-.46,0-.93,0-1.39,0C218.81,106,218.81,106,218.81,103.24Z"/><path class="cls-13" d="M203.43,78.17q0,10.71.07,21.42c0,5.34,0,10.69,0,16,0,1.14-.37,1.5-1.51,1.5q-29.6,0-59.19,0a6.94,6.94,0,0,1-.76-.08.48.48,0,0,1,.06-.72,1.31,1.31,0,0,1,.53-.13,28.41,28.41,0,0,0,5.65-.2c2.7-.15,5.4.14,8.1.22a47,47,0,0,0,5.86,0H199c.51,0,1,0,1.54,0,1.66-.05,1.82-.2,1.83-1.91,0-3.91,0-7.82,0-11.73a16.09,16.09,0,0,1,.09-2.47,3.61,3.61,0,0,1,.1-.59,5.87,5.87,0,0,0,.17-2c0-5.81,0-11.62,0-17.43C202.76,79.44,202.46,78.56,203.43,78.17Z"/><path class="cls-14" d="M203.43,78.17c-.43.49-.25,1.08-.25,1.63,0,6.12,0,12.24,0,18.36,0,.53.23,1.15-.31,1.59a3.14,3.14,0,0,1-.48-2.35c0-5.51,0-11,0-16.52,0-2.11-.1-2.21-2.15-2.21H145c-2,0-2.09.1-2.09,2.09q0,16.52,0,33c0,.9.21,1.87-.5,2.65h-.3a2,2,0,0,1-.15-1.2q0-18.1,0-36.21a2.61,2.61,0,0,1,.12-1.21h0a3.13,3.13,0,0,1,1.37-.12h58.48a3.09,3.09,0,0,1,1.37.12A.25.25,0,0,1,203.43,78.17Z"/><path class="cls-15" d="M214.27,96.06c.94-1.28.19-2.73.42-4.08.08-.44-.07-1,.59-1.06s1.16-.21,1.53.41c.21.35.35.74.56,1.09.41.68.41,2,1.18,2s.71-1.32,1.13-2a9.1,9.1,0,0,0,.44-1c.32-.68.94-.51,1.48-.49s.66.52.66,1q0,1.77,0,3.54c0,.37,0,.78-.5.81s-.62-.41-.63-.84c0-1,0-2,0-3.34a11.68,11.68,0,0,0-1.73,3.2c-.23.44-.3,1.05-1,1s-.64-.59-.83-1a12.81,12.81,0,0,0-1.75-3c0,.72,0,1.44,0,2.17,0,2.07-.25,2.24-2.45,1.62A.62.62,0,0,1,214.27,96.06Z"/><path class="cls-16" d="M237.17,93.86a2.61,2.61,0,0,1,2.9-3c.36,0,.77,0,.78.5s-.4.48-.76.54c-1.63.24-2,.77-1.79,2.26a1.25,1.25,0,0,0,1.18,1.2,1.09,1.09,0,0,0,1.3-.79c.35-.91.78-1.78,1.13-2.69.24-.63.5-1.06,1.29-1a1.23,1.23,0,0,1,1.23.93c.49,1.18,1,2.35,1.51,3.54.12.3.4.7-.1.91-.31.13-.55-.09-.78-.34a2.52,2.52,0,0,0-3.8,0c-.81.83-1.82.46-2.72.2C237.42,95.74,237.27,94.71,237.17,93.86Z"/><path class="cls-17" d="M203.23,77.82c-.46,0-.92.06-1.38.06H143.4c-.46,0-.92,0-1.38-.06a2.68,2.68,0,0,1,1.65-.18h58.08C202.24,77.63,202.77,77.48,203.23,77.82Z"/><path class="cls-18" d="M251,94.42c0-.75,0-1.49,0-2.24,0-.46-.24-1.19.52-1.22s.58.69.59,1.16c0,1,0,1.95,0,2.92,0,.48.19,1.1-.55,1.24a1.29,1.29,0,0,1-1.56-.64c-.61-1.11-1.31-2.17-2.09-3.46a9.13,9.13,0,0,0-.31,3.32c0,.37,0,.77-.52.78s-.47-.41-.47-.77c0-1.13,0-2.25,0-3.38,0-.45-.26-1.11.54-1.21a1.36,1.36,0,0,1,1.57.65c.56,1,1.2,2,1.81,3Z"/><path class="cls-19" d="M234.7,103.33c0-2.75,0-2.75,3-2.67,2,.05,2.46.68,1.57,2.48-.17.36-.16.54.1.77a1.46,1.46,0,0,1,.37,1.28c0,.35,0,.77-.51.76s-.49-.32-.48-.65c0-1.78-1.33-1.31-2.31-1.38-.59,0-.52.49-.55.89s.21,1.18-.62,1.11-.46-.77-.5-1.22A13.35,13.35,0,0,1,234.7,103.33Z"/><path class="cls-20" d="M229,93.54c0-2.9,0-2.9,2.85-2.64,2.12.2,2.42.65,1.6,2.61-.27.65.4.75.47,1.16.09.58.46,1.36-.36,1.56s-.61-.59-.68-1.07c-.19-1.26-1.2-.81-1.94-.91s-.93.37-.91,1c0,.38.14.94-.45,1s-.54-.6-.56-1S229,94.1,229,93.54Z"/><path class="cls-21" d="M214.27,96.06h-.89a2.54,2.54,0,0,0-3.92-.23c-.25.3-.46.61-.86.35s-.13-.55,0-.83c.52-1.23,1.07-2.45,1.57-3.69a1.11,1.11,0,0,1,1.17-.78,1.08,1.08,0,0,1,1.17.77C213.06,93.13,213.68,94.59,214.27,96.06Z"/><path class="cls-22" d="M240.85,103.27c0-2.67,0-2.69,2.89-2.61.44,0,1.22-.33,1.22.45,0,.59-.72.38-1.15.41s-.82,0-1.23,0-.71.14-.67.63a.61.61,0,0,0,.71.63h1.54c.36,0,.81,0,.79.48s-.48.44-.84.44h-1.39c-.41,0-.7.1-.72.58s.25.73.75.72,1.13,0,1.7,0c.28,0,.53.12.57.41s-.3.49-.61.5c-.93,0-1.85,0-2.78,0-.61,0-.79-.33-.78-.88S240.85,103.89,240.85,103.27Z"/><path class="cls-23" d="M247.84,106c-.31,0-.62,0-.93,0s-.79,0-.73-.54.42-.38.72-.39c.62,0,1.23,0,1.85,0a.63.63,0,0,0,.65-.55c0-.46-.27-.62-.67-.67a11.32,11.32,0,0,1-1.53-.16,1.35,1.35,0,0,1-1.17-1.26,1.38,1.38,0,0,1,.82-1.51,7.28,7.28,0,0,1,3-.19.35.35,0,0,1,.36.4c0,.17-.21.41-.35.43-.51.07-1,0-1.54.08s-1.18-.16-1.23.57.64.63,1.13.67h.46c1,0,1.81.34,1.82,1.45s-.73,1.63-1.81,1.67c-.31,0-.62,0-.93,0Z"/><path class="cls-24" d="M223.57,93.54c0-2.87,0-2.87,3.14-2.67.4,0,.95-.09,1,.47s-.54.46-.92.49-.82,0-1.23,0-1,0-.94.71.54.58,1,.66c.65.12,1.83-.41,1.83.38s-1.18.29-1.82.39-1.06,0-1,.81.53.59,1,.67c.71.12,2-.38,2,.39,0,1-1.34.45-2.06.46C223.11,96.33,223.64,96.61,223.57,93.54Z"/><path class="cls-25" d="M254,100.66a1.28,1.28,0,0,1,.31,0c.44.11,1.24-.3,1.25.44s-.78.42-1.25.49c-.1,0-.21,0-.31,0-.55.11-1.46-.33-1.52.56s.85.66,1.41.68c1,0,1.93.28,2,1.48s-.86,1.72-2,1.65c-.8,0-2.22.51-2.27-.39s1.32-.33,2.05-.5c.44-.1,1,0,1-.64s-.55-.64-1-.67c-.26,0-.52,0-.77,0-.88-.14-1.62-.48-1.59-1.53a1.5,1.5,0,0,1,1.61-1.52c.36,0,.72,0,1.08,0Z"/><path class="cls-17" d="M142,77.81q0,19.31,0,38.62v.6c-.55-.3-.32-.82-.32-1.24q0-18.44,0-36.87C141.73,78.54,141.55,78.08,142,77.81Z"/><path class="cls-26" d="M236.25,93.6c0,.67,0,1.34,0,2,0,.33-.08.63-.47.67a.58.58,0,0,1-.71-.61q0-2.15,0-4.3a.49.49,0,0,1,.53-.46.51.51,0,0,1,.6.54c0,.72,0,1.44,0,2.16Z"/><path class="cls-27" d="M135.91,101.64c-.11-.11-.14-.54-.27-.35-.56.85-1.11.55-1.65.07s-.1-.77.13-1.1c.56-.79,1.05-.22,1.55.1l.52.31A1.07,1.07,0,0,1,135.91,101.64Z"/><path class="cls-7" d="M231.88,97.6l-.63,0c.06-.55-.17-1.16.3-1.8C232,96.43,231.79,97,231.88,97.6Z"/><path class="cls-28" d="M129.36,96a1.44,1.44,0,0,1,1.41-.44c1.06.35,1.72.39,1.85-1,0-.53.77-.36,1.21-.31s.38.5.32.84q-.49,2.88-1,5.76c-.06.35-.13.93-.51.81-1.37-.42-2.9.77-4.12-.38s-1-2.37-.48-3.69A5.86,5.86,0,0,1,129.36,96Z"/><path class="cls-29" d="M118.91,98.86c.71-1.41,2.23-.93,3.44-1.41-.48-.82-1.17-.44-1.76-.48-.36,0-.89.34-1-.3a.91.91,0,0,1,.63-1.1c1.2-.24,2.5-.52,3.53.34.86.72.51,1.77.23,2.68-.13.43.06.92-.29,1.31s.38,1.81-.66,1.71c-1.38-.14-3,1-4.15-.55A2.83,2.83,0,0,1,118.91,98.86Z"/><path class="cls-30" d="M118.91,98.86l0,2.21c-.23,0-.27-.54-.56-.31-1.83,1.47-3.45,1.24-4.94-.73a1.79,1.79,0,0,1-.61-1.12,2.07,2.07,0,0,1,0-.84c.11-.39.21-.78.3-1.18a2.27,2.27,0,0,1,.14-.38c.24-.39.31-.91.82-1.1a4.16,4.16,0,0,1,4.14-1.46c.66.09,1.19.29,1.06,1.16s-.71.61-1.26.53a2.18,2.18,0,0,0-2.74,1.8c-.23,1-.33,2.05.85,2.49A2.1,2.1,0,0,0,118.91,98.86Z"/><path class="cls-31" d="M103.76,101c-1.27,1.22-2.68.92-3.07-.65l0,0a24.06,24.06,0,0,0,.95-4.86c.18-1.27.71-1.67,1.89-1.29q0,.44,0,.87c1.32.64.92,1.45.22,2.29-.67,1-1.06,2,0,2.95A.43.43,0,0,1,103.76,101Z"/><path class="cls-32" d="M129.36,96A3.55,3.55,0,0,1,128,97.56c-.92-1-1.27,0-1.47.56a11.27,11.27,0,0,0-.57,2.69c-.1.86-.61,1-1.29.89s-.56-.7-.48-1.18q.34-2,.73-4.09c.08-.44.26-1.22.72-.92.91.59,2.28-.8,2.89.74C128.57,96.26,129.08,96.07,129.36,96Z"/><path class="cls-33" d="M111.2,100,111,101a.66.66,0,0,1-.19.75c-1.6.26-1.69.19-1.92-1.4a3.44,3.44,0,0,1,.09-.78,15.64,15.64,0,0,0,.51-2.69c.33-1.46.66-1.71,2-1.49a1.94,1.94,0,0,0,.87.11c1.38-.36,1.17.42.88,1.25l0,0a3.09,3.09,0,0,1-1.27,1.2,2.56,2.56,0,0,0-.39,1.07A2.43,2.43,0,0,1,111.2,100Z"/><path class="cls-34" d="M113.33,96.7c0-.67.38-1.65-1-.94-.15.08-.3.22-.54.07C110.49,95,110,95.75,109.9,97c-.14.3-.31.51-.68.31-1.67-2.06-3.33-2-4.81.24a.85.85,0,0,1-.56.46c-.31-.13-.5-.33-.38-.69.67-.71,1-1.44.06-2.2,2.91,0,5.83,0,8.74,0,.6,0,1.24-.16,1.77.27Z"/><path class="cls-35" d="M109.3,100.06c-.17,1.19.15,1.88,1.52,1.49q.26.23,0,.39a19.79,19.79,0,0,1-4.77,0l-.09-.33c.92-.65,2.4-.21,3-1.55A.39.39,0,0,1,109.3,100.06Z"/><path class="cls-36" d="M111.2,100a1.43,1.43,0,0,1,.24-1.21,1.08,1.08,0,0,1,1.54,0,1.87,1.87,0,0,1,.39,1.15Z"/><path class="cls-37" d="M110.77,101.95l0-.39.22-.6c.66,0,1.32,0,2,0,.26,0,.52.06.56.39a.5.5,0,0,1-.52.61C112.3,102,111.54,102,110.77,101.95Z"/><path class="cls-38" d="M88,98.84c-.3.71-.66,1.4-.89,2.13s-.89.69-1.49.71c-.81,0-.69-.58-.72-1.07a9.57,9.57,0,0,0-.49-2.83c-.18,1-.4,2.07-.53,3.11-.1.8-.6.85-1.21.79-.79-.07-.5-.63-.44-1,.3-1.83.68-3.64.92-5.48.2-1.54,1.31-.91,2.11-1s.92.5,1,1.16a6.11,6.11,0,0,0,.29,2.32,5.25,5.25,0,0,0,1-2.05,2.34,2.34,0,0,1,3-1.43c.65.19.4.6.33,1-.31,1.76-1,3.45-1,5.27-.44,1.29-.77,1.41-1.57.56l.08-1.12a1.44,1.44,0,0,0,.07-.91,2.82,2.82,0,0,1,0-.7A1.73,1.73,0,0,1,88,98.84Z"/><path class="cls-39" d="M108.94,100.14c-.16,2.21-1.91,1.21-3,1.5l-1.43-.67c-.91-.88-1.53-1.83-.75-3.12.56-1,1.05-2,2.28-2.29a2.51,2.51,0,0,1,3.35,1.73,1.94,1.94,0,0,1-.15,1.87c-.73.63-1.66.23-2.52.48C107.34,100.38,108.35,99.35,108.94,100.14Z"/><path class="cls-40" d="M95.24,101.36a30.52,30.52,0,0,1-3.46.35c-.89,0-1.33-.69-1.36-1.57A2.06,2.06,0,0,1,92,98a20.09,20.09,0,0,1,2.45-.44c-.57-.93-1.35-.52-2-.59-.34,0-.87.41-1-.26a1,1,0,0,1,.52-1,3.76,3.76,0,0,1,4.09.95,5.79,5.79,0,0,1,.25.72A8.47,8.47,0,0,1,95.24,101.36Z"/><path class="cls-41" d="M96.11,97.41l0-.82c.15.12.4.34.49.13.71-1.59,2.13-1.3,3.43-1.32.46,0,1,0,.87.72-.08.49-.25.88-.88.77a2.67,2.67,0,0,0-.76,0c-.3,0-.68.07-.67.46a.75.75,0,0,0,.48.52,2.09,2.09,0,0,1,1.64,2.53l0,0c-1.18,1.77-2.93,1.41-4.63,1.26-.71-1.31-.51-1.53,1.92-1.85A3.58,3.58,0,0,1,96.11,97.41Z"/><path class="cls-42" d="M96.11,97.41c.67.75,1.1,1.75,2.26,2a.4.4,0,0,1,.22.62c-.31.48-.82.42-1.26.32-1.16-.26-1.73,0-1.27,1.29l-.83-.25Z"/><path class="cls-43" d="M103.73,97.85a4.68,4.68,0,0,0,.75,3.12l-.72,0c-1.45-.78-1.08-2-.82-3.23.07-.32.29-.38.52-.47Z"/><path class="cls-44" d="M88,98.84l.56-1.65a3.83,3.83,0,0,1-.19,2.64C88.21,99.52,88.48,99,88,98.84Z"/><path class="cls-40" d="M88.31,100.94c.93.94,1.15-.09,1.57-.56,0,.6.19,1.32-.78,1.3C88.65,101.67,87.91,101.89,88.31,100.94Z"/><path class="cls-45" d="M14,117.32c0-.46-.1-.92-.1-1.38,0-12.29,0-24.59,0-36.88,0-1.07.14-1.51,1.39-1.51q30.71.07,61.42,0c.36,0,.72,0,1.08.06,0,12.7,0,25.4,0,38.1,0,1.31-.39,1.58-1.63,1.58Q45.11,117.28,14,117.32Z"/><path class="cls-46" d="M13.4,117.28V77.65h.24q0,19.85,0,39.71A.38.38,0,0,1,13.4,117.28Z"/><path class="cls-47" d="M221.75,101.61c1.35,0,2.92.86,3,1.63s-1.64,1.77-3,1.77a2.39,2.39,0,0,1-.46,0c-.49-.1-1.29.32-1.31-.59s.79-.53,1.27-.62a6.74,6.74,0,0,1,.77,0c.39,0,.9.09.87-.56s-.47-.44-.82-.46-.72,0-1.08,0-1,.08-1-.62.63-.5,1-.54A7.16,7.16,0,0,1,221.75,101.61Z"/><path class="cls-48" d="M228.66,101.18a20.86,20.86,0,0,1-.09,4.15C226.11,103.66,226.1,103.26,228.66,101.18Z"/><path class="cls-49" d="M231.17,103.14c-.61,0-1.33.18-1.36-.79s.62-.77,1.15-.75,1.49-.2,1.52.76S231.72,103.1,231.17,103.14Z"/><path class="cls-50" d="M142.35,116.43c0-12.18,0-24.36,0-36.53,0-1.4.34-1.77,1.76-1.76q28.52.08,57,0c1.33,0,1.83.22,1.81,1.71-.11,6.63-.07,13.26-.08,19.88l0,0a6.51,6.51,0,0,1-2.78,2.11,122.13,122.13,0,0,1-24.79,10.53,138.89,138.89,0,0,1-14.33,3.67,20.28,20.28,0,0,1-4.58.48l-13.09.06A4.46,4.46,0,0,1,142.35,116.43Z"/><path class="cls-51" d="M156.33,116.56c16.42-3,32.12-8,46.48-16.79q.05,8,.11,16c0,.67-.31.93-.95.88-.15,0-.31,0-.46,0l-44.11,0A10.13,10.13,0,0,1,156.33,116.56Z"/><path class="cls-32" d="M243.13,91.91c.48.72,1.1,1.31.7,2.08-.18.34-1,.33-1.25,0C242.05,93.26,242.75,92.68,243.13,91.91Z"/><path class="cls-52" d="M237.14,101.6c.53.07,1.29-.16,1.26.69s-.78.64-1.3.62-1.24.27-1.2-.67S236.68,101.72,237.14,101.6Z"/><path class="cls-53" d="M231.28,93.3c-.46-.09-1.13.22-1.16-.61s.71-.69,1.21-.69,1.33-.23,1.35.58S231.84,93.21,231.28,93.3Z"/><path class="cls-54" d="M129.68,98.62a1.48,1.48,0,0,1,1.24-1.55c.82-.11.93.65.91,1.3,0,.9-.36,1.7-1.33,1.79C129.76,100.22,129.68,99.53,129.68,98.62Z"/><path class="cls-55" d="M121.1,100.37c-.44,0-.75-.22-.65-.65.15-.63.69-.81,1.27-.86.35,0,.62.14.52.52A1.22,1.22,0,0,1,121.1,100.37Z"/><path class="cls-56" d="M113,98.88l-1.54,0a1.41,1.41,0,0,1,.26-1.17c.47,0,1-.2,1.33.29Z"/><path class="cls-57" d="M113,98c-.45,0-1,.12-1.33-.29.4-.58,1.29-.38,1.66-1C113.12,97.06,113.48,97.61,113,98Z"/><path class="cls-58" d="M108.94,100.14c-.81,0-1.6.39-2.42.13-.41-.13-.84-.39-.83-.8,0-.64.61-.36,1-.38.77,0,1.54,0,2.3,0,.34,0,.52.07.44.44l-.1.54Z"/><path class="cls-59" d="M109.39,99.53l-.44-.44c.46-.53.26-1.2.4-1.8l.55-.3A8.63,8.63,0,0,1,109.39,99.53Z"/><path class="cls-60" d="M106.89,97.92c-.4-.09-.93.14-1-.35s.44-.77.94-.79a.71.71,0,0,1,.78.6C107.76,98.11,107.11,97.75,106.89,97.92Z"/><path class="cls-61" d="M94.14,99.29A1.24,1.24,0,0,1,93,100.35c-.41,0-.76-.11-.7-.58.09-.69.69-.83,1.25-.93C93.86,98.79,94.17,98.83,94.14,99.29Z"/><path class="cls-62" d="M45.85,88.74c-9.51,0-19,0-28.53,0-1.21,0-1.59-.28-1.53-1.52.1-2.31.1-4.63,0-6.94,0-1.18.31-1.46,1.46-1.45,12.65,0,25.29,0,37.94,0,6.43,0,12.85,0,19.28,0,1.16,0,1.51.29,1.46,1.46-.09,2.36-.08,4.73,0,7.09,0,1.1-.33,1.36-1.39,1.36C65,88.72,55.41,88.74,45.85,88.74Z"/><path class="cls-63" d="M45.89,115.87c-9.52,0-19,0-28.55,0-1.21,0-1.62-.3-1.56-1.54.1-2.21.11-4.43,0-6.63-.07-1.37.35-1.71,1.71-1.71q27.39.07,54.79,0c3.61,0,3.61,0,3.61,3.6,0,1.59-.07,3.19,0,4.78.07,1.16-.31,1.47-1.47,1.46C64.93,115.85,55.41,115.87,45.89,115.87Z"/><path class="cls-62" d="M65.24,97.63c.08,1.79.12,3.59.27,5.38.08,1-.21,1.32-1.25,1.33-1.41,0-2.6,0-2.21-1.92a.88.88,0,0,0-.19-.7c-.64-.62-4,0-4.19.84-.47,1.79-1.72,1.85-3.19,1.76-.86-.05-.79-.34-.47-.93q3.29-6,6.55-12c.64-1.19,1.74-.49,2.63-.66,1.35-.26,1.9.24,1.84,1.7-.07,1.74.14,3.48.22,5.23Z"/><path class="cls-62" d="M26.35,90.61c1.82,0,3.64,0,5.46,0,.81,0,.59.7.6,1.16a48.41,48.41,0,0,0,.36,6.95c1.2-2,2.42-4.09,3.61-6.15s1.39-2.23,4.16-1.66l-5,8.3a26.94,26.94,0,0,0-1.88,3.17c-.73,1.71-2,2.12-3.67,2-.83-.08-1-.35-1-1.11,0-2.82-.17-5.64-.2-8.46,0-1.84,0-3.63-2.76-3.77Z"/><path class="cls-62" d="M48.07,104.48a7.46,7.46,0,0,1-3-.56c-1.56-.65-1.61-.89-.75-2.32.37-.61.67-.58,1.22-.3a5.26,5.26,0,0,0,3.29.56c.68-.11,1.36-.31,1.54-1.08s-.3-1.16-.81-1.55-1.17-.84-1.72-1.29a3.91,3.91,0,0,1,.07-6.43,6.78,6.78,0,0,1,7.27-.42c.48.31,1.24.59.55,1.38-.48.54-.7,1.66-1.84.8a4,4,0,0,0-1.26-.55,1.85,1.85,0,0,0-2.38.86c-.49.93.17,1.54.8,2.09a6.34,6.34,0,0,0,.63.44c2,1.35,2.63,2.64,2.23,4.47a4.59,4.59,0,0,1-4.12,3.79C49.2,104.45,48.63,104.44,48.07,104.48Z"/><path class="cls-62" d="M43.51,90.55c1.91,0,1.91,0,1.34,1.77l-3.4,10.53a3,3,0,0,1-3.69,1.4c-.4-.24-.19-.52-.11-.79,1.3-4,2.64-8.08,3.91-12.14C41.95,90.1,42.89,90.73,43.51,90.55Z"/><path class="cls-64" d="M145.81,92.1q0-.85,0-1.7c0-2.82,0-2.82,2.87-2.59a4.2,4.2,0,0,1,4.18,4.26,4.28,4.28,0,0,1-4.32,4.29c-2.72.13-2.72.13-2.72-2.57Q145.81,92.94,145.81,92.1Z"/><path class="cls-65" d="M199.25,96.24c-2.89.71-2.87-2-4.46-3.2,0,.87,0,1.59,0,2.31s-.09,1.06-.9,1-.84-.34-.84-1c0-2.26,0-4.51,0-6.77,0-.54.11-.91.75-.88.92,0,1.85,0,2.76.13a2.17,2.17,0,0,1,2,1.89,2.21,2.21,0,0,1-1,2.55c-.83.43-.72.74-.23,1.33C198,94.46,198.55,95.31,199.25,96.24Z"/><path class="cls-66" d="M187.23,92.19c0-1.08.06-2.16,0-3.23s.34-1.25,1.25-1.18,1.85,0,2.77,0c.6,0,.81.25.8.83s-.36.65-.81.65-.93,0-1.38,0c-.66-.05-.91.19-.91.87s.12,1.12.92,1a1.13,1.13,0,0,1,.46,0c.57.17,1.63-.52,1.57.78s-1.06.65-1.65.69c-.79,0-1.31,0-1.33,1.11s.53,1.25,1.39,1.18c.36,0,.72,0,1.08,0,.56,0,.66.33.66.8s-.14.69-.61.69c-1.18,0-2.36,0-3.54,0-.72,0-.65-.5-.65-1C187.23,94.34,187.23,93.26,187.23,92.19Z"/><path class="cls-65" d="M159.09,87.68a3.18,3.18,0,0,1,1.76.46c.29.17.73.34.41.8s-.42.93-1,.47a1.43,1.43,0,0,0-1.15-.29,1.06,1.06,0,0,0-.94.69c-.15.49.19.78.57,1s.94.42,1.41.61a2.39,2.39,0,0,1,1.69,2.76,2.64,2.64,0,0,1-2.28,2.37,3.34,3.34,0,0,1-3.32-1.16c-.35-.39-.1-.64.16-.9s.57-.64,1-.11a1.69,1.69,0,0,0,1.19.64,1.21,1.21,0,0,0,1.46-.83,1,1,0,0,0-.73-1.34c-.42-.19-.86-.34-1.28-.52a2.22,2.22,0,0,1-1.61-2.62A2.54,2.54,0,0,1,159.09,87.68Z"/><path class="cls-67" d="M182.4,93.47c.68-1.69,1.31-3,1.76-4.43.39-1.18,1-1.52,2.29-1.08L183.07,96a.77.77,0,0,1-.65.57c-.46,0-.62-.29-.76-.62l-3.06-7.38c-.14-.33-.36-.74.26-.78s1.22-.22,1.53.61C181,90,181.64,91.56,182.4,93.47Z"/><path class="cls-65" d="M168.84,94.32c.15,1.87-.1,2.16-1.81,2.25a4.48,4.48,0,1,1,.06-8.95c1.69.08,2,.42,1.7,2.18-2-.91-3.18-.78-4.13.45a3.07,3.07,0,0,0,0,3.72C165.63,95.12,167,95.26,168.84,94.32Z"/><path class="cls-68" d="M178.69,92.07c0,2.72-2,4.4-4.73,4.58a4.51,4.51,0,1,1,4.73-4.58Z"/><path class="cls-69" d="M153.58,92.07c0-1.12,0-2.25,0-3.37,0-.63.17-.93.86-.93s.9.23.89.9c0,2.3,0,4.6,0,6.9,0,.71-.32.84-.93.84s-.83-.21-.82-.8C153.6,94.42,153.58,93.24,153.58,92.07Z"/><path class="cls-70" d="M172.44,98.69l.63,1.41c.67-.32.34-1.28,1.21-1.44a9.45,9.45,0,0,1-.93,3c-.7-.37-.56-1.08-1-1.47-.65.22-.37,1.13-1.15,1.46l-1.08-3c1,.16.69,1.11,1.28,1.41C171.9,99.77,171.73,99,172.44,98.69Z"/><path class="cls-71" d="M177,98.53c1,.18,1.61.7,1.54,1.74a1.59,1.59,0,0,1-3.17-.09C175.34,99.14,176,98.66,177,98.53Z"/><path class="cls-72" d="M181.42,101.47c-.53.39-.88-.84-1.4,0-.12.2-.34-.22-.34-.46,0-.51,0-1,0-1.53s.06-1.08.82-.91,1.16.63.77,1.18C180.75,100.49,181.25,101,181.42,101.47Z"/><path class="cls-73" d="M166.35,101.59c-.67,0-1.4.42-1.58-.3a4.58,4.58,0,0,1,0-2.39c.19-.6.91-.34,1.46-.2-.1.68-.77.22-.89.54-.57.46,2.24.49,0,1.3C164.7,100.81,166.05,101,166.35,101.59Z"/><path class="cls-74" d="M184.81,101.49c-.85.32-1.28-1.54-2,.51V98.44c.7,1.88,1.18,0,2,.31C183.52,99.69,183.75,100.61,184.81,101.49Z"/><path class="cls-75" d="M168.51,101.67c-.81-.85,0-1.92-.73-2.76-.22-.26.83-.16,1.76-.43C168.27,99.49,168.86,100.62,168.51,101.67Z"/><path class="cls-76" d="M162.44,100.35c.89-.23,0-1.28.95-1.67,0,.71,0,1.33,0,1.94,0,.32.21.82-.26.9s-.56-.37-.73-.69A.35.35,0,0,1,162.44,100.35Z"/><path class="cls-77" d="M161.26,99.83c-.13.57.09,1.21-.34,2a4.87,4.87,0,0,1-.26-3s.06-.07.09-.07a.45.45,0,0,1,.14.05A2.54,2.54,0,0,1,161.26,99.83Z"/><path class="cls-78" d="M200.09,88.55c0,.4-.14.66-.52.68a.59.59,0,0,1-.69-.63.55.55,0,0,1,.52-.63A.58.58,0,0,1,200.09,88.55Z"/><path class="cls-79" d="M161.26,99.83c-.45-.23-.41-.63-.37-1a4.86,4.86,0,0,1,1.55,1.55l-.06.48Z"/><path class="cls-80" d="M61.62,95.28c.08,1.06.13,2.12.26,3.18.09.74-.29.91-.89.85s-1.25.31-1.57-.21.31-.91.53-1.35c.42-.87.89-1.71,1.34-2.56Z"/><path class="cls-81" d="M147.51,92q0-.54,0-1.07c0-1.7.68-2.1,2.2-1.27a2.88,2.88,0,0,1,.68,4.37,2.37,2.37,0,0,1-2.5.8c-.78-.26-.26-1.16-.36-1.76A6.45,6.45,0,0,1,147.51,92Z"/><path class="cls-82" d="M194.76,90.4c.11-.5-.29-1.25.69-1.21.81,0,1.39.39,1.39,1.26s-.62,1.25-1.41,1.26C194.33,91.74,195,90.84,194.76,90.4Z"/><path class="cls-83" d="M174,95.76c-2.24,0-3.53-1.41-3.53-3.83,0-2.2,1.45-3.56,3.82-3.58a3.59,3.59,0,0,1,3.6,3.56C177.87,94.37,176.47,95.76,174,95.76Z"/><path class="cls-84" d="M177.93,100.12a1,1,0,0,1-.93,1.06.94.94,0,0,1-1-1,.91.91,0,0,1,.91-1A1,1,0,0,1,177.93,100.12Z"/><path class="cls-85" d="M173.87,95.14a2.82,2.82,0,0,1-2.8-3,3.3,3.3,0,0,1,3.1-3.2,3.46,3.46,0,0,1,3.07,3.44C177.2,93.77,175.51,95.14,173.87,95.14Z"/><path class="cls-86" d="M174.2,89.88a2.51,2.51,0,0,1,2.38,2.28,3.19,3.19,0,0,1-2.53,2.31A2.92,2.92,0,0,1,171.7,92,2.39,2.39,0,0,1,174.2,89.88Z"/><path class="cls-87" d="M174.31,93.6c-1.08,0-1.72-.41-1.68-1.43,0-.85.29-1.67,1.39-1.64a1.54,1.54,0,0,1,1.62,1.5C175.68,92.88,175.28,93.62,174.31,93.6Z"/><path class="cls-32" d="M211.3,91.91c.48.72,1.1,1.31.7,2.08-.18.34-1,.33-1.25,0C210.22,93.26,210.92,92.68,211.3,91.91Z"/></g></g><g id="Capa_1" data-name="Capa 1"><path class="cls-32" d="M81.17,49.8l.27,0h1.4c.18,0,.23.12.34.24.26.27,0,.69.38.91,0,0,0,.16,0,.25s0,.45.2.6c0,0,0,.15,0,.22s.11.22.15.34,0,.17.06.24.13.28.17.42,0,.28.08.42.12.28.17.42.05.3.09.45a.48.48,0,0,0,.09.13s.1-.08.11-.13c.1-.35.08-.79.3-1s0-.78.39-1c0,0,0,0,0,0,.09-.34.17-.68.27-1s.15-.43.23-.64.16-.48.26-.72c0,0,.12-.05.18-.05h1.51c.24,0,.33.09.35.34a2.2,2.2,0,0,0,.21,1c.16.26.07.61.23.75.33.28,0,.75.39,1,0,0,0,.11,0,.17s.13.26.17.39a2.89,2.89,0,0,1,.07.45c0,.16,0,.31.25.31s.21-.17.24-.32-.05-.41.19-.54c0,0,0-.17.05-.25a3.23,3.23,0,0,1,.15-.31s0-.06.05-.1a2,2,0,0,1,.21-.74,5.13,5.13,0,0,0,.29-1.15s0-.07,0-.08c.26-.14.19-.4.2-.62s.1-.25.25-.25h1.66c.05,0,.15.06.15.09a2.38,2.38,0,0,1-.08.47c0,.06-.11.11-.13.17a1.61,1.61,0,0,1-.2.59,3.36,3.36,0,0,0-.3,1,1.55,1.55,0,0,1-.06.18l-.16.37-.15.31s0,0-.05.07c-.09.3-.16.6-.27.9s-.23.51-.35.76c0,0,0,0-.05.07-.1.33-.19.66-.29,1a1.29,1.29,0,0,1-.11.21c0,.06-.11.14-.1.19.08.32-.25.47-.28.75,0,0-.13.07-.2.07-.46,0-.91,0-1.37,0-.08,0-.16-.11-.24-.17-.34-.31-.15-.8-.4-1.15,0-.07,0-.19,0-.28a2.28,2.28,0,0,0-.13-.29l-.08-.2c-.06-.14-.12-.28-.17-.42a1.6,1.6,0,0,1-.06-.25c0-.22,0-.47-.21-.63,0,0,0-.17,0-.25s-.12-.24-.15-.37,0-.28-.08-.42a.75.75,0,0,0-.12-.19,1.53,1.53,0,0,0-.11.17c-.14.3-.28.6-.42.91,0,.07,0,.15,0,.22s-.12.28-.17.42a2,2,0,0,0-.06.28c0,.21.06.46-.2.59v0a3.66,3.66,0,0,1-.27.92c-.19.31-.1.75-.44,1a.51.51,0,0,1-.24.1c-.33,0-.66,0-1,0s-.56-.15-.65-.56a3.5,3.5,0,0,0-.34-.73s0,0-.06-.06a5.27,5.27,0,0,0-.28-.89c-.16-.31,0-.7-.35-1,0,0,0-.15,0-.22s0-.35-.18-.45c0,0,0-.12-.05-.19s-.12-.26-.18-.39a1,1,0,0,1-.05-.19c0-.17,0-.38-.2-.47l0,0c-.09-.31-.17-.62-.27-.92a2.63,2.63,0,0,0-.14-.29,1.87,1.87,0,0,1-.08-.2Z"/><path class="cls-32" d="M131.77,56.46c.06.42-.13.47-.41.46-.45,0-.89,0-1.34,0-.25,0-.31-.09-.31-.32,0-.95,0-1.9,0-2.85q0-3.39,0-6.78v-.37h2.06V50l.43-.16.18-.07c.07,0,.17,0,.19,0,.3-.48.77-.18,1.15-.26a2.86,2.86,0,0,1,.69,0c.14,0,.3,0,.34.18,0,0,.07.07.11.08a4.34,4.34,0,0,1,.69.22,2.81,2.81,0,0,1,.58.45c.11.1.18.25.28.36s.29.57.47.77,0,.8.38,1.06c0,.47.18,1-.13,1.39a.25.25,0,0,0,0,.16,1.29,1.29,0,0,1-.28.94c-.22.29-.31.67-.65.88s-.45.43-.71.57a2,2,0,0,1-1,.37c-.45,0-.91,0-1.36,0a4,4,0,0,1-.88-.3Zm0-1.66c.33.2.59.5,1,.44,0,0,.08.07.11.11a.54.54,0,0,0,.72,0,.32.32,0,0,1,.21-.12c.63,0,.91-.46,1.14-.91a3.52,3.52,0,0,0,.21-.95,3.45,3.45,0,0,0-.21-1.23s-.06,0-.08-.08l-.37-.52s-.05-.09-.09-.1a3.91,3.91,0,0,0-.84-.22,2.28,2.28,0,0,0-1.35.16c-.13.07-.46.41-.46.56C131.77,52.91,131.78,53.86,131.78,54.8Z"/><path class="cls-32" d="M121.62,50V46.6h2.06v.32q0,4.78,0,9.57c0,.43,0,.43-.43.43s-.81,0-1.22,0-.47,0-.4-.39c-.36-.08-.59.18-.87.27-.08,0-.16.11-.24.11a8.18,8.18,0,0,1-1.88,0,1.76,1.76,0,0,1-1.21-.73,3.55,3.55,0,0,0-.74-.69s-.06,0-.07-.05c-.1-.27-.2-.55-.28-.83s0-.39-.19-.51c0,0,0-.07,0-.11a3.16,3.16,0,0,1,0-1.29c.17-.35,0-.77.36-1.06a1.66,1.66,0,0,0,.24-.5,2.88,2.88,0,0,1,.82-.92,1.75,1.75,0,0,1,.94-.42s.1,0,.1,0c.08-.32.34-.22.55-.22s.7,0,1,0,.41,0,.6.21S121.3,49.93,121.62,50Zm0,3.29c0-.33,0-.66,0-1s0-.47-.2-.72a1.38,1.38,0,0,0-.78-.39,4.23,4.23,0,0,0-.75,0,1.22,1.22,0,0,0-1.07.46c-.22.28-.47.52-.44.91,0,.06-.06.13-.11.18a1.49,1.49,0,0,0,0,1,1.15,1.15,0,0,1,.12.27c.1.24.13.56.31.72a1.1,1.1,0,0,0,.84.44.33.33,0,0,1,.24.11.49.49,0,0,0,.74,0s.08-.08.11-.08c.35,0,.57-.2.84-.34a.23.23,0,0,0,.16-.25Q121.63,54,121.63,53.33Z"/><path class="cls-32" d="M66.13,53.31c0,.57,0,1.1,0,1.63s0,1,0,1.51a.47.47,0,0,1-.46.46c-.45,0-.89,0-1.34,0-.19,0-.26-.07-.26-.25s0-.15,0-.23q0-4.55,0-9.1c0-.1,0-.19,0-.31l.24,0h4.22a1.28,1.28,0,0,1,.39.15l.16,0c.29.07.59.12.87.21a1,1,0,0,1,.31.25c.26.25.52.5.78.76a1.08,1.08,0,0,1,.16.26s0,.12,0,.14c.29.16.17.46.23.69a4.91,4.91,0,0,1,.19.72c0,.13-.09.27-.13.41s-.05.09,0,.13c.07.37-.22.64-.28,1,0,.08-.13.14-.2.21a11.76,11.76,0,0,1-.87.79,2,2,0,0,1-1.07.35,1.88,1.88,0,0,0-.41.15.9.9,0,0,1-.28.05Zm0-3.16h0c0,.44,0,.87,0,1.31s0,.41.4.41a8.08,8.08,0,0,0,.81,0c.4,0,.79-.11,1.18-.18,0,0,.09-.08.13-.13s.06-.11.11-.15c.31-.23.66-.42.62-.89a.27.27,0,0,1,.09-.17.26.26,0,0,0,0-.42.25.25,0,0,1-.08-.17.59.59,0,0,0-.25-.58c-.25-.18-.43-.47-.79-.48-.05,0-.11-.06-.16-.09s-.19-.16-.29-.16c-.5,0-1,0-1.51,0-.17,0-.25.06-.24.23C66.14,49.17,66.14,49.66,66.14,50.16Z"/><path class="cls-32" d="M76.5,56.92a8.54,8.54,0,0,1-1.07,0,3.09,3.09,0,0,1-.75-.26,2.19,2.19,0,0,1-.53-.27c-.24-.19-.45-.42-.67-.63-.06-.06-.14-.11-.2-.18a4.05,4.05,0,0,1-.51-1c-.39-.75-.13-1.52-.17-2.28,0-.19.16-.4.26-.6s.25-.41.38-.61a1.84,1.84,0,0,1,1-.92,4.85,4.85,0,0,0,.57-.26l.36-.13c.05,0,.15,0,.15-.06.07-.27.29-.21.47-.21.52,0,1,0,1.57,0,.09,0,.18.09.27.14s.08.09.13.1c.28.08.56.13.84.22a.79.79,0,0,1,.3.21c.18.18.48.16.63.43s.47.62.69,1,0,.76.37,1c.1.09,0,.35,0,.53s.12.67-.18,1c0,0,0,.17,0,.25a1.26,1.26,0,0,1-.4.87,5.73,5.73,0,0,0-.32.54,1.72,1.72,0,0,1-.2.21,4.51,4.51,0,0,1-1,.69c-.07,0-.17,0-.25.05l-.4.16a.56.56,0,0,1-.19,0Zm-1.88-3.6a4.79,4.79,0,0,0,0,.64,1.38,1.38,0,0,0,.2.38,4,4,0,0,0,.31.52c.24.3.73.24.95.6,0,0,.06,0,.08,0a1.64,1.64,0,0,0,1.4-.36,1.45,1.45,0,0,0,.56-.61,4.64,4.64,0,0,0,.37-1.1,2,2,0,0,0-.15-.77,2.45,2.45,0,0,0-.49-1,1,1,0,0,0-.74-.44.36.36,0,0,1-.17-.09.61.61,0,0,0-.71,0,.69.69,0,0,1-.2.09,5,5,0,0,0-.6.21c-.08,0-.1.23-.18.25-.51.16-.39.69-.62,1C74.57,52.84,74.63,53.09,74.62,53.32Z"/><path class="cls-32" d="M109.93,53.78a.89.89,0,0,0,.22.83c.2.28.36.6.78.6.24.47.69.25,1,.28a10.3,10.3,0,0,0,1.16,0c.06,0,.15,0,.16,0,.07-.29.31-.19.49-.24s.43-.14.67-.23c0,.13,0,.18,0,.24,0,.42,0,.85,0,1.29a5,5,0,0,0-.95.23,6.51,6.51,0,0,1-2.71.19c-.1,0-.21-.09-.32-.13l-.18-.07a6.23,6.23,0,0,1-1-.41,2.33,2.33,0,0,1-.54-.61c-.23-.29-.45-.6-.66-.9,0-.06,0-.15,0-.22s0-.37-.18-.49c0,0,0-.16,0-.24,0-.36,0-.72,0-1.08,0-.19-.07-.42.17-.54,0,0,0-.05,0-.08a3.15,3.15,0,0,1,.28-.82,3.36,3.36,0,0,1,1-1.06c.34-.19.65-.57,1.13-.5,0,0,.1,0,.1,0,.1-.32.36-.22.58-.22q.67,0,1.34,0c.08,0,.16.09.24.13s.15.12.23.12a1,1,0,0,1,.74.35,1.68,1.68,0,0,0,.48.27s.12.06.13.1c0,.28.26.39.42.55a.92.92,0,0,1,.26.47,6.38,6.38,0,0,1,.26,2.13.22.22,0,0,1-.15.13,1.25,1.25,0,0,1-.29,0h-4.81Zm3.19-1.26a1.39,1.39,0,0,0-1-1.46,1.53,1.53,0,0,0-1.74.36,1.33,1.33,0,0,0-.49,1.1Z"/><path class="cls-32" d="M95.81,53.78A1.27,1.27,0,0,0,96.45,55a4.5,4.5,0,0,0,.42.19s.07,0,.07,0c.09.35.38.24.59.25.47,0,.95,0,1.42,0,.14,0,.28,0,.31-.19a.09.09,0,0,1,.05-.06l.88-.22c.14,0,.21,0,.21.19,0,.37,0,.74,0,1.11a.26.26,0,0,1-.15.19,6.56,6.56,0,0,0-.84.22,6.66,6.66,0,0,1-2.65.2c-.37,0-.63-.24-.95-.34a1.3,1.3,0,0,1-.44-.16,8.77,8.77,0,0,1-1.09-1,3.07,3.07,0,0,1-.31-.78,4.92,4.92,0,0,1-.15-2.25,2.73,2.73,0,0,1,.32-1c.29-.6.85-.9,1.28-1.34A1.42,1.42,0,0,1,96,49.8c.2-.06.46,0,.55-.26,0,0,.12,0,.19,0,.53,0,1.07,0,1.6,0,.09,0,.18.1.26.15s.1.09.15.1a2.09,2.09,0,0,1,1.22.77,3.74,3.74,0,0,1,.62.77,2.41,2.41,0,0,1,.3,1.24c0,.13.09.27.13.41s.06.1,0,.13a4.27,4.27,0,0,1-.22.63s-.17.05-.26.05H95.81Zm0-1.25h3c.08,0,.21-.07.22-.12a.51.51,0,0,0-.07-.32c-.1-.17-.29-.3-.34-.48A.88.88,0,0,0,98,51a3.12,3.12,0,0,0-1.06,0,.23.23,0,0,0-.15.07c-.19.2-.58.2-.59.58h0A.7.7,0,0,0,95.84,52.53Z"/><path class="cls-32" d="M139.67,49.8c.38.33.32.77.57,1.1a2.7,2.7,0,0,1,.27.77,1.09,1.09,0,0,0,.11.22s.08,0,.08.07a1.51,1.51,0,0,0,.25.75,6.71,6.71,0,0,1,.43.93c0,.11,0,.25.07.37s.08.09.12.13a.82.82,0,0,0,.11-.12,1.61,1.61,0,0,0,.29-.77c0-.18.21-.35.33-.52s.05,0,.06-.06a3.63,3.63,0,0,1,.24-.78c.1-.34.28-.64.39-1,0-.07,0-.16,0-.23s.12-.24.17-.36a3.19,3.19,0,0,1,.09-.33c0-.09.13-.21.2-.21.57,0,1.14,0,1.72,0,.05,0,.15.07.15.1a2.46,2.46,0,0,1-.09.46c0,.05-.1.08-.12.14-.1.27-.16.55-.27.81s-.29.53-.41.81-.17.54-.28.8-.24.46-.36.69c0,0,0,0-.05.06-.09.27-.17.54-.28.8s-.28.5-.39.76-.15.5-.24.75-.19.49-.29.73-.12.24-.17.36l-.3.69a1.86,1.86,0,0,0-.15.31c0,.16,0,.35-.2.43,0,0,0,0,0,.08-.09.27-.16.55-.27.81a2.84,2.84,0,0,1-.29.45l0,.08c-.64,0-1.27,0-1.91,0-.15,0-.16-.11-.05-.22a.56.56,0,0,0,.15-.19c.09-.26.15-.53.26-.78a5.42,5.42,0,0,1,.37-.56,1.6,1.6,0,0,0,.06-.22c.05-.13.12-.26.18-.38l0,0c.1-.44.44-.84.25-1.32a7.27,7.27,0,0,0-.38-.74s0-.11-.05-.16L139.9,55s0,0,0-.07c-.09-.27-.16-.55-.27-.81s-.29-.54-.41-.81-.19-.53-.29-.79-.19-.41-.28-.62l-.16-.33-.17-.33a4.41,4.41,0,0,1-.22-.43c-.12-.32-.22-.64-.35-1Z"/><path class="cls-32" d="M102.54,49.8h2l0,.48.6-.36.27-.13s.12,0,.14,0c.21-.42.6-.19.91-.26a2.88,2.88,0,0,1,.55,0v1.72a6,6,0,0,0-.75,0,3.24,3.24,0,0,0-1,.21,2.91,2.91,0,0,0-.72.63c-.05.05,0,.18,0,.28q0,2.09,0,4.19c0,.38,0,.38-.38.38H103c-.42,0-.42,0-.43-.42q0-1.95,0-3.9C102.54,51.69,102.54,50.77,102.54,49.8Z"/></g><g id="Capa_3" data-name="Capa 3"><g id="Kyi5ia.tif"><path class="cls-32" d="M183.17,53.84c0-2.53,0-5.05,0-7.58,0-.83.27-1.25,1.12-1.12s1.89-.43,2.6.55c0,0,.29-.06.43-.12,2.89-1.34,5.39-.52,6.69,2.29a9.1,9.1,0,0,1,0,7.72A4.55,4.55,0,0,1,187.71,58c-.6-.32-.65,0-.64.46,0,.74,0,1.49,0,2.23A1.07,1.07,0,0,1,186,62a13.5,13.5,0,0,0-1.81.37c-.82.23-1-.13-1-.88C183.18,59,183.17,56.4,183.17,53.84Zm3.9-2.12h0c0,.55,0,1.1,0,1.65s-.05,1.27.69,1.54a2.06,2.06,0,0,0,2.11-.24c1.47-1.17,1.45-4.83,0-6a2,2,0,0,0-2.11-.17c-.7.27-.65.88-.65,1.47S187.07,51.15,187.07,51.73Z"/><path class="cls-32" d="M202.9,53.17h-2.72c-.28,0-.62,0-.76.29a.84.84,0,0,0,.21.81,2.53,2.53,0,0,0,2,1,7.25,7.25,0,0,0,3.24-.47c.69-.28.84,0,.86.62.08,2.23-.28,2.66-2.5,3a7.46,7.46,0,0,1-5.16-.79,4.88,4.88,0,0,1-2.2-2.75,8.42,8.42,0,0,1,.65-7.48A5.16,5.16,0,0,1,202.07,45c2.18.35,3.35,1.83,4,3.79a10,10,0,0,1,.45,3.45c0,.72-.33,1-1,1-.87,0-1.75,0-2.62,0Zm-2-2.94a3.74,3.74,0,0,0,.58,0c.44-.07,1.08.24,1.22-.42a1.41,1.41,0,0,0-.75-1.46,1.77,1.77,0,0,0-2.45.56c-.19.33-.44.7-.25,1.08s.63.21,1,.24S200.7,50.23,200.93,50.23Z"/><path class="cls-32" d="M158,44.9a10.55,10.55,0,0,1,2.78.38,1,1,0,0,1,.79,1c0,.65,0,1.3,0,1.94s-.26.78-.84.53a6.76,6.76,0,0,0-3-.52c-.39,0-.84,0-.94.5s.25.79.65,1c.95.41,1.93.76,2.87,1.19a3.41,3.41,0,0,1,2,3.26,3.78,3.78,0,0,1-1.9,3.49,6.22,6.22,0,0,1-3.25.86A10,10,0,0,1,153.7,58c-.35-.13-.68-.27-.69-.71,0-.84,0-1.68,0-2.53,0-.58.36-.51.74-.35a10.13,10.13,0,0,0,2.89.81,2.31,2.31,0,0,0,1,0c.39-.12.75-.27.8-.73s-.26-.71-.62-.89c-1-.53-2.19-.79-3.2-1.38-2.72-1.6-2-5.28.12-6.46A6.11,6.11,0,0,1,158,44.9Z"/><path class="cls-32" d="M163,49c0-1.81,0-3.63,0-5.44a1,1,0,0,1,.92-1.13c.73-.13,1.46-.29,2.19-.45.5-.11.74.09.76.59,0,.1,0,.19,0,.29.06.67-.25,1.46.17,2s1.22.16,1.85.26c.1,0,.22,0,.28,0,.91.7.3,1.67.43,2.51.09.52-.25.72-.76.77-2,.2-2,.21-2,2.21,0,.94,0,1.88,0,2.82,0,1.26.41,1.68,1.65,1.57.85-.08,1.14.12,1.12,1,0,2.12-.55,2.64-2.7,2.49A3.94,3.94,0,0,1,163,54.48c0-1.81,0-3.63,0-5.44Z"/><path class="cls-32" d="M170.68,51.69c0-1.84,0-3.69,0-5.53,0-.75.27-1.13,1-1s1.82-.47,2.48.55c.13.2.35,0,.49-.14a2.36,2.36,0,0,1,.93-.5c1.3-.36,1.74,0,1.75,1.29a5.75,5.75,0,0,0,0,.68c.13,1,0,1.6-1.31,1.55s-1.58.64-1.59,1.84c0,2.23,0,4.46,0,6.69,0,.85-.28,1.14-1.12,1.12-3.12-.08-2.61.4-2.65-2.58C170.66,54.34,170.68,53,170.68,51.69Z"/><path class="cls-32" d="M182,51.69c0,1.82,0,3.63,0,5.45,0,.85-.31,1.17-1.14,1.11-.64,0-1.3,0-1.94,0s-.83-.23-.83-.81q0-5.74,0-11.47c0-.58.27-.82.83-.81s1.3,0,1.94,0c.84-.06,1.16.26,1.14,1.11C182,48.06,182,49.88,182,51.69Z"/><path class="cls-32" d="M182,41.79c0,1.48,0,1.49-1.47,1.82l-1.23.26c-1.14.22-1.21.17-1.2-1,0-2-.24-1.84,1.76-2.25l.47-.11C182,40.1,182,40.11,182,41.79Z"/></g></g></svg>