<svg xmlns="http://www.w3.org/2000/svg" viewBox="0 0 303.51 303.51"><defs><style>.cls-1{fill:#666;}.cls-2{fill:#fff;}</style></defs><title>transmission_2</title><g id="Capa_2" data-name="Capa 2"><g id="Capa_1-2" data-name="Capa 1"><g id="_2XNUoz.tif" data-name="2XNUoz.tif"><path class="cls-1" d="M151.7,0c82.94,0,151.74,67.85,151.8,149.83.07,86.37-67.17,153.69-153.47,153.67-82,0-150-68.65-150-151.59A151.79,151.79,0,0,1,151.7,0Zm.16,34.68c-64.28.68-116.35,50.95-117,115.94a116.29,116.29,0,0,0,116.26,118c64.71.36,117.08-50.77,117.51-116.27C269.06,87.73,217.68,35.61,151.87,34.68Z"/><path class="cls-2" d="M151.89,7.1c81.34,1.15,144.84,65.55,144.31,145.44C295.68,233.49,231,296.67,151,296.23,70.15,295.79,6.5,230.77,7.3,150.38S72.45,7.93,151.89,7.1Zm-11.3,129.85H100.7c-.14-1.73-.3-2.86-.3-4,0-13.85-.12-27.71,0-41.56,0-4-1.24-5.51-5.32-5.28-5.18.3-10.38.06-15.58.07-7.64,0-7.68,0-7.69,7.45q-.06,39.53-.07,79.07c0,13.08-.06,26.17.19,39.24,0,1.8,1.64,5.07,2.64,5.12,8.35.42,16.73.24,25.93.24V166.56h40.3v50.83c7.41,0,14.16-.38,20.84.11,5.72.42,7.7-1.18,7.47-7.22-.49-12.87-.27-25.78,0-38.66,0-1.82,1.67-5.15,2.67-5.19,10.28-.38,20.57-.24,31.34-.24,0,3,0,5,0,7.14,0,12.51.2,25-.1,37.51-.11,4.85,1,7.09,6.34,6.65a120.29,120.29,0,0,1,16.73-.06c4.38.25,5.69-1.39,5.62-5.62-.2-11.73,0-23.47,0-35.21,0-28.09-.11-56.18,0-84.27,0-4.65-1.21-6.63-6.16-6.29a142.59,142.59,0,0,1-17.3,0c-4.17-.22-5.27,1.39-5.21,5.33.19,12.5.07,25,.07,37.52,0,2.62,0,5.23,0,8.37-9.92,0-18.94-.24-27.93.1-4.76.18-6.4-1.3-6.3-6.14.27-12.88.12-25.78.08-38.67,0-2-.28-4-.42-6h-28Z"/><path class="cls-1" d="M141.61,131.72v-68H167c.13,2.61.38,5.34.38,8.08,0,17.41.18,34.82-.07,52.23-.09,6.54,1.4,8.54,5.73,8.29,8.18-.45,16.38-.13,25.39-.13,0-4.23,0-7.77,0-11.3,0-16.89.11-33.78-.06-50.67-.05-5.31.95-7.5,4.74-7.19A87.35,87.35,0,0,0,218.87,63c4.5-.46,5.62,2.21,5.6,8.49-.14,37.94,0,75.87,0,113.81,0,15.85-.15,31.7,0,47.55.06,5.71-1.13,7.93-5.11,7.59a73.71,73.71,0,0,0-15.2.08c-4.86.59-5.87-2.43-5.76-9,.26-16.88.09-33.78.09-50.67,0-2.82,0-5.65,0-9.64-9.79,0-19.15-.2-28.49.32-.9.05-2.4,4.54-2.42,7-.21,17.4-.41,34.83,0,52.22.21,8.16-1.59,10.32-6.79,9.76-6.08-.66-12.21-.15-18.95-.15V171.72H105.21v68.55c-8.36,0-16,.24-23.57-.32-.91-.07-2.37-4.48-2.4-6.92-.23-17.66-.17-35.34-.17-53q0-53.4.07-106.8c0-10,0-10,7-10.06,4.72,0,9.46.3,14.16-.1,3.71-.31,4.88,1.77,4.83,7.13-.15,18.71-.06,37.42,0,56.13,0,1.53.15,3.05.27,5.39Z"/></g></g></g></svg>