<?xml version="1.0" encoding="utf-8"?>
<!-- Generator: Adobe Illustrator 21.1.0, SVG Export Plug-In . SVG Version: 6.00 Build 0)  -->
<svg version="1.1" id="Capa_1" xmlns="http://www.w3.org/2000/svg" xmlns:xlink="http://www.w3.org/1999/xlink" x="0px" y="0px"
	 viewBox="0 0 303.5 303.5" style="enable-background:new 0 0 303.5 303.5;" xml:space="preserve">
<style type="text/css">
	.st0{fill:#666666;}
	.st1{fill:#D2D2D2;}
	.st2{fill:#FFFFFF;}
</style>
<title>transmission_2</title>
<g id="Capa_2">
	<g id="Capa_1-2">
		<g id="_2XNUoz.tif">
			<path class="st0" d="M151.7,0c82.9,0,151.7,67.8,151.8,149.8c0.1,86.4-67.2,153.7-153.5,153.7c-82,0-150-68.6-150-151.6
				C0,68.1,67.9,0.1,151.7,0C151.7,0,151.7,0,151.7,0z M151.9,34.7c-64.3,0.7-116.3,51-117,115.9c-0.9,64.2,50.3,117,114.6,118
				c0.6,0,1.1,0,1.7,0c64.7,0.4,117.1-50.8,117.5-116.3C269.1,87.7,217.7,35.6,151.9,34.7L151.9,34.7z"/>
			<path class="st1" d="M151.9,7.1c81.3,1.1,144.8,65.6,144.3,145.4C295.7,233.5,231,296.7,151,296.2
				C70.2,295.8,6.5,230.8,7.3,150.4S72.4,7.9,151.9,7.1z"/>
			<path class="st2" d="M141.6,131.7v-68H167c0.1,2.6,0.4,5.3,0.4,8.1c0,17.4,0.2,34.8-0.1,52.2c-0.1,6.5,1.4,8.5,5.7,8.3
				c8.2-0.4,16.4-0.1,25.4-0.1c0-4.2,0-7.8,0-11.3c0-16.9,0.1-33.8-0.1-50.7c-0.1-5.3,0.9-7.5,4.7-7.2c5.2,0.5,10.5,0.5,15.8,0
				c4.5-0.5,5.6,2.2,5.6,8.5c-0.1,37.9,0,75.9,0,113.8c0,15.9-0.1,31.7,0,47.6c0.1,5.7-1.1,7.9-5.1,7.6c-5.1-0.5-10.1-0.5-15.2,0.1
				c-4.9,0.6-5.9-2.4-5.8-9c0.3-16.9,0.1-33.8,0.1-50.7c0-2.8,0-5.6,0-9.6c-9.8,0-19.1-0.2-28.5,0.3c-0.9,0.1-2.4,4.5-2.4,7
				c-0.2,17.4-0.4,34.8,0,52.2c0.2,8.2-1.6,10.3-6.8,9.8c-6.1-0.7-12.2-0.1-18.9-0.1v-68.6h-36.6v68.6c-8.4,0-16,0.2-23.6-0.3
				c-0.9-0.1-2.4-4.5-2.4-6.9c-0.2-17.7-0.2-35.3-0.2-53c0-35.6,0-71.2,0.1-106.8c0-10,0-10,7-10.1c4.7,0,9.5,0.3,14.2-0.1
				c3.7-0.3,4.9,1.8,4.8,7.1c-0.2,18.7-0.1,37.4,0,56.1c0,1.5,0.2,3.1,0.3,5.4H141.6z"/>
		</g>
	</g>
</g>
</svg>
