<svg xmlns="http://www.w3.org/2000/svg" xmlns:xlink="http://www.w3.org/1999/xlink" version="1.1" width="693.906" height="693.906" style="enable-background:new 0 0 693.906 693.906;" xml:space="preserve"><rect id="backgroundrect" width="100%" height="100%" x="0" y="0" fill="none" stroke="none"/>
















<g class="currentLayer" style=""><title>Layer 1</title><g id="svg_1" class="">
	<g id="svg_2">
		<path d="M575.436,36.386C502.558,12.24,426.525,0,349.46,0c-78.403,0-154.954,12.202-227.406,36.226    C75.82,50.779,40.953,97.287,40.953,144.398v253.039c0,35.196,18.542,92.024,52.961,128.081    c108.78,111.684,178.151,168.389,255.432,168.389c76.103,0,142.448-54.383,253.769-168.696    c32.719-34.112,49.838-90.222,49.838-128.026V144.398C652.953,96.818,619.584,50.374,575.436,36.386z M636.07,397.184    c0,33.584-15.823,85.769-45.098,116.293C483.07,624.286,419.389,677.023,349.347,677.023    c-54.667,0-109.637-26.021-243.277-163.227c-30.195-31.626-48.234-83.996-48.234-116.36V144.398    c0-39.396,30.436-79.838,69.409-92.108c70.857-23.497,145.618-35.408,222.215-35.408c75.26,0,149.501,11.953,220.771,35.564    c36.919,11.695,65.839,52.087,65.839,91.952V397.184z" fill="#FFFFFF" id="svg_3"/>
		<path d="M552.986,105.977c-66.168-21.935-134.763-33.061-203.881-33.061c-70.152,0-139.114,11.071-204.847,32.866    c-14.924,4.702-31.554,21.678-31.554,38.531V397.26c0,21.964,16.085,59.608,33.162,77.521    c87.837,90.137,152.654,146.002,204.34,146.002c49.476,0,108.957-51.442,201.462-146.407    c16.904-17.647,29.532-55.422,29.532-77.412V144.398C581.201,129.204,567.43,110.519,552.986,105.977z M564.318,396.964    c0,18.026-11.079,51.37-24.792,65.683c-87.141,89.462-146.053,141.258-189.319,141.258c-28.54,0-71.579-17.068-192.181-140.832    c-14.088-14.78-28.439-47.993-28.439-65.812V144.313c0-7.728,10.328-19.461,19.863-22.462    c64.138-21.268,131.314-32.052,199.655-32.052c67.308,0,134.117,10.834,198.693,32.246c7.563,2.376,16.52,14.494,16.52,22.353    V396.964z" fill="#FFFFFF" id="svg_4"/>
		<path d="M446.215,236.831c-8.015-6.571-18.132-10.188-28.48-10.188c-13.511,0-26.211,5.993-34.867,16.469l-60.487,73.795    l-6.947-7.293c-8.589-9.003-20.158-13.962-32.571-13.962c-11.59,0-22.614,4.41-31.043,12.417    c-8.716,8.293-13.679,19.483-13.975,31.507c-0.292,12.017,4.115,23.421,12.4,32.107l42.055,44.156    c8.462,8.872,20.339,13.958,32.584,13.958c0.734,0,1.401-0.013,1.865-0.047c12.793-0.506,24.801-6.495,32.943-16.427l92.8-113.165    C468.209,280.958,465.395,252.553,446.215,236.831z M439.429,289.459l-92.801,113.169c-5.086,6.205-12.578,9.944-20.728,10.273    c-0.321,0.017-0.654,0.021-1.026,0.021c-7.652,0-15.076-3.183-20.36-8.721l-42.055-44.152c-5.174-5.428-7.926-12.552-7.741-20.052    c0.182-7.509,3.284-14.507,8.729-19.681c5.276-5.014,12.164-7.774,19.411-7.774c7.753,0,14.983,3.098,20.352,8.728l13.536,14.194    c1.671,1.748,3.989,2.663,6.424,2.613c2.418-0.089,4.681-1.216,6.213-3.085l66.514-81.151    c5.415-6.555,13.371-10.311,21.829-10.311c6.458,0,12.771,2.258,17.782,6.365C447.494,259.711,449.25,277.464,439.429,289.459z" fill="#FFFFFF" id="svg_5"/>
	</g>
</g><g id="svg_6">
</g><g id="svg_7">
</g><g id="svg_8">
</g><g id="svg_9">
</g><g id="svg_10">
</g><g id="svg_11">
</g><g id="svg_12">
</g><g id="svg_13">
</g><g id="svg_14">
</g><g id="svg_15">
</g><g id="svg_16">
</g><g id="svg_17">
</g><g id="svg_18">
</g><g id="svg_19">
</g><g id="svg_20">
</g><rect fill="" stroke-dashoffset="" fill-rule="nonzero" id="svg_21" x="299" y="354" width="38" height="25" style="color: rgb(0, 0, 0);"/><path fill="#ffffff" fill-opacity="1" stroke="none" stroke-opacity="1" stroke-width="1" stroke-dasharray="none" stroke-linejoin="miter" stroke-linecap="butt" stroke-dashoffset="" fill-rule="nonzero" opacity="1" marker-start="" marker-mid="" marker-end="" id="svg_23" d="M 265.8441997408049 341.11892777659074 C 269.1409031584306 333.97607037173515 319.14090499241973 340.0200266373822 319.14090499241973 340.0200266373822 C 319.14090499241973 340.0200266373822 393.86618245860126 257.60244119674076 393.86618245860126 257.60244119674076 C 393.86618245860126 257.60244119674076 401.00903986345685 248.81123208307235 401.00903986345685 248.81123208307235 C 401.00903986345685 248.81123208307235 408.7013478379168 242.76727581742534 408.7013478379168 242.76727581742534 C 408.7013478379168 242.76727581742534 423.5365132172322 240.02002296940395 423.5365132172322 240.02002296940395 C 423.5365132172322 240.02002296940395 436.7233268877348 247.71233094386378 436.7233268877348 247.71233094386378 C 436.7233268877348 247.71233094386378 445.51453600140326 259.80024347515786 445.51453600140326 259.80024347515786 C 445.51453600140326 259.80024347515786 449.91014055823746 277.3826617024947 448.8112394190289 277.932112272099 C 447.7123382798203 278.4815628417033 443.86618429259045 292.7672776514145 443.31673372298616 292.7672776514145 C 442.76728315338187 292.7672776514145 424.6354143564407 258.70134233594933 424.6354143564407 258.70134233594933 C 424.6354143564407 258.70134233594933 447.7123382798203 287.2727719553717 447.7123382798203 287.2727719553717 C 447.7123382798203 287.2727719553717 428.4815683436707 310.3496958787513 428.4815683436707 310.3496958787513 C 428.4815683436707 310.3496958787513 385.62442391453715 362.5474999911576 385.62442391453715 362.5474999911576 C 385.62442391453715 362.5474999911576 354.8551920166977 394.41563302820555 354.8551920166977 394.41563302820555 C 354.8551920166977 394.41563302820555 337.2727737893608 415.8442052427723 337.2727737893608 415.8442052427723 C 337.2727737893608 415.8442052427723 313.09694872677267 415.8442052427723 313.09694872677267 415.8442052427723 C 313.09694872677267 415.8442052427723 286.1738708161631 394.41563302820555 286.1738708161631 394.41563302820555 C 286.1738708161631 394.41563302820555 264.1958480319921 369.14090682640887 264.1958480319921 369.14090682640887 C 264.1958480319921 369.14090682640887 255.95408948792794 359.25079657353183 255.95408948792794 359.25079657353183 C 255.95408948792794 359.25079657353183 249.91013322228093 339.4705760677779 249.36068265267664 338.92112549817364 C 248.81123208307235 338.37167492856935 257.0529906271365 316.39365214439835 257.0529906271365 316.39365214439835 C 257.0529906271365 316.39365214439835 273.5365077152648 309.2507947395427 273.5365077152648 309.2507947395427 C 273.5365077152648 309.2507947395427 291.6683765122059 307.05299246112565 291.6683765122059 307.05299246112565 C 291.6683765122059 307.05299246112565 303.2068384738957 311.4485970179599 303.2068384738957 311.4485970179599 C 303.2068384738957 311.4485970179599 309.800245309147 321.33870727083684 309.800245309147 321.33870727083684 C 309.800245309147 321.33870727083684 317.49255328360687 331.22881752371376 317.49255328360687 331.22881752371376 C 317.49255328360687 331.22881752371376 262.54749632317925 348.2617851814463 265.8441997408049 341.11892777659074 z" style="color: rgb(0, 0, 0);"/><path fill="#ffffff" fill-opacity="1" stroke="none" stroke-opacity="1" stroke-width="1" stroke-dasharray="none" stroke-linejoin="miter" stroke-linecap="butt" stroke-dashoffset="" fill-rule="nonzero" opacity="1" marker-start="" marker-mid="" marker-end="" id="svg_25" d="M 291.6683765122059 321.33870727083684 C 291.6683765122059 321.33870727083684 341.668378346195 327.93211410608814 341.668378346195 327.93211410608814 C 341.668378346195 327.93211410608814 329.58046581490095 361.44859885194904 329.58046581490095 361.44859885194904 C 329.58046581490095 361.44859885194904 281.7782662593289 344.9650817638207 281.7782662593289 344.9650817638207 C 281.7782662593289 344.9650817638207 291.6683765122059 321.33870727083684 291.6683765122059 321.33870727083684 z" style="color: rgb(0, 0, 0);"/><path fill="#ffffff" fill-opacity="1" stroke="none" stroke-opacity="1" stroke-width="1" stroke-dasharray="none" stroke-linejoin="miter" stroke-linecap="butt" stroke-dashoffset="" fill-rule="nonzero" opacity="1" marker-start="" marker-mid="" marker-end="" id="svg_27" d="M 375.1848630920559 266.3936503104092 C 375.1848630920559 266.3936503104092 405.9540949898953 237.27277012138256 405.9540949898953 237.27277012138256 C 405.9540949898953 237.27277012138256 429.031018913275 258.70134233594933 429.031018913275 258.70134233594933 C 429.031018913275 258.70134233594933 405.9540949898953 281.7782662593289 405.9540949898953 281.7782662593289 C 405.9540949898953 281.7782662593289 375.1848630920559 266.3936503104092 375.1848630920559 266.3936503104092 z" style="color: rgb(0, 0, 0);"/><path fill="#ffffff" fill-opacity="1" stroke="none" stroke-opacity="1" stroke-width="1" stroke-dasharray="none" stroke-linejoin="miter" stroke-linecap="butt" stroke-dashoffset="" fill-rule="nonzero" opacity="1" marker-start="" marker-mid="" marker-end="" id="svg_29" d="M 287.2727719553717 38.37166392463456 C 287.2727719553717 38.37166392463456 175.18485575609935 59.250785569597056 175.18485575609935 59.250785569597056 C 175.18485575609935 59.250785569597056 117.49254594765036 49.36067531672009 117.49254594765036 49.36067531672009 C 117.49254594765036 49.36067531672009 80.67935778416383 79.03100607535103 80.67935778416383 79.03100607535103 C 80.67935778416383 79.03100607535103 57.602433860784245 112.54749082121187 57.602433860784245 112.54749082121187 C 57.602433860784245 112.54749082121187 49.91012588632437 150.4595801239069 49.91012588632437 150.4595801239069 C 49.91012588632437 150.4595801239069 114.19584253002468 147.16287670628122 114.19584253002468 147.16287670628122 C 114.19584253002468 147.16287670628122 140.0200193014257 120.789249365276 140.0200193014257 120.789249365276 C 140.0200193014257 120.789249365276 185.62441657858056 102.10792999873058 185.62441657858056 102.10792999873058 C 185.62441657858056 102.10792999873058 240.5694735390082 91.11891860664512 241.11892410861248 90.56946803704082 C 241.66837467821676 90.02001746743652 311.4485970179599 82.32770949297667 311.4485970179599 82.32770949297667 C 311.4485970179599 82.32770949297667 365.8442034087832 80.12990721455957 365.8442034087832 80.12990721455957 C 365.8442034087832 80.12990721455957 425.184864926045 85.62441291060232 425.184864926045 85.62441291060232 C 425.184864926045 85.62441291060232 461.9980530895315 92.7672703154579 461.9980530895315 92.7672703154579 C 461.9980530895315 92.7672703154579 520.2398134675848 103.20683113793915 520.2398134675848 103.20683113793915 C 520.2398134675848 103.20683113793915 552.1079465046328 113.64639196042042 552.1079465046328 113.64639196042042 C 552.1079465046328 113.64639196042042 567.4925624535525 121.88815050448456 567.4925624535525 121.88815050448456 C 567.4925624535525 121.88815050448456 591.6683875161407 90.56946803704082 591.6683875161407 90.56946803704082 C 591.6683875161407 90.56946803704082 607.0530034650604 70.23979696168259 607.0530034650604 70.23979696168259 C 607.0530034650604 70.23979696168259 562.5475073271141 43.866169620677326 562.5475073271141 43.866169620677326 C 562.5475073271141 43.866169620677326 506.50354922747795 28.481553671757595 506.50354922747795 28.481553671757595 C 506.50354922747795 28.481553671757595 429.031018913275 15.84419057085924 429.031018913275 15.84419057085924 C 429.031018913275 15.84419057085924 378.48156650968156 13.096937722837865 377.93211594007727 13.096937722837865 C 377.382665370473 13.096937722837865 297.71233277785296 13.096937722837865 297.71233277785296 13.096937722837865 C 297.71233277785296 13.096937722837865 261.998045753575 19.140893988484905 261.998045753575 19.140893988484905 C 261.998045753575 19.140893988484905 218.59145075483718 22.437597406110555 218.59145075483718 22.437597406110555 C 218.59145075483718 22.437597406110555 187.27276828739343 29.03100424136187 187.27276828739343 29.03100424136187 C 187.27276828739343 29.03100424136187 154.8551846807411 36.723312215821736 154.8551846807411 36.723312215821736" style="color: rgb(0, 0, 0);"/><path fill="#ffffff" fill-opacity="1" stroke="none" stroke-opacity="1" stroke-width="1" stroke-dasharray="none" stroke-linejoin="miter" stroke-linecap="butt" stroke-dashoffset="" fill-rule="nonzero" opacity="1" marker-start="" marker-mid="" marker-end="" id="svg_31" d="M 123.53650221329737 60.349686708805606 C 123.53650221329737 60.349686708805606 209.80024164116878 72.43759924009969 209.80024164116878 72.43759924009969 C 209.80024164116878 72.43759924009969 296.6134316386444 43.866169620677326 296.6134316386444 43.866169620677326 C 296.6134316386444 43.866169620677326 310.3496958787513 30.679355950174692 309.800245309147 30.12990538057042 C 309.2507947395427 29.58045481096615 248.26178151346807 25.184850254131945 248.26178151346807 25.184850254131945 C 248.26178151346807 25.184850254131945 207.0529887931474 26.833201962944774 207.0529887931474 26.833201962944774 C 207.0529887931474 26.833201962944774 157.6024375287625 35.07496050700891 157.6024375287625 35.07496050700891 C 157.6024375287625 35.07496050700891 123.53650221329737 60.349686708805606 123.53650221329737 60.349686708805606 z" style="color: rgb(0, 0, 0);"/><path fill="#ffffff" fill-opacity="1" stroke="none" stroke-opacity="1" stroke-width="1" stroke-dasharray="none" stroke-linejoin="miter" stroke-linecap="butt" stroke-dashoffset="" fill-rule="nonzero" opacity="1" marker-start="" marker-mid="" marker-end="" id="svg_33" d="M 55.9540821519714 138.9211181622171 C 55.9540821519714 138.9211181622171 122.43760107408882 133.42661246617433 122.43760107408882 133.42661246617433 C 122.43760107408882 133.42661246617433 117.49254594765036 406.5035455594996 117.49254594765036 406.5035455594996 C 117.49254594765036 406.5035455594996 49.91012588632437 411.4486006859381 49.91012588632437 411.4486006859381 C 49.91012588632437 411.4486006859381 69.69034639207833 478.4815701776598 69.69034639207833 478.4815701776598 C 69.69034639207833 478.4815701776598 97.16287487229214 442.76728315338187 97.16287487229214 442.76728315338187 C 97.16287487229214 442.76728315338187 49.91012588632437 399.36068815464404 49.91012588632437 399.36068815464404 C 49.91012588632437 399.36068815464404 85.62441291060232 372.43761024403454 85.62441291060232 372.43761024403454 C 85.62441291060232 372.43761024403454 44.96507075988589 380.12991821849437 44.96507075988589 380.12991821849437 C 44.96507075988589 380.12991821849437 61.44858784801417 395.514534167414 61.44858784801417 396.06398473701836" style="color: rgb(0, 0, 0);"/><path fill="#ffffff" fill-opacity="1" stroke="none" stroke-opacity="1" stroke-width="1" stroke-dasharray="none" stroke-linejoin="miter" stroke-linecap="butt" stroke-dashoffset="" fill-rule="nonzero" opacity="1" marker-start="" marker-mid="" marker-end="" id="svg_35" d="M 51.00902702553294 235.62441841256975 C 51.00902702553294 235.62441841256975 111.44858968200332 240.5694735390082 111.44858968200332 240.5694735390082 C 111.44858968200332 240.5694735390082 115.29474366923324 405.4046444202911 115.29474366923324 405.4046444202911 C 115.29474366923324 405.4046444202911 114.74529309962897 470.78926220319994 114.74529309962897 470.78926220319994 C 114.74529309962897 470.78926220319994 79.03100607535103 484.52552644330683 79.03100607535103 484.52552644330683 C 79.03100607535103 484.52552644330683 51.00902702553294 412.54750182514675 51.00902702553294 412.54750182514675 C 51.00902702553294 412.54750182514675 51.00902702553294 235.62441841256975 51.00902702553294 235.62441841256975 z" style="color: rgb(0, 0, 0);"/><path fill="#ffffff" fill-opacity="1" stroke="none" stroke-opacity="1" stroke-width="1" stroke-dasharray="none" stroke-linejoin="miter" stroke-linecap="butt" stroke-dashoffset="" fill-rule="nonzero" opacity="1" marker-start="" marker-mid="" marker-end="" id="svg_37" d="M 62.547488987222735 431.77827176129637 C 62.547488987222735 431.77827176129637 116.94309537804607 410.89915011633383 116.94309537804607 410.89915011633383 C 116.94309537804607 410.89915011633383 163.09694322480527 485.0749770129112 163.09694322480527 485.0749770129112 C 163.09694322480527 485.0749770129112 225.18485759008848 540.569484542943 225.18485759008848 540.569484542943 C 225.18485759008848 540.569484542943 298.8112339170615 598.261794351392 298.8112339170615 598.261794351392 C 298.8112339170615 598.261794351392 340.5694772069865 611.9980585914989 340.5694772069865 611.9980585914989 C 340.5694772069865 611.9980585914989 321.8881578404411 680.129929222429 321.8881578404411 680.129929222429 C 321.8881578404411 680.129929222429 260.89914461436643 660.3497087166752 260.89914461436643 660.3497087166752 C 260.89914461436643 660.3497087166752 169.14089949045226 587.8222335289109 169.14089949045226 587.8222335289109 C 169.14089949045226 587.8222335289109 119.14089765646317 537.8222316949216 119.14089765646317 537.8222316949216 C 119.14089765646317 537.8222316949216 83.42661063218522 496.0639884049966 83.42661063218522 496.0639884049966 C 83.42661063218522 496.0639884049966 62.547488987222735 431.77827176129637 62.547488987222735 431.77827176129637 z" style="color: rgb(0, 0, 0);"/><path fill="#ffffff" fill-opacity="1" stroke="none" stroke-opacity="1" stroke-width="1" stroke-dasharray="none" stroke-linejoin="miter" stroke-linecap="butt" stroke-dashoffset="" fill-rule="nonzero" opacity="1" marker-start="" marker-mid="" marker-end="" id="svg_39" d="M 304.30573961310427 674.6354235263864 C 304.30573961310427 674.6354235263864 348.2617851814463 683.4266326400548 348.2617851814463 683.4266326400548 C 348.2617851814463 683.4266326400548 440.0200303053605 661.4486098558838 440.0200303053605 661.4486098558838 C 440.0200303053605 661.4486098558838 517.4925606195634 601.5584977690177 517.4925606195634 601.5584977690177 C 517.4925606195634 601.5584977690177 575.7343209976167 540.0200339733387 575.7343209976167 540.0200339733387 C 575.7343209976167 540.0200339733387 617.4925642875417 497.7123401138095 617.4925642875417 497.7123401138095 C 617.4925642875417 497.7123401138095 632.8771802364614 452.65739340625885 632.8771802364614 452.65739340625885 C 632.8771802364614 452.65739340625885 566.393661314344 436.72332688773486 566.393661314344 436.72332688773486 C 566.393661314344 436.72332688773486 369.14090682640887 613.6464103003118 369.14090682640887 613.6464103003118 C 369.14090682640887 613.6464103003118 343.8661806246121 614.7453114395203 343.8661806246121 614.7453114395203 C 343.8661806246121 614.7453114395203 304.30573961310427 674.6354235263864 304.30573961310427 674.6354235263864 z" style="color: rgb(0, 0, 0);"/><path fill="#ffffff" fill-opacity="1" stroke="none" stroke-opacity="1" stroke-width="1" stroke-dasharray="none" stroke-linejoin="miter" stroke-linecap="butt" stroke-dashoffset="" fill-rule="nonzero" opacity="1" marker-start="" marker-mid="" marker-end="" id="svg_41" d="M 568.0420130231569 430.6793706220878 C 568.0420130231569 430.6793706220878 596.6134426425792 461.9980530895316 596.6134426425792 461.9980530895316 C 596.6134426425792 461.9980530895316 633.4266308060656 456.5035473934887 633.4266308060656 456.5035473934887 C 633.4266308060656 456.5035473934887 640.5694882109212 424.6354143564407 640.5694882109212 424.6354143564407 C 640.5694882109212 424.6354143564407 643.866191628547 322.98705897964965 643.866191628547 322.98705897964965 C 643.866191628547 322.98705897964965 643.866191628547 232.87716556454836 643.866191628547 232.87716556454836 C 643.866191628547 232.87716556454836 643.866191628547 165.29474550322237 643.866191628547 165.29474550322237 C 643.866191628547 165.29474550322237 641.6683893501298 122.43760107408883 641.6683893501298 122.43760107408883 C 641.6683893501298 122.43760107408883 570.7892658711783 133.97606303577862 570.7892658711783 133.97606303577862 C 570.7892658711783 133.97606303577862 568.0420130231569 430.6793706220878 568.0420130231569 430.6793706220878 z" style="color: rgb(0, 0, 0);"/><path fill="#ffffff" fill-opacity="1" stroke="none" stroke-opacity="1" stroke-width="1" stroke-dasharray="none" stroke-linejoin="miter" stroke-linecap="butt" stroke-dashoffset="" fill-rule="nonzero" opacity="1" marker-start="" marker-mid="" marker-end="" id="svg_43" d="M 595.5145415033707 64.19584069603556 C 595.5145415033707 64.19584069603556 626.8332239708144 87.82221518901943 626.8332239708144 87.82221518901943 C 626.8332239708144 87.82221518901943 637.8222353628998 129.58045847894442 637.8222353628998 129.58045847894442 C 637.8222353628998 129.58045847894442 581.7782772632638 146.61342613667696 581.7782772632638 146.61342613667696 C 581.7782772632638 146.61342613667696 560.8991556183013 118.04199651725462 560.8991556183013 118.04199651725462 C 560.8991556183013 118.04199651725462 595.5145415033707 64.19584069603556 595.5145415033707 64.19584069603556 z" style="color: rgb(0, 0, 0);"/></g></svg>